<svg width="176" height="138" viewBox="0 0 176 138" fill="none" xmlns="http://www.w3.org/2000/svg"><rect x="0.757812" y="0.670898" width="174.585" height="136.394" rx="10.9115" fill="#222222"></rect> <path d="M75.8808 85.0099L75.8924 84.9984C71.759 80.8303 69.2131 75.0921 69.2362 68.7824C69.2593 62.4611 71.8513 56.7401 76.0194 52.6125L76.0078 52.601C79.535 49.0969 79.5581 43.399 76.054 39.8718C72.5499 36.3446 66.852 36.3215 63.319 39.8256C55.8836 47.2034 51.2653 57.4156 51.2249 68.7188C51.1845 80.0164 55.7219 90.2632 63.1054 97.6929C66.6096 101.22 72.3074 101.243 75.8404 97.7391C79.3619 94.2465 79.385 88.5429 75.8808 85.0099Z" fill="white"></path> <path d="M76.0031 52.606L76.0146 52.6176C80.1826 48.4842 85.9209 45.9384 92.2306 45.9614C98.5519 45.9845 104.273 48.5766 108.4 52.7446L108.412 52.733C111.916 56.2603 117.614 56.2833 121.141 52.7792C124.668 49.2751 124.691 43.5772 121.187 40.0442C113.81 32.6088 103.597 27.9905 92.2941 27.9501C80.9966 27.9097 70.7498 32.4472 63.3201 39.8307C59.7928 43.3348 59.7698 49.0326 63.2739 52.5656C66.7722 56.0928 72.4701 56.1102 76.0031 52.606Z" fill="white"></path> <path d="M108.29 85.1291L108.279 85.1176C104.111 89.251 98.3724 91.7968 92.0627 91.7737C85.7414 91.7506 80.0204 89.1586 75.8928 84.9906L75.8813 85.0021C72.3772 81.4749 66.6793 81.4518 63.1521 84.9559C59.6249 88.4601 59.6018 94.1579 63.1059 97.6909C70.4837 105.126 80.6959 109.745 91.9992 109.785C103.297 109.825 113.544 105.288 120.973 97.9045C124.5 94.4004 124.524 88.7025 121.019 85.1695C117.521 81.6481 111.817 81.625 108.29 85.1291Z" fill="white"></path> <path d="M76.001 52.601C72.4738 56.1051 66.7702 56.082 63.2661 52.5548C59.7619 49.0276 59.785 43.324 63.3123 39.8256C66.8395 36.3215 72.5431 36.3446 76.0472 39.8718C79.5514 43.399 79.5283 49.1026 76.001 52.601Z" fill="white"></path> <path d="M75.835 97.7391C72.3078 101.243 66.6042 101.22 63.1001 97.693C59.5959 94.1715 59.619 88.4679 63.1462 84.9638C66.6735 81.4596 72.3771 81.4827 75.8812 85.0099C79.3853 88.5429 79.3622 94.2466 75.835 97.7391Z" fill="white"></path> <path d="M76.0031 52.606L76.0146 52.6176C80.1826 48.4842 85.9209 45.9384 92.2306 45.9614C98.5519 45.9845 104.273 48.5766 108.4 52.7446L108.412 52.733C111.916 56.2603 117.614 56.2833 121.141 52.7792C124.668 49.2751 124.691 43.5772 121.187 40.0442C113.81 32.6088 103.597 27.9905 92.2941 27.9501C80.9966 27.9097 70.7498 32.4472 63.3201 39.8307C59.7928 43.3348 59.7698 49.0326 63.2739 52.5656C66.7722 56.0928 72.4701 56.1102 76.0031 52.606Z" fill="#F2F2F2"></path> <path d="M108.29 85.1291L108.279 85.1176C104.111 89.251 98.3724 91.7968 92.0627 91.7737C85.7414 91.7506 80.0204 89.1586 75.8928 84.9906L75.8813 85.0021C72.3772 81.4749 66.6793 81.4518 63.1521 84.9559C59.6249 88.4601 59.6018 94.1579 63.1059 97.6909C70.4837 105.126 80.6959 109.745 91.9991 109.785C103.297 109.825 113.544 105.288 120.973 97.9045C124.5 94.4004 124.524 88.7025 121.019 85.1695C117.521 81.6481 111.817 81.625 108.29 85.1291Z" fill="#F2F2F2"></path> <path d="M75.9991 52.601C72.4719 56.1051 66.7683 56.082 63.2641 52.5548C59.76 49.0276 59.7831 43.324 63.3103 39.8256C66.8375 36.3215 72.5411 36.3446 76.0453 39.8718C79.5494 43.399 79.5263 49.1026 75.9991 52.601Z" fill="#D1D1D1"></path> <path d="M75.835 97.7391C72.3078 101.243 66.6042 101.22 63.1001 97.693C59.5959 94.1715 59.619 88.4679 63.1462 84.9638C66.6735 81.4596 72.3771 81.4827 75.8812 85.0099C79.3853 88.5429 79.3622 94.2466 75.835 97.7391Z" fill="#D1D1D1"></path></svg>