<?xml version="1.0" encoding="utf-8"?>
<!-- Generator: Adobe Illustrator 24.2.0, SVG Export Plug-In . SVG Version: 6.00 Build 0)  -->
<svg version="1.1" id="proofLogo" focusable="false"
	 xmlns="http://www.w3.org/2000/svg" xmlns:xlink="http://www.w3.org/1999/xlink" x="0px" y="0px" viewBox="0 0 127 17"
	 style="enable-background:new 0 0 127 17;" xml:space="preserve">
<path d="M73.1,13.2h-2.8v0.4h1.2v3h0.5v-3h1.2V13.2z M56.6,13.2h-2v3.4h2v-0.4H55v-1.1h1.4v-0.4H55v-1h1.5V13.2z M7.2,9.3l4.1-8.9
	h-1.2L7,7.2L4,0.4H2.7l4.1,8.9H7.2z M12.7,9.2h1.2V0.4h-1.2V9.2z M22.7,2.9l0.9-0.7c-0.4-0.6-1-1.1-1.6-1.4
	c-0.6-0.3-1.4-0.5-2.1-0.5c-0.6,0-1.2,0.1-1.7,0.3c-0.6,0.2-1.1,0.6-1.5,1c-0.4,0.4-0.8,0.9-1,1.5c-0.2,0.6-0.3,1.1-0.3,1.7
	c0,0.6,0.1,1.2,0.3,1.7c0.2,0.6,0.6,1,1,1.5c0.4,0.4,0.9,0.7,1.5,1c0.6,0.2,1.1,0.3,1.7,0.3c0.7,0,1.4-0.1,2-0.5
	c0.6-0.3,1.2-0.8,1.6-1.3l-0.8-0.8c-0.3,0.5-0.7,0.8-1.2,1.1c-0.5,0.3-1,0.4-1.6,0.3c-0.6,0-1.1-0.2-1.6-0.5C17.7,7.4,17.3,7,17,6.5
	c-0.3-0.5-0.4-1.1-0.5-1.6c0-0.6,0.1-1.1,0.4-1.7c0.3-0.5,0.7-0.9,1.2-1.2s1-0.5,1.6-0.5c0.6,0,1.2,0.1,1.7,0.3
	C21.9,2.1,22.4,2.5,22.7,2.9z M28.6,1.5h3V0.4h-7.2v1.1h3v7.8h1.2L28.6,1.5z M39.6,4.8c0,0.9-0.3,1.7-1,2.3c-0.6,0.6-1.5,1-2.3,1
	s-1.7-0.3-2.3-1c-0.6-0.6-1-1.5-1-2.3C33,4.4,33,4,33.2,3.6c0.2-0.4,0.4-0.8,0.7-1.1c0.3-0.3,0.7-0.6,1.1-0.7
	c0.4-0.2,0.8-0.3,1.3-0.3s0.9,0.1,1.3,0.3c0.4,0.2,0.8,0.4,1.1,0.7c0.3,0.3,0.6,0.7,0.7,1.1C39.5,4,39.6,4.4,39.6,4.8z M40.9,4.8
	c0-0.9-0.2-1.8-0.7-2.6c-0.5-0.8-1.2-1.4-2-1.7c-0.8-0.4-1.8-0.5-2.6-0.3c-0.9,0.2-1.7,0.6-2.4,1.2c-0.6,0.6-1.1,1.5-1.3,2.3
	s-0.1,1.8,0.2,2.7C32.4,7.3,33,8,33.7,8.6c0.8,0.5,1.6,0.8,2.5,0.8c0.6,0,1.2-0.1,1.8-0.3c0.6-0.2,1.1-0.5,1.5-1
	c0.4-0.4,0.8-0.9,1-1.5C40.8,6,40.9,5.4,40.9,4.8z M45.3,4.5h-1.7v-3h1.7C46.4,1.5,47,2,47,2.9C47,3.7,46.6,4.5,45.3,4.5L45.3,4.5z
	 M49.1,9.3l-2.7-3.8c0.5-0.2,1-0.5,1.3-0.9c0.3-0.4,0.5-1,0.5-1.5c0-1.7-1.4-2.5-2.7-2.5h-3.2v8.8h1.2V5.5h1.6l2.6,3.7L49.1,9.3z
	 M50.7,14.2c0,0.4-0.3,0.5-0.6,0.5h-0.6v-1h0.6C50.4,13.7,50.7,13.8,50.7,14.2L50.7,14.2z M49.5,15.1h0.7c0.4,0,0.7,0.2,0.7,0.6
	c0,0.1,0,0.2-0.1,0.2c0,0.1-0.1,0.1-0.2,0.2c-0.1,0.1-0.1,0.1-0.2,0.1c-0.1,0-0.2,0-0.2,0h-0.7L49.5,15.1z M50.1,13.2H49v3.4h1.1
	c0.3,0,1.2-0.1,1.2-1c0-0.2,0-0.3-0.1-0.5s-0.2-0.3-0.4-0.3c0.1-0.1,0.2-0.2,0.3-0.3c0.1-0.1,0.1-0.3,0.1-0.4c0-0.1,0-0.3-0.1-0.4
	c-0.1-0.1-0.1-0.2-0.2-0.3c-0.1-0.1-0.2-0.2-0.3-0.2C50.4,13.2,50.3,13.2,50.1,13.2L50.1,13.2z M50.6,9.2h1.2V0.4h-1.2V9.2z
	 M58.9,6.1h-3.2l1.6-3.6L58.9,6.1z M60.3,9.2h1.3l-4.1-8.9h-0.5L53,9.2h1.3l1-2.1h4.2L60.3,9.2z M61.8,15.4h-1.3l0.6-1.4L61.8,15.4z
	 M62.4,16.6h0.5l-1.6-3.4h-0.2l-1.6,3.4H60l0.4-0.8H62L62.4,16.6z M65.5,13.2h-0.5v2.1c0,0.2,0,0.4,0.1,0.5c0.1,0.2,0.2,0.3,0.3,0.4
	c0.1,0.1,0.3,0.2,0.4,0.3c0.3,0.1,0.7,0.1,1,0c0.2-0.1,0.3-0.2,0.4-0.3c0.1-0.1,0.2-0.3,0.3-0.4c0.1-0.2,0.1-0.3,0.1-0.5v-2.1h-0.5
	v2.1c0,0.1,0,0.2,0,0.3c0,0.1-0.1,0.2-0.1,0.3c-0.1,0.1-0.2,0.2-0.3,0.2c-0.1,0.1-0.3,0.1-0.4,0.1c-0.1,0-0.3,0-0.4-0.1
	c-0.1-0.1-0.2-0.1-0.3-0.2c-0.1-0.1-0.1-0.2-0.1-0.3c0-0.1,0-0.2,0-0.3L65.5,13.2z M70.1,6.7c0,0.2-0.1,0.4-0.2,0.6
	c-0.1,0.2-0.2,0.4-0.4,0.5C69.4,7.9,69.2,8,69,8.1c-0.2,0.1-0.4,0.1-0.6,0.1h-1.8V5.2h1.7C69.5,5.2,70.1,5.8,70.1,6.7L70.1,6.7z
	 M69.8,2.8c0,0.9-0.8,1.4-1.7,1.4h-1.5V1.5h1.6C69,1.5,69.8,1.8,69.8,2.8L69.8,2.8z M70,4.6c0.3-0.2,0.6-0.4,0.8-0.8
	C71,3.5,71,3.2,71,2.8c0-1.2-0.9-2.4-2.7-2.4h-2.9v8.8h2.7c0.7,0,3.1-0.2,3.1-2.6c0-0.4-0.1-0.9-0.3-1.2C70.8,5.1,70.4,4.8,70,4.6
	L70,4.6z M72.9,9.2H78V8.2h-4V5.2h3.7V4.2h-3.7V1.5h4V0.4h-5.1V9.2z M77.1,15.2l1.3-2h-0.6l-1,1.5l-1-1.5h-0.6l1.3,2v1.5h0.5
	L77.1,15.2z M86.6,2.9l0.8-0.7c-0.4-0.6-1-1.1-1.6-1.4c-0.6-0.3-1.4-0.5-2.1-0.5c-0.6,0-1.2,0.1-1.7,0.3c-0.6,0.2-1.1,0.6-1.5,1
	c-0.4,0.4-0.8,0.9-1,1.5c-0.2,0.6-0.3,1.1-0.3,1.7c0,0.6,0.1,1.2,0.3,1.7c0.2,0.6,0.6,1,1,1.5c0.4,0.4,0.9,0.7,1.5,1
	c0.6,0.2,1.1,0.3,1.7,0.3c0.7,0,1.4-0.1,2-0.5c0.6-0.3,1.2-0.8,1.6-1.3l-0.8-0.8c-0.3,0.5-0.7,0.8-1.2,1.1c-0.5,0.3-1,0.4-1.6,0.3
	c-0.6,0-1.1-0.2-1.6-0.5C81.7,7.4,81.3,7,81,6.5c-0.3-0.5-0.4-1.1-0.5-1.6c0-0.6,0.1-1.1,0.4-1.7c0.3-0.5,0.7-0.9,1.2-1.2
	c0.5-0.3,1-0.5,1.6-0.5c0.6,0,1.2,0.1,1.7,0.3C85.9,2.1,86.3,2.5,86.6,2.9L86.6,2.9z M96.3,9.2l-4.5-4.9l4-4h-1.5l-4,3.9V0.4h-1.2
	v8.8h1.2V5.9l0.7-0.7l3.8,4.1L96.3,9.2z M103.9,9.2h1.2V0.4h-1.2v3.7h-5V0.4h-1.2v8.8h1.2v-4h5V9.2z M112.2,6.1H109l1.6-3.6
	L112.2,6.1z M113.6,9.2h1.3l-4.1-8.9h-0.5l-4.1,8.9h1.3l1-2.1h4.2L113.6,9.2z M124.7,9.2V0.4h-1.5l-2.8,6.8l-2.8-6.8H116v8.8h1.1v-7
	l2.9,7h0.6l2.9-7v7L124.7,9.2z"/>
</svg>
