<svg viewBox="0 0 303 233" width="303" height="233" aria-hidden="true">
  <defs>
    <filter id="adn-cloud-shadow" width="124.5%" height="140.9%" x="-12.3%" y="-15.9%" filterUnits="objectBoundingBox">
      <feOffset result="offOut" in="SourceGraphic" dy="3"></feOffset>
      <feColorMatrix result="matrixOut" in="offOut" type="matrix" values="0 0 0 0 0.06 0 0 0 0 0.12 0 0 0 0 0.15 0 0 0 0.15 0"></feColorMatrix>
      <feGaussianBlur result="blurOut" in="matrixOut" stdDeviation="4"></feGaussianBlur>
      <feBlend in="SourceGraphic" in2="blurOut" mode="normal"></feBlend>
    </filter>
  </defs>
  <g fill="none" fill-rule="nonzero">
    <g transform="translate(8 5)" filter="url(#adn-cloud-shadow)" fill="#F7F8F8" fill-rule="evenodd" stroke="#FFF" stroke-linejoin="square" stroke-width="11.2">
      <path d="M137.61 60.4h68.74l.34-.02a12.4 12.4 0 1 0-2.08-24.7l-6.34.7.12-6.38.01-.5a23.9 23.9 0 0 0-46.43-8l-1.93 5.43-5.38-2.09a18.4 18.4 0 1 0-7.44 35.54l.4.02z"></path>
      <circle cx="245" cy="108" r="36"></circle>
      <circle cx="78" cy="88" r="23"></circle>
      <path filter="url(#adn-cloud-shadow)" d="M57.61 211.4h170.14l.61-.02a39.17 39.17 0 0 0 38.04-39.07 39.18 39.18 0 0 0-42.96-38.92l-6.13.57.02-6.16v-.18c0-37-30.13-67.02-67.3-67.02a67.31 67.31 0 0 0-63.68 45.22l-1.92 5.58-5.47-2.22a53.32 53.32 0 0 0-20.07-3.89c-29.44 0-53.29 23.76-53.29 53.05 0 28.36 22.4 51.68 50.74 53l1.27.06z"></path>
    </g>
    <g>
      <path fill="#EA4335" d="M172.83 115.18l7.8-7.39.52-3.11c-14.21-12.25-36.8-10.86-49.62 2.9a33.64 33.64 0 0 0-7.6 13.5l2.78-.37 15.6-2.44 1.2-1.17a20.32 20.32 0 0 1 26.7-2.04l2.62.12z"></path>
      <path fill="#4285F4" d="M191.74 120.87a33.1 33.1 0 0 0-10.59-16.19l-10.95 10.38a18.07 18.07 0 0 1 7.15 14.62v1.85c5.38 0 9.74 4.13 9.74 9.23 0 5.1-4.36 9.13-9.74 9.13h-19.52l-1.91 1.97v11.08l1.91 1.73h19.52c14 .1 25.43-10.46 25.54-23.72.06-8.04-4.12-15.58-11.15-20.08"></path>
      <path fill="#34A853" d="M138.35 164.67h19.48V149.9h-19.48a10 10 0 0 1-4-.83l-2.76.8-7.86 7.4-.68 2.51a26.2 26.2 0 0 0 15.3 4.9"></path>
      <path fill="#FBBC05" d="M138.35 116.72c-14 .07-25.28 10.9-25.2 24.16a23.6 23.6 0 0 0 9.9 18.9l11.3-10.72c-4.9-2.1-7.08-7.57-4.87-12.22 2.22-4.64 7.99-6.71 12.9-4.61a9.5 9.5 0 0 1 4.86 4.61l11.3-10.71a25.83 25.83 0 0 0-20.2-9.41"></path>
    </g>
    <g>
      <path fill="#252F3E" d="M49.67 161.34c0 .97.1 1.75.29 2.33.2.58.47 1.2.84 1.9.13.2.18.41.18.6 0 .26-.16.52-.5.78l-1.65 1.1c-.24.16-.47.24-.68.24-.27 0-.53-.13-.8-.37-.36-.39-.67-.81-.94-1.23-.26-.45-.52-.95-.81-1.55a9.7 9.7 0 0 1-7.72 3.62c-2.2 0-3.96-.63-5.25-1.89a6.74 6.74 0 0 1-1.94-5.04c0-2.23.79-4.04 2.39-5.4 1.6-1.37 3.73-2.05 6.43-2.05.9 0 1.81.08 2.78.2.97.14 1.97.35 3.02.59v-1.92c0-2-.42-3.39-1.23-4.2-.84-.81-2.26-1.2-4.28-1.2-.92 0-1.87.1-2.84.34-.97.23-1.91.52-2.83.89-.42.18-.74.29-.92.34-.18.05-.32.08-.42.08-.37 0-.55-.27-.55-.82v-1.28c0-.42.05-.74.18-.92.13-.18.37-.37.74-.55.92-.47 2.02-.87 3.3-1.18 1.3-.34 2.66-.5 4.1-.5 3.12 0 5.4.7 6.88 2.12 1.44 1.42 2.18 3.57 2.18 6.46v8.5h.05zM39 165.32a8.5 8.5 0 0 0 2.7-.47c.95-.31 1.79-.89 2.5-1.68.42-.5.73-1.05.89-1.68.16-.63.26-1.39.26-2.28v-1.1a21.92 21.92 0 0 0-4.88-.6c-1.76 0-3.04.33-3.91 1.04-.87.71-1.29 1.7-1.29 3.02 0 1.24.32 2.15.97 2.78.63.66 1.55.97 2.76.97zm21.08 2.84c-.47 0-.79-.08-1-.26-.2-.16-.4-.53-.55-1.03l-6.17-20.29a4.6 4.6 0 0 1-.24-1.05c0-.42.21-.65.63-.65h2.58c.5 0 .84.08 1.02.26.21.16.37.53.53 1.02l4.4 17.38 4.1-17.38c.13-.52.29-.86.5-1.02a1.8 1.8 0 0 1 1.05-.26h2.1c.5 0 .84.08 1.05.26.2.16.4.53.5 1.02l4.14 17.59 4.55-17.59c.15-.52.34-.86.52-1.02.21-.16.55-.26 1.02-.26h2.45c.42 0 .65.2.65.65a3.73 3.73 0 0 1-.24 1.08l-6.32 20.29c-.16.52-.34.87-.55 1.02-.21.16-.55.27-1 .27h-2.26c-.5 0-.84-.08-1.05-.27-.2-.18-.39-.52-.5-1.05l-4.06-16.93-4.05 16.9c-.13.53-.28.87-.5 1.06-.2.18-.57.26-1.04.26h-2.26zm33.73.7c-1.37 0-2.73-.15-4.04-.46a11.94 11.94 0 0 1-3.02-1.05c-.42-.24-.71-.5-.82-.74-.1-.24-.15-.5-.15-.73v-1.34c0-.55.2-.82.6-.82.16 0 .31.03.47.08.16.05.4.16.66.26.89.4 1.86.71 2.89.92 1.05.21 2.07.32 3.12.32 1.65 0 2.94-.29 3.83-.87a2.83 2.83 0 0 0 1.37-2.5c0-.73-.24-1.33-.71-1.83a6.59 6.59 0 0 0-2.65-1.36l-3.81-1.18c-1.92-.6-3.33-1.5-4.2-2.68a6.25 6.25 0 0 1-.6-6.72 6.75 6.75 0 0 1 1.89-2.15 8.33 8.33 0 0 1 2.73-1.37 13.18 13.18 0 0 1 5.07-.34c.6.08 1.15.18 1.7.29.52.13 1.02.26 1.5.42.47.16.83.31 1.1.47.36.21.63.42.78.66.16.2.24.5.24.86v1.24c0 .55-.2.84-.6.84-.21 0-.55-.1-1-.32a12 12 0 0 0-5.04-1.02c-1.5 0-2.68.24-3.5.73-.8.5-1.22 1.26-1.22 2.34 0 .73.26 1.36.78 1.86.53.5 1.5 1 2.89 1.45l3.73 1.18c1.89.6 3.25 1.44 4.07 2.52a5.94 5.94 0 0 1 1.2 3.67c0 1.13-.23 2.16-.68 3.05-.47.89-1.1 1.68-1.92 2.3a8.46 8.46 0 0 1-2.9 1.48c-1.19.36-2.42.55-3.76.55z"></path>
      <path fill="#F90" d="M98.78 181.62C90.14 188 77.6 191.4 66.8 191.4a57.84 57.84 0 0 1-39.03-14.88c-.82-.74-.08-1.74.89-1.16a78.72 78.72 0 0 0 39.06 10.37c9.58 0 20.1-2 29.79-6.09 1.44-.66 2.68.94 1.26 2zm3.6-4.09c-1.1-1.42-7.3-.68-10.11-.34-.84.1-.97-.63-.21-1.18 4.93-3.47 13.04-2.47 13.99-1.31.94 1.18-.26 9.29-4.88 13.17-.71.6-1.4.3-1.08-.5 1.05-2.6 3.39-8.45 2.28-9.84z"></path>
    </g>
      <g transform="translate(209.000000, 155.000000)" fill="#0080FF" fill-rule="nonzero">
          <path d="M23.420339,46.920339 L23.420339,37.8389831 C33.0327684,37.8389831 40.4943503,28.3062147 36.8033898,18.1892655 C35.4491525,14.4451977 32.4485876,11.4446328 28.7045198,10.0903955 C18.5875706,6.4259887 9.05480226,13.8610169 9.05480226,23.4734463 L0,23.4734463 C0,8.1519774 14.8169492,-3.79717514 30.8819209,1.22146893 C37.8920904,3.42542373 43.4949153,9.00169492 45.6723164,16.0118644 C50.6909605,32.1033898 38.7683616,46.920339 23.420339,46.920339 Z" id="XMLID_49_"></path>
          <polygon points="24 38 15 38 15 29 15 29 24 29 24 29"></polygon>
          <polygon points="14 45 7 45 7 45 7 38 14 38"></polygon>
          <polygon points="8 38 2 38 2 38 2 32 2 32 8 32 8 32"></polygon>
      </g>
  </g>
</svg>