<?xml version="1.0" encoding="utf-8"?>
<!-- Generator: Adobe Illustrator 24.2.0, SVG Export Plug-In . SVG Version: 6.00 Build 0)  -->
<svg version="1.1" id="proofLogo" xmlns="http://www.w3.org/2000/svg" xmlns:xlink="http://www.w3.org/1999/xlink" x="0px" y="0px"
	 viewBox="0 0 1098.2 213" style="enable-background:new 0 0 1098.2 213;" xml:space="preserve">
<g>
	<path d="M271.3,71.8h-0.4V60.5h-30v106.6h31.9v-58.6c0-16.1,10.4-19.2,25.2-19.6v-32C279.6,56.9,274,66.6,271.3,71.8"/>
	<path d="M568.3,71.8h-0.4V60.5h-30v106.6h31.9v-58.6c0-16.1,10.4-19.2,25.2-19.6v-32C576.5,56.9,571,66.6,568.3,71.8"/>
	<path d="M394.1,66.1c-5.8-5-17.1-9.2-27.3-9.2c-19,0-25.7,9.8-29,15h-0.4V60.5h-29.8v106.6h31.9v-58c0-6.5,0-22.3,18.2-22.3
		c16.7,0,16.7,14.6,16.7,22.1v58.2h32v-66.6C406.4,79.5,399.9,71.1,394.1,66.1"/>
	<path d="M1017.9,101.9c1.3-6.3,7.7-18.2,24.2-18.2s22.9,11.9,24.2,18.2C1066.3,101.9,1017.9,101.9,1017.9,101.9z M1098.2,115
		c0-32.5-23.8-58.2-56.3-58.2S986,84.3,986,114c0,31.7,25.9,56.5,56.5,56.5c10.9,0,21.5-3.3,30.3-9.6c9-6.1,16.5-15.4,21.7-27.3
		h-32.7c-4.4,5.6-9.6,10-19.4,10c-12.5,0-23-7.5-25-20.2h79.9C1097.8,120.9,1098.2,119.2,1098.2,115"/>
	<path d="M963.9,66c-5.8-5-17.1-9.2-27.3-9.2c-19,0-25.8,9.8-29,15h-0.4V60.6h-29.8v106.6h31.9v-58.1c0-6.5,0-22.3,18.3-22.3
		c16.7,0,16.7,14.6,16.7,22.1v58.3h31.9v-66.7C976.2,79.5,969.7,71,963.9,66"/>
	<polygon points="737.4,32.9 705.5,51.3 705.5,60.5 689.7,60.5 689.7,84.7 705.5,84.7 705.5,167.1 737.4,167.1 737.4,84.7 
		752.7,84.7 752.7,60.5 737.4,60.5 	"/>
	<path d="M647.9,100.9c-8.4-2.5-16.3-5.7-16.3-11.5c0-2.9,2.3-7.1,9-7.1c9.4,0,9.8,5.7,10,8h31.2c-2.7-28-26.8-33.5-40.8-33.5
		c-22,0-41.2,14-41.2,35.1c0,14.4,11.5,23.4,25.3,27.8c20.3,7.9,28.2,8.8,28.2,17.1c0,5.2-5.7,8.2-11.1,8.2c-1.3,0-10.7,0-12.1-9.8
		h-31.7c2.9,28,27.2,35.3,43.3,35.3c23.6,0,43.3-13.8,43.3-36.2C685,111.3,665.9,105.9,647.9,100.9"/>
	<path d="M810.3,140.6c-13.8,0-25.6-11.3-25.6-26.9s11.7-26.9,25.6-26.9c13.8,0,25.6,11.3,25.6,26.9S824.1,140.6,810.3,140.6
		 M810.3,56.9c-38.8,0-57.5,30.6-57.5,56.7c0,26.2,18.7,56.7,57.5,56.7s57.5-30.6,57.5-56.7S849.1,56.9,810.3,56.9"/>
	<path d="M447.9,101.9c1.3-6.3,7.7-18.2,24.2-18.2s22.9,11.9,24.2,18.2C496.3,101.9,447.9,101.9,447.9,101.9z M528.2,115
		c0-32.5-23.8-58.2-56.3-58.2S416,84.3,416,114c0,31.7,25.9,56.5,56.5,56.5c10.9,0,21.5-3.3,30.3-9.6c9-6.1,16.5-15.4,21.7-27.3
		h-32.7c-4.4,5.6-9.6,10-19.4,10c-12.5,0-23-7.5-25-20.2h79.9C527.8,120.9,528.2,119.2,528.2,115"/>
	<path d="M0,77.8V213l79-45.7c-23.4-7-39.8-28.5-39.8-54.1C39.2,82.1,63.4,57,95,57c15.4,0,29.2,5.6,39.4,14.9V0L0,77.8z"/>
	<path d="M151.2,101.3c4.3-8.8,13-14.5,22.8-14.5c13.8,0,25.5,11.3,25.5,26.9s-11.7,26.9-25.5,26.9c-9.8,0-18.5-5.7-22.8-14.5l0,0
		c-2.7,11.2-8.7,21.4-17.2,29.1c9.4,9.1,22.7,15.1,40,15.1c38.8,0,57.4-30.5,57.4-56.7c0-26.1-18.6-56.7-57.4-56.7
		c-17.1,0-30.2,6-39.6,14.8C142.7,79.5,148.7,89.6,151.2,101.3L151.2,101.3z"/>
	<path d="M148.4,113.7c0-4.5,1-8.7,2.8-12.3v-0.1h-16.8h-15.2c-3.6-7.2-9.9-14.9-23.1-14.9C81,85.6,71,98,71,113.3
		c0,15.4,10.1,26.9,25.1,26.9c13.1,0,19.4-7.6,22.9-14.1h15.4h16.8V126C149.5,122.4,148.4,118.2,148.4,113.7z"/>
</g>
</svg>
