<?xml version="1.0" encoding="utf-8"?>
<!-- Generator: Adobe Illustrator 24.2.0, SVG Export Plug-In . SVG Version: 6.00 Build 0)  -->
<svg version="1.1" id="logoipsum" xmlns="http://www.w3.org/2000/svg" xmlns:xlink="http://www.w3.org/1999/xlink" x="0px" y="0px"
	 viewBox="0 0 126.3 32.9" style="enable-background:new 0 0 126.3 32.9;" xml:space="preserve">
<style type="text/css">
	.logoIpsum{fill:#394149;}
</style>
<path class="logoIpsum" d="M20.5,7.8h2v13.9h6v2h-8V7.8z M34.7,7.8c3.3,0,6,2.7,6,6s-2.7,6-6,6s-6-2.7-6-6S31.4,7.8,34.7,7.8z M34.7,17.8
	c2.2,0,4-1.8,4-4s-1.8-4-4-4s-4,1.8-4,4C30.7,16,32.5,17.8,34.7,17.8L34.7,17.8z M30.7,21.8h8v2h-8V21.8z M56.3,23.8h-2v-1.4
	c-1.3,0.9-2.8,1.4-4.4,1.4c-4.4,0-8-3.5-8.1-7.9s3.5-8,7.9-8.1c2.3,0,4.6,1,6.1,2.8l-1.5,1.3c-2.2-2.5-6-2.7-8.5-0.5
	c-2.5,2.2-2.7,6-0.5,8.5c1.1,1.3,2.8,2,4.5,2c1.7,0,3.3-0.7,4.4-2H49v-2h7.4L56.3,23.8z M63.7,7.9c3.3,0,6,2.7,6,6s-2.7,6-6,6
	s-6-2.7-6-6C57.6,10.6,60.3,7.9,63.7,7.9C63.6,7.8,63.7,7.8,63.7,7.9L63.7,7.9z M63.7,17.9c2.2,0,4-1.8,4-4s-1.8-4-4-4s-4,1.8-4,4
	C59.7,16.1,61.5,17.8,63.7,17.9L63.7,17.9z M59.7,21.8h8v2h-8V21.8z M71.8,7.8h2v15.9h-2V7.8z M76.6,7.8h2c0.1,0,0.2,0,0.3,0
	c3.3-0.4,6.3,2,6.6,5.3c0.4,3.3-2,6.3-5.3,6.6c-0.4,0-0.9,0-1.3,0h-0.3v4h-2V7.8z M78.6,9.8v7.9h0.3c2.2,0.3,4.2-1.2,4.5-3.4
	c0.3-2.2-1.2-4.2-3.4-4.5c-0.4,0-0.7,0-1.1,0C78.8,9.8,78.7,9.8,78.6,9.8L78.6,9.8z M93,9l-1.5,1.2c-0.7-0.8-2-0.8-2.7-0.1
	c-0.3,0.3-0.5,0.7-0.6,1.2v0.2c0,0.9,0.6,1.5,1.8,1.5c4.6,0.3,6.7,2.4,6.7,5.3v0.2c-0.3,3.2-3.2,5.6-6.5,5.3
	c-1.4-0.1-2.7-0.8-3.7-1.8l1.5-1.2c0.7,0.8,1.7,1.2,2.8,1.1c2,0.1,3.7-1.4,3.9-3.4v-0.1c0-2.7-2.6-3.2-4.9-3.4
	c-2.1-0.2-3.6-1.5-3.6-3.4v-0.1c0.2-2,1.9-3.6,3.9-3.6C91.2,7.8,92.2,8.3,93,9L93,9z M104.5,21.7c2.5,0,4.5-2.7,4.5-6v-8h2v8
	c0,4.4-2.9,8-6.4,8s-6.4-3.5-6.4-8v-8h2v8C100,19.1,102,21.8,104.5,21.7L104.5,21.7z M126.3,23.7h-2v-9.9l-4.6,6l-4.6-6v9.9h-2V7.8
	l6.6,8.7l6.6-8.7L126.3,23.7z"/>
<path class="logoIpsum" d="M10.9,5.4c0-3-2.4-5.4-5.4-5.4S0,2.4,0,5.4v16.5l4.5,3.2v7.8h1.9v-7.8l4.5-3.2L10.9,5.4z M9,14.6l-2.6,2.6v-2.4
	L9,12.2V14.6z M2,12.2l2.6,2.6v2.4L2,14.6V12.2z M9,9.5L5.4,13L1.9,9.4V7l3.5,3.5L9,7L9,9.5z M5.4,1.9c1.6,0,3,1.1,3.4,2.6L5.4,7.9
	L2,4.5C2.4,3,3.8,1.9,5.4,1.9L5.4,1.9z M1.9,20.9v-3.6l2.6,2.6v2.9L1.9,20.9z M6.4,22.8v-2.9L9,17.3v3.6L6.4,22.8z"/>
</svg>
