<?xml version="1.0" encoding="utf-8"?>
<!-- Generator: Adobe Illustrator 24.2.0, SVG Export Plug-In . SVG Version: 6.00 Build 0)  -->
<svg version="1.1" id="Layer_1" xmlns="http://www.w3.org/2000/svg" xmlns:xlink="http://www.w3.org/1999/xlink" x="0px" y="0px"
	 viewBox="0 0 129.7 29.2" style="enable-background:new 0 0 129.7 29.2;" xml:space="preserve">
<style type="text/css">
	.st0{fill:#394149;}
</style>
<path class="st0" d="M31.3,6.8h3v14.5h-3V6.8z"/>
<path class="st0" d="M36,16.3c0-2.9,2.4-5.2,5.3-5.2c2.9,0,5.2,2.4,5.2,5.3s-2.4,5.2-5.3,5.2c0,0,0,0,0,0c-2.9,0-5.2-2.3-5.2-5.1
	C35.9,16.4,35.9,16.4,36,16.3z M43.5,16.3c0-1.3-1.1-2.3-2.3-2.2c-1.3,0-2.3,1.1-2.2,2.3c0,1.2,1,2.2,2.3,2.2c1.2,0,2.2-1,2.3-2.2
	C43.5,16.5,43.5,16.4,43.5,16.3L43.5,16.3z"/>
<path class="st0" d="M58.3,11.4v9.4c0,3.3-2.6,4.7-5.2,4.7c-1.9,0.2-3.7-0.8-4.7-2.4l2.5-1.5c0.4,0.8,1.3,1.3,2.3,1.3
	c1.1,0.1,2.1-0.6,2.2-1.7c0-0.1,0-0.3,0-0.4v-0.9c-0.7,0.9-1.8,1.3-2.9,1.3c-2.8,0-5-2.2-5-5s2.2-5,5-5c1.1-0.1,2.2,0.4,2.9,1.3v-1
	L58.3,11.4z M55.4,16.1c0.1-1.3-1-2.4-2.3-2.5c-1.3-0.1-2.4,1-2.5,2.3s1,2.4,2.3,2.5c0,0,0.1,0,0.1,0c1.2,0.1,2.3-0.8,2.4-2.1
	C55.4,16.3,55.4,16.2,55.4,16.1z"/>
<path class="st0" d="M60,16.3c0-2.9,2.4-5.2,5.3-5.2c2.9,0,5.3,2.4,5.2,5.3c0,2.9-2.4,5.2-5.3,5.2c0,0,0,0,0,0
	c-2.9,0-5.2-2.3-5.2-5.1C59.9,16.4,59.9,16.4,60,16.3z M67.5,16.3c0-1.3-1.1-2.3-2.3-2.2c-1.3,0-2.3,1.1-2.2,2.3
	c0,1.2,1,2.2,2.3,2.2c1.2,0,2.2-1,2.3-2.2C67.5,16.5,67.5,16.4,67.5,16.3L67.5,16.3z"/>
<path class="st0" d="M71.8,8.8c0-1,0.8-1.8,1.8-1.8c1,0,1.8,0.8,1.8,1.8s-0.8,1.8-1.8,1.8l0,0C72.6,10.5,71.8,9.7,71.8,8.8z
	 M72.1,11.4h3v9.9h-3V11.4z"/>
<path class="st0" d="M87.9,16.3c0.1,2.8-2,5.1-4.7,5.2c0,0,0,0,0,0c-1.1,0.1-2.2-0.4-3-1.2v4.9h-3V11.4h3v0.9c0.8-0.8,1.9-1.3,3-1.2
	C85.9,11.3,88.1,13.6,87.9,16.3C88,16.3,87.9,16.3,87.9,16.3z M84.9,16.3c0-1.3-1.1-2.3-2.4-2.3c-1.3,0-2.3,1.1-2.3,2.4
	c0,1.3,1.1,2.3,2.4,2.3c1.2,0.1,2.3-0.9,2.4-2.2C85,16.5,85,16.4,84.9,16.3z"/>
<path class="st0" d="M97.1,18.3c0,2.3-2,3.3-4.1,3.3c-1.8,0.2-3.5-0.8-4.3-2.4l2.6-1.5c0.2,0.7,0.9,1.2,1.7,1.2
	c0.7,0,1.1-0.2,1.1-0.6c0-1.1-4.9-0.5-4.9-3.9c0-2.2,1.8-3.2,3.9-3.2c1.6-0.1,3.1,0.7,3.9,2.1l-2.6,1.4c-0.2-0.5-0.8-0.9-1.3-0.9
	c-0.5,0-0.8,0.2-0.8,0.5C92.2,15.4,97.1,14.7,97.1,18.3z"/>
<path class="st0" d="M107.9,11.4v9.9h-3v-0.9c-0.7,0.8-1.7,1.3-2.8,1.2c-2,0-3.7-1.4-3.7-4.1v-6.1h3V17c-0.1,0.9,0.6,1.7,1.5,1.8
	c0.1,0,0.2,0,0.3,0c1.1,0,1.8-0.6,1.8-2v-5.5H107.9z"/>
<path class="st0" d="M124.9,15.2v6.1h-3v-5.8c0-1-0.5-1.6-1.4-1.6s-1.6,0.7-1.6,1.9v5.6h-3v-5.8c0-1-0.5-1.6-1.4-1.6
	s-1.6,0.7-1.6,1.9v5.6h-3v-9.9h3v0.9c0.6-0.8,1.6-1.3,2.7-1.2c1-0.1,2,0.4,2.6,1.3c0.7-0.9,1.8-1.4,2.9-1.3
	C123.5,11.1,124.9,12.8,124.9,15.2z"/>
<path class="st0" d="M13.4,4.3V0H0v29.2h13.4v-4.3C7.7,24.9,3,20.3,3,14.6S7.7,4.2,13.4,4.3z"/>
<path class="st0" d="M13.4,4.3V25c5.7,0,10.4-4.6,10.4-10.4S19.1,4.3,13.4,4.3L13.4,4.3z"/>
<circle class="st0" cx="127.5" cy="9.1" r="2.2"/>
</svg>
