<?xml version="1.0" encoding="utf-8"?>
<!-- Generator: Adobe Illustrator 24.2.0, SVG Export Plug-In . SVG Version: 6.00 Build 0)  -->
<svg version="1.1" id="logoipsum" xmlns="http://www.w3.org/2000/svg" xmlns:xlink="http://www.w3.org/1999/xlink" x="0px" y="0px"
	 viewBox="0 0 117.7 23.6" style="enable-background:new 0 0 117.7 23.6;" xml:space="preserve">
<style type="text/css">
	.logoIpsum{fill:#394149;}
</style>
<path class="logoIpsum" d="M37.8,19.2c-0.6,0-1.2-0.1-1.7-0.5c-0.4-0.3-0.6-0.8-0.6-1.3V8.1c0-0.1,0.1-0.3,0.2-0.3c0,0,0,0,0.1,0h1.7
	c0.2,0,0.3,0.1,0.3,0.3v8.5c0,0.4,0.2,0.6,0.5,0.6c0.1,0,0.3,0,0.4,0c0.2,0,0.3,0.1,0.3,0.2l0.2,1.3c0,0.1-0.1,0.3-0.2,0.3
	c0,0,0,0,0,0C38.6,19.1,38.2,19.2,37.8,19.2z"/>
<path class="logoIpsum" d="M47.3,18.1c-1.7,1.4-4.3,1.4-6,0c-1.5-1.6-1.5-4.1,0-5.6c1.7-1.4,4.3-1.4,6,0C48.8,14.1,48.8,16.6,47.3,18.1
	L47.3,18.1z M42.9,16.8c0.8,0.7,2,0.7,2.9,0c0.7-0.8,0.7-2.1,0-2.9c-0.8-0.7-2-0.7-2.9,0C42.1,14.7,42.1,16,42.9,16.8z"/>
<path class="logoIpsum" d="M57.7,11.7c0.2,0,0.3,0.1,0.3,0.3v7.2c0,1-0.4,1.9-1.1,2.6c-0.8,0.7-1.8,1-2.9,1c-1,0-1.9-0.2-2.7-0.8
	c-0.7-0.5-1.2-1.2-1.3-2c0-0.2,0-0.3,0.3-0.3h1.7c0.1,0,0.3,0.1,0.3,0.2c0.1,0.3,0.3,0.6,0.6,0.7c0.3,0.2,0.7,0.3,1.1,0.3
	c0.5,0,0.9-0.1,1.3-0.5c0.3-0.3,0.5-0.8,0.5-1.3v-0.6c-0.6,0.4-1.3,0.7-2.1,0.7c-1.1,0-2.1-0.4-2.8-1.1c-1.5-1.6-1.5-4,0-5.6
	c0.8-0.7,1.8-1.1,2.8-1.1c0.8,0,1.5,0.2,2.1,0.7V12c0-0.1,0.1-0.3,0.2-0.3c0,0,0,0,0.1,0L57.7,11.7z M53.8,17.4c0.5,0,1-0.2,1.4-0.6
	c0.7-0.9,0.7-2.1,0-3c-0.3-0.4-0.8-0.6-1.4-0.6c-0.5,0-1,0.2-1.4,0.6c-0.4,0.4-0.6,0.9-0.5,1.5c0,0.5,0.2,1.1,0.5,1.5
	C52.7,17.2,53.3,17.4,53.8,17.4z"/>
<path class="logoIpsum" d="M66.6,18.1c-1.7,1.4-4.3,1.4-6,0c-1.5-1.6-1.5-4.1,0-5.6c1.7-1.4,4.3-1.4,6,0C68.1,14.1,68.1,16.6,66.6,18.1
	L66.6,18.1z M62.1,16.8c0.4,0.4,0.9,0.6,1.4,0.5c0.5,0,1-0.2,1.4-0.5c0.7-0.8,0.7-2.1,0-2.9c-0.4-0.4-0.9-0.6-1.4-0.5
	c-0.5,0-1.1,0.2-1.4,0.5C61.4,14.7,61.4,16,62.1,16.8z"/>
<path class="logoIpsum" d="M71.3,10c-0.5,0.5-1.4,0.5-1.9,0c-0.5-0.5-0.5-1.2,0-1.7c0,0,0,0,0,0c0.6-0.5,1.4-0.5,1.9,0
	C71.8,8.7,71.8,9.5,71.3,10C71.3,10,71.3,10,71.3,10z M71.5,19.2c-0.6,0-1.2-0.1-1.7-0.5c-0.4-0.3-0.6-0.8-0.6-1.3V12
	c0-0.1,0.1-0.3,0.2-0.3c0,0,0,0,0.1,0h1.7c0.2,0,0.3,0.1,0.3,0.3v4.7c0,0.4,0.2,0.6,0.5,0.6c0.2,0,0.3,0,0.4,0
	c0.2,0,0.3,0.1,0.3,0.2l0.2,1.3c0,0.1-0.1,0.3-0.2,0.3c0,0,0,0,0,0C72.3,19.1,71.9,19.2,71.5,19.2z"/>
<path class="logoIpsum" d="M79.1,11.4c1.1,0,2.1,0.3,2.9,1.1c1.5,1.6,1.5,4,0,5.6c-0.8,0.7-1.8,1.1-2.9,1.1c-0.7,0-1.5-0.2-2.1-0.7v3.6
	c0,0.2-0.1,0.3-0.3,0.3H75c-0.1,0-0.3-0.1-0.3-0.2c0,0,0-0.1,0-0.1V14c0-0.3-0.2-0.5-0.4-0.6c-0.1,0-0.1,0-0.2,0h-0.3
	c-0.2,0-0.3-0.1-0.3-0.2V12c0-0.2,0.1-0.3,0.2-0.3c0.3-0.1,0.7-0.2,1.1-0.2c0.8-0.1,1.5,0.3,1.8,1C77.3,11.8,78.2,11.4,79.1,11.4z
	 M77.5,16.8c0.7,0.8,1.9,0.8,2.7,0.1c0,0,0,0,0.1-0.1c0.4-0.4,0.6-1,0.6-1.5c0-0.6-0.2-1.1-0.6-1.5c-0.7-0.8-1.9-0.8-2.7-0.1
	c0,0,0,0-0.1,0.1c-0.4,0.4-0.6,1-0.5,1.5C77,15.8,77.2,16.4,77.5,16.8z"/>
<path class="logoIpsum" d="M87.8,19.2c-0.9,0-1.8-0.2-2.6-0.6c-0.6-0.4-1.1-1-1.2-1.8c0-0.2,0.1-0.3,0.3-0.3h1.5c0.1,0,0.3,0.1,0.3,0.2
	c0.2,0.5,0.8,0.8,1.6,0.8c0.3,0,0.6,0,0.9-0.2c0.2-0.1,0.3-0.3,0.3-0.5c0-0.3-0.2-0.4-0.5-0.6c-0.4-0.1-0.8-0.2-1.2-0.3
	c-0.5-0.1-0.9-0.1-1.4-0.3c-0.4-0.1-0.9-0.3-1.2-0.7c-0.7-0.9-0.6-2.3,0.3-3c0,0,0.1-0.1,0.1-0.1c0.7-0.5,1.6-0.7,2.4-0.6
	c0.8,0,1.6,0.2,2.4,0.6c0.6,0.3,1,0.9,1.1,1.6c0,0.2-0.1,0.3-0.3,0.3h-1.5c-0.1,0-0.2-0.1-0.3-0.2c-0.1-0.2-0.3-0.4-0.5-0.5
	C88.3,13,88,13,87.7,13c-0.3,0-0.6,0-0.9,0.2c-0.2,0.1-0.3,0.3-0.3,0.5c0,0.3,0.2,0.5,0.5,0.6c0.4,0.1,0.8,0.2,1.2,0.3
	c0.5,0.1,0.9,0.1,1.4,0.3c0.4,0.1,0.9,0.3,1.2,0.7c0.3,0.4,0.5,0.9,0.5,1.4c0,0.7-0.3,1.4-0.9,1.7C89.5,19,88.7,19.2,87.8,19.2z"/>
<path class="logoIpsum" d="M101.8,18.7c0,0.1-0.1,0.3-0.2,0.3c0,0,0,0,0,0c-0.4,0.1-0.7,0.2-1.1,0.2c-0.8,0.1-1.5-0.2-2-0.9
	c-0.7,0.6-1.6,0.9-2.6,0.9c-0.9,0-1.7-0.3-2.3-0.9c-0.6-0.6-0.9-1.5-0.9-2.4V12c0-0.2,0.1-0.3,0.3-0.3h1.7c0.2,0,0.3,0.1,0.3,0.3
	v3.6c0,0.4,0.1,0.9,0.4,1.2c0.3,0.3,0.7,0.5,1.2,0.5c0.4,0,0.9-0.1,1.2-0.4c0.3-0.3,0.5-0.7,0.4-1.2V12c0-0.2,0.1-0.3,0.3-0.3h1.7
	c0.2,0,0.3,0.1,0.3,0.3v4.7c0,0.4,0.2,0.6,0.5,0.6c0.2,0,0.3,0,0.5,0c0.1,0,0.3,0,0.3,0.2c0,0,0,0,0,0.1L101.8,18.7z"/>
<path class="logoIpsum" d="M117.7,18.7c0,0.1,0,0.3-0.2,0.3c0,0,0,0,0,0c-0.4,0.1-0.8,0.2-1.1,0.2c-0.6,0-1.2-0.1-1.7-0.5
	c-0.4-0.3-0.7-0.8-0.7-1.3v-2.3c0-0.4-0.1-0.9-0.4-1.2c-0.3-0.3-0.7-0.5-1.1-0.5c-0.4,0-0.8,0.1-1,0.4c-0.3,0.3-0.4,0.8-0.4,1.2v3.7
	c0,0.2-0.1,0.3-0.3,0.3h-1.7c-0.1,0-0.3-0.1-0.3-0.2c0,0,0,0,0-0.1v-3.6c0-0.4-0.1-0.9-0.4-1.2c-0.2-0.3-0.6-0.5-1-0.5
	c-0.4,0-0.8,0.1-1.1,0.4c-0.3,0.3-0.4,0.7-0.4,1.2v3.7c0,0.1-0.1,0.3-0.2,0.3c0,0,0,0-0.1,0h-1.6c-0.2,0-0.3-0.1-0.3-0.3V14
	c0-0.3-0.2-0.5-0.4-0.6c-0.1,0-0.1,0-0.2,0h-0.3c-0.2,0-0.3-0.1-0.3-0.2V12c0-0.2,0.1-0.3,0.2-0.3c0.3-0.1,0.7-0.2,1.1-0.2
	c0.7-0.1,1.4,0.3,1.8,0.9c0.7-0.6,1.6-1,2.5-0.9c0.9,0,1.8,0.3,2.4,1.1c0.7-0.7,1.6-1.1,2.6-1.1c0.9,0,1.7,0.3,2.4,0.9
	c0.6,0.6,0.9,1.5,0.9,2.4v1.9c0,0.4,0.2,0.6,0.5,0.6c0.2,0,0.3,0,0.5,0c0.2,0,0.3,0.1,0.3,0.2L117.7,18.7z"/>
<path class="logoIpsum" d="M0.4,10.4C2.2,3.1,9.7-1.4,17,0.4c4.9,1.2,8.8,5.1,10,10h-1.2c-2,0-4,0.6-5.7,1.7c-0.1,0.1-0.2,0.1-0.3,0.2
	h-0.1c-0.1-0.1-0.2-0.1-0.3-0.2c-3.4-2.3-7.9-2.3-11.3,0c-0.1,0.1-0.2,0.1-0.3,0.2H7.6c-0.1-0.1-0.2-0.1-0.3-0.2
	c-1.7-1.2-3.6-1.8-5.7-1.7H0.4z M23.6,16.7c0.6-0.5,1.4-0.7,2.2-0.7h1.6v-3.2h-1.6c-1.4,0-2.7,0.4-3.8,1.2c-1.3,0.9-3,0.9-4.3,0
	c-2.3-1.6-5.4-1.6-7.8,0c-1.3,0.9-3,0.9-4.3,0c-1.1-0.8-2.5-1.2-3.9-1.2H0v3.2h1.6c0.8,0,1.5,0.2,2.2,0.7c2.3,1.6,5.4,1.6,7.8,0
	c0.6-0.5,1.4-0.7,2.2-0.7c0.8,0,1.5,0.2,2.2,0.7C18.2,18.3,21.3,18.3,23.6,16.7z M23.6,22.4c0.6-0.5,1.4-0.7,2.2-0.7h1.6v-3.2h-1.6
	c-1.4,0-2.7,0.4-3.8,1.2c-1.3,0.9-3,0.9-4.3,0c-2.3-1.6-5.4-1.6-7.8,0c-1.3,0.9-3,0.9-4.3,0c-1.1-0.8-2.5-1.2-3.9-1.2H0v3.2h1.6
	c0.8,0,1.5,0.2,2.2,0.7c2.3,1.6,5.4,1.6,7.8,0c0.6-0.5,1.4-0.7,2.2-0.7c0.8,0,1.5,0.2,2.2,0.7C18.2,24,21.3,24,23.6,22.4z"/>
</svg>
