<?xml version="1.0" encoding="utf-8"?>
<!-- Generator: Adobe Illustrator 24.2.0, SVG Export Plug-In . SVG Version: 6.00 Build 0)  -->
<svg version="1.1" id="Layer_1" xmlns="http://www.w3.org/2000/svg" xmlns:xlink="http://www.w3.org/1999/xlink" x="0px" y="0px"
	 viewBox="0 0 113.9 25.7" style="enable-background:new 0 0 113.9 25.7;" xml:space="preserve">
<style type="text/css">
	.logoIpsum{fill:#394149;}
</style>
<path class="logoIpsum" d="M0,25.7h25.6V0H0V25.7z M20.7,10.4h-5.4V4.9h5.4V10.4z M4.9,4.9h5.4v10.4h10.4v5.4H4.9V4.9z M42.4,0
	c-7.1,0-12.8,5.7-12.8,12.8c0,7.1,5.7,12.8,12.8,12.8c7.1,0,12.8-5.7,12.8-12.8C55.2,5.7,49.4,0,42.4,0z M42.4,20.7
	c-4.4,0-7.9-3.5-7.9-7.9s3.5-7.9,7.9-7.9s7.9,3.5,7.9,7.9C50.2,17.2,46.7,20.7,42.4,20.7z M101.1,0C94,0,88.2,5.7,88.2,12.8
	s5.7,12.8,12.8,12.8c7.1,0,12.8-5.7,12.8-12.8c0,0,0,0,0,0C113.9,5.7,108.2,0,101.1,0z M101.1,20.7c-4.4,0-7.9-3.5-7.9-7.9
	s3.5-7.9,7.9-7.9c4.4,0,7.9,3.5,7.9,7.9c0,0,0,0,0,0C109,17.2,105.4,20.7,101.1,20.7z M71.7,0c-7.1,0-12.8,5.7-12.8,12.8
	s5.7,12.8,12.8,12.8c7.1,0,12.8-5.7,12.8-12.8c0,0,0,0,0,0C84.5,5.7,78.8,0,71.7,0z M71.7,20.7c-4.4,0-7.9-3.5-7.9-7.9
	s3.5-7.9,7.9-7.9c3.4,0,6.4,2.2,7.5,5.4h-7.5v4.9h7.5C78.1,18.5,75.1,20.7,71.7,20.7z"/>
</svg>
