<?xml version="1.0" encoding="utf-8"?>
<!-- Generator: Adobe Illustrator 24.2.0, SVG Export Plug-In . SVG Version: 6.00 Build 0)  -->
<svg version="1.1" id="logoipsum" xmlns="http://www.w3.org/2000/svg" xmlns:xlink="http://www.w3.org/1999/xlink" x="0px" y="0px"
	 viewBox="0 0 100.2 47.7" style="enable-background:new 0 0 100.2 47.7;" xml:space="preserve">
<style type="text/css">
	.st0{fill:#394149;}
</style>
<path class="st0" d="M0,28.6h3v14.7H0V28.6z"/>
<path class="st0" d="M4.7,38.3c0-2.9,2.4-5.3,5.3-5.3c2.9,0,5.3,2.4,5.3,5.3c0,2.9-2.4,5.3-5.3,5.3c0,0,0,0,0,0
	c-2.9,0-5.3-2.3-5.3-5.2C4.7,38.4,4.7,38.3,4.7,38.3z M12.4,38.3c0-1.3-1.1-2.3-2.4-2.3s-2.3,1.1-2.3,2.4c0,1.3,1.1,2.3,2.3,2.3
	c1.2,0,2.3-0.9,2.3-2.2C12.4,38.4,12.4,38.3,12.4,38.3z"/>
<path class="st0" d="M27.5,33.2v9.6c0,3.4-2.7,4.8-5.3,4.8c-1.9,0.1-3.8-0.8-4.8-2.4l2.6-1.5c0.4,0.8,1.3,1.3,2.3,1.3
	c1.1,0.2,2.1-0.6,2.3-1.6c0-0.2,0-0.3,0-0.5v-0.9c-0.7,0.9-1.8,1.4-2.9,1.3c-2.8,0-5.1-2.3-5.1-5.1c0-2.8,2.3-5.1,5.1-5.1
	c1.1-0.1,2.2,0.4,2.9,1.3v-1L27.5,33.2z M24.5,38.1c0.1-1.3-1-2.5-2.3-2.5s-2.5,1-2.5,2.3s1,2.5,2.3,2.5c0,0,0.1,0,0.1,0
	c1.3,0.1,2.3-0.9,2.4-2.1C24.5,38.2,24.5,38.2,24.5,38.1z"/>
<path class="st0" d="M29.2,38.3c0-2.9,2.4-5.3,5.3-5.3c2.9,0,5.3,2.4,5.3,5.3c0,2.9-2.4,5.3-5.3,5.3c0,0,0,0,0,0
	c-2.9,0-5.3-2.3-5.3-5.2C29.2,38.4,29.2,38.3,29.2,38.3z M36.9,38.3c0-1.3-1.1-2.3-2.4-2.3c-1.3,0-2.3,1.1-2.3,2.4
	c0,1.3,1.1,2.3,2.3,2.3c1.2,0,2.3-1,2.3-2.2C36.9,38.4,36.9,38.3,36.9,38.3L36.9,38.3z"/>
<path class="st0" d="M41.3,30.5c0-1,0.8-1.8,1.8-1.8s1.8,0.8,1.8,1.8s-0.8,1.8-1.8,1.8l0,0C42.1,32.4,41.3,31.5,41.3,30.5z
	 M41.6,33.2h3v10.1h-3V33.2z"/>
<path class="st0" d="M57.7,38.3c0.2,2.8-2,5.2-4.8,5.3c0,0,0,0,0,0c-1.1,0.1-2.2-0.4-3-1.2v5h-3V33.2h3v1c0.8-0.8,1.9-1.3,3-1.2
	C55.7,33.1,57.8,35.5,57.7,38.3C57.7,38.3,57.7,38.3,57.7,38.3z M54.7,38.3c0-1.3-1.1-2.4-2.5-2.3s-2.4,1.1-2.3,2.5
	c0,1.3,1.1,2.3,2.3,2.3c1.3,0.1,2.4-0.9,2.4-2.1C54.7,38.5,54.7,38.4,54.7,38.3L54.7,38.3z"/>
<path class="st0" d="M67,40.3c0,2.3-2,3.3-4.2,3.3c-1.8,0.2-3.5-0.8-4.3-2.4l2.6-1.5c0.2,0.7,0.9,1.2,1.7,1.2c0.7,0,1.1-0.2,1.1-0.6
	c0-1.1-5-0.5-5-4c0-2.2,1.9-3.3,4-3.3c1.6,0,3.1,0.8,3.9,2.2l-2.6,1.4c-0.2-0.5-0.8-0.9-1.4-0.9c-0.5,0-0.8,0.2-0.8,0.6
	C62,37.3,67,36.6,67,40.3z"/>
<path class="st0" d="M78,33.2v10.1h-3v-0.9c-0.7,0.8-1.8,1.3-2.9,1.2c-2,0-3.8-1.4-3.8-4.2v-6.2h3V39c-0.1,0.9,0.6,1.7,1.5,1.8
	c0.1,0,0.2,0,0.3,0c1.1,0,1.9-0.6,1.9-2.1v-5.5H78z"/>
<path class="st0" d="M95.4,37.1v6.2h-3v-5.9c0-1-0.5-1.7-1.4-1.7s-1.6,0.7-1.6,1.9v5.7h-3v-5.9c0-1-0.5-1.7-1.4-1.7
	s-1.6,0.7-1.6,1.9v5.7h-3V33.2h3v0.9C84,33.3,85,32.9,86,33c1.1-0.1,2.1,0.5,2.6,1.3c0.7-0.9,1.8-1.4,2.9-1.3
	C93.9,33,95.4,34.6,95.4,37.1z"/>
<circle class="st0" cx="98" cy="30.9" r="2.2"/>
<circle class="st0" cx="33.9" cy="10.5" r="10.5"/>
<circle class="st0" cx="57.4" cy="10.5" r="10.5"/>
<rect x="0" y="0" class="st0" width="21" height="21"/>
</svg>
