<?xml version="1.0" encoding="utf-8"?>
<!-- Generator: Adobe Illustrator 24.2.0, SVG Export Plug-In . SVG Version: 6.00 Build 0)  -->
<svg version="1.1" id="Layer_1" xmlns="http://www.w3.org/2000/svg" xmlns:xlink="http://www.w3.org/1999/xlink" x="0px" y="0px"
	 viewBox="0 0 38.3 38.3" style="enable-background:new 0 0 38.3 38.3;" xml:space="preserve">
<style type="text/css">
	.st0{fill:url(#SVGID_1_);}
</style>
<radialGradient id="SVGID_1_" cx="-175.4636" cy="280.2959" r="0.9416" gradientTransform="matrix(0 38.301 44.1228 0 -12348.2773 6721.5425)" gradientUnits="userSpaceOnUse">
	<stop  offset="0" style="stop-color:#20C6B7"/>
	<stop  offset="1" style="stop-color:#4D9ABF"/>
</radialGradient>
<path class="st0" d="M27.2,13.7L27.2,13.7C27.2,13.6,27.2,13.6,27.2,13.7c-0.1,0-0.1-0.1-0.1-0.1l0.7-4.4l3.4,3.4L27.8,14
	c0,0,0,0,0,0h0c0,0,0,0,0,0C27.6,13.9,27.4,13.7,27.2,13.7z M32.2,13.4l3.6,3.6c0.8,0.8,1.1,1.1,1.3,1.6c0,0.1,0,0.1,0.1,0.2
	l-8.7-3.7c0,0,0,0,0,0c0,0-0.1,0-0.1-0.1s0-0.1,0.1-0.1l0,0L32.2,13.4z M37,20c-0.2,0.4-0.6,0.7-1.2,1.3l-4.1,4.1l-5.3-1.1l0,0
	c0,0-0.1,0-0.1-0.1c0-0.4-0.3-0.8-0.6-1.1c0,0,0-0.1,0-0.1c0,0,0,0,0,0l1-6.1l0,0c0,0,0-0.1,0.1-0.1c0.4-0.1,0.8-0.3,1.1-0.6
	c0,0,0,0,0,0c0,0,0.1,0,0.1,0L37,20L37,20z M30.8,26.4L24,33.1l1.2-7.1l0,0c0,0,0,0,0,0c0,0,0,0,0.1,0l0,0c0.3-0.1,0.5-0.3,0.7-0.5
	c0,0,0-0.1,0.1-0.1c0,0,0,0,0,0L30.8,26.4L30.8,26.4z M22.6,34.6l-0.8,0.8l-8.4-12.2c0,0,0,0,0,0c0,0,0,0,0-0.1c0,0,0,0,0,0l0,0
	c0,0,0-0.1,0.1-0.1l0,0l0,0c0,0,0,0,0-0.1c0,0,0,0,0.1,0l9.3,1.9c0,0,0.1,0,0.1,0c0,0,0,0,0,0c0.1,0.5,0.5,0.9,1,1.1c0,0,0,0,0,0.1
	c0,0,0,0,0,0C23.9,26.7,22.9,32.9,22.6,34.6z M21,36.1c-0.6,0.6-0.9,0.9-1.3,1c-0.4,0.1-0.8,0.1-1.1,0c-0.4-0.1-0.8-0.5-1.6-1.3
	l-8.5-8.5l2.2-3.4c0,0,0,0,0,0c0,0,0.1,0,0.1,0c0.5,0.2,1.1,0.1,1.5-0.1c0,0,0.1,0,0.1,0c0,0,0,0,0,0L21,36.1L21,36.1z M7.8,26.6
	l-1.9-1.9L9.6,23c0,0,0,0,0,0c0,0,0.1,0,0.1,0.1c0,0.1,0.1,0.1,0.1,0.2l0,0c0,0,0,0,0,0L7.8,26.6L7.8,26.6z M5,23.8l-2.5-2.5
	c-0.4-0.4-0.7-0.7-0.9-1L9,21.9c0,0,0,0,0,0c0,0,0.1,0,0.1,0.1c0,0-0.1,0.1-0.1,0.1l0,0L5,23.8z M1.1,19.1c0-0.2,0-0.3,0.1-0.5
	c0.1-0.4,0.5-0.8,1.3-1.6l3.1-3.1c1.4,2.1,2.9,4.2,4.4,6.3c0,0,0.1,0.1,0,0.1c-0.1,0.2-0.3,0.3-0.4,0.5c0,0,0,0,0,0.1c0,0,0,0,0,0h0
	L1.1,19.1L1.1,19.1z M6.5,13l4.2-4.2c0.4,0.2,1.8,0.8,3.1,1.3c1,0.4,1.9,0.8,2.2,0.9c0,0,0.1,0,0.1,0.1c0,0,0,0,0,0.1
	c-0.1,0.6,0,1.3,0.5,1.7c0,0,0,0.1,0,0.1l0,0l-4.3,6.6c0,0,0,0,0,0c0,0-0.1,0-0.1,0c-0.2,0-0.3-0.1-0.5-0.1c-0.2,0-0.3,0-0.5,0.1h0
	c0,0,0,0-0.1,0c0,0,0,0,0,0L6.5,13L6.5,13z M11.6,8L17,2.5c0.8-0.8,1.1-1.1,1.6-1.3c0.4-0.1,0.8-0.1,1.1,0c0.4,0.1,0.8,0.5,1.6,1.3
	l1.2,1.2l-3.9,6c0,0,0,0,0,0c0,0-0.1,0-0.1,0c-0.6-0.2-1.3-0.1-1.8,0.3c0,0-0.1,0-0.1,0C16.1,9.9,12.1,8.2,11.6,8z M23.3,4.5
	l3.6,3.6L26,13.5v0c0,0,0,0,0,0c0,0,0,0,0,0c-0.2,0.1-0.4,0.1-0.5,0.3c0,0,0,0,0,0c0,0,0,0,0,0c0,0,0,0,0,0l-5.5-2.3l0,0
	c0,0-0.1,0-0.1-0.1c0-0.3-0.1-0.6-0.3-0.9c0,0-0.1-0.1,0-0.1L23.3,4.5z M19.6,12.6l5.1,2.2c0,0,0.1,0,0.1,0.1c0,0,0,0,0,0.1
	c0,0.1,0,0.2,0,0.2v0.1c0,0,0,0.1-0.1,0.1l0,0c-0.8,0.3-11.4,4.9-11.4,4.9s0,0,0,0c0,0,0-0.1,0-0.1c0,0,0,0,0,0l4.2-6.5l0,0
	c0,0,0.1-0.1,0.1-0.1l0,0c0.1,0,0.2,0,0.3,0c0.6,0,1.2-0.3,1.6-0.8C19.5,12.6,19.5,12.6,19.6,12.6C19.6,12.6,19.6,12.6,19.6,12.6z
	 M13.7,21.2l11.6-4.9c0,0,0,0,0,0c0.1,0.1,0.1,0.1,0.2,0.1l0,0c0,0,0,0,0,0.1c0,0,0,0,0,0l-1,6.1l0,0c0,0,0,0.1-0.1,0.1
	c-0.5,0-1,0.3-1.3,0.8l0,0c0,0,0,0,0,0.1c0,0,0,0-0.1,0l-9.2-1.9C13.9,21.7,13.8,21.2,13.7,21.2z"/>
</svg>
