<svg xmlns="http://www.w3.org/2000/svg" viewBox="0 0 168 168" width="168" height="168" aria-hidden="true" xmlns="http://www.w3.org/2000/svg" xmlns:xlink="http://www.w3.org/1999/xlink">
  <defs>
     <linearGradient id="fc-5-a" x1="51.1" y1="149.71" x2="51.1" y2="31.64" gradientUnits="userSpaceOnUse">
       <stop offset="0" stop-color="#6f0084"></stop>
       <stop offset=".11" stop-color="#6a0785"></stop>
       <stop offset=".28" stop-color="#5e1b88"></stop>
       <stop offset=".48" stop-color="#493c8e"></stop>
       <stop offset=".71" stop-color="#2c6a95"></stop>
       <stop offset=".96" stop-color="#07a39e"></stop>
       <stop offset="1" stop-color="#00aea0"></stop>
     </linearGradient>
     <linearGradient id="fc-5-b" x1="121.62" y1="100.2" x2="121.62" y2="167.76" gradientUnits="userSpaceOnUse">
       <stop offset="0" stop-color="#ff927c"></stop>
       <stop offset=".43" stop-color="#ff947e"></stop>
       <stop offset=".58" stop-color="#ff9985"></stop>
       <stop offset=".69" stop-color="#ffa390"></stop>
       <stop offset=".78" stop-color="#ffb1a1"></stop>
       <stop offset=".85" stop-color="#ffc3b7"></stop>
       <stop offset=".92" stop-color="#ffdad3"></stop>
       <stop offset=".98" stop-color="#fff4f2"></stop>
       <stop offset="1" stop-color="#fff"></stop>
     </linearGradient>
     <linearGradient id="fc-5-c" x1="1346.08" y1="-1026.12" x2="1359.8" y2="-1026.12" gradientTransform="translate(-1230.48 1187.02)" gradientUnits="userSpaceOnUse">
       <stop offset="0" stop-color="#fff" stop-opacity="0"></stop>
       <stop offset=".37" stop-color="#fff" stop-opacity=".01"></stop>
       <stop offset=".51" stop-color="#fff" stop-opacity=".03"></stop>
       <stop offset=".6" stop-color="#fff" stop-opacity=".08"></stop>
       <stop offset=".68" stop-color="#fff" stop-opacity=".15"></stop>
       <stop offset=".75" stop-color="#fff" stop-opacity=".23"></stop>
       <stop offset=".8" stop-color="#fff" stop-opacity=".34"></stop>
       <stop offset=".86" stop-color="#fff" stop-opacity=".47"></stop>
       <stop offset=".91" stop-color="#fff" stop-opacity=".61"></stop>
       <stop offset=".95" stop-color="#fff" stop-opacity=".78"></stop>
       <stop offset=".99" stop-color="#fff" stop-opacity=".96"></stop>
       <stop offset="1" stop-color="#fff"></stop>
     </linearGradient>
   </defs>
   <path d="M84 31.64v118.07H19a.83.83 0 0 1-.78-.87V31.64z" opacity=".6" fill="url(#fc-5-a)"></path>
   <path d="M84 18v13.64H18.19V19.76A1.65 1.65 0 0 1 19.75 18z" fill="#6f0084"></path>
   <path d="M149.81 19.76v11.88H84V18h64.25a1.65 1.65 0 0 1 1.56 1.76z" fill="#00d6c6"></path>
   <path d="M149.81 31.64v117.2a.83.83 0 0 1-.78.87H84V31.64z" fill="#c9f5f2"></path>
   <circle cx="28.37" cy="24.83" r="2" fill="#a8009c"></circle>
   <circle cx="37.28" cy="24.83" r="2" fill="#a8009c"></circle>
   <circle cx="46.19" cy="24.83" r="2" fill="#a8009c"></circle>
   <path fill="none" stroke="#a8009c" stroke-miterlimit="10" stroke-width="1.5" d="M.67.57l14.37 14.37M.22 17l10.94 2.93m6-19.62l2.87 10.74"></path>
   <path fill="none" stroke="#6f0084" stroke-miterlimit="10" stroke-width="1.5" d="M84.04 82.68H33.19V46.66h50.85M33.19 149.71v-31.46h50.86"></path>
   <path d="M84 65.9v16.78H33.19v-6.52c0-5 3.17-8.21 8.44-8.21 6.24 0 9.65 4.22 16.37 1s9.8-16.19 18-16.19 8 10.63 8 13.14zm0 71.6v12.2H33.19v-1.94c0-5 3.17-8.21 8.44-8.21 6.24 0 9.65 4.22 16.37 1s9.8-16.18 18-16.18 8 10.63 8 13.13z" fill="#6f0084"></path>
   <circle cx="45.88" cy="57.21" r="5.07" fill="#6f0084"></circle>
   <circle cx="45.88" cy="128.8" r="5.07" fill="#6f0084"></circle>
   <path fill="none" stroke="#00aea0" stroke-miterlimit="10" stroke-width="1.5" d="M84.04 46.66h17.78"></path>
   <circle cx="108.21" cy="46.66" r="1.43" fill="#00aea0" stroke="#00aea0" stroke-miterlimit="10"></circle>
   <path fill="none" stroke="#00aea0" stroke-miterlimit="10" stroke-width="1.5" d="M134.81 46.66H114.6M84.04 58.8h9.61m35.17 0h5.99"></path>
   <circle cx="100.04" cy="58.8" r="1.43" fill="#00aea0" stroke="#00aea0" stroke-miterlimit="10"></circle>
   <path fill="none" stroke="#00aea0" stroke-miterlimit="10" stroke-width="1.5" d="M84.04 70.53h24.17"></path>
   <circle cx="114.6" cy="70.53" r="1.43" fill="#00aea0" stroke="#00aea0" stroke-miterlimit="10"></circle>
   <path fill="none" stroke="#00aea0" stroke-miterlimit="10" stroke-width="1.5" d="M134.81 70.53h-13.82m13.82 12.15h-15.6m-35.17 0h8.89"></path>
   <circle cx="99.32" cy="82.68" r="1.43" fill="#00aea0" stroke="#00aea0" stroke-miterlimit="10"></circle>
   <path fill="none" stroke="#00aea0" stroke-miterlimit="10" stroke-width="1.5" d="M114.6 82.68h-8.89m.72-23.88h17.78"></path>
   <rect x="93.65" y="95.24" width="41.3" height="11.42" rx=".3" ry=".3" fill="#00d6c6"></rect>
   <path fill="none" stroke="#6f0084" stroke-miterlimit="10" stroke-width="1.5" d="M33.19 90.85h27.48m-27.48 9.13h50.85m-50.85 9.13h50.85"></path>
   <path d="M127.09 127.62v-.05" fill="none" stroke="#000" stroke-miterlimit="10"></path>
   <path d="M136.36 167.76h-27.23a17.84 17.84 0 0 0-1.13-2.36c-3.25-5.55-5-16.54-5-20.28 0-3.41 1.66-8 2-11.79s0-9 1.86-8.81c1.47.16 3.15 2.67 4 5.4.28-5.11.68-14 .84-16.7.21-3.41.56-13 3.4-13s3.21 10.69 3.36 13.52c.06.9.19 2.85.36 5.12 0-.84 5.31-.36 6.41 1.29.93 1.4 1.06 3.13 1.32 4.79 0-1 4.67-1.54 6.27.35 1 1.17 1.3 3.51 1.45 5.59.17-.92 4.11-.17 5.07 2.87 1.1 3.51.19 10.27.76 16.59.5 5.16-2.39 12.93-3.74 17.42z" fill="url(#fc-5-b)"></path>
   <path d="M110.77 127.62s.12 2.3.12 2.31c-.07 1.42-.14 2.54-.18 3.16-.21 2.8-1.1 9.9.54 15.77m15.32-25.2V125c.05.3.1.59.16.88.4 1.9.24 5.91 1.42 8.64m6.33-.33c-.07-.75-.14-2.86-.24-4.2m-14.55 4.9a18.22 18.22 0 0 0 .27-4.64s-.5-7.29-.86-12.24" fill="none" stroke="#ef5c8a" stroke-miterlimit="10"></path>
   <path transform="rotate(90 122.455 160.895)" fill="url(#fc-5-c)" d="M115.6 131.37h13.72v59.05H115.6z"></path>
   <path fill="none" stroke="#00aea0" stroke-miterlimit="10" stroke-width="1.5" d="M84 .1v168"></path>
 </svg>