<svg xmlns="http://www.w3.org/2000/svg" viewBox="0 0 168 168" width="168" height="168" aria-hidden="true" xmlns="http://www.w3.org/2000/svg" xmlns:xlink="http://www.w3.org/1999/xlink">
  <defs>
    <linearGradient id="fc-2-a" x1=".03" y1="71.07" x2="83.15" y2="71.07" gradientUnits="userSpaceOnUse">
      <stop offset="0" stop-color="#6f0084"></stop>
      <stop offset=".11" stop-color="#6a0785"></stop>
      <stop offset=".28" stop-color="#5e1b88"></stop>
      <stop offset=".48" stop-color="#493c8e"></stop>
      <stop offset=".71" stop-color="#2c6a95"></stop>
      <stop offset=".96" stop-color="#07a39e"></stop>
      <stop offset="1" stop-color="#00aea0"></stop>
    </linearGradient>
    <linearGradient id="fc-2-b" x1="84.85" y1="20.07" x2="167.97" y2="20.07" xlink:href="#fc-2-a"></linearGradient>
    <linearGradient id="fc-2-c" x1="84.85" y1="126.86" x2="167.97" y2="126.86" xlink:href="#fc-2-a"></linearGradient>
    <path id="fc-2-cloud" d="M82.15 91H1a1 1 0 0 1-1-1c.61-10 10-20.66 23.24-17.67 0 0 1.84-21.13 24.76-21.13s23.49 25.71 23.49 25.71 11.11 0 11.66 13a1 1 0 0 1-1 1.09z" opacity=".5" fill="url(#fc-2-a)"></path>
    <g id="fc-2-rack">
      <rect x="35.11" y="65.04" width="97.56" height="29.9" rx="1" ry="1" fill="#00d6c6"></rect>
      <circle cx="50.31" cy="79.99" r="4.52" fill="#00aea0"></circle>
      <path fill="none" stroke="#00aea0" stroke-miterlimit="10" stroke-width="2" d="M61.42 79.99h61.33"></path>
    </g>
  </defs>
  <use xlink:href="#fc-2-cloud"></use>
  <use xlink:href="#fc-2-cloud" x="84" y="-50"></use>
  <path fill="none" stroke="#53007a" stroke-miterlimit="10" stroke-width="2" d="M24.61 87.16l1.53-8.01-8.01-1.53m23.45 75.28c-41.58 0-53.15-49.74-15.43-73.75"></path>
  <path fill="none" stroke="#53007a" stroke-miterlimit="10" stroke-width="2" d="M130.46 27.38l5.3-6.2-6.19-5.3M84.82 71.07c0-15.13 14.25-49.89 51-49.89"></path>
  <rect x="42" y="73" width="85" height="85" fill="#00aea0"></rect>
  <use xlink:href="#fc-2-rack"></use>
  <use xlink:href="#fc-2-rack" y="36"></use>
  <use xlink:href="#fc-2-rack" y="72"></use>
  <use xlink:href="#fc-2-cloud" x="84" y="55"></use>
  <path fill="none" stroke="#53007a" stroke-miterlimit="10" stroke-width="2" d="M132.67 80.14c22.37 2.29 40.44 31.15 3.89 52.68m1.8-7.95l-1.8 7.95 7.96 1.8"></path>
</svg>