<svg xmlns="http://www.w3.org/2000/svg" viewBox="0 0 168 168" width="168" height="168" aria-hidden="true" xmlns="http://www.w3.org/2000/svg" xmlns:xlink="http://www.w3.org/1999/xlink">
  <defs>
    <clipPath id="fc-4-a">
      <path d="M84 150.63h-7.09a1 1 0 0 1-1-1.26l5.14-19a1 1 0 0 0-.41-1.12 8.23 8.23 0 0 1 3.37-15.11l13-10.15h43.58v46.67z" fill="none"></path>
    </clipPath>
    <linearGradient id="fc-4-b" x1="109.39" y1="122.85" x2="168" y2="122.85" gradientUnits="userSpaceOnUse">
      <stop offset="0" stop-color="#6f0084"></stop>
      <stop offset=".11" stop-color="#6a0785"></stop>
      <stop offset=".28" stop-color="#5e1b88"></stop>
      <stop offset=".48" stop-color="#493c8e"></stop>
      <stop offset=".71" stop-color="#2c6a95"></stop>
      <stop offset=".96" stop-color="#07a39e"></stop>
      <stop offset="1" stop-color="#00aea0"></stop>
    </linearGradient>
  </defs>
  <path d="M168 13.63v131.48a.83.83 0 0 1-.78.87H.78a.82.82 0 0 1-.78-.87V13.63z" fill="#c9f5f2"></path>
  <path d="M168 1.74v11.89H0V1.74A1.65 1.65 0 0 1 1.56 0h164.88A1.66 1.66 0 0 1 168 1.74z" fill="#00d6c6"></path>
  <circle cx="10.17" cy="6.81" r="2" fill="#a8009c" stroke="#a8009c" stroke-miterlimit="10"></circle>
  <circle cx="19.09" cy="6.81" r="2" fill="#a8009c" stroke="#a8009c" stroke-miterlimit="10"></circle>
  <circle cx="28" cy="6.81" r="2" fill="#a8009c" stroke="#a8009c" stroke-miterlimit="10"></circle>
  <path fill="#fff" d="M15 28.63h96.23v52.5H15zm0 66.07h96.23v36.1H15zm109.8-66.07H153V130.8h-28.2z"></path>
  <rect x="52.18" y="94.73" width="63.64" height="73.27" rx="2" ry="2" fill="#00d6c6"></rect>
  <path d="M93.24 150.63H76.91a1 1 0 0 1-1-1.26l5.14-19a1 1 0 0 0-.41-1.12 8.24 8.24 0 1 1 8.82 0 1 1 0 0 0-.45 1.09l5.16 19.08a1 1 0 0 1-.93 1.21z" fill="#00aea0"></path>
  <path d="M105.17 80.44v14.29h-7V80.44a14.17 14.17 0 0 0-28.34 0v14.29h-7V80.44a21.17 21.17 0 0 1 42.34 0z" fill="#00d6c6"></path>
  <g clip-path="url(#fc-4-a)">
    <path fill="#53007a" d="M87.51 126.95h4.79v6.81h-4.79zm-7.68 0h4.78v6.81h-4.78z"></path>
    <path d="M137.23 123.45a13.92 13.92 0 0 1-27.39 3.5H76.35v-7h33.49a13.92 13.92 0 0 1 27.39 3.5z" fill="#53007a"></path>
    <path fill="none" stroke="#b800aa" stroke-miterlimit="10" stroke-width="2" d="M119.26 123.41l4.13 4.76 5.76-9.44"></path>
  </g>
  <path d="M168 98.71V147l-48.4-10.11a13.93 13.93 0 0 1 0-26.85z" opacity=".5" fill="url(#fc-4-b)"></path>
</svg>