<svg xmlns="http://www.w3.org/2000/svg" viewBox="0 0 359 556" width="359" height="556">
  <defs>
    <linearGradient id="adn-hand" x1="50%" x2="50%" y1="0" y2="100%">
      <stop offset="0%" stop-color="#AD4936"></stop>
      <stop offset="40%" stop-color="#AD4936" stop-opacity="0.99"></stop>
      <stop offset="55%" stop-color="#AD4936" stop-opacity="0.95"></stop>
      <stop offset="65%" stop-color="#AD4936" stop-opacity="0.88"></stop>
      <stop offset="74%" stop-color="#AD4936" stop-opacity="0.78"></stop>
      <stop offset="81%" stop-color="#AD4936" stop-opacity="0.66"></stop>
      <stop offset="87%" stop-color="#AD4936" stop-opacity="0.5"></stop>
      <stop offset="93%" stop-color="#AD4936" stop-opacity="0.31"></stop>
      <stop offset="98%" stop-color="#AD4936" stop-opacity="0.1"></stop>
      <stop offset="100%" stop-color="#AD4936" stop-opacity="0"></stop>
    </linearGradient>
  </defs>
  <g fill="none" fill-rule="evenodd" transform="matrix(1 0 0 -1 0 554)">
    <ellipse cx="228.315332" cy="238.229583" fill="#00D6C6" fill-rule="nonzero" rx="30.4155201" ry="30.4741786"></ellipse>
    <ellipse cx="228.315332" cy="238.229583" fill="#53007A" fill-rule="nonzero" rx="12.3701908" ry="12.3940476"></ellipse>
    <ellipse cx="23.8019534" cy="286.847857" fill="#B800AA" fill-rule="nonzero" rx="23.8019534" ry="23.8478571"></ellipse>
    <ellipse cx="120.801953" cy="42.8478571" fill="#B800AA" fill-rule="nonzero" rx="14.5" ry="14.5279643"></ellipse>
    <ellipse cx="334.801953" cy="384.847857" fill="#FA6E84" fill-rule="nonzero" rx="23.8019534" ry="23.8478571"></ellipse>
    <ellipse cx="73.8019534" cy="140.843383" fill="#FA6E84" fill-rule="nonzero" rx="23.8019534" ry="23.8478571"></ellipse>
    <path fill="#00838C" fill-rule="nonzero" d="M146 347H83a32 32 0 0 1 63 0z" opacity="0.5"></path>
    <path fill="#00C4B5" fill-rule="nonzero" d="M316 503h-43a22 22 0 0 1 43 0zm-132-54v-56l22 28-22 28z"></path>
    <path stroke="#53007A" stroke-width="2.96000004" d="M185 238H73a49 49 0 0 0-35 84c9 9 22 14 35 14h213a49 49 0 0 1 0 97H48"></path>
    <circle cx="106.5" cy="433.5" r="5" fill="#FFF" fill-rule="nonzero" stroke="#53007A" stroke-width="3"></circle>
    <circle cx="256.5" cy="433.5" r="5" fill="#FFF" fill-rule="nonzero" stroke="#53007A" stroke-width="3"></circle>
    <circle cx="185.5" cy="335.5" r="5" fill="#FFF" fill-rule="nonzero" stroke="#53007A" stroke-width="3"></circle>
    <ellipse cx="228.315332" cy="43.2295833" fill="#00D6C6" fill-rule="nonzero" rx="43.1463725" ry="43.2295833"></ellipse>
    <ellipse cx="228.315332" cy="43.2295833" fill="#53007A" fill-rule="nonzero" rx="12.3701908" ry="12.3940476"></ellipse>
    <ellipse cx="228.315332" cy="43.2295833" stroke="#00AEA0" stroke-width="1.48000002" rx="28.7287018" ry="28.7841071"></ellipse>
    <path stroke="#53007A" stroke-dasharray="15" stroke-width="2.96000004" d="M228 43h130"></path>
    <path stroke="#B800AA" stroke-width="2.96000004" d="M335 0l-10 4"></path>
    <path stroke="#B800AA" stroke-dasharray="18" stroke-width="2.96000004" d="M313 9l-29 12"></path>
    <path stroke="#B800AA" stroke-width="2.96000004" d="M278 23l-10 4m0 32l10 4"></path>
    <path stroke="#B800AA" stroke-dasharray="18" stroke-width="2.96000004" d="M290 68l29 12"></path>
    <path stroke="#B800AA" stroke-width="2.96000004" d="M325 82l10 4"></path>
    <path stroke="#53007A" stroke-width="2.96000004" d="M185 43H73a49 49 0 0 0-35 84c9 9 22 14 35 14h213a49 49 0 0 1 0 97H77"></path>
    <ellipse cx="23.8232813" cy="433.457202" fill="#00D6C6" fill-rule="nonzero" rx="23.8019534" ry="23.8478571"></ellipse>
    <ellipse cx="23.8232813" cy="433.457202" fill="#53007A" fill-rule="nonzero" rx="12.3701908" ry="12.3940476"></ellipse>
    <circle cx="120.5" cy="238.5" r="5" fill="#FFF" fill-rule="nonzero" stroke="#53007A" stroke-width="3"></circle>
    <circle cx="163.5" cy="140.5" r="5" fill="#FFF" fill-rule="nonzero" stroke="#53007A" stroke-width="3"></circle>
    <circle cx="23.5" cy="93.5" r="5" fill="#FFF" fill-rule="nonzero" stroke="#53007A" stroke-width="3"></circle>
    <path fill="#000" fill-rule="nonzero" d="M53 492h-1c1 0 1 0 0 0h-2 3z"></path>
    <path fill="url(#adn-hand)" fill-rule="nonzero" d="M78 554H4c-2-8-4-16-4-25 0-7 4-17 4-25 1-8 0-19 4-19 3 1 7 6 9 12l2-36c0-7 1-28 7-28s7 23 7 29l1 11c0-1 11 0 13 3s3 7 3 10c0-2 10-3 14 1 2 3 2 8 3 12 0-2 8 0 11 6 2 8 0 22 1 36l-1 13z"></path>
    <path stroke="#094677" stroke-width="1.48000002" d="M16 492l1 5-1 7c0 6-2 21 1 33m33-53v2l1 2c0 4 0 13 3 19m13-1v-9m-32 11l1-10-2-26"></path>
    <path fill="#6F0084" fill-rule="nonzero" d="M309 526h-99l-1-1c1-13 12-26 28-22 0 0 3-26 31-26s28 32 28 32 14 0 15 16l-2 1z" opacity="0.5" transform="matrix(1 0 0 -1 0 1003)"></path>
  </g>
</svg>