<?xml version="1.0" encoding="utf-8"?> <svg xmlns="http://www.w3.org/2000/svg" viewBox="0 0 200 200"><title>Asset 228</title><g id="Layer_2" data-name="Layer 2"><g id="Layer_1-2" data-name="Layer 1"><g id="sea"><path d="M30.874,90.711a33.481,33.481,0,0,0-3.842-2.366,15.108,15.108,0,0,1-4.338-2.926,2.462,2.462,0,0,1-.62-1.68,2.866,2.866,0,0,1,.992-2.179,3.558,3.558,0,0,1,2.541-.934,5.591,5.591,0,0,1,2.6.685,5.374,5.374,0,0,1,1.983,1.93,8.778,8.778,0,0,1,.93,3.175h.558V79.444h-.558a2.8,2.8,0,0,1-.371.933,1.1,1.1,0,0,1-.621.249,3.383,3.383,0,0,1-1.176-.373,8,8,0,0,0-3.408-.809A5.641,5.641,0,0,0,21.393,81a4.984,4.984,0,0,0-1.673,3.735,4.7,4.7,0,0,0,.557,2.3,7.645,7.645,0,0,0,1.612,1.93c.743.56,1.982,1.307,3.656,2.3a25.94,25.94,0,0,1,3.16,1.867,4.394,4.394,0,0,1,1.239,1.432,2.761,2.761,0,0,1,.434,1.494,3.089,3.089,0,0,1-1.054,2.3,4.148,4.148,0,0,1-2.912,1,6.207,6.207,0,0,1-2.975-.747,4.8,4.8,0,0,1-1.92-1.743,9.814,9.814,0,0,1-1.054-3.237h-.557v6.91h.557a1.748,1.748,0,0,1,.311-.935.6.6,0,0,1,.556-.248,9.078,9.078,0,0,1,1.86.5,8.219,8.219,0,0,0,1.859.5,7.285,7.285,0,0,0,1.672.187,6.364,6.364,0,0,0,4.524-1.681,5.219,5.219,0,0,0,1.735-3.921,4.875,4.875,0,0,0-.557-2.3A5.787,5.787,0,0,0,30.874,90.711Z"/><path d="M52.313,95.005h-.558a15.383,15.383,0,0,1-1.859,2.8,4.891,4.891,0,0,1-1.487.935,11.734,11.734,0,0,1-2.479.186H42.584a2.923,2.923,0,0,1-1.177-.124.973.973,0,0,1-.372-.5,6.631,6.631,0,0,1-.123-1.619v-6.66h4.4a4.779,4.779,0,0,1,1.859.311,2.178,2.178,0,0,1,.866.81,9.186,9.186,0,0,1,.373,1.929h.558V86.041h-.558a3.641,3.641,0,0,1-.806,2.428,4.026,4.026,0,0,1-2.292.5h-4.4V81h5.452a5.819,5.819,0,0,1,2.107.249,2.268,2.268,0,0,1,1.115.872,9.008,9.008,0,0,1,.682,2.178h.558l-.248-4.42H35.21v.56h.744a2.117,2.117,0,0,1,1.735.623,4.448,4.448,0,0,1,.373,2.365V96.5a6.171,6.171,0,0,1-.187,1.929,1.206,1.206,0,0,1-.62.747,3.317,3.317,0,0,1-1.3.312H35.21v.56H50.577Z"/><path d="M71.026,96.188l-6.94-16.745h-.5L56.526,96a9.445,9.445,0,0,1-1.672,2.926,2.913,2.913,0,0,1-1.611.56v.56h6.32v-.56a3.732,3.732,0,0,1-1.921-.436,1.171,1.171,0,0,1-.434-.809,5.414,5.414,0,0,1,.5-1.743l1.362-3.175h7.746l1.241,2.864A6.692,6.692,0,0,1,68.61,98.3a.981.981,0,0,1-.434.81,2.429,2.429,0,0,1-1.611.373v.56h7.869v-.56a3.079,3.079,0,0,1-1.92-.623A8.656,8.656,0,0,1,71.026,96.188ZM59.563,92.2l3.469-8.155L66.379,92.2Z"/><path d="M136.213,96.188l-6.941-16.745h-.557l-7,16.558a9.463,9.463,0,0,1-1.673,2.926,3.137,3.137,0,0,1-1.611.56v.56h6.258v-.56a3.632,3.632,0,0,1-1.858-.436.977.977,0,0,1-.434-.809,5.414,5.414,0,0,1,.5-1.743l1.363-3.175H132l1.176,2.864A5.686,5.686,0,0,1,133.8,98.3a1.181,1.181,0,0,1-.434.81,2.548,2.548,0,0,1-1.611.373v.56h7.87v-.56a3.082,3.082,0,0,1-1.921-.623A8.68,8.68,0,0,1,136.213,96.188ZM124.687,92.2l3.47-8.155,3.408,8.155Z"/><line x1="124.687" y1="92.204" x2="131.565" y2="92.204"/><path d="M146.25,98.864a4.608,4.608,0,0,1-.371-2.365V90.648h2.044l6.755,9.4h5.329v-.559a6.134,6.134,0,0,1-2.6-.81A10.63,10.63,0,0,1,154.926,96l-4.091-5.727a7.039,7.039,0,0,0,3.718-1.929,4.741,4.741,0,0,0,1.178-3.237,4.205,4.205,0,0,0-1.054-2.988,5.083,5.083,0,0,0-2.54-1.743,17.1,17.1,0,0,0-4.709-.5h-7.25v.559h.743a2.323,2.323,0,0,1,1.735.685,4.438,4.438,0,0,1,.373,2.366V96.5a4.261,4.261,0,0,1-.31,2.179,1.933,1.933,0,0,1-1.8.809h-.744v.56h8.552v-.56h-.807A2.066,2.066,0,0,1,146.25,98.864Zm-.371-17.553a12.006,12.006,0,0,1,2.293-.25,4.1,4.1,0,0,1,3.1,1.184,4.232,4.232,0,0,1,1.178,3.05,3.9,3.9,0,0,1-1.487,3.174,6.379,6.379,0,0,1-4.275,1.245h-.806Z"/><path d="M177.542,96.935a10.312,10.312,0,0,0,2.542-7.034,10.668,10.668,0,0,0-1.426-5.539,7.754,7.754,0,0,0-3.78-3.425,17.186,17.186,0,0,0-6.754-1.057h-8.117v.559h.742a2.1,2.1,0,0,1,1.675.685c.309.311.433,1.058.433,2.366V96.5a5.1,5.1,0,0,1-.31,2.179,2,2,0,0,1-1.8.809h-.742v.56h8.922C172.771,100.047,175.684,98.989,177.542,96.935Zm-11.835,1.681V81.435a13.84,13.84,0,0,1,2.974-.374,7.645,7.645,0,0,1,5.826,2.366,9.347,9.347,0,0,1,2.23,6.6,9.447,9.447,0,0,1-2.23,6.6,7.7,7.7,0,0,1-5.7,2.366A15.977,15.977,0,0,1,165.707,98.616Z"/><path d="M26.783,115.174a3.442,3.442,0,0,1-1.859.5,4.382,4.382,0,0,1-2.168-.623,3.366,3.366,0,0,1-1.363-1.68,6.217,6.217,0,0,1-.5-2.552,8.337,8.337,0,0,1,.5-2.989,3.779,3.779,0,0,1,1.363-1.805,3.678,3.678,0,0,1,1.983-.56,3.284,3.284,0,0,1,2.169.747,4.6,4.6,0,0,1,1.425,2.428h.248l-.248-3.735h-.248a1.467,1.467,0,0,1-.31.623.456.456,0,0,1-.372.124,1.229,1.229,0,0,1-.5-.187,5.29,5.29,0,0,0-5.081.187,5.582,5.582,0,0,0-2.045,2.117,7.1,7.1,0,0,0-.682,3.05,6.288,6.288,0,0,0,1.054,3.548,5.028,5.028,0,0,0,4.214,1.992,4.685,4.685,0,0,0,2.54-.685,5.815,5.815,0,0,0,1.921-2.117l-.247-.186A5.443,5.443,0,0,1,26.783,115.174Z"/><path d="M39.858,104.9a5.2,5.2,0,0,0-3.656,1.431,6.121,6.121,0,0,0-.248,8.4,4.951,4.951,0,0,0,3.78,1.618,4.847,4.847,0,0,0,3.717-1.68,5.6,5.6,0,0,0,1.612-4.109,5.766,5.766,0,0,0-1.549-4.046A5.077,5.077,0,0,0,39.858,104.9Zm2.355,9.648a3.166,3.166,0,0,1-2.541,1.245,2.841,2.841,0,0,1-2.293-1.12,6.491,6.491,0,0,1-1.115-4.108,6.221,6.221,0,0,1,1.115-3.984,2.7,2.7,0,0,1,2.293-1.058,2.788,2.788,0,0,1,2.416,1.057,6.561,6.561,0,0,1,1.116,4.171A5.687,5.687,0,0,1,42.213,114.551Z"/><path d="M58.447,113.929l-2.292-3.175a3.943,3.943,0,0,0,2.044-1,2.671,2.671,0,0,0,.62-1.806,2.567,2.567,0,0,0-.558-1.619A2.974,2.974,0,0,0,56.9,105.4a11.874,11.874,0,0,0-2.54-.249H50.392v.311h.434a1.255,1.255,0,0,1,.929.373,2.357,2.357,0,0,1,.186,1.245v7.1a2.382,2.382,0,0,1-.186,1.182.974.974,0,0,1-.929.436h-.434v.311H55.04V115.8h-.434a1.255,1.255,0,0,1-.929-.373,2.345,2.345,0,0,1-.187-1.245V111h1.116l3.655,5.1h2.913V115.8a2.983,2.983,0,0,1-1.425-.435A6.122,6.122,0,0,1,58.447,113.929Zm-4.523-3.423H53.49V105.9a12.089,12.089,0,0,1,1.24-.124,2.239,2.239,0,0,1,1.672.622,2.495,2.495,0,0,1-.123,3.425A3.671,3.671,0,0,1,53.924,110.506Z"/><path d="M72.018,105.462a7.276,7.276,0,0,0-2.293-.311H65.76v.311h.372a1.087,1.087,0,0,1,.929.374c.185.125.247.56.247,1.245v7.1a2.385,2.385,0,0,1-.186,1.182,1.018,1.018,0,0,1-.99.436h-.373v.311h4.648V115.8h-.434a1.082,1.082,0,0,1-.929-.373,2.348,2.348,0,0,1-.187-1.245V111a4.73,4.73,0,0,0,.93.124,4.388,4.388,0,0,0,.867.062,3.507,3.507,0,0,0,2.479-.809A3.009,3.009,0,0,0,74,108.2a2.789,2.789,0,0,0-.558-1.744A3.307,3.307,0,0,0,72.018,105.462Zm-.435,4.545a1.945,1.945,0,0,1-1.425.685,1.711,1.711,0,0,1-.557-.062,3.112,3.112,0,0,1-.744-.124v-4.545a3.252,3.252,0,0,1,1.054-.124,1.969,1.969,0,0,1,1.176.311,1.826,1.826,0,0,1,.806.871,3.359,3.359,0,0,1,.31,1.307A2.531,2.531,0,0,1,71.583,110.007Z"/><path d="M85.03,104.9a5.191,5.191,0,0,0-3.655,1.431,5.559,5.559,0,0,0-1.8,4.233,5.86,5.86,0,0,0,1.549,4.171,5.157,5.157,0,0,0,7.56-.062,6.141,6.141,0,0,0,0-8.155A5.077,5.077,0,0,0,85.03,104.9Zm2.355,9.648a3.166,3.166,0,0,1-2.541,1.245,2.84,2.84,0,0,1-2.293-1.12,6.491,6.491,0,0,1-1.114-4.108,6.221,6.221,0,0,1,1.114-3.984,2.7,2.7,0,0,1,2.293-1.058,2.791,2.791,0,0,1,2.417,1.057,6.561,6.561,0,0,1,1.116,4.171A5.681,5.681,0,0,1,87.385,114.551Z"/><path d="M104.92,115.361a6.1,6.1,0,0,1-1.3-1.432l-2.293-3.175a3.958,3.958,0,0,0,2.046-1,2.727,2.727,0,0,0,.68-1.806,2.63,2.63,0,0,0-.619-1.619,2.984,2.984,0,0,0-1.363-.933,11.877,11.877,0,0,0-2.541-.249H95.564v.311H96a1.26,1.26,0,0,1,.93.373,2.357,2.357,0,0,1,.186,1.245v7.1a4.1,4.1,0,0,1-.124,1.182A1.155,1.155,0,0,1,96,115.8h-.433v.311h4.646V115.8h-.433a1.038,1.038,0,0,1-.867-.373c-.186-.125-.248-.561-.248-1.245V111h1.115l3.656,5.1h2.912V115.8A3.218,3.218,0,0,1,104.92,115.361ZM99.1,110.506h-.434V105.9a12.089,12.089,0,0,1,1.24-.124,2.239,2.239,0,0,1,1.672.622,2.347,2.347,0,0,1-.124,3.425A3.666,3.666,0,0,1,99.1,110.506Z"/><path d="M120.411,113.991l-3.779-9.088h-.25l-3.84,9.026a5.438,5.438,0,0,1-.868,1.556,1.679,1.679,0,0,1-.867.311v.311h3.409V115.8a2.539,2.539,0,0,1-1.054-.249.626.626,0,0,1-.248-.436,3.12,3.12,0,0,1,.31-.933l.743-1.743h4.151l.681,1.555a5.223,5.223,0,0,1,.31,1.121.566.566,0,0,1-.247.5,1.363,1.363,0,0,1-.867.187v.311h4.275V115.8a1.306,1.306,0,0,1-.992-.373A3.771,3.771,0,0,1,120.411,113.991Zm-2.478-2.178h-3.717l1.858-4.421,1.859,4.421Z"/><path d="M127.538,105.152l-.125,2.552h.311a2.227,2.227,0,0,1,.371-1.183,1.944,1.944,0,0,1,.682-.56,4.043,4.043,0,0,1,1.053-.124h1.363v8.341c-.062.622-.062,1.058-.185,1.182a1.083,1.083,0,0,1-.991.436h-.373v.311h4.586V115.8h-.372a1.277,1.277,0,0,1-.93-.311c-.186-.187-.248-.623-.248-1.307v-8.341h1.55a1.765,1.765,0,0,1,1.053.248,1.463,1.463,0,0,1,.681.685,2.459,2.459,0,0,1,.249.934h.309l-.123-2.552Z"/><path d="M141.789,105.463h.372a1.649,1.649,0,0,1,.744.187c.124.124.248.186.31.373a3.09,3.09,0,0,1,.124,1.058v7.1a2.7,2.7,0,0,1-.186,1.245,1.306,1.306,0,0,1-.992.373h-.372v.311h4.647V115.8H146a1.246,1.246,0,0,1-.681-.186c-.186-.125-.311-.187-.373-.374a3.121,3.121,0,0,1-.124-1.058v-7.1a2.5,2.5,0,0,1,.248-1.245,1.087,1.087,0,0,1,.93-.373h.433v-.311h-4.647Z"/><path d="M157.219,104.9a5.417,5.417,0,0,0-3.657,1.431,5.738,5.738,0,0,0-1.735,4.233,5.605,5.605,0,0,0,1.55,4.171,4.909,4.909,0,0,0,3.718,1.618,4.978,4.978,0,0,0,3.779-1.68,6.138,6.138,0,0,0,0-8.155A4.873,4.873,0,0,0,157.219,104.9Zm2.416,9.648a3.165,3.165,0,0,1-2.541,1.245,2.756,2.756,0,0,1-2.292-1.12,6.484,6.484,0,0,1-1.116-4.108,6.627,6.627,0,0,1,1.053-3.984,3.221,3.221,0,0,1,4.773,0,6.574,6.574,0,0,1,1.114,4.171A6.059,6.059,0,0,1,159.635,114.551Z"/><path d="M175.312,105.463h.434a1.515,1.515,0,0,1,.929.311,2.852,2.852,0,0,1,.185,1.307v6.287l-6.63-8.216h-2.912v.31a1.9,1.9,0,0,1,.682.063c.309.124.557.249.743.311.124.125.373.374.682.747v7.595a2.233,2.233,0,0,1-.186,1.182.975.975,0,0,1-.93.436h-.371v.311h3.717V115.8h-.372a1.28,1.28,0,0,1-.929-.311,2.825,2.825,0,0,1-.186-1.307v-6.723l7.126,8.839h.31v-9.213a3.789,3.789,0,0,1,.124-1.183,1.083,1.083,0,0,1,.991-.435h.373v-.311h-3.78Z"/><path d="M88.747,89.777a5.566,5.566,0,0,0,2.665-1.743,4.435,4.435,0,0,0,.93-2.739,4.725,4.725,0,0,0-1.179-3.113,6.384,6.384,0,0,0-3.345-1.93,16.569,16.569,0,0,0-3.905-.372H75.3v.559h.744a2.325,2.325,0,0,1,1.735.685,4.6,4.6,0,0,1,.372,2.366V96.5a4.261,4.261,0,0,1-.31,2.179,2,2,0,0,1-1.8.809H75.3v.56h9.42a14.728,14.728,0,0,0,5.018-.622,5.4,5.4,0,0,0,2.541-1.992,4.73,4.73,0,0,0,.992-2.863,4.427,4.427,0,0,0-1.426-3.362A6.269,6.269,0,0,0,88.747,89.777ZM81,81.248a8.928,8.928,0,0,1,2.664-.373,6.247,6.247,0,0,1,4.152,1.245,4.06,4.06,0,0,1,1.425,3.05,4.306,4.306,0,0,1-.557,2.116,3.474,3.474,0,0,1-1.673,1.433,8.731,8.731,0,0,1-3.222.435H82.242c-.434-.062-.867-.125-1.24-.187h0Zm7.436,16.558a6.055,6.055,0,0,1-4.09,1.183A15.761,15.761,0,0,1,81,98.616h0v-8.28c.247-.062.619-.062,1.053-.124H83.6a8.362,8.362,0,0,1,3.533.622,4.359,4.359,0,0,1,2.044,1.681,4.5,4.5,0,0,1,.682,2.3A3.841,3.841,0,0,1,88.438,97.806Z"/><path d="M108.1,77.9A11.255,11.255,0,1,0,119.35,89.155,11.268,11.268,0,0,0,108.1,77.9Zm.886.788c.124.139.309.168.451.272.017.012.069.012.063.028-.012.031-.045.07-.073.074a1.121,1.121,0,0,1-.239.006.149.149,0,0,0-.165.1c0,.013.006.032.009.049.076-.022.109.125.2.046s.188-.014.282-.028c.012,0,.026.017.04.026l-.043.026a.738.738,0,0,0-.217.125.316.316,0,0,0-.02.423c.083.093.176.177.264.266a.749.749,0,0,1,.155.2.988.988,0,0,0,.569.484,1.48,1.48,0,0,0,.541.052c.171,0,.342-.017.429.2.036.086.16.072.235.012a.3.3,0,0,0,.126-.3c-.009-.061.024-.15-.007-.182-.071-.073-.013-.133.011-.172a.141.141,0,0,0,0-.177c-.057-.11.094-.3.233-.284a.539.539,0,0,0,.494-.233,1.235,1.235,0,0,1,.437-.282A10.868,10.868,0,0,1,116.975,83a.13.13,0,0,1-.088.028c-.086,0-.111.031-.1.108.006.033-.013.056-.04.055-.159-.007-.248.1-.346.2s-.1.1-.276.07a.1.1,0,0,0-.072.014c-.027.028.014.04.028.054a1.513,1.513,0,0,1,.348.446,1.14,1.14,0,0,1,.035.307c0,.024-.029.034-.058.037a.926.926,0,0,1-.455-.068c-.049-.021-.1-.058-.142-.036-.064.036-.1-.1-.143-.02-.03.062-.1.135-.046.211.089.124.037.259.037.385a1.629,1.629,0,0,0,.058.5c0,.008,0,.019,0,.025a1.246,1.246,0,0,0,.508.176c.079-.074.169-.048.25-.04s.1-.053.165-.063.028-.088.038-.135a.86.86,0,0,0,.059-.246.182.182,0,0,1,.08-.147c.129-.053.138-.174.18-.274.019-.045.022-.054.061-.021a.237.237,0,0,0,.294.022c.09-.05.148-.04.182.031a2.219,2.219,0,0,0,.12.272c.11.162.242.309.354.47.046.066.1-.069.14.022a.224.224,0,0,0,.1.1,10.65,10.65,0,0,1,.354,1.177l0,.009a.43.43,0,0,1-.344-.048c-.127-.125-.252-.253-.379-.378a.63.63,0,0,1-.123-.218.632.632,0,0,0-.2-.265.368.368,0,0,0-.255-.1,1.079,1.079,0,0,0-.529.086.447.447,0,0,1-.4-.009c-.057-.03-.127.012-.168-.051-.021-.034-.045-.016-.05.009-.03.157-.154.244-.251.352a.818.818,0,0,0-.171.407.446.446,0,0,1-.139.32,5.982,5.982,0,0,1-.638.864.833.833,0,0,0-.19.455.635.635,0,0,0,.124.4.622.622,0,0,1,.088.286.56.56,0,0,1-.086.315.355.355,0,0,0-.073.155c0,.074.1.138.073.211a.33.33,0,0,0,.024.265c.031.083.138.113.131.214a9.291,9.291,0,0,0,.873.924.334.334,0,0,0,.377.084.4.4,0,0,1,.2-.033,2.617,2.617,0,0,0,.85-.149.608.608,0,0,1,.548.2.131.131,0,0,1,.026.069.55.55,0,0,1-.012.182.749.749,0,0,0-.085.414,2.81,2.81,0,0,0,.108.383,1.556,1.556,0,0,1,.09.816,1.311,1.311,0,0,1-.176.434,2.72,2.72,0,0,0-.254.781,3.144,3.144,0,0,0-.03.333,10.818,10.818,0,0,1-9.458,5.585c-.346,0-.688-.02-1.026-.052a.341.341,0,0,1,.193-.208.678.678,0,0,0,.351-.184.373.373,0,0,1,.373-.139.454.454,0,0,0,.434-.181.813.813,0,0,1,.354-.245,1.252,1.252,0,0,0,.464-.3,5.213,5.213,0,0,1,.382-.376.509.509,0,0,0,.191-.321c.018-.182.148-.228.263-.282a1.1,1.1,0,0,1,.409-.106c.106,0,.191-.065.3-.068a.308.308,0,0,0,.265-.181c.093-.266.3-.463.409-.716a1.667,1.667,0,0,0,.13-.427.7.7,0,0,1,.278-.525,2.01,2.01,0,0,0,.264-.266.656.656,0,0,0,.091-.54.122.122,0,0,0-.1-.073,1.208,1.208,0,0,1-.5-.213.666.666,0,0,0-.311-.084,2.74,2.74,0,0,1-.762-.3,1.124,1.124,0,0,0-.581-.151.281.281,0,0,1-.294-.182,2.31,2.31,0,0,1-.078-.235,1.1,1.1,0,0,0-.363-.464.32.32,0,0,0-.232-.086c-.106.007-.214,0-.321,0a.664.664,0,0,1-.388-.165c-.108-.1-.187-.237-.337-.284a.833.833,0,0,1-.3-.187.6.6,0,0,0-.411-.17.644.644,0,0,1-.5-.1c-.02-.018-.067-.007-.1-.008a.483.483,0,0,1-.367-.087c-.056-.053-.137-.009-.2-.02-.053-.007-.043.037-.056.068a1.619,1.619,0,0,0-.1.2c-.017.068-.059.05-.1.054-.065.007-.074-.034-.066-.083.023-.141-.056-.266-.063-.406-.009-.193-.286-.326-.5-.246a.833.833,0,0,1-.2.038.321.321,0,0,1-.361-.231.641.641,0,0,1-.061-.554c.09-.213-.147-.48-.405-.5-.071-.006-.143,0-.215,0-.206,0-.3-.091-.279-.3a1.209,1.209,0,0,1,.117-.433,1.083,1.083,0,0,0,.09-.176c.014-.044.024-.114-.067-.105-.018,0-.036,0-.053,0-.085.012-.178-.034-.255.031a.664.664,0,0,0-.211.288c-.069.2-.088.214-.263.217-.054,0-.108,0-.161,0-.422.032-.6-.216-.752-.527a1.345,1.345,0,0,1-.056-.593.08.08,0,0,1,.015-.047,4.523,4.523,0,0,0,.29-.578c.092-.168.254-.185.366-.292.142.025.263-.082.407-.055a.661.661,0,0,0,.487-.112.617.617,0,0,1,.6-.038.716.716,0,0,0,.169.045c.067.007.139-.027.2.041a.481.481,0,0,1,.145.263.759.759,0,0,0,.25.513.167.167,0,0,0,.118.041c.032,0,.057-.012.057-.039a.651.651,0,0,0-.011-.262c-.09-.208-.085-.44-.195-.644-.067-.124.113-.41.271-.5a1.341,1.341,0,0,0,.692-.959.851.851,0,0,1,.231-.443c.24-.257.476-.519.729-.764.061-.059.062-.148.153-.2a1.551,1.551,0,0,1,.559-.2c.066-.007.1-.068.165-.063.026,0,.056-.047.084-.047a.675.675,0,0,1,.261.014c-.024.1-.128.091-.19.14-.022.017-.058.027-.086.048-.077.057.03.076.024.126s.029.033.059.01.058-.006.069-.022a.861.861,0,0,1,.561-.266.443.443,0,0,0,.047-.017c-.013-.019-.025-.038-.039-.057-.06-.082-.18.02-.236-.076a.36.36,0,0,1-.3-.215.5.5,0,0,0-.072-.1c-.049-.044-.059-.084,0-.13.027-.023.051-.05.076-.076.038-.041.015-.131-.035-.126a1.439,1.439,0,0,0-.361.029,1.091,1.091,0,0,0-.5.292c-.012.014-.023.032-.039.037s-.054.015-.07,0c-.035-.023-.032-.057,0-.089a1.477,1.477,0,0,1,1.007-.541c.088-.008.16-.117.263-.033.074.062.172.01.255.03a.479.479,0,0,0,.347-.065,2.631,2.631,0,0,1,.45-.148c.209-.078.231-.084.228-.3,0-.066.063-.126.029-.179a.261.261,0,0,1-.022-.178.278.278,0,0,0-.085-.208.384.384,0,0,0-.368-.156c-.114.015-.232,0-.348,0a.267.267,0,0,1-.278-.179,1.977,1.977,0,0,0-.369-.491.068.068,0,0,0-.111,0c-.043.045-.086.091-.132.132a.392.392,0,0,1-.587-.051.756.756,0,0,1-.089-.151c-.1-.209-.319-.26-.49-.372a.2.2,0,0,0-.1-.015c-.089,0-.179,0-.268,0l-.4,0a.983.983,0,0,0-.017.393.4.4,0,0,1-.082.235c-.035.059-.037.09.011.133s.06.068.1.093a.211.211,0,0,1,.078.21c0,.079.012.161-.074.211-.058.034-.088.1-.164.122s-.12.112-.159.194a.26.26,0,0,0,0,.241.378.378,0,0,1-.209.456.07.07,0,0,1-.092-.013.779.779,0,0,1-.216-.474.512.512,0,0,0-.688-.441.324.324,0,0,1-.241,0,3.068,3.068,0,0,0-.346-.071.665.665,0,0,1-.465-.335c-.031-.1-.139-.224-.028-.347,0-.2.152-.331.24-.489a.264.264,0,0,1,.3-.171c.138-.095.329-.069.455-.206.029-.031.077-.035.08-.1.006-.11.129-.139.174-.222s.09-.141.19-.114c.135.036.249-.057.38-.06.09,0,.13-.109.2-.162.021-.016.014-.02,0-.039a.33.33,0,0,0-.472-.116c-.014.009-.041.014-.042.024-.023.175-.136.194-.288.2s-.141.022-.146-.094a.709.709,0,0,0,0-.08c-.01-.065-.031-.027-.063-.011-.155.076-.156.074-.293.011s-.179-.069-.254.063a3.761,3.761,0,0,1-.286.337.225.225,0,0,1-.282.083.6.6,0,0,0-.536.039.548.548,0,0,1-.152.022,2.974,2.974,0,0,0-.7.178,1.992,1.992,0,0,1-.76.2,10.752,10.752,0,0,1,7.017-2.6c.114,0,.225.013.338.017A1.149,1.149,0,0,1,108.981,78.688Zm-10.153,5.3a.666.666,0,0,0,.121.3,1.1,1.1,0,0,1,.1.414,2.639,2.639,0,0,1-.137.855,1.463,1.463,0,0,0,.007.7,1.524,1.524,0,0,0,.124.4c.019.034,0,.088,0,.133a.308.308,0,0,0,.212.335.388.388,0,0,1,.263.393.759.759,0,0,0,.139.373.85.85,0,0,1,.1.226.622.622,0,0,0,.209.371.394.394,0,0,1,.091.148c.04.081.069.168.11.249.018.034.071.087.082.082.047-.025.034-.107.021-.116-.1-.072,0-.218-.105-.282,0-.187-.135-.307-.236-.435-.07-.089-.1-.2-.167-.281a.165.165,0,0,1-.026-.1.214.214,0,0,1,.094-.216c.1-.04.124.079.138.146.058.262.287.43.364.681a2.779,2.779,0,0,1,.3.355,1.423,1.423,0,0,1,.341.664.63.63,0,0,0,.353.467c.28.124.551.268.82.414a.431.431,0,0,0,.22.051c.063,0,.125,0,.188,0,.154,0,.274,0,.354.188s.288.185.454.242a2.094,2.094,0,0,1,.4.129.47.47,0,0,1,.246.329.384.384,0,0,0,.228.29c.27.145.544.282.817.42.043.022.071.016.094-.044a.218.218,0,0,1,.21-.163.161.161,0,0,1,.154.08.2.2,0,0,1-.046.215c-.033.024-.075.036-.109.059-.084.055-.208.058-.256.152a1.542,1.542,0,0,0-.273.581c0,.069-.055.1-.064.164s.073.1.059.167a.622.622,0,0,1-.046.223c-.1.175-.145.38-.363.461-.04.015-.035.075-.052.111a1.184,1.184,0,0,0-.074.291c-.008.049-.015.106.042.142.1.063.068.118,0,.188a.245.245,0,0,0-.033.363.717.717,0,0,0,.131.133,1.664,1.664,0,0,1,.449.618,1.983,1.983,0,0,0,.812.862c.122.072.254.121.372.2a.416.416,0,0,1,.214.393c-.011.169-.006.339,0,.509a1.113,1.113,0,0,1-.13.562.3.3,0,0,0-.03.148c0,.125,0,.25,0,.375,0,.042.02.088-.018.126a.458.458,0,0,0-.085.392c.01.128-.051.263.04.385.022.03.01.085.011.129,0,.009,0,.013,0,.022a10.785,10.785,0,0,1-7.356-15.961C98.736,83.886,98.829,83.922,98.828,83.992Z"/><path d="M107.463,79.959a.548.548,0,0,1,0-.081c.005-.067,0-.106-.092-.116a1.183,1.183,0,0,1-.355-.107.353.353,0,0,0-.167-.05c-.08,0-.161,0-.241,0-.095.006-.161-.036-.16-.125,0-.127-.109-.112-.135-.082-.061.072-.145.046-.213.081a.718.718,0,0,1-.424.072c-.034,0-.077.009-.088-.035-.018-.074-.05-.131-.135-.126s-.165-.031-.231.021c-.044.035-.144.013-.125.133.009.058-.083.126-.095.2-.015.086-.044.1-.078.026s-.118-.13-.137-.209-.075-.061-.119-.058a.317.317,0,0,0-.131.065.922.922,0,0,0-.173.184l.183.075c.067.028-.1.1.011.1a2.807,2.807,0,0,0,1.054-.1c.092-.035.17-.135.272-.105a1.447,1.447,0,0,1,.284.153c.15.088.325.118.475.211.211.131.22.14.058.309-.047.049-.115.086-.1.174.01.049-.04.041-.063.059a.35.35,0,0,1-.194.054c-.058.007-.148-.06-.17.056a.036.036,0,0,0,0,.025.107.107,0,0,0,.018.019c.058-.086.111.024.169.005a.524.524,0,0,1,.08,0,.492.492,0,0,1,.336.095,1.82,1.82,0,0,0,.492.232,2.359,2.359,0,0,0,.385.1.23.23,0,0,0,.069-.025.252.252,0,0,0-.057-.056c-.065-.034-.134-.063-.2-.1-.022-.012-.033-.041-.066-.037-.014,0-.043-.013-.043-.019,0-.031.026-.029.051-.035.143-.031.264.09.4.055h.037c.07,0,.161.016.182-.065s-.077-.081-.127-.114a.579.579,0,0,0-.091-.039,1.339,1.339,0,0,1-.275-.172c-.028-.024-.081-.127-.049-.134.081-.017.106-.093.168-.117s.1.052.159.066a.648.648,0,0,1,.133.065c.157.088.158.077.346.032.069-.017.117-.045.131-.105.02-.095-.11-.033-.123-.1,0,0-.014-.008-.022-.009-.237-.045-.454-.155-.687-.213C107.515,80.072,107.469,80.039,107.463,79.959Z"/><path d="M115.808,82.371c.059.042.112.094.026.168-.019.017,0,.069-.011.1-.046.154-.02.237.1.307A.451.451,0,0,0,116.2,83c.059,0,.094,0,.13,0,.053,0,.115.011.042-.075a1.658,1.658,0,0,1-.1-.2,4.427,4.427,0,0,0-.664-.875c-.041-.039-.028-.109-.092-.126-.005.061-.006.122-.015.182a.21.21,0,0,0,.069.156C115.653,82.163,115.7,82.293,115.808,82.371Z"/></g></g></g></svg>