<?xml version="1.0" encoding="utf-8"?> <svg xmlns="http://www.w3.org/2000/svg" viewBox="0 0 200 200"><title>Asset 257</title><g id="Layer_2" data-name="Layer 2"><g id="Layer_1-2" data-name="Layer 1"><g id="aqu"><path d="M76.486,112.042h0a9.352,9.352,0,0,1-1.057.625,12.565,12.565,0,0,1-5.358,1.361,14.384,14.384,0,0,1-1.488-.02q-.768-.078-1.54-.125c-.519-.032-1.117-.139-1.687-.206l-.834-.091-.841-.156c-.566-.111-1.144-.2-1.727-.293q-1.8-.393-3.573-.895c-1.2-.366-2.4-.767-3.585-1.041-.617-.147-1.13-.311-1.817-.439-.343-.039-.682-.088-1.018-.132A12.61,12.61,0,0,0,57.872,107a9.947,9.947,0,0,0-1.03-14.3,12.682,12.682,0,0,0-8.485-3.047A13.241,13.241,0,0,0,39.568,92.7a9.551,9.551,0,0,0-3.63,7.638,9.884,9.884,0,0,0,1.244,5.06A10.7,10.7,0,0,0,40.675,109a16.479,16.479,0,0,0,2.994,1.436c.3.113.622.224.948.334a11.343,11.343,0,0,0-1.344.3,11.484,11.484,0,0,0-1.141.454,9.391,9.391,0,0,0-1.681,1.068l-.554.492c-.144.153-.239.3-.329.407l-.265.345.165.124s.1-.112.3-.322c.1-.1.209-.243.363-.378l.553-.406a8.912,8.912,0,0,1,1.673-.876,10.6,10.6,0,0,1,1.126-.344,11.45,11.45,0,0,1,1.262-.164,27.61,27.61,0,0,1,2.979,0c1.064.044,2.167.1,3.3.244.566.067,1.119.2,1.688.3.485.12,1.125.352,1.688.525,1.18.349,2.311.812,3.462,1.242,1.209.44,2.356.8,3.547,1.174.616.154,1.226.32,1.84.456l.908.211c.31.046.615.095.918.142.591.058,1.127.172,1.735.174.6.017,1.186.03,1.756.024a15.953,15.953,0,0,0,1.631-.126,12.306,12.306,0,0,0,1.564-.333,8.223,8.223,0,0,0,1.352-.468,8.514,8.514,0,0,0,1.147-.572,8.146,8.146,0,0,0,1.629-1.223,6.751,6.751,0,0,0,.865-.939l.273-.351-.152-.138ZM53.718,108a7.637,7.637,0,0,1-5.582,2.075A7.159,7.159,0,0,1,42.773,108q-2.614-2.693-2.618-7.668,0-5.082,2.581-7.547a7.464,7.464,0,0,1,5.4-1.968,8.253,8.253,0,0,1,3.914.917,6.727,6.727,0,0,1,2.791,2.85,12.81,12.81,0,0,1,1.365,6.186"/><path d="M36.654,108.822a9.279,9.279,0,0,1-2-3.309L25.6,84.042h-.67l-9.052,21.242a10.9,10.9,0,0,1-2.068,3.592l-.359.231H11.9v.726H19.53v-.211h-.006v-.515H17.28a.894.894,0,0,1-.117-.075,1.237,1.237,0,0,1-.488-1.053,6.534,6.534,0,0,1,.651-2.274L20.3,98.936h7.719l2.739,6.406a8.141,8.141,0,0,1,.784,2.689,1.31,1.31,0,0,1-.52,1.073l0,0H28.966v.726h10.18v-.726H37.014A3.95,3.95,0,0,1,36.654,108.822ZM21.182,96.847l3.035-7.137L27.146,96.8Z"/><path d="M61.938,91.582A4.123,4.123,0,0,1,62.393,94v7.54a16.05,16.05,0,0,0,.486,4.754,6.007,6.007,0,0,0,2.354,2.944,8.618,8.618,0,0,0,4.791,1.1,7.985,7.985,0,0,0,4.569-1.146,5.537,5.537,0,0,0,2.216-2.747,14.229,14.229,0,0,0,.477-4.5V94.11a4.388,4.388,0,0,1,.4-2.131,2.2,2.2,0,0,1,1.852-1.035h.291V90.58H73.29v.364h.862a2.145,2.145,0,0,1,1.651.708A4.346,4.346,0,0,1,76.2,94v7.809a12.245,12.245,0,0,1-.547,4.361,4.421,4.421,0,0,1-2.047,2.115,6.968,6.968,0,0,1-3.4.825,5.476,5.476,0,0,1-2.519-.527,4.186,4.186,0,0,1-1.593-1.337,5.471,5.471,0,0,1-.816-2.263,20.732,20.732,0,0,1-.34-2.576V94a4.229,4.229,0,0,1,.491-2.216,2.217,2.217,0,0,1,1.843-.837h.936V90.58H59.85v.363h.536A1.987,1.987,0,0,1,61.938,91.582Z"/><path d="M170.186,100.283a30.947,30.947,0,0,0-3.953-2.381,16.792,16.792,0,0,1-4.493-3.046,2.6,2.6,0,0,1-.655-1.72,2.954,2.954,0,0,1,1.034-2.206,3.714,3.714,0,0,1,2.623-.981,5.562,5.562,0,0,1,2.712.687,4.98,4.98,0,0,1,2.015,1.875,7.829,7.829,0,0,1,.986,3.155H171v-6.9h-.549a2.518,2.518,0,0,1-.4.948.913.913,0,0,1-.649.235,3.6,3.6,0,0,1-1.2-.381,8.724,8.724,0,0,0-3.489-.8,6.084,6.084,0,0,0-4.342,1.6,5.073,5.073,0,0,0-1.706,3.826,4.83,4.83,0,0,0,.579,2.342,6.444,6.444,0,0,0,1.7,1.947,31.728,31.728,0,0,0,3.773,2.365,37.142,37.142,0,0,1,3.244,1.939,4.6,4.6,0,0,1,1.3,1.446,3.231,3.231,0,0,1,.418,1.536,3.111,3.111,0,0,1-1.1,2.376,4.309,4.309,0,0,1-3.007,1.006,6.356,6.356,0,0,1-3.025-.727,5.1,5.1,0,0,1-2.049-1.822,14.185,14.185,0,0,1-1.066-3.307H158.29v6.539h1.135a1.231,1.231,0,0,1,.325-.692c.149-.154.349.018.6.018a8.775,8.775,0,0,1,1.882.48,17.1,17.1,0,0,0,1.957.554,9.867,9.867,0,0,0,1.692.138,6.607,6.607,0,0,0,4.684-1.7,5.333,5.333,0,0,0,1.82-4.04,5.136,5.136,0,0,0-.571-2.358A5.8,5.8,0,0,0,170.186,100.283Z"/><path d="M97.2,109.049a7.637,7.637,0,0,1-1.849-2.71L88.163,89.128h-.536l-7.276,17.027a10.324,10.324,0,0,1-1.665,2.952H76.923v.726h6.538v-.064h-.015v-.661H81.327a.984.984,0,0,1-.25-.652,5.172,5.172,0,0,1,.52-1.814l2.5-5.526h6.055l2.087,5.237a6.426,6.426,0,0,1,.607,2.154,1.01,1.01,0,0,1-.2.6h-1.9v.661h-.016v.064h8.718v-.726H97.268Zm-12.814-9.024,2.677-6.147,2.658,6.147Z"/><path d="M156.182,109.075a8.483,8.483,0,0,1-1.44-2.736l-6.837-17.211h-.513a16.85,16.85,0,0,0-.648,1.631l-1.564,3.817c-.645,1.563-1.287,3.14-1.933,4.7-.59,1.424-1.165,2.862-1.767,4.278q-.447,1.053-.875,2.114c-.376.931-.671,2.217-1.562,2.774a5.237,5.237,0,0,1-2.235.592,21.752,21.752,0,0,1-3.137.006,6.151,6.151,0,0,1-1.922-.172.985.985,0,0,1-.506-.471,4.568,4.568,0,0,1-.2-1.736V93.705a7.282,7.282,0,0,1,.2-2.327,2.326,2.326,0,0,1,1.043-.806,5.072,5.072,0,0,1,2.393-.3v-.777h-9.807v.364h1.18a1.889,1.889,0,0,1,1.506.875,6.163,6.163,0,0,1,.219,2.626v13.309c0,1.176.09,1.6-.115,1.92-.3.466-.63.518-1.219.522h-1.571v.726h18.162v-.726h-1.869a1.08,1.08,0,0,1-.158-.632,5.678,5.678,0,0,1,.541-1.795l2.376-5.487,5.844.02,2.058,5.179a6.533,6.533,0,0,1,.587,2.114.987.987,0,0,1-.227.6H150.3v.726h7.628v-.726h-1.711Zm-11.859-9.05,2.527-6.147,2.51,6.147Z"/><path d="M186.71,102.238a5.816,5.816,0,0,0-1.63-1.955,30.979,30.979,0,0,0-3.954-2.381,16.781,16.781,0,0,1-4.492-3.046,2.6,2.6,0,0,1-.656-1.72,2.95,2.95,0,0,1,1.035-2.206,3.71,3.71,0,0,1,2.622-.981,5.562,5.562,0,0,1,2.712.687,4.989,4.989,0,0,1,2.016,1.875,7.82,7.82,0,0,1,.985,3.155h.549v-6.9h-.549a2.507,2.507,0,0,1-.4.948.915.915,0,0,1-.649.235,3.625,3.625,0,0,1-1.2-.38,8.71,8.71,0,0,0-3.489-.806,6.088,6.088,0,0,0-4.342,1.6,5.072,5.072,0,0,0-1.706,3.827,4.826,4.826,0,0,0,.579,2.341,6.449,6.449,0,0,0,1.7,1.948,31.885,31.885,0,0,0,3.773,2.364,36.941,36.941,0,0,1,3.244,1.94,4.582,4.582,0,0,1,1.3,1.445,3.225,3.225,0,0,1,.419,1.537,3.11,3.11,0,0,1-1.106,2.375,4.308,4.308,0,0,1-3.007,1.007,6.361,6.361,0,0,1-3.024-.727,5.1,5.1,0,0,1-2.05-1.823,14.179,14.179,0,0,1-1.066-3.306h-1.135v6.538h1.135a1.231,1.231,0,0,1,.326-.693c.149-.152.348.019.6.019a8.829,8.829,0,0,1,1.883.48,17.411,17.411,0,0,0,1.957.555,9.976,9.976,0,0,0,1.691.137,6.606,6.606,0,0,0,4.685-1.7,5.332,5.332,0,0,0,1.819-4.039A5.155,5.155,0,0,0,186.71,102.238Z"/><path d="M126.325,101.116v-1.091H116.88v1.11a5.363,5.363,0,0,1,2.2.3,2.031,2.031,0,0,1,.944.885,5.538,5.538,0,0,1,.491,2.462v3a21.12,21.12,0,0,1-2.74,1.033,12.1,12.1,0,0,1-2.925.352,9.028,9.028,0,0,1-4.7-1.373,9.761,9.761,0,0,1-3.7-4.327,14.919,14.919,0,0,1-1.414-6.529c0-2.72.6-5.981,2.492-8.046,1.778-1.942,4.335-2.573,6.865-2.813,2.7-.257,5.456.105,6.912,2.733.131.237.87,2.069,1.188,2.08l1.016.046.219-4.986-1.468-.695a1.415,1.415,0,0,0-.252.271.765.765,0,0,1-.615.324,5.252,5.252,0,0,1-1.411-.389,23.928,23.928,0,0,0-3.228-.976,13.365,13.365,0,0,0-2.532-.221,13.11,13.11,0,0,0-6.624,1.6A13.7,13.7,0,0,0,102.33,91.4a13.252,13.252,0,0,0-1.618,6.327,12.263,12.263,0,0,0,2.88,8.045q3.84,4.646,11.237,4.647a28.435,28.435,0,0,0,4.774-.251c1.5-.266,2.818-.21,4.262-.97l-.076-4.417a6.375,6.375,0,0,1,.376-2.7,2.117,2.117,0,0,1,2.014-.969Z"/></g></g></g></svg>