<?xml version="1.0" encoding="utf-8"?> <svg xmlns="http://www.w3.org/2000/svg" viewBox="0 0 200 200"><title>Asset 237</title><g id="Layer_2" data-name="Layer 2"><g id="Layer_1-2" data-name="Layer 1"><path id="mer" d="M57.613,111.667a11.54,11.54,0,0,1-23.08,0ZM44.831,99.693a11.634,11.634,0,0,0-10.373,11.56,11.548,11.548,0,0,1,.013-23.095A11.6,11.6,0,0,0,44.831,99.693Zm2.538,0A11.6,11.6,0,0,0,57.73,88.158a11.548,11.548,0,0,1,.013,23.1A11.634,11.634,0,0,0,47.369,99.693Zm107.725,4.378c-1.719,1.58-3.544,1.788-6.341,1.788-3.437,0-6.224-2.841-6.224-6.74s2.787-7.06,6.224-7.06a9.084,9.084,0,0,1,6.338,2l0-5.219a13.368,13.368,0,0,0-6.342-1.451c-6.617,0-11.982,3.866-11.982,11.725,0,7.54,5.365,11.565,11.982,11.565a15.738,15.738,0,0,0,6.351-1.059l-.01-5.554Zm-63.942-6.21,4.236-9.9H103.2v22.579H97.93V95.128l-6.64,15.516L84.759,95.293v15.245H79.114V87.959h7.8Zm70.377,12.677h-4.893V87.959h4.893v9.314l7.741-9.314h6.492l-6.986,10.41,8.307,12.169h-6.878L161.529,98.1v12.441Zm-43.277,0H105.08V87.959h13.172V92.1h-7.527v4.516H117.5v4.516h-6.774v4.516h7.527Zm6.773-12.551v12.551h-5.644V87.959h10.64c1.734,0,6.16.713,6.16,6.144a5.942,5.942,0,0,1-3.74,6.145l6.767,10.29h-6.437ZM57.613,88.335H34.533a11.774,11.774,0,0,1,11.54-11.542A11.779,11.779,0,0,1,57.613,88.335Zm67.412,9.408H127.6c1.5-.008,2.807-.935,2.807-3.179,0-2.312-1.927-2.466-2.807-2.466h-2.575Z"/></g></g></svg>