<?xml version="1.0" encoding="utf-8"?> <svg xmlns="http://www.w3.org/2000/svg" viewBox="0 0 200 200"><title>Asset 244</title><g id="Layer_2" data-name="Layer 2"><g id="Layer_1-2" data-name="Layer 1"><path id="fmc" d="M79.012,91.768V82.16h-27.5V95.081h-8.3a5.833,5.833,0,0,0-5.716,5.8,5.763,5.763,0,0,0,5.716,5.8h8.3v11.264H64.435V106.677h7.148a5.763,5.763,0,0,0,5.716-5.8,5.833,5.833,0,0,0-5.716-5.8H64.435V91.768Zm33.722,26.173L119.1,92.627v25.314h11.6V82.16H116.057a5.97,5.97,0,0,0-5.194,3.567L106.6,100.955l-4.156-15.286a5.914,5.914,0,0,0-5.195-3.509H82.325v35.781H93.589V92.627l6.882,25.314Zm36.625-.125c-8.729,0-15.82-7.977-15.82-17.879s7.251-17.878,15.979-17.878H162.5v11.16l-10.543.1c-3.222,0-5.74,2.865-5.74,6.513a6.192,6.192,0,0,0,5.9,6.41H162.5v11.467Z"/></g></g></svg>