<?xml version="1.0" encoding="utf-8"?> <svg xmlns="http://www.w3.org/2000/svg" viewBox="0 0 200 200"><title>Asset 252</title><g id="Layer_2" data-name="Layer 2"><g id="Layer_1-2" data-name="Layer 1"><path id="blu" d="M156.639,68.065c4.493,8.854,5.14,23.084,1.258,35.1-3.74,11.582-11,22.4-22.969,28.772h0c-11.967-6.371-19.226-17.19-22.967-28.772-3.883-12.013-3.234-26.243,1.257-35.1a46.2,46.2,0,0,0,21.714,5.2A46.8,46.8,0,0,0,156.639,68.065ZM56.028,113.73h-17.3V85.512h17.3V68.673H83.79V85.512h17.295V113.73H83.79v17.294H56.028Zm78.9,12.763c9.848-6.114,15.09-14.835,18.455-24.721,2.984-8.779,3.716-19.108.428-27.131a53.894,53.894,0,0,1-10.488,2.579,50.016,50.016,0,0,1-8.385.556h-.025a50.135,50.135,0,0,1-8.384-.559,52.9,52.9,0,0,1-10.494-2.524c-3.283,8.023-2.552,18.285.433,27.064,3.361,9.886,8.607,18.622,18.454,24.737h0s-.006-.021-.009-.021h.025l-.01.02,0,0,0,0Zm0-2.387-.007-.006-.007.006ZM152.122,77.79c2.092,5.93,1.643,13.4.039,20.054-3.017,12.53-10.57,22.058-17.236,26.257-6.659-4.2-14.212-13.727-17.233-26.257-1.6-6.651-2.049-14.125.039-20.054a68.935,68.935,0,0,0,8.649,1.846,72.657,72.657,0,0,0,7.506.66.659.659,0,0,0-.215.233,3.348,3.348,0,0,0-.07,1.294,6.509,6.509,0,0,1,.937.577,6.141,6.141,0,0,1,.766.946,7.269,7.269,0,0,0,.49.548c.252.269.406.54.32.726-.079.123-.369.187-.73.246a11.916,11.916,0,0,1-1.606.127s1.887.231,2.591.414a.933.933,0,0,1,.641.33.566.566,0,0,1,.053.5,10.969,10.969,0,0,0-3.052-.879,3.3,3.3,0,0,1,.654.343.426.426,0,0,1,.183.371c-.218.581-1.4.776-1.4.776l0,1.718c1.152.235,2.64.183,4.12.486q.174-.237.333-.484a11.8,11.8,0,0,1,1.548-1.62c.765-.838,1.643-1.447,2.26-2.093.3-.319.527-.393.676-.882.323-1.043-1.066-1.744-1.564-1.531-1.066.455-1.781,1.428-2.833,2a.252.252,0,0,1-.374-.1c-.151-.526.014-1.731-.143-2.491-.072-.351-.072-.4-.309-.573a7.907,7.907,0,0,1-2.586-1.1c.108,0,.222-.125.333-.125h.019a63.739,63.739,0,0,0,8.539-.554,68.127,68.127,0,0,0,8.646-1.707ZM136.51,117.959c-.007.238-.2.652-.854.613-.536-.029-.848-.177-.868-.735-.085-2.455-.138-7.214-.138-7.214a9.294,9.294,0,0,1,1.044.454,4.014,4.014,0,0,1,.865.615c.065.1.118.123.111.273-.035,1.791-.133,5.209-.16,5.994Zm-2.539-1.976a1.191,1.191,0,0,1,.45-.722l-.036-2.114a3.16,3.16,0,0,0-.713.572,3.071,3.071,0,0,0-.845,1.878,2.368,2.368,0,0,0,.343,1.582.387.387,0,0,0,.742,0C134.035,116.891,133.86,116.624,133.971,115.983Zm-54.744-1.611-.106-.012-.131,0-8.374-12.489a1.28,1.28,0,0,0-2.2,0l-8.476,12.489-.27,0v.013l.324-.01a18.077,18.077,0,0,0,9.731,2.82A17.437,17.437,0,0,0,79.227,114.372Zm-9.447-9.745a.284.284,0,0,0-.166-.064.258.258,0,0,1,.172.064h.069l5.759,8.854a14.494,14.494,0,0,1-12,.008l5.757-8.862h.069a.262.262,0,0,1,.172-.064.291.291,0,0,0-.166.064Zm9.447,9.745h.012v-.01Zm59.206-1.05a2.309,2.309,0,0,0,.905-1.909c-.006-.993-.469-1.768-1.879-2.595A34.248,34.248,0,0,0,134,107.2a.537.537,0,0,1-.23-.54.488.488,0,0,1,.182-.265l-.026-2.1a4.957,4.957,0,0,0-1.166.378,2.515,2.515,0,0,0-1.1,1.1,2.782,2.782,0,0,0,1.426,3.6c.662.323,1.529.619,2.244.9.7.27,1.933,1.03,2.023,1.4.062.231-.206.446-.206.446l-.029,1.819a3.486,3.486,0,0,0,1.316-.62ZM53.688,93.7h-.134a17.619,17.619,0,0,0-.984,6.189,17.182,17.182,0,0,0,6.644,13.638v.019l7.928-14.8c.573-1.256.4-3.354-1.754-3.65l-11.18-1.113v0l-.52-.281Zm31.957,0v0h0l0,0,0,.135,0,.145L74.153,95.1a2.471,2.471,0,0,0-1.835,3.65l7.86,14.78a17.415,17.415,0,0,0,6.558-13.638A17.692,17.692,0,0,0,85.645,93.708ZM63.99,97.325c.625.048.674.313.53.677l-6.094,11.651A14.787,14.787,0,0,1,55.29,96.519Zm11.144-.114,8.7-.806A14.817,14.817,0,0,1,80.7,109.539L74.605,97.888C74.46,97.525,74.5,97.259,75.134,97.211Zm59.347,5.762c1.029.124,1.5.135,2.379.242l-.039,4.651-1.165-.535-1.149-.478-.026-3.88Zm6.208,1.116a3.113,3.113,0,0,0-.565-2.637,3.965,3.965,0,0,0-1.886-1.248,24.3,24.3,0,0,0-4.765-.68.545.545,0,0,1-.48-.44.616.616,0,0,1,.331-.587s-.189-.617-.392-1.22a14.448,14.448,0,0,0-.613-1.425,3.165,3.165,0,0,0-1.89,2.572,3.266,3.266,0,0,0,2.726,3.682,32.08,32.08,0,0,0,3.7.509,2.618,2.618,0,0,1,.763.136.61.61,0,0,1,.381.373.511.511,0,0,1-.094.519,1.162,1.162,0,0,1-.508.265l-.07,2.594a4.506,4.506,0,0,0,1.887-.549,2.955,2.955,0,0,0,1.471-1.864Zm-7.747-9.714c.1-.169.911-.43.911-.43v-.463s.391-.018,1.671.066a10.334,10.334,0,0,1,1.593.215l-.076,5.492c-1.17-.159-2.034-.133-2.993-.265a19.465,19.465,0,0,0-1.321-4.13C132.652,94.657,132.9,94.449,132.942,94.375Zm4.617,4.071c.015,0,5.226-.5,4.342-5.207a4.263,4.263,0,0,0-2.11-2.8c-2.62-1.35-5.5-.766-8.184-1.636-.909-.291-2.166-.743-2.412-1.76-.1-.406-.008-1.225.409-1.357.679-.214,1.429.353,2.415.582a3.444,3.444,0,0,0,1.721,0c.215-.068.536-.152.563-.275-.026-.112-.274-.21-.4-.273a9.71,9.71,0,0,0-.945-.355,12.2,12.2,0,0,1-1.63-.772,7.242,7.242,0,0,1,1.892-.07,9.5,9.5,0,0,0,2.057-.068c.078-.022.268-.094.186-.234-.148-.249-.4-.342-.561-.571a3.115,3.115,0,0,0-1.288-1.254,6.426,6.426,0,0,0-5.354.065,4.721,4.721,0,0,0-2.019,6.154,7.166,7.166,0,0,0,4.62,3.808,12.831,12.831,0,0,0,3.074.428,17.977,17.977,0,0,1,3.666.412,1.071,1.071,0,0,1,.68.478,1.007,1.007,0,0,1-.616,1.478c-.017,1.076-.11,3.235-.11,3.235ZM69.616,82.884h0a17.13,17.13,0,0,0-15.522,9.893H66.283c1.737-.037,2.5-1.054,2.539-1.886.042-.985-.113-1.3-.921-2.345a2.161,2.161,0,1,1,3.425,0c-.807,1.049-.962,1.36-.921,2.345.036.832.8,1.85,2.54,1.886h12.19a17.134,17.134,0,0,0-15.519-9.893l.048,2.181c-.018,0-.032,0-.05,0s-.031,0-.047,0Zm3.5,7.548,7.7,0a14.748,14.748,0,0,0-7.111-4.592,3.811,3.811,0,0,1-.655,4.235C72.9,90.229,72.976,90.394,73.115,90.432Zm-7.6-4.59a3.808,3.808,0,0,0,.655,4.235c.155.153.079.317-.058.355l-7.707,0A14.771,14.771,0,0,1,65.517,85.842Zm66.565-2.95c.333.235.263.657.75.577a1.577,1.577,0,0,0,.613-.351.261.261,0,0,1,.207-.031c-.525-.54-1.447-.475-2.15-.492.183.336.374.153.58.3Zm2.276-2.7a.506.506,0,0,0-.474.106c.234.006.467.016.7.019l-.223-.125Z"/></g></g></svg>