<?xml version="1.0" encoding="utf-8"?> <svg xmlns="http://www.w3.org/2000/svg" viewBox="0 0 200 200"><g id="Layer_2" data-name="Layer 2"><g id="Layer_1-2" data-name="Layer 1"><path id="sch" d="M94.794,126.252l1.868.277c.19.029.13.135.177.325a1.92,1.92,0,0,0,.391.8,2.616,2.616,0,0,0,1.664.754,3.5,3.5,0,0,0,3.485-1.208,6.339,6.339,0,0,0,.545-3.52,4.515,4.515,0,0,1-4.32,1.495,4.782,4.782,0,0,1-3.5-2.739c-1.476-2.951-.812-7.876,2.636-9.149a4.854,4.854,0,0,1,5.51,1.393v-1.376h1.622v9.707c0,2.125.174,4.618-1.7,6.057a6.511,6.511,0,0,1-5.045.946,3.75,3.75,0,0,1-3.244-2.694,4.644,4.644,0,0,1-.094-1.071Zm67.117,0,1.869.277c.189.029.129.135.175.325a1.93,1.93,0,0,0,.39.8,2.626,2.626,0,0,0,1.669.754A3.5,3.5,0,0,0,169.5,127.2a6.329,6.329,0,0,0,.544-3.52,4.511,4.511,0,0,1-4.319,1.495,4.778,4.778,0,0,1-3.5-2.739c-1.48-2.966-.8-7.807,2.6-9.149,1.738-.687,4.315-.367,5.288,1.393v-1.376h1.948v9.707c0,2.133.133,4.624-1.746,6.057a6.547,6.547,0,0,1-5.058.946,3.754,3.754,0,0,1-3.248-2.694A4.479,4.479,0,0,1,161.911,126.252Zm-97.218-4.866,2.108.256a5.011,5.011,0,0,1-3.009,3.5,6.671,6.671,0,0,1-4.994-.172,5.21,5.21,0,0,1-2.749-3.378,8.743,8.743,0,0,1,.161-5.075,5.319,5.319,0,0,1,2.544-2.963A6,6,0,0,1,63,113.17a5.019,5.019,0,0,1,3.1,2.4,7.636,7.636,0,0,1,.764,3.905h-8.98c.107,1.958.855,3.609,2.658,4.133a3.442,3.442,0,0,0,2.65-.239,3.63,3.63,0,0,0,1.5-1.982Zm-48.736-1.462,1.07-.094.694-.061c.174-.015.3-.1.327.091a4.1,4.1,0,0,0,.945,2.272,4.569,4.569,0,0,0,2.182,1.218c1.6.428,3.844.362,5.121-.839a2.427,2.427,0,0,0,.689-2.394,2.629,2.629,0,0,0-1.657-1.623c-1.96-.823-4.16-.925-6.107-1.8a4.369,4.369,0,0,1-2.383-2.351A4.2,4.2,0,0,1,17.3,110.6a4.449,4.449,0,0,1,2.084-1.664,8.041,8.041,0,0,1,3.05-.562,8.351,8.351,0,0,1,3.264.594,4.691,4.691,0,0,1,2.171,1.747,5.059,5.059,0,0,1,.818,2.616l-1.088.081-.705.053c-.162.013-.307.093-.33-.083a3.165,3.165,0,0,0-2.863-2.983c-1.461-.243-3.492-.188-4.512,1.062a2.114,2.114,0,0,0-.323,2.154,2.172,2.172,0,0,0,1.244,1.09,45.882,45.882,0,0,0,4.945,1.354,5.82,5.82,0,0,1,3.549,2.319,4.514,4.514,0,0,1-.4,5,6.218,6.218,0,0,1-4.579,2.142,8.8,8.8,0,0,1-5.17-1.059A5.5,5.5,0,0,1,15.957,119.924Zm23.833.925,2,.265a5.1,5.1,0,0,1-2.57,3.846,5.729,5.729,0,0,1-4.84.089,5.132,5.132,0,0,1-2.782-3.368,9.14,9.14,0,0,1,.165-5.331,4.821,4.821,0,0,1,1.907-2.512,5.933,5.933,0,0,1,3.46-.869,4.863,4.863,0,0,1,3.009,1.1,4.682,4.682,0,0,1,1.459,2.7l-1.086.168-.665.1c-.289.045-.223.027-.318-.283a2.93,2.93,0,0,0-1.4-1.83,3.172,3.172,0,0,0-2.4-.11,3.759,3.759,0,0,0-2.292,3.514c-.136,1.494-.077,3.418,1.025,4.573a3.225,3.225,0,0,0,3.4.769A3.274,3.274,0,0,0,39.79,120.849Zm117.663,4.142v-1.5a4.917,4.917,0,0,1-5.307,1.856,3.981,3.981,0,0,1-2.423-1.806,5.616,5.616,0,0,1-.708-2.859v-7.374h1.947v4.961c0,1.887-.268,4.855,2.074,5.417a3.143,3.143,0,0,0,3.205-1.009,5.025,5.025,0,0,0,.563-3v-6.368h1.948v11.657c0,.132.033.027-.107.027ZM135.7,119.243a6.752,6.752,0,0,1,1.337-4.415,5.588,5.588,0,0,1,4.309-1.867,5.513,5.513,0,0,1,4.3,1.889,6.707,6.707,0,0,1,1.332,4.583,6.519,6.519,0,0,1-1.376,4.292,5.778,5.778,0,0,1-4.676,1.789,5.375,5.375,0,0,1-3.944-1.924,6.852,6.852,0,0,1-1.28-4.347Zm-19.463,5.9V108.439h6.113a13.3,13.3,0,0,1,2.522.267,5.086,5.086,0,0,1,2.058.833c2.061,1.428,2.311,4.524,1.139,6.586-1.126,1.977-3.393,2.372-5.531,2.375h-4.354v6.634C118.182,125.161,116.605,125.147,116.235,125.147Zm-34.079,0v-11.84H84.1v1.637a5.379,5.379,0,0,1,2.117-1.7,5.168,5.168,0,0,1,3.079-.112,3.218,3.218,0,0,1,2.313,1.843,7.859,7.859,0,0,1,.281,2.886v7.127H89.946v-6.842c0-1.073.048-2.328-.954-3a3.357,3.357,0,0,0-3.848.4,4.138,4.138,0,0,0-1.04,3.137v6.443C84.1,125.161,82.526,125.147,82.156,125.147Zm100.938-7.12a3.647,3.647,0,0,0-.727-2.615,3.1,3.1,0,0,0-3.719-.172,2.951,2.951,0,0,0-1.309,1.442,5.37,5.37,0,0,0-.412,2v6.454c0,.028-1.623.014-1.947.014V108.439h1.947v6.174a6.456,6.456,0,0,1,2.372-1.45,5.346,5.346,0,0,1,2.936-.006,3.537,3.537,0,0,1,2.281,1.7,6.3,6.3,0,0,1,.525,2.781v7.354h-1.947v-6.964Zm-104.183,7.12c-.325,0-1.947.012-1.947-.012V113.307h1.947Zm-9.737,0v-11.84h1.947v1.747c.65-.665.907-1.543,1.71-1.9a3.387,3.387,0,0,1,3.047.46l-.7,1.894a2.391,2.391,0,0,0-2.981.2,2.789,2.789,0,0,0-.766,1.406,6.578,6.578,0,0,0-.31,1.849v6.182Zm-25.629-.156h-.011V108.439h2.272v6.174c.974-1.606,3.3-1.945,4.954-1.456a3.3,3.3,0,0,1,2.114,1.7,6.388,6.388,0,0,1,.4,2.782v7.353H51.324v-6.964a3.658,3.658,0,0,0-.671-2.615,3.027,3.027,0,0,0-3.671-.172c-1.172.751-1.176,2.2-1.176,3.439v5.989c0,.071.047.345,0,.4-.027.028-.235-.066-.3-.078Zm89.567,0h-1.947V108.439h1.947Zm4.686-5.748c0,1.591.385,3.276,1.819,4.149a3.386,3.386,0,0,0,4.306-.752,6.113,6.113,0,0,0,.874-4.664,3.677,3.677,0,0,0-2.775-3.264,3.4,3.4,0,0,0-3.267,1.14A5.245,5.245,0,0,0,137.8,119.243Zm-41.316-.212c0,1.534.293,3.222,1.677,4.09a3.141,3.141,0,0,0,4.166-.869,4.441,4.441,0,0,0,.7-2.051,8.162,8.162,0,0,0-.089-2.678,3.4,3.4,0,0,0-3.093-2.871,3.075,3.075,0,0,0-2.61,1.353,5.281,5.281,0,0,0-.755,3.026Zm67.119,0c0,1.519.285,3.217,1.675,4.09a3.143,3.143,0,0,0,4.167-.869,4.455,4.455,0,0,0,.7-2.051,8.19,8.19,0,0,0-.089-2.678,3.4,3.4,0,0,0-3.092-2.871,3.068,3.068,0,0,0-2.606,1.353,5.268,5.268,0,0,0-.758,3.026Zm-49.962.767h-6.488c-.028,0-.014-1.622-.014-1.947h6.5Zm-55.748-1.947H64.72a4.348,4.348,0,0,0-.967-2.37,3.18,3.18,0,0,0-2.437-.9,3.694,3.694,0,0,0-3.425,3.272h-.076l.059.158Zm64.634-7.465h-4.352l.009,4.973v.869h4.384c1.374,0,2.985-.04,3.651-1.445a3.078,3.078,0,0,0-1.453-4.123A6.716,6.716,0,0,0,122.525,110.386Zm-43.614.649H76.964v-2.6h1.947ZM90.92,103.9l-.243.117s11.913-19.626,13.055-21.48a8.171,8.171,0,0,1,6.932-3.914,7.931,7.931,0,0,1,8.14,8.439c0,4.916-4.129,7.742-8.213,7.75h-7.43l3.144-5.193h4.286a2.937,2.937,0,0,0,3.214-3.031c0-1.856-1.427-2.822-3.214-2.822a3.061,3.061,0,0,0-2.785,1.74c-.425.779-11.047,18.116-11.217,18.394Zm-.475-20.447a3.254,3.254,0,0,0-3.112,3.785,2.908,2.908,0,0,0,1.433,2.161,3.466,3.466,0,0,0,3.216.018,6.87,6.87,0,0,0,1.825-2.383q.553-.87,1.1-1.747c2.039-3.28,4.013-6.6,6.116-9.845a17.181,17.181,0,0,1,1.677-2.468,8.891,8.891,0,0,1,4.066-2.644,8.5,8.5,0,0,1,4.3-.333,10.537,10.537,0,0,1,4.063,1.758,7.591,7.591,0,0,1,1.542,1.42L113.52,78.1a3.938,3.938,0,0,0-2.308-2.806,4.549,4.549,0,0,0-3.126-.115c-1.528.509-2.278,2.064-3.048,3.364-1.894,3.2-3.765,6.42-5.765,9.553a24.047,24.047,0,0,1-3.211,4.573,8.08,8.08,0,0,1-7.584,2.108,8.206,8.206,0,0,1,1.894-16.193h7.573l-3.14,4.869Z"/></g></g></svg>