<?xml version="1.0" encoding="utf-8"?> <svg xmlns="http://www.w3.org/2000/svg" viewBox="0 0 200 200"><title>Asset 235</title><g id="Layer_2" data-name="Layer 2"><g id="Layer_1-2" data-name="Layer 1"><path id="oly" d="M83.143,114.215h-.067a1.87,1.87,0,0,0-.8-.814,2.163,2.163,0,0,0-1.133-.271,2.048,2.048,0,0,0-1.734.814,2.938,2.938,0,0,0-.667,2.1,3.119,3.119,0,0,0,.667,2.169,2.176,2.176,0,0,0,1.8.814,2.962,2.962,0,0,0,1.066-.2,3.247,3.247,0,0,0,.935-.746l.133.068a.511.511,0,0,0-.067.339c0,.136-.066.271-.066.407a3.668,3.668,0,0,1-1.068.474,3.554,3.554,0,0,1-3.6-.745,3.372,3.372,0,0,1-.866-2.509,3.157,3.157,0,0,1,.933-2.508,3.415,3.415,0,0,1,2.535-.882,6.442,6.442,0,0,1,1.133.136,4.611,4.611,0,0,1,1.134.406.743.743,0,0,0-.133.407C83.21,113.807,83.209,114.007,83.143,114.215Zm10.2,3.728a1.352,1.352,0,0,0,.667.814,1.574,1.574,0,0,0,.934.339,1.365,1.365,0,0,0,1-.339,1.24,1.24,0,0,0,.4-.949,1.094,1.094,0,0,0-.267-.814,2.826,2.826,0,0,0-1.134-.609,3.284,3.284,0,0,1-1.334-.814,1.392,1.392,0,0,1-.4-1.017,1.628,1.628,0,0,1,.6-1.356,2.025,2.025,0,0,1,1.468-.475,3.126,3.126,0,0,1,1.6.407.966.966,0,0,0-.133.406,1.632,1.632,0,0,0-.133.542h-.134a1.143,1.143,0,0,0-.4-.745,1.217,1.217,0,0,0-.867-.271,1.14,1.14,0,0,0-.867.339.919.919,0,0,0-.333.814.871.871,0,0,0,.267.677,2.974,2.974,0,0,0,1.067.611,4.058,4.058,0,0,1,1.467.813,1.446,1.446,0,0,1,.4,1.084,2.361,2.361,0,0,1-.667,1.561,2.471,2.471,0,0,1-1.734.609,3.859,3.859,0,0,1-.933-.135,2.767,2.767,0,0,1-.734-.475c0-.135.066-.339.066-.475a1.511,1.511,0,0,0,.067-.542Zm-8-5.152a.491.491,0,0,0,.266.068h.6c.133,0,.2,0,.267-.068,0,.407-.067.746-.067,1.018v3.525a4.348,4.348,0,0,0,.134.61,1.523,1.523,0,0,0,.6.813,2.458,2.458,0,0,0,1.067.272,3.909,3.909,0,0,0,.933-.135,2.432,2.432,0,0,0,.668-.476,1.224,1.224,0,0,0,.4-.61,6.306,6.306,0,0,0,.133-1.423v-1.627c0-.407-.067-.746-.067-1.085a3.97,3.97,0,0,0-.066-.881.243.243,0,0,0,.2.067h.467c.066,0,.132,0,.132-.067,0,.339-.066.61-.066,1.017v2.983a2.58,2.58,0,0,1-.734,2.034,2.9,2.9,0,0,1-2.134.678,4.365,4.365,0,0,1-1.4-.2,1.916,1.916,0,0,1-.866-.746,2.05,2.05,0,0,1-.267-.678,5.233,5.233,0,0,1-.067-1.153v-2.237a3.685,3.685,0,0,0-.066-.882A3.416,3.416,0,0,0,85.344,112.791Zm25.743,6.644a14.509,14.509,0,0,0,.133-2.034c.067-.881.067-1.966.067-3.254v-.677c0-.272-.067-.476-.067-.747h.4c.667.814,1.4,1.7,2.2,2.509q1.082,1.3,2.268,2.508v-3.661c0-.407-.066-.814-.066-1.288a.239.239,0,0,0,.2.068h.334a.242.242,0,0,0,.2-.068c-.067.407-.067,1.018-.134,1.9V119.5h-.333a4.238,4.238,0,0,0-.734-.881,14.064,14.064,0,0,0-1.067-1.221l-2.735-2.983v2.644c0,.474.067.881.067,1.221,0,.406.067.813.067,1.152a.251.251,0,0,0-.2-.068h-.333a.523.523,0,0,0-.266.068Zm-3-.813a3.839,3.839,0,0,0,0-5.017,3.475,3.475,0,0,0-2.6-.882,3.413,3.413,0,0,0-2.535.882,3.836,3.836,0,0,0,0,5.017,3.478,3.478,0,0,0,2.6.881A3.413,3.413,0,0,0,108.086,118.622Zm-33.147,0a3.839,3.839,0,0,0,0-5.017,3.475,3.475,0,0,0-2.6-.882,3.414,3.414,0,0,0-2.534.882,3.646,3.646,0,0,0,0,5.017,3.417,3.417,0,0,0,2.534.881A3.474,3.474,0,0,0,74.939,118.622Zm62.891.813a11.68,11.68,0,0,0,.067-1.559,14.923,14.923,0,0,0,.067-1.763,15.481,15.481,0,0,0-.067-1.829,9.209,9.209,0,0,0-.067-1.425H140.5a3.242,3.242,0,0,0,.8-.067v.2c0,.068-.067.068-.067.136s.067.135.067.2v.136c-.2,0-.467-.068-.734-.068a3.207,3.207,0,0,0-.8-.068H138.9v2.373h.934c.2,0,.4-.068.6-.068a2.966,2.966,0,0,0,.732-.067.251.251,0,0,0-.066.2v.475a2.994,2.994,0,0,0-.734-.067H138.9v2.712h.868a3.192,3.192,0,0,0,.8-.068,3.391,3.391,0,0,0,.733-.136v.747a3.161,3.161,0,0,0-.8-.068h-1.735A4.258,4.258,0,0,0,137.83,119.435Zm-5.535-5.151c-.067-.544-.067-1.019-.134-1.492a4.7,4.7,0,0,0,.933.067h1.8a3.23,3.23,0,0,0,.8-.067c0,.067-.066.135-.066.2v.339c.066.068.066.068.066.136-.266,0-.534-.068-.8-.068a3.211,3.211,0,0,0-.8-.068h-.867v2.3h1.533a2.715,2.715,0,0,0,.733-.067v.677a3.751,3.751,0,0,0-.8-.068h-1.466v2.237a4.858,4.858,0,0,0,.067,1.017.4.4,0,0,0-.268-.068h-.6a.4.4,0,0,0-.268.068c.066-.474.066-1.017.134-1.559v-3.592Zm-4,0c0-.544-.066-1.019-.066-1.492.066.067.132.067.266.067h.534a.4.4,0,0,0,.266-.067c0,.406-.066.881-.066,1.424v3.728c0,.542.066,1.017.066,1.491a.248.248,0,0,0-.2-.068h-.667a.251.251,0,0,0-.2.068c0-.542.066-1.017.066-1.559Zm-5.8,0a10.238,10.238,0,0,0-.134-1.492.5.5,0,0,0,.267.067h.6c.134,0,.2,0,.267-.067,0,.406-.067.813-.067,1.22v3.593a7.078,7.078,0,0,0,.067,1.288h.933a3.238,3.238,0,0,0,.8-.067,2.387,2.387,0,0,0,.734-.136v.745a3.219,3.219,0,0,0-.8-.068h-1.867a4.669,4.669,0,0,0-.934.068,11.249,11.249,0,0,0,.134-1.559v-3.592ZM63.8,119.367c-.135,0-.2,0-.267.068a11.62,11.62,0,0,0,.067-1.559,15.148,15.148,0,0,0,.066-1.763,15.714,15.714,0,0,0-.066-1.829,10.6,10.6,0,0,0-.067-1.492,4.381,4.381,0,0,0,.934.067H66.2a3.226,3.226,0,0,0,.8-.067v.678c-.266,0-.466-.068-.733-.068a3.207,3.207,0,0,0-.8-.068H64.6v2.3h1.533a2.974,2.974,0,0,0,.734-.067.248.248,0,0,0-.067.2v.068a.741.741,0,0,0,.067.339v.068a3.778,3.778,0,0,0-.8-.068H64.6v3.254a.248.248,0,0,0-.2-.068Zm43.55-5.491a4.47,4.47,0,0,1,0,4.474,2.483,2.483,0,0,1-1.867.746,2.241,2.241,0,0,1-1.8-.746,3.773,3.773,0,0,1-.667-2.3,3.485,3.485,0,0,1,.667-2.168,2.441,2.441,0,0,1,1.8-.746A2.486,2.486,0,0,1,107.352,113.876Zm-33.147,0a4.464,4.464,0,0,1,0,4.474,2.48,2.48,0,0,1-1.867.746,2.242,2.242,0,0,1-1.8-.746,3.387,3.387,0,0,1-.666-2.3,3.121,3.121,0,0,1,.666-2.168,2.34,2.34,0,0,1,1.8-.746A2.483,2.483,0,0,1,74.205,113.876Zm-46.657-7.82,72.42,1.861,72.485-1.861v-.863l-72.485-1.86-72.42,1.86v.863Zm130.91-12.947c.337,1.06,1.533,1.809,3.458,1.809,2.064,0,3.061-.653,3.061-1.718s-.932-1.4-2.66-1.734c-1.2-.266-3.661-.74-5.123-1.007-2.13-.465-5.125-1.412-5.125-4.473,0-4.125,5.458-5.556,9.582-5.556,4.191,0,9.581,1.044,9.913,4.922h-7.22l-.018.081c-.335-.875-1.079-1.528-2.742-1.528-2,0-2.661.789-2.661,1.456,0,.732.464,1.271,1.928,1.471,1.065.2,3.859.748,5.854,1.146,3.861.8,5.458,2.424,5.458,4.887,0,4.457-5.522,5.581-10.112,5.581s-10.374-1.105-10.78-5.337Zm-18.265,5.218c-5.387,0-9.7-1.6-9.7-6.054V81.121h6.7v10.62a3.176,3.176,0,0,0,6.347,0V81.121h6.346V92.273C149.889,96.73,145.583,98.327,140.193,98.327ZM51.34,89.345c0,5.589-4.856,8.916-11.641,8.916-6.722,0-11.578-3.327-11.578-8.916S32.976,80.43,39.7,80.43C46.482,80.43,51.337,83.754,51.34,89.345Zm40.119-8.224.134.358,4.19,9.475c.134.332.268.344.468.011l4.189-9.491.135-.353h7.006V97.692h-5.994V89.146c0-.2-.107-.258-.24-.059l-3.434,8.257-.134.348H94.186l-.209-.348-3.6-8.265c-.067-.2-.423-.133-.423.067v8.546H84.664V81.121Zm-14.9,16.571H70.209V92.073L62.983,81.121h6.853l.2.353,3.125,5.5c.268.332.268.344.534.012l3.126-5.511.2-.353h6.92L76.555,92.073Zm46.574-16.571c5.19,0,6.255,3.317,6.255,5.178,0,2-1.265,5.047-6.255,5.047h-7.086v6.346h-6.288l-.067-16.571Zm-63.5,12.693h8.814v3.878H52.58V81.121h7.052ZM44.354,89.345c0-3.395-1.731-5.456-4.655-5.456-2.863,0-4.592,2.064-4.592,5.456,0,3.327,1.729,5.456,4.592,5.456C42.623,94.8,44.352,92.675,44.354,89.345Zm76.313-1.877c1.532,0,2.062-.547,2.062-1.477,0-1.064-.932-1.344-2.062-1.344h-4.624v2.821Z"/></g></g></svg>