<?xml version="1.0" encoding="utf-8"?> <svg xmlns="http://www.w3.org/2000/svg" viewBox="0 0 200 200"><title>Asset 238</title><g id="Layer_2" data-name="Layer 2"><g id="Layer_1-2" data-name="Layer 1"><path id="mac" d="M125.092,111.806a.828.828,0,0,1,.757.491h.016l.06-.422h.964c-.017.383-.042.829-.042,1.336v2.4a2.248,2.248,0,0,1-.5,1.732,1.841,1.841,0,0,1-1.343.465,2.576,2.576,0,0,1-1.031-.2l.2-.87a1.93,1.93,0,0,0,.794.181c.558,0,.777-.379.777-1.025v-.259h-.017a.832.832,0,0,1-.743.422c-.93,0-1.294-1.035-1.294-2.042,0-1.406.626-2.215,1.395-2.215Zm13.54,5.938h-1.108v-4.533q0-.669-.033-1.337h.963l.059.483h.017a.939.939,0,0,1,.862-.551c.913,0,1.285,1,1.285,2.171,0,1.5-.651,2.181-1.344,2.181a.8.8,0,0,1-.685-.414h-.016v2Zm-41.042-5.4a5.219,5.219,0,0,0,1.08-.142,2.511,2.511,0,0,1,.128.661,1.079,1.079,0,0,1,1.011-.645c.864,0,1.491.8,1.491,1.927s-.628,1.926-1.484,1.926a1.056,1.056,0,0,1-.982-.613v1.533c0,.346,0,.4.621.425v.157a7.637,7.637,0,0,0-.928-.048c-.267,0-.315.008-.937.048v-.157c.622-.025.622-.08.622-.425v-4.034c0-.378-.034-.49-.41-.49H97.59v-.123Zm38.15,3.294a1.163,1.163,0,0,1-.955.518c-.786,0-1.107-.595-1.107-1.732v-2.552h1.116v2.43c0,.552.1.905.414.905a.4.4,0,0,0,.355-.284.866.866,0,0,0,.067-.362v-2.689h1.107v2.931c0,.445.017.884.034,1.284h-.955l-.059-.449Zm-2.654-1.671c0,1.758-.956,2.189-1.581,2.189-.989,0-1.58-.794-1.58-2.163,0-1.518.777-2.189,1.6-2.189C132.486,111.806,133.076,112.627,133.086,113.969Zm-4.363,2.12h-1.115v-2.948c0-.422-.017-.879-.034-1.267h.963l.06.612h.025a.965.965,0,0,1,.82-.68.975.975,0,0,1,.236.016v1.121a.989.989,0,0,0-.236-.017.74.74,0,0,0-.676.6,1.7,1.7,0,0,0-.043.422Zm-21.03-1.927c0,1.117-.645,1.926-1.532,1.926-.9,0-1.533-.794-1.533-1.935s.645-1.957,1.564-1.957c.9,0,1.5.784,1.5,1.966Zm10.1-.742h-.224c-.071-.634-.338-.954-.825-.954a.678.678,0,0,0-.739.632c0,.244.11.387.425.544.11.055.165.075.739.327s.8.517.8.973a1.155,1.155,0,0,1-1.257,1.131,1.608,1.608,0,0,1-.95-.392l-.189.275h-.267v-1.267h.306a1.733,1.733,0,0,0,.172.6.965.965,0,0,0,.848.528.745.745,0,0,0,.811-.7c0-.243-.111-.387-.417-.552-.024-.016-.283-.131-.778-.359-.574-.259-.755-.486-.755-.942a1.068,1.068,0,0,1,1.18-1.045,1.339,1.339,0,0,1,.8.254l.135-.32h.184v1.267Zm3.108,0h-.179c-.072-.634-.339-.954-.826-.954a.678.678,0,0,0-.738.632c0,.244.11.387.424.544.11.055.165.075.739.327.589.259.8.517.8.973a1.155,1.155,0,0,1-1.257,1.131,1.613,1.613,0,0,1-.951-.392l-.188.275v-1.267h.039a1.752,1.752,0,0,0,.173.6.965.965,0,0,0,.849.528.743.743,0,0,0,.809-.7c0-.243-.11-.387-.416-.552-.024-.016-.284-.131-.779-.359-.574-.259-.754-.486-.754-.942a1.067,1.067,0,0,1,1.178-1.045,1.345,1.345,0,0,1,.8.254l.134-.32h.14Zm-48.5,1.554a1.532,1.532,0,0,0,.744.224c.288,0,.449-.13.449-.379,0-.216-.119-.354-.482-.569a1.365,1.365,0,0,1-.837-1.216,1.285,1.285,0,0,1,1.361-1.328,1.917,1.917,0,0,1,.837.189l-.194.828a1.131,1.131,0,0,0-.575-.172.367.367,0,0,0-.414.362c0,.19.093.294.482.526a1.434,1.434,0,0,1,.837,1.276,1.3,1.3,0,0,1-1.463,1.328,1.8,1.8,0,0,1-.947-.241l.2-.828Zm10.3-.69a.807.807,0,0,0,.88.9,2.368,2.368,0,0,0,.786-.139l.152.812a3.37,3.37,0,0,1-1.141.189c-1.125,0-1.742-.759-1.742-2.078,0-1.414.718-2.259,1.657-2.259.888,0,1.4.715,1.4,1.992a3.133,3.133,0,0,1-.034.586Zm8.785,1.638a1.922,1.922,0,0,1-.7.12c-1.048,0-1.733-.741-1.733-2.12a1.962,1.962,0,0,1,1.894-2.208,1.594,1.594,0,0,1,.609.112l-.143.888a1.115,1.115,0,0,0-.415-.077c-.532,0-.845.517-.845,1.25,0,.767.313,1.233.828,1.233a.9.9,0,0,0,.415-.086l.093.888Zm-14.018,0a1.915,1.915,0,0,1-.7.12c-1.048,0-1.734-.741-1.734-2.12a1.963,1.963,0,0,1,1.895-2.208,1.6,1.6,0,0,1,.609.112l-.144.888a1.11,1.11,0,0,0-.414-.077c-.534,0-.846.517-.846,1.25,0,.767.312,1.233.828,1.233a.893.893,0,0,0,.414-.086l.094.888Zm33.493-2.5h-.1a1.519,1.519,0,0,0-.189-.556.822.822,0,0,0-.723-.456c-.6,0-.935.645-.935,1.761s.306,1.609.911,1.609c.488,0,.779-.138.874-1.089h.314c-.095.951-.543,1.348-1.25,1.348-.92,0-1.532-.745-1.532-1.885,0-1.179.637-1.969,1.556-1.969a1.077,1.077,0,0,1,.8.35l.2-.38h.072v1.267Zm1.42.635a3.037,3.037,0,0,0,.141,1.095.847.847,0,0,0,.9.619c.55,0,.9-.447,1-1.08h.307a1.291,1.291,0,0,1-1.4,1.34c-.966,0-1.579-.721-1.579-1.916,0-1.148.62-1.917,1.539-1.917.887,0,1.406.589,1.431,1.859Zm-10.745-1.7a3.806,3.806,0,0,0,1.1-.189,4.776,4.776,0,0,1,.1.747,1.013,1.013,0,0,1,.926-.716.643.643,0,0,1,.691.637c0,.229-.121.378-.318.378s-.32-.111-.32-.26a.747.747,0,0,1,.024-.165.243.243,0,0,0,.009-.071c0-.11-.134-.189-.268-.189-.408,0-.7.5-.7,1.275v1.643c0,.338,0,.4.621.425v.156a7.834,7.834,0,0,0-.928-.048c-.267,0-.315.008-.936.048v-.156c.621-.024.621-.087.621-.425V113c0-.488,0-.5-.621-.511v-.133Zm-15.206,3.637H85.317v-2.948c0-.466-.026-.871-.034-1.269h.956l.05.484h.017a1.18,1.18,0,0,1,1.006-.552c.787,0,1.1.638,1.1,1.577v2.709H87.3v-2.639c0-.362-.084-.7-.406-.7-.186,0-.338.129-.414.379a1.124,1.124,0,0,0-.059.388Zm-7.416,0H77.9v-5.968h1.107v2.19h.017a1.315,1.315,0,0,1,.356-.361,1.091,1.091,0,0,1,.558-.147c.761,0,1.057.655,1.057,1.725v2.561H79.889v-2.561c0-.414-.076-.776-.406-.776-.186,0-.346.112-.431.4a1.788,1.788,0,0,0-.043.318v2.622Zm14.01,0H91.911v-5.967h1.108v3.6h.017a5.694,5.694,0,0,1,.211-.587l.533-1.259h1.192l-1,1.768,1.057,2.449H93.8l-.592-1.733-.186.362v1.371Zm12.269-1.844c0,1.157.292,1.738.865,1.738s.88-.6.88-1.716c0-1.178-.283-1.768-.857-1.768s-.887.611-.888,1.746Zm-6.41-.063c0,1.17.307,1.769.9,1.769.573,0,.864-.567.864-1.691s-.314-1.722-.9-1.722C99.183,112.44,98.884,113,98.878,114.084Zm32.145-.115c0,.724.11,1.327.508,1.327.355,0,.447-.707.447-1.327,0-.578-.092-1.311-.464-1.311-.405,0-.49.729-.491,1.311Zm7.609.577a.876.876,0,0,0,.058.362c.085.258.229.327.356.327.389,0,.524-.586.524-1.249,0-.8-.186-1.233-.516-1.233a.431.431,0,0,0-.371.362.7.7,0,0,0-.051.3v1.13Zm-12.884-1.138a1.116,1.116,0,0,0-.043-.31c-.051-.181-.169-.345-.354-.345-.4,0-.558.552-.558,1.242,0,.784.219,1.18.532,1.18a.4.4,0,0,0,.372-.3,1.072,1.072,0,0,0,.051-.337Zm40.083-14.847h-.162v0a8.259,8.259,0,0,1-8.112-8.117h0v-.069a8.255,8.255,0,0,1,16.509.069h0a8.21,8.21,0,1,1,0,16.42v.045a8.226,8.226,0,1,1-16.451,0h8.055V98.63a8.326,8.326,0,0,1,8.338,7.3V90.442h-8.338v8.117l.162,0Zm-51.75,15.176c-.039-.951-.306-1.36-.809-1.36s-.8.409-.88,1.36Zm-30.395-.246c0-.543-.136-.966-.466-.966-.363,0-.507.543-.516.966ZM60.667,92.316a23.075,23.075,0,0,0,3.7-.506,9.482,9.482,0,0,1,.386,2.36,3.783,3.783,0,0,1,3.55-2.3c3.064,0,5.27,2.865,5.27,6.882,0,4.044-2.063,6.881-5.1,6.881-1.533,0-2.283-.534-3.318-2.191v5.477c0,1.235,0,1.433,1.725,1.515v.562a27.131,27.131,0,0,0-3.091-.167,27.563,27.563,0,0,0-3.118.167v-.562c1.724-.082,2.069-.28,2.069-1.515V94.506c0-1.348-.247-1.658-1.585-1.658h-.484v-.532Zm96.889-1.874v16.42l.029.011a8.216,8.216,0,0,1-.029-16.431ZM96.219,98.8c0,3.988-2.285,6.881-5.433,6.881-3.2,0-5.432-2.837-5.432-6.909,0-4.128,2.285-6.994,5.544-6.994C94.063,91.782,96.2,94.573,96.219,98.8Zm-52.8,5.043a4.37,4.37,0,0,1-3.56,1.825A3.869,3.869,0,0,1,36,101.63c0-3.433,2.93-5.159,7.071-5.131v-.223A2.117,2.117,0,0,0,40.7,93.9a5.721,5.721,0,0,0-3.2,1l-.575-2.233a7.787,7.787,0,0,1,4.318-1.2c3.857,0,4.936,2.763,4.936,5.722v4.913a19.142,19.142,0,0,0,.258,3.112H43.691l-.2-1.375Zm15.253,1.11a7.933,7.933,0,0,1-3.412.7c-3.757,0-6.2-2.707-6.2-6.922,0-4.076,2.472-7.258,6.7-7.258a6.842,6.842,0,0,1,2.942.642l-.544,2.569a4.853,4.853,0,0,0-2.3-.531c-2.324,0-3.708,1.926-3.684,4.41,0,2.792,1.607,4.383,3.684,4.383a5.373,5.373,0,0,0,2.4-.53l.42,2.539Zm84.447-9.015h-.708c-.25-2.406-1.2-3.3-2.925-3.3a2.45,2.45,0,0,0-2.619,2.31c0,.87.391,1.407,1.5,1.969.39.2.585.282,2.619,1.181,2.089.926,2.841,1.854,2.841,3.484,0,2.358-1.866,4.044-4.458,4.044A5.47,5.47,0,0,1,136,104.4l-.668,1.162h-.5v-4.811h.635a6.843,6.843,0,0,0,.613,2.1,3.4,3.4,0,0,0,3.009,1.865,2.647,2.647,0,0,0,2.869-2.494c0-.871-.39-1.388-1.476-1.978-.083-.056-1-.469-2.758-1.283-2.034-.927-2.675-1.738-2.675-3.367,0-2.191,1.7-3.732,4.179-3.732a4.647,4.647,0,0,1,2.841.829l.474-1.221h.569Zm-11.383,0h-.5c-.251-2.406-1.2-3.3-2.925-3.3a2.45,2.45,0,0,0-2.619,2.31c0,.87.391,1.407,1.5,1.969.39.2.585.282,2.619,1.181,2.088.926,2.841,1.854,2.841,3.484,0,2.358-1.867,4.044-4.457,4.044a5.468,5.468,0,0,1-3.371-1.225l-.668,1.162H123.8v-4.811h.5a6.843,6.843,0,0,0,.613,2.1,3.4,3.4,0,0,0,3.009,1.865,2.647,2.647,0,0,0,2.869-2.494c0-.871-.39-1.388-1.476-1.978-.084-.056-1-.469-2.758-1.283-2.034-.927-2.674-1.738-2.674-3.367,0-2.191,1.7-3.732,4.178-3.732a4.647,4.647,0,0,1,2.841.829l.474-1.221h.362v4.469Zm-23.806,0h-.513a5.547,5.547,0,0,0-.669-1.883,2.86,2.86,0,0,0-2.563-1.574c-2.116,0-3.314,2.331-3.314,6.32,0,3.932,1.085,5.792,3.231,5.792,1.727,0,2.757-1.093,3.092-3.843h1.115c-.335,3.094-1.922,4.783-4.43,4.783-3.259,0-5.432-2.678-5.432-6.751,0-4.213,2.256-7.041,5.515-7.041a3.719,3.719,0,0,1,2.841,1.171l.725-1.443h.4v4.469Zm4.891,2.406a11.989,11.989,0,0,0,.5,3.949,3.04,3.04,0,0,0,3.175,2.263c1.95,0,3.2-1.4,3.539-3.806h1.086c-.336,3.095-2.175,4.754-4.959,4.754-3.427,0-5.6-2.594-5.6-6.862,0-4.1,2.2-6.89,5.461-6.89,3.146,0,4.984,2.465,5.069,6.592Zm-37.665-6a19.814,19.814,0,0,0,3.676-.674,16.894,16.894,0,0,1,.249,2.669,3.528,3.528,0,0,1,3.232-2.556,2.265,2.265,0,0,1,2.423,2.275c0,.814-.446,1.348-1.142,1.348-.669,0-1.143-.393-1.143-.927a2.527,2.527,0,0,1,.084-.59.806.806,0,0,0,.027-.253c0-.393-.393-.674-.867-.674-1.448,0-2.4,1.77-2.4,4.55v5.87c0,1.208.345,1.433,2.069,1.518v.561a26.952,26.952,0,0,0-3.09-.169,27.423,27.423,0,0,0-3.119.169V104.9c1.725-.085,2.07-.31,2.07-1.518V94.648c0-1.742,0-1.8-2.07-1.826v-.478ZM18.922,105.222h-2.76V95.83c0-1.564-.033-2.981-.106-4.013h2.59l.123,1.719h.073a4.061,4.061,0,0,1,3.667-2.243,3.711,3.711,0,0,1,3.3,2.586h.048a5.353,5.353,0,0,1,1.467-1.648,3.691,3.691,0,0,1,2.423-.783c1.98,0,4.011,1.563,4.011,5.917v7.857h-3.1V97.868c0-2.261-.627-3.6-2.069-3.6a2.264,2.264,0,0,0-2.013,1.815,5.783,5.783,0,0,0-.059,1.144v8H23.407V97.505c0-1.9-.632-3.239-2.026-3.239a2.521,2.521,0,0,0-2.219,1.954,3.349,3.349,0,0,0-.24,1.117v7.885Zm68.772-6.474c0,4.128,1.032,6.207,3.064,6.207s3.121-2.135,3.121-6.123c0-4.213-1-6.319-3.037-6.319C88.781,92.513,87.7,94.7,87.694,98.748Zm-22.726-.225c0,4.185,1.087,6.319,3.2,6.319,2.033,0,3.063-2.022,3.063-6.038s-1.113-6.151-3.176-6.151c-2.032,0-3.09,2.021-3.091,5.87Zm-21.551.21c-2.415-.056-4.263.475-4.263,2.54,0,1.34.736,1.954,1.7,1.954a2.562,2.562,0,0,0,2.418-1.87,2.883,2.883,0,0,0,.145-.754v-1.87Zm75.45-1.416c-.14-3.438-1.087-4.859-2.869-4.859-1.812,0-2.842,1.765-3.121,4.859Z"/></g></g></svg>