<?xml version="1.0" encoding="utf-8"?> <svg xmlns="http://www.w3.org/2000/svg" viewBox="0 0 200 200"><title>Asset 260</title><g id="Layer_2" data-name="Layer 2"><g id="Layer_1-2" data-name="Layer 1"><g id="agri"><path d="M85.839,93.418,80.5,93.406V95c-3.064-2.917-9.387-2.553-12.845.664-3.781,3.517-4.234,10.289-1.085,14.527a9.639,9.639,0,0,0,6.425,3.8,7.184,7.184,0,0,0,6.978-2.478c.095,2.583-.524,4.448-2.74,5.353-2.186.892-4.164.526-5.555-1.516H65.009s1.6,7.088,10.472,7.088c9.454-.016,10.129-7.594,10.129-7.594a25.259,25.259,0,0,0,.311-5.919ZM75.226,108.6a4.794,4.794,0,0,1-4.778-5.1,4.822,4.822,0,1,1,9.633.094A4.725,4.725,0,0,1,75.226,108.6Z"/><path d="M92.847,95.972c0-.91-.034-2.566-.034-2.566l-5.849.012v20.908h5.928l0-10.663c-.012-2.313.72-3.328,3.3-3.733.45-.071.594-.106,1.127-.169,0-1.727-.034-3.8-.034-5.433A5.072,5.072,0,0,0,92.847,95.972Z"/><path d="M55.4,88.117H50.056c-.615,1.361-1.362,2.914-1.957,4.37-2.936,7.186-9.128,21.839-9.128,21.839h7.673l1.485-3.4h9.136l1.333,3.4H65.84C65.693,113.953,58.814,96.536,55.4,88.117ZM49.871,105.21,52.719,96.1l2.824,9.113Z"/><path d="M158.175,98.294a10.445,10.445,0,0,0-6.212-4.516,12.466,12.466,0,0,0-6,0,10.436,10.436,0,0,0-6.212,4.516,10.669,10.669,0,0,0-1.448,7.638,10.917,10.917,0,0,0,21.324,0A10.694,10.694,0,0,0,158.175,98.294Zm-9.216,10.688a4.852,4.852,0,0,1-4.634-4.977,4.653,4.653,0,1,1,9.27,0A4.853,4.853,0,0,1,148.959,108.982Z"/><path d="M132.993,95.972c0-.91-.028-2.566-.028-2.566l-5.837.012v20.908h5.9l0-10.663c-.011-2.313.721-3.328,3.3-3.733.45-.071.595-.106,1.128-.169,0-1.727-.033-3.8-.033-5.433A5.064,5.064,0,0,0,132.993,95.972Z"/><path d="M94.2,79.105c-4.466.648-8.814.842-12.9-1.54h-.363c0,.681-.01,1.6,0,2.363C81.006,86.47,86,91,92.467,90.222c4.045-.482,8.116-.981,12.1,1,.765-3.3.622-6.321-1.426-8.9C100.861,79.442,97.666,78.6,94.2,79.105Z"/><rect x="98.877" y="93.222" width="5.786" height="21.103"/><path d="M120.226,88.517a66.9,66.9,0,0,0-7.524-.651l-6.336.092v26.368h6.126v-8.141a46.389,46.389,0,0,0,6.141-.354c4.037-.773,7.082-3.637,7.4-7.9C126.381,93.252,124.1,89.385,120.226,88.517Zm-1.111,10.216c-1.665,2.215-4.58,2.122-6.623,2.122V93.419c2.043.166,4.813-.264,6.542,1.814A2.757,2.757,0,0,1,119.115,98.733Z"/></g></g></g></svg>