<?xml version="1.0" encoding="utf-8"?> <svg xmlns="http://www.w3.org/2000/svg" viewBox="0 0 200 200"><title>Asset 234</title><g id="Layer_2" data-name="Layer 2"><g id="Layer_1-2" data-name="Layer 1"><g id="pfi"><path d="M70.819,85l-9.253.055L54.175,112h6.154l2.237-8.908a48.847,48.847,0,0,0,5.595-.316c6.029-.824,8.312-3.368,8.312-3.368.967-1.1,4.091-5.136,2.739-9.553C77.878,85.5,71.016,85.013,70.819,85Zm.554,12.154a6.232,6.232,0,0,1-4.005,2.7A18.482,18.482,0,0,1,63.42,100l3.211-12H69.1c1.828.358,3.446,1.016,3.937,2.869C73.435,92.361,71.9,96.477,71.373,97.154Z"/><path d="M156.73,90.97c-3.02-18.64-30.7-29.75-61.7-24.77C75.08,69.4,58.04,78.42,49.45,90.31c-4.39,6.08-6.18,12.55-5.18,18.72,2.53,15.63,22.39,25.96,47.02,25.96a92.168,92.168,0,0,0,14.68-1.19c19.95-3.2,36.99-12.22,45.58-24.11C155.94,103.61,157.73,97.14,156.73,90.97Zm-6.8,17.55c-8.17,11.3-25.13,20.23-44.27,23.31a85.661,85.661,0,0,1-28.52-.04L86.33,97h5.91l-3.78,15h5.81l4.88-18-11.7-.15s1.69-6.96,1.88-7.61c.35-1.16,2.07-5.15,3.37-6.02a4.517,4.517,0,0,1,3.69-.76,1.726,1.726,0,0,1,.14,2.28,3.187,3.187,0,0,0-.42,3.21,3.37,3.37,0,0,0,3.38,1.72c1.74-.09,4.38-1.64,3.48-5.29a5.675,5.675,0,0,0-3.72-3.4,16.419,16.419,0,0,0-6.34-.46,12.632,12.632,0,0,0-8.32,5.98c-2.27,4.16-4.25,12.64-4.25,12.64l-9.39,34.22c-13.52-3.82-23.07-11.54-24.7-21.65-.92-5.63.75-11.59,4.82-17.23,8.17-11.3,25.13-20.23,44.27-23.31A92.333,92.333,0,0,1,109.84,67c23.59,0,42.54,9.64,44.91,24.29C155.67,96.92,154,102.88,149.93,108.52Z"/><path d="M147.488,93.94c-2.042.472-4.712,3.572-4.712,3.572L143.665,94l-5.749.021L133.246,112h5.822s2.393-9.785,3.544-11.585a10.235,10.235,0,0,1,2.257-2.831c2.948-1.551,2.693.865,2.693.865a2.753,2.753,0,0,0,2.424,1.655c2.344.141,3.189-3.408,2.135-4.819C150.778,93.486,148.879,93.624,147.488,93.94Z"/><path d="M127.616,108.544a5.379,5.379,0,0,1-4.069.415c-1.713-1.013-2.031-1.86-2.174-2.305a3.95,3.95,0,0,1,.048-2,19.1,19.1,0,0,0,5.571-.58c3.006-.693,7.017-2.606,7.005-6.895,0-.759-1.525-5.717-9.993-2.951a12.606,12.606,0,0,0-8.04,8.539c-1.086,3.4-.121,9.538,6.391,9.907a12.517,12.517,0,0,0,10.094-3.988l-1.8-2.375A26.306,26.306,0,0,1,127.616,108.544ZM126.242,97.03h0c1.556-.5,3.053-.2,2.837,1.168a4.733,4.733,0,0,1-2.1,3.075,8.575,8.575,0,0,1-5.425,1.552A6.792,6.792,0,0,1,126.242,97.03Z"/><path d="M112.914,100.478c1.66-1.737,2.815-2.29,4.129-6.478H102.187l-.809,3,8.388.1s-6.282,6.42-6.838,6.788-4.55,4.708-4.684,8.438l15.312.3.871-3.623H105.2C107.99,104.824,110.645,102.848,112.914,100.478Z"/></g></g></g></svg>