<?xml version="1.0" encoding="utf-8"?> <svg xmlns="http://www.w3.org/2000/svg" viewBox="0 0 200 200"><title>Asset 242</title><g id="Layer_2" data-name="Layer 2"><g id="Layer_1-2" data-name="Layer 1"><g id="goo"><path id="path2" d="M21.155,99.655A9.944,9.944,0,0,1,28.51,93.5c2.75-.366,5.4-.464,7.37.929-.511,1-1.089,2.062-1.089,2.062a7.487,7.487,0,0,0-1.379-.637,3.838,3.838,0,0,0-3.55.175l-.415.639L27.2,104.805a1.06,1.06,0,0,0,.134.846c.529.5,1.418.188,2.128.285l.237-.222,1.534-5.427,6.584.053.08.131c-.636,2.414-1.2,4.849-1.913,7.226l-.14.128-10.35-.041a4.268,4.268,0,0,1-3.84-1.776c-.058-.376-.493-.733-.469-1.034h-.1a10.162,10.162,0,0,1,.075-5.319m77.771-.022c.98,1.8,2.176,3.874,3.057,5.692l-.1.263c-2.63,2.466-5.241,5.7-8.776,6.587-.334.036-.431-.209-.509-.452.045-1.7,2-2.541,2.752-3.982.715-1.233.877-2.693,1.532-3.965a32.981,32.981,0,0,1,1.846-3.947Z"/><path id="path4" d="M93.3,112.907c5.844-1.914,9.254-8.385,14.8-11.2.514-.243.932-.69,1.5-.763a1.226,1.226,0,0,1,.43.769c-3.91,2.122-7.43,5.523-10.712,8.679a18.47,18.47,0,0,1-5.61,3.317,2.719,2.719,0,0,1-.412-.805m3.986-20.216q3.016-1.8,6.2-3.317a6.192,6.192,0,0,0-.052,3.183l-.1.186-4.364,2.369-.276,0a23.82,23.82,0,0,1-1.512-2.253Zm2.248,3.376a38.76,38.76,0,0,1,3.972.309v.151a26.977,26.977,0,0,1-3.9,1.786,10.683,10.683,0,0,0-.068-2.246m.058,3.166a39.083,39.083,0,0,1,4.444-2.207,7.322,7.322,0,0,0,1.886,2.774c.909-.3,1.067-1.321,1.859-1.695l1.412,2.106-.059.1a37.311,37.311,0,0,0-6.344,4.363h-.2c-1.06-1.808-2.1-3.563-3-5.438m4.457-6.315-.145,2.33a18.444,18.444,0,0,1-3.412.03l-.1-.266,3.417-2.094Zm8.651-.3h6.552l1.681,5.134s.06-.089.1-.032a48.615,48.615,0,0,0,4.273-5.1h4.2V93.5l-7.092,8.088s-1.292,3.978-1.926,6.019l-.665.083h-6.686l-.077-.083,1.577-6.118L112,93.4a1.133,1.133,0,0,0,.655-.539m17.565.523.156-.095,12.146-.029c.117-.019.3.122.3.122l-.58,2.512-5.482-.015-.239.394-.578,2.786.137.094,3.313-.056-.679,2.852-3.627.029s-.58,2.079-.78,3.147l.137.091c1.657,0,3.354.011,5.127.014l.139.094a13.257,13.257,0,0,1-.619,2.327l-.338.137-12.163.048,3.634-14.452Zm-84.971.686a10.381,10.381,0,0,1,9.385.291,6.508,6.508,0,0,1,2.011,6.877c-.839,2.918-3.473,6.038-6.745,6.686-3.041.74-6.666.411-8.651-2.008-1.828-2.106-1.42-5.6-.113-7.868a9.558,9.558,0,0,1,4.113-3.978m1.012,10.472a1.409,1.409,0,0,0,.192,1.387,1.464,1.464,0,0,0,1.124.19,1.82,1.82,0,0,0,1.008-.764c.818-2.528,1.259-5.2,2.017-7.768,0-.692.765-1.617-.14-2.031a1.877,1.877,0,0,0-1.807.395,24.582,24.582,0,0,0-1.135,3.912c-.363,1.593-.839,3.126-1.259,4.679m16.831-9.973a10.99,10.99,0,0,1,9.665-.8C75,94.806,75.8,97.093,75.911,99.323a9.154,9.154,0,0,1-5.228,7.925l-2,.763c-2.857.346-5.994.208-8.038-1.822-1.906-1.8-2.055-4.836-1.219-7.137a8.624,8.624,0,0,1,3.661-4.486m2.234,11.057a1.459,1.459,0,0,0,1.181.229,2.117,2.117,0,0,0,1.05-.859l1.336-5.3c.08-.279.062-.653.2-.842.16-1.1.764-2.029.672-3.153-.159-.15-.326-.5-.564-.535a1.65,1.65,0,0,0-1.558.388c-1.013,2.714-1.457,5.654-2.254,8.461-.043.523-.378,1.1-.064,1.609M79.954,93.4l.392-.093L90.423,93.3a5.235,5.235,0,0,1,3.718,3.157c1.072,3.186-.258,6.421-2.4,8.834a8.333,8.333,0,0,1-5.882,2.511c-3.631,0-9.463-.013-9.463-.013S79.275,95.942,79.954,93.4m3.688,12.089c.471.3,1.046.044,1.558.061.472-.11.671-.5.909-.859,0,0,2.481-8.26,2.05-8.844-.453-.43-1.111-.274-1.923-.274a3.964,3.964,0,0,0-.139.447Z"/><path id="path6" d="M105.587,87.936c2.272-1.847,5.485-1.218,8.479-1.266a42.175,42.175,0,0,0,11.6-.382,3.012,3.012,0,0,1-1.763,2.6c-2.607,1.323-5.9.863-8.854.7l0,.169,1.222.453c-.02.375-.455.579-.752.728-.475.186-1.045.165-1.52.352.137.168.534.04.474.357a3.215,3.215,0,0,1-3.454.478l-.137.149a4.229,4.229,0,0,1-.541,2.64c-.375.055-.59-.265-.886-.4-.237.558-.142,1.346-.6,1.831-.393-.019-.707-.507-1.062-.638a10.825,10.825,0,0,1-1.388,2.656c-.71-.041-1.063-.864-1.357-1.392a8.136,8.136,0,0,1-.085-3.519,3.858,3.858,0,0,1-.7-3.6,3.651,3.651,0,0,1,1.327-1.926m1.131,3.881-.946-.095.078.169c.691.057.557.928,1.132,1.079l-.264-1.153L107.2,89.7a1.548,1.548,0,0,0,1.222.1c.336-.487,1.036-.437,1.607-.454.475-.093.426-.964,1.037-.718.217-.057.592-.207.573-.392-.633.335-1.358-.529-1.755.219a2.688,2.688,0,0,1-1.42.354,1.483,1.483,0,0,1-1.265.895Zm42.527,1.442,6.015,0,.233.193,1.574,14.235h-6.821l-.27-2.2-5.205.052-1.525,2.236-3.078.019s7.631-12.365,9.077-14.532m-2.809,9.684h3.153l-.46-4.335Zm15.824-9.525.2-.132,11.97,0a3.92,3.92,0,0,1,3.027,2.032,4.453,4.453,0,0,1-.072,4.438,7.928,7.928,0,0,1-2.751,2.651c.345,1.665.764,3.324,1.169,5.026.06.223-.061.371-.279.354l-6.682.036-.238-.132-1.21-4.086c-.095-.169-.315-.078-.474-.095l-.194.262-1.1,3.874-.2.151-6.8.018a.893.893,0,0,1,.1-.767c1.177-4.529,2.435-9.08,3.534-13.627m5.319,7.395a1.947,1.947,0,0,0,1.231.179,1.619,1.619,0,0,0,.822-.813l.955-3.536a.964.964,0,0,0-.192-1.085,1.8,1.8,0,0,0-1.459-.005Z"/></g></g></g></svg>