<?xml version="1.0" encoding="utf-8"?> <svg xmlns="http://www.w3.org/2000/svg" viewBox="0 0 200 200"><title>Asset 256</title><g id="Layer_2" data-name="Layer 2"><g id="Layer_1-2" data-name="Layer 1"><path id="avi" d="M120.506,86.892a1.84,1.84,0,0,1,1.5,1.64V106.4h5.646V86.452h-7.151Zm-41.774-.44v.44c.376.131,2.3.584,1.737,1.833L72.88,106.4h4.155l2.463-5.269h8.711l2.152,5.269h5.464l-7.8-19.946ZM80.614,98.5l3.533-7.872L87.233,98.5Zm79.033-12.043v.44c.752.131,2.265.584,1.7,1.833L153.73,106.4h4.155l2.459-5.269h8.709l2.156,5.269h5.466l-7.807-19.946ZM161.462,98.5l3.532-7.872L168.08,98.5Zm-15.36,7.9,8.339-19.946H150.5l-6.116,14.673-5.819-14.673h-7.519v.44c.376.164,1.872.6,2.31,1.7l7.089,17.8Zm-36.552,0,8.34-19.946h-3.945l-6.113,14.673L102.01,86.452H94.162v.44a2.8,2.8,0,0,1,2.476,1.7l7.251,17.8Zm-43.19,7.644-.188-35.81-12.279,0v0l3.7,36.071C60.39,114.14,63.448,114.047,66.36,114.042Zm-15.824.861,3.357-36.671v-.007l-31.385.007.017,43.543C29.945,118.531,39.6,116.116,50.536,114.9Z"/></g></g></svg>