<?xml version="1.0" encoding="utf-8"?> <svg xmlns="http://www.w3.org/2000/svg" viewBox="0 0 200 200"><title>Asset 239</title><g id="Layer_2" data-name="Layer 2"><g id="Layer_1-2" data-name="Layer 1"><g id="iso"><rect x="44.134" y="80.512" width="5.045" height="29.043"/><path d="M95.036,80.421c-.86-.01-1.88.033-3.154.085l-4.845.006v29.043h5.045l.047-11.233,3.462-.026c1.915.012,3.454-.114,4.834-1.533a8.838,8.838,0,0,0,2.387-5.4v-3.22a6.473,6.473,0,0,0-1.871-5.1C98.749,80.949,97.615,80.451,95.036,80.421ZM94.9,84.7A2.843,2.843,0,0,1,97.951,87.1l.069,1.038h.012v3.22l-.023.355c-.161,1.616-1.1,2.587-3.162,2.631H92.082V84.708Z"/><path d="M104.492,80.6v22.714c-.008,4.5,4.569,6.676,7.919,6.66,3.35.016,7.956-2.16,7.948-6.66V80.6h-5.045v22.714c.007,1.33-1.19,2.376-2.888,2.377s-2.9-1.047-2.89-2.377V80.6Z"/><path d="M140.876,80.512v29.043h14.817v-4.021h-9.772V96.919h8.531V92.9h-8.531V84.533h9.737V80.512H140.876Z"/><path d="M138.465,91.272V87.057a7.159,7.159,0,0,0-2.519-4.654c-1.836-1.544-2.719-1.776-3.892-1.8-.166,0-.338,0-.52,0-.207,0-.427.006-.665.006h-9.055v29.042h5.046v-12.4l2.825-.006,4.7,12.409h5.2L134.4,96.485h0a7.7,7.7,0,0,0,2.66-1.82,6.452,6.452,0,0,0,1.408-3.393m-5.045,0c-.315,1.467-1.571,2.217-3.3,2.259l-3.258-.013V84.631h3.2c2.176.04,3.168.936,3.338,2.426l.024.327v3.888"/><path d="M76.791,80.182c-3.539-.016-8.375,2.159-8.367,6.659v8.837h-.019v7.548c-.008,4.5,4.827,6.676,8.367,6.66,3.539.016,8.406-2.16,8.4-6.66V96.361h.019v-9.52C85.2,82.341,80.33,80.166,76.791,80.182Zm.015,4.282c1.8,0,3.059,1.047,3.052,2.377v8.837h-.019v7.548c.007,1.33-1.257,2.376-3.052,2.377s-3.059-1.047-3.052-2.377V96.361h.019v-9.52C73.747,85.511,75.012,84.465,76.806,84.464Z"/><path d="M59.039,80.362c-.161,0-.29.009-.474.01a9.8,9.8,0,0,0-4.819,1.3A6.117,6.117,0,0,0,50.5,87.036V88.88c.156,3.011,1.859,5.052,4.547,6.476l5.9,2.065c1.875.721,1.5,2.871,1.491,3.935V103.2c.007,1.331-1.2,2.376-2.91,2.377-.265,0-.522,0-.751,0v0c-.095,0-.189,0-.286,0-1.711,0-2.917-1.046-2.91-2.377v-1.844H50.5V103.2a6.117,6.117,0,0,0,3.245,5.362,9.8,9.8,0,0,0,4.819,1.3,5.62,5.62,0,0,0,.649,0v0l.332,0a9.49,9.49,0,0,0,4.733-1.3,6.116,6.116,0,0,0,3.244-5.362v-1.844c.008-4.865-1.318-6.645-4.591-7.785l-5.9-2.066a2.707,2.707,0,0,1-1.446-2.625V87.036c-.007-1.331,1.2-2.376,2.91-2.377.1,0,.191,0,.286,0v0c.229,0,.486,0,.751,0,1.711,0,2.917,1.046,2.91,2.377V88.88h5.082V87.036a6.116,6.116,0,0,0-3.244-5.362,9.49,9.49,0,0,0-4.733-1.3l-.332,0v0c-.064-.006-.121-.009-.175-.01Z"/><path d="M45.426,119.693l-1.177-7.043h1.022l.738,4.838.9-4.838H48.1l.866,4.92.759-4.92h1l-1.2,7.043H48.466l-.984-5.265-.976,5.265Z"/><path d="M51.232,119.693V112.65h3.659v1.192H52.225V115.4H54.7v1.187H52.225v1.916h2.757v1.187Z"/><path d="M55.807,115.153l-.177-1.311V112.65h1.03v1.192l-.156,1.311Z"/><path d="M57.468,119.693V112.65h2.1a2.5,2.5,0,0,1,1.148.193,1.378,1.378,0,0,1,.567.658,2.6,2.6,0,0,1,.221,1.119,2.339,2.339,0,0,1-.34,1.331,1.468,1.468,0,0,1-.96.634,2.663,2.663,0,0,1,.529.591,8.6,8.6,0,0,1,.571,1.143l.6,1.374H60.713l-.721-1.532a10.345,10.345,0,0,0-.529-1.038.8.8,0,0,0-.3-.288,1.13,1.13,0,0,0-.5-.082h-.206v2.94Zm.993-4.064H59.2a3.211,3.211,0,0,0,.861-.068.584.584,0,0,0,.3-.283,1.184,1.184,0,0,0,.115-.562,1.093,1.093,0,0,0-.115-.538.61.61,0,0,0-.312-.283,3.384,3.384,0,0,0-.808-.053h-.78Z"/><path d="M62.441,119.693V112.65H66.1v1.192H63.434V115.4h2.478v1.187H63.434v1.916h2.757v1.187Z"/><path d="M73.162,119.693H72.078l-.43-1.6H69.679l-.407,1.6H68.214l1.92-7.043h1.055Zm-1.834-2.786-.677-2.613-.669,2.613Z"/><path d="M73.724,119.693v-6.985h.993v5.8h2.478v1.187Z"/><path d="M77.942,119.693v-6.985h.993v5.8h2.477v1.187Z"/><path d="M83.94,119.693V112.65h1.489l.895,4.8.886-4.8H88.7v7.043H87.78v-5.544l-.98,5.544h-.96l-.973-5.544v5.544Z"/><path d="M89.5,116.215a5.8,5.8,0,0,1,.315-2.071,2.794,2.794,0,0,1,.833-1.215,1.963,1.963,0,0,1,1.244-.4,2.023,2.023,0,0,1,1.723.946,4.633,4.633,0,0,1,.668,2.694,4.706,4.706,0,0,1-.706,2.763,2.063,2.063,0,0,1-3.372.009A4.642,4.642,0,0,1,89.5,116.215Zm1.025-.048a3.409,3.409,0,0,0,.394,1.825,1.148,1.148,0,0,0,.977.606,1.133,1.133,0,0,0,.972-.6,3.521,3.521,0,0,0,.385-1.854,3.41,3.41,0,0,0-.377-1.811,1.123,1.123,0,0,0-.98-.586,1.14,1.14,0,0,0-.989.591A3.438,3.438,0,0,0,90.525,116.167Z"/><path d="M95.067,119.693V112.65h2.1a2.5,2.5,0,0,1,1.148.193,1.376,1.376,0,0,1,.566.658,2.582,2.582,0,0,1,.222,1.119,2.339,2.339,0,0,1-.34,1.331,1.47,1.47,0,0,1-.96.634,2.688,2.688,0,0,1,.529.591,8.628,8.628,0,0,1,.57,1.143l.6,1.374H98.312l-.722-1.532a10.123,10.123,0,0,0-.529-1.038.794.794,0,0,0-.3-.288,1.125,1.125,0,0,0-.5-.082h-.2v2.94Zm.993-4.064H96.8a3.215,3.215,0,0,0,.862-.068.584.584,0,0,0,.3-.283,1.185,1.185,0,0,0,.114-.562,1.094,1.094,0,0,0-.114-.538.61.61,0,0,0-.312-.283,3.4,3.4,0,0,0-.809-.053H96.06Z"/><path d="M100.04,119.693V112.65h3.66v1.192h-2.667V115.4h2.478v1.187h-2.478v1.916h2.757v1.187Z"/><path d="M107.663,119.693v-5.851H106.2V112.65h3.918v1.192h-1.46v5.851Z"/><path d="M110.773,119.693V112.65h.993v2.772h1.953V112.65h1v7.043h-1v-3.08h-1.953v3.08Z"/><path d="M120.189,119.693h-1.083l-.431-1.6h-1.969l-.406,1.6h-1.059l1.92-7.043h1.054l1.974,7.043Zm-1.834-2.786-.677-2.613-.669,2.613Z"/><path d="M120.726,119.693V112.65h.968l2.019,4.7v-4.7h.927v7.043h-1l-1.985-4.592v4.592Z"/><path d="M127.6,119.693V112.65h1.489l.894,4.8.886-4.8h1.494v7.043h-.923v-5.544l-.981,5.544h-.96l-.972-5.544v5.544Z"/><path d="M133.343,112.65h.993v3.815a10.872,10.872,0,0,0,.037,1.157,1.255,1.255,0,0,0,.311.721.88.88,0,0,0,.657.255.856.856,0,0,0,.562-.178.915.915,0,0,0,.3-.5,7.016,7.016,0,0,0,.082-1.374v-3.9h1v3.7a11.323,11.323,0,0,1-.132,2.052,1.685,1.685,0,0,1-1.777,1.412,2,2,0,0,1-1.206-.322,1.853,1.853,0,0,1-.628-.913,8.141,8.141,0,0,1-.192-2.171V112.65Z"/><path d="M138.073,117.4l.973-.135q.163,1.35,1.074,1.35a.927.927,0,0,0,.71-.274.969.969,0,0,0,.259-.687.842.842,0,0,0-.091-.408.69.69,0,0,0-.275-.274,6.548,6.548,0,0,0-.894-.365,2.858,2.858,0,0,1-.931-.49,1.867,1.867,0,0,1-.472-.692,2.476,2.476,0,0,1-.172-.927,2.38,2.38,0,0,1,.221-1.038,1.612,1.612,0,0,1,.62-.7,1.861,1.861,0,0,1,.972-.235,1.721,1.721,0,0,1,1.359.552,2.42,2.42,0,0,1,.516,1.581l-1,.062a1.377,1.377,0,0,0-.283-.793.821.821,0,0,0-.619-.226.892.892,0,0,0-.62.2.635.635,0,0,0-.217.49.659.659,0,0,0,.2.485,2.581,2.581,0,0,0,.907.433,3.39,3.39,0,0,1,1.084.538,1.755,1.755,0,0,1,.512.725,2.9,2.9,0,0,1,.177,1.076,2.444,2.444,0,0,1-.484,1.542,1.782,1.782,0,0,1-1.506.625q-1.814,0-2.019-2.417Z"/><path d="M146.078,117.1l.964.437a3.383,3.383,0,0,1-.751,1.729,1.727,1.727,0,0,1-1.292.543,1.821,1.821,0,0,1-1.563-.87,4.709,4.709,0,0,1-.689-2.709,4.962,4.962,0,0,1,.693-2.82,1.869,1.869,0,0,1,1.62-.883,1.74,1.74,0,0,1,1.387.662,3.081,3.081,0,0,1,.583,1.4l-.985.337a1.641,1.641,0,0,0-.378-.875.861.861,0,0,0-.66-.307,1.021,1.021,0,0,0-.89.557,3.657,3.657,0,0,0-.345,1.84,3.884,3.884,0,0,0,.337,1.892,1,1,0,0,0,.873.563.853.853,0,0,0,.681-.356A2.488,2.488,0,0,0,146.078,117.1Z"/><path d="M147.92,119.693v-6.985h.993v5.8h2.478v1.187Z"/><path d="M152.113,119.693V112.65h3.66v1.192h-2.667V115.4h2.478v1.187h-2.478v1.916h2.757v1.187Z"/></g></g></g></svg>