<?xml version="1.0" encoding="utf-8"?> <svg xmlns="http://www.w3.org/2000/svg" viewBox="0 0 200 200"><title>Asset 255</title><g id="Layer_2" data-name="Layer 2"><g id="Layer_1-2" data-name="Layer 1"><path id="bal" d="M19.588,80h159.6V83.4H19.588Zm0,37.027h159.6V120H19.588Zm0-9.166v-3.4l4.256.009v-9.15H20.027l.007-3.492,19.284.068c3.465.014,5.318,1.411,5.472,4.351.078,1.49-.323,3.185-1.647,3.775,1.764.695,2.132,1.609,2.058,3.563a4.373,4.373,0,0,1-4.58,4.3C39.62,107.88,19.588,107.858,19.588,107.858Zm7.235-3.41H39.382c1.758.01,2.512-.2,2.539-1.424.024-1.117-.806-1.3-2.161-1.3H26.823Zm0-6.088,12.031.057c1.193-.039,2.554.168,2.5-1.586-.035-1.158-1.157-1.306-2.3-1.306l-12.239.006Zm18.882,9.5.011-3.406,4.3.014,9.315-12.483h2.419l8.882,12.469,4.712,0v3.41l-12.96.044v-3.433l3.908.024-1.125-1.467H55.238l-1.185,1.422,4.639,0v3.45Zm17.528-8.34-2.674-3.272-2.85,3.272ZM76.1,107.9v-3.436l4.348-.018V95.525l-4.565.014.075-3.556,13.383-.014.048,3.556-4.989.014v8.93l12.646-.035V101.2h4.392v6.678ZM106.23,95.569l-3.777-.046V91.9l16.348.082c3.653,0,4.713,1.231,5.4,1.693a8.267,8.267,0,0,1,2.7,6.3,9.97,9.97,0,0,1-1.648,5.492c-1.415,1.778-2.143,2.409-6.248,2.409H102.154V104.4l4.076.033Zm3.572,8.924,9.2-.059c3.334-.007,4.17-1.782,4.17-4.544,0-2.165-.669-4.228-4.374-4.328l-9-.039Zm17.978-4.213c0-6.109,7.776-8.2,12.353-8.2s11.813,2.216,11.813,8.2c0,6.028-7.028,7.884-11.813,7.884-5.542,0-12.353-2.01-12.353-7.884m3.707,0c.053,3.3,5.941,4.819,8.775,4.819,3.129,0,7.978-1.728,7.978-4.819,0-2.923-4.479-5.027-8.031-5.027-3.7,0-8.777,1.469-8.722,5.027m38.369,4.522c-.309-.438-.618-.609-.926-1.047-1.467-2.319-3.02-2.053-4.284-2.053H159.61v2.7l5.547,0v3.488l-13.11.013-.058-3.5,4.216,0v-8.82l-4.256-.058V91.966l20.3-.065a5.423,5.423,0,0,1,4.616,1.767,5.717,5.717,0,0,1,1.163,3.163A4.527,4.527,0,0,1,177.02,99.7a4.334,4.334,0,0,1-2.842,1.47c-1.732.04-2.792,0-2.792,0,4.17,7.5,7.656,3.48,7.656,3.48l-.012,3.555s-2.773.018-3.152,0a12.449,12.449,0,0,1-2.317-.464,8.711,8.711,0,0,1-2.232-1.372c-.417-.386-1.473-1.565-1.473-1.565M159.61,98.419l12.266-.042c1.373.006,2.147.088,2.147-1.54,0-1.081-1.073-1.309-2.5-1.309l-11.911.042Z"/></g></g></svg>