<svg width="176" height="138" viewBox="0 0 176 138" fill="none" xmlns="http://www.w3.org/2000/svg"><rect x="0.619141" y="0.670898" width="174.585" height="136.394" rx="10.9115" fill="#222222"></rect> <path d="M123.492 34.8836C123.429 34.3158 122.924 34.0635 122.546 34.0635C122.167 34.0635 113.903 33.4326 113.903 33.4326C113.903 33.4326 108.163 27.6919 107.469 27.1242C106.838 26.4933 105.639 26.6826 105.135 26.8087C105.071 26.8087 103.873 27.1873 101.917 27.8181C99.9616 22.2036 96.6181 17.0937 90.625 17.0937H90.0573C88.4171 14.9488 86.2722 13.9395 84.5058 13.9395C70.6272 13.9395 63.9402 31.2878 61.8584 40.1196C56.4331 41.8229 52.5849 42.9584 52.1433 43.1477C49.1153 44.094 49.0522 44.1571 48.6737 46.9959C48.3583 49.1407 40.4727 110.144 40.4727 110.144L101.854 121.625L135.163 114.433C135.226 114.307 123.555 35.4513 123.492 34.8836ZM98.5106 28.7013C96.9966 29.1429 95.1671 29.7106 93.3377 30.3415V29.206C93.3377 25.7994 92.8961 23.0237 92.076 20.8157C95.2302 21.1942 97.1859 24.6639 98.5106 28.7013ZM88.2278 21.5096C89.0479 23.6545 89.6157 26.6826 89.6157 30.8462V31.477C86.2091 32.5494 82.6133 33.6219 78.8913 34.8205C80.9731 26.8718 84.9474 22.9606 88.2278 21.5096ZM84.1904 17.5984C84.8212 17.5984 85.4521 17.8507 85.9568 18.2292C81.4778 20.311 76.7464 25.547 74.7908 36.1453C71.8258 37.0915 68.987 37.9117 66.2743 38.7948C68.5454 30.72 74.223 17.5984 84.1904 17.5984Z" fill="#F2F2F2"></path> <path d="M122.546 33.9373C122.167 33.9373 113.903 33.3064 113.903 33.3064C113.903 33.3064 108.162 27.5657 107.468 26.998C107.216 26.7456 106.9 26.6195 106.648 26.6195L102.043 121.625L135.352 114.433C135.352 114.433 123.681 35.4513 123.618 34.8836C123.366 34.3158 122.924 34.0635 122.546 33.9373Z" fill="#D1D1D1"></path> <path d="M90.6261 52.3581L86.5887 64.5335C86.5887 64.5335 82.9298 62.5779 78.5769 62.5779C72.0792 62.5779 71.7638 66.6784 71.7638 67.6877C71.7638 73.2392 86.2732 75.3841 86.2732 88.4426C86.2732 98.7254 79.7755 105.349 71.0067 105.349C60.4085 105.349 55.1094 98.7885 55.1094 98.7885L57.9482 89.452C57.9482 89.452 63.4996 94.2464 68.1679 94.2464C71.2591 94.2464 72.5208 91.8492 72.5208 90.0828C72.5208 82.8281 60.6608 82.5126 60.6608 70.5265C60.6608 60.4961 67.8525 50.781 82.4251 50.781C87.8504 50.7179 90.6261 52.3581 90.6261 52.3581Z" fill="#222222"></path></svg>