<?xml version="1.0" encoding="utf-8"?>
<svg version="1.1" id="Layer_1" xmlns="http://www.w3.org/2000/svg" xmlns:xlink="http://www.w3.org/1999/xlink" x="0px" y="0px"
	 viewBox="0 0 512 512" style="enable-background:new 0 0 512 512;" xml:space="preserve">
<style type="text/css">
	.st0{fill:#FFFFFF;}
</style>
<g>
	<g id="Jclipped">
		<path d="M256,6C117.9,6,6,117.9,6,256s111.9,250,250,250s250-111.9,250-250S394.1,6,256,6z M361.8,116.6c-4,0.1-8.9,0.7-14.8,1.6
			c-5.9,0.9-10.9,2.1-15,3.5c-4.8,1.7-8.1,4.5-9.8,8.5c-1.7,4-2.6,8.3-2.6,13V322c0,9.4-1.9,19.3-5.6,29.8
			c-3.8,10.5-9.3,19.9-16.5,28.1c-8.4,9.6-18.3,17.2-29.9,22.5c-11.6,5.4-24.8,8.1-39.7,8.1c-23.1,0-41.9-6.5-56.2-19.5
			c-14.4-13-21.6-30.4-21.6-52.4c0-9.6,2.5-18.2,7.4-25.6c5-7.4,12.2-11.2,21.7-11.2c8.5,0,15.3,2.4,20.5,7.1
			c5.2,4.8,7.8,11,7.8,18.8c0,4.5-0.9,9.1-2.8,13.6c-1.8,4.5-3.9,8.6-6.2,12.1c-2.1,3.3-4.5,7.1-7.2,11.5c-2.7,4.4-4.6,8.4-5.7,11.9
			c3,4.7,7.6,8.8,13.9,12.3c6.3,3.5,14.8,5.3,25.4,5.3c10.3,0,18.8-2.4,25.4-7.1c6.6-4.7,11.5-11.1,14.8-19
			c3.1-7.4,5.3-16.4,6.7-27.2c1.3-10.8,2-22.8,2-36.2V145.3c0-5-0.8-9.1-2.4-12.4c-1.6-3.3-5-6.3-10.1-8.8c-4.4-2.3-9.9-4-16.5-5.2
			c-6.6-1.2-12-1.9-16.3-2.2v-15.1h133.1V116.6z"/>
	</g>
	<path id="Jcob" class="st0" d="M228.7,116.6c4.3,0.3,9.7,1,16.3,2.2c6.6,1.2,12.1,2.9,16.5,5.2c5.1,2.6,8.5,5.5,10.1,8.8
		c1.6,3.3,2.4,7.5,2.4,12.4V305c0,13.3-0.7,25.4-2,36.2c-1.4,10.8-3.6,19.9-6.7,27.2c-3.3,7.9-8.2,14.3-14.8,19
		c-6.6,4.8-15.1,7.1-25.4,7.1c-10.6,0-19.1-1.8-25.4-5.3c-6.3-3.5-11-7.7-13.9-12.3c1.1-3.5,3-7.5,5.7-11.9
		c2.7-4.4,5.1-8.2,7.2-11.5c2.3-3.5,4.3-7.6,6.2-12.1c1.8-4.5,2.8-9.1,2.8-13.6c0-7.8-2.6-14.1-7.8-18.8c-5.2-4.7-12-7.1-20.5-7.1
		c-9.5,0-16.7,3.7-21.7,11.2c-5,7.4-7.4,16-7.4,25.6c0,22,7.2,39.4,21.6,52.4c14.4,13,33.1,19.5,56.2,19.5c14.9,0,28.1-2.7,39.7-8.1
		c11.6-5.4,21.5-12.9,29.9-22.5c7.2-8.2,12.7-17.6,16.5-28.1c3.8-10.5,5.6-20.4,5.6-29.8V143.2c0-4.7,0.9-9,2.6-13
		c1.7-4,5-6.8,9.8-8.5c4.1-1.4,9.1-2.6,15-3.5c5.9-0.9,10.8-1.5,14.8-1.6v-15.1H228.7V116.6z"/>
</g>
</svg>
