<?xml version="1.0" encoding="utf-8"?>
<!-- Generator: Adobe Illustrator 24.2.0, SVG Export Plug-In . SVG Version: 6.00 Build 0)  -->
<svg version="1.1" id="Layer_1" xmlns="http://www.w3.org/2000/svg" xmlns:xlink="http://www.w3.org/1999/xlink" x="0px" y="0px"
	 viewBox="0 0 5120.1 767.1" style="enable-background:new 0 0 5120.1 767.1;" xml:space="preserve">
<style type="text/css">
	.st0{fill:url(#SVGID_1_);}
	.st1{display:none;fill:url(#SVGID_2_);}
	.st2{display:none;fill:#FFFFFF;}
	.st3{opacity:0.3;}
	.st4{fill:url(#SVGID_3_);}
	.st5{fill:url(#SVGID_4_);}
	.st6{fill:url(#SVGID_5_);}
	.st7{fill:url(#SVGID_6_);}
	.st8{fill:url(#SVGID_7_);}
	.st9{fill:#FFBD7C;}
	.st10{opacity:0.5;fill:#FFBD7C;enable-background:new    ;}
	.st11{opacity:0.2;fill:#00D6C6;enable-background:new    ;}
	.st12{opacity:0.5;fill:#00D6C6;enable-background:new    ;}
	.st13{fill:#00D6C6;}
	.st14{opacity:0.5;fill:#F2C6F0;enable-background:new    ;}
	.st15{fill:#F2C6F0;}
	.st16{display:none;}
	.st17{display:inline;fill:#D160CA;}
	.st18{display:inline;opacity:0.5;fill:#91D7F5;enable-background:new    ;}
	.st19{display:inline;opacity:0.5;fill:#00D6C6;enable-background:new    ;}
	.st20{display:inline;opacity:0.5;fill:#FFBD7C;enable-background:new    ;}
	.st21{display:inline;fill:#00D6C6;}
	.st22{display:inline;opacity:0.5;fill:#FFE08C;enable-background:new    ;}
	.st23{display:inline;fill:#91D7F5;}
	.st24{display:inline;}
	.st25{fill:#FFFFFF;}
	.st26{fill:#AD4936;}
	.st27{fill:#010758;}
	.st28{fill:#D160CA;}
	.st29{display:inline;fill-rule:evenodd;clip-rule:evenodd;fill:#D160CA;}
	.st30{display:inline;fill-rule:evenodd;clip-rule:evenodd;fill:#91D7F5;}
	.st31{display:inline;fill-rule:evenodd;clip-rule:evenodd;fill:#00D6C6;}
	.st32{display:inline;opacity:0.5;fill-rule:evenodd;clip-rule:evenodd;fill:#D160CA;enable-background:new    ;}
	.st33{fill-rule:evenodd;clip-rule:evenodd;fill:#010758;}
	.st34{fill-rule:evenodd;clip-rule:evenodd;fill:#00AEA0;stroke:#00AEA0;stroke-width:1.5;}
	.st35{fill-rule:evenodd;clip-rule:evenodd;fill:#FF927C;}
	.st36{fill-rule:evenodd;clip-rule:evenodd;fill:#00838C;}
	.st37{fill-rule:evenodd;clip-rule:evenodd;fill:#EF5C8A;}
	.st38{fill-rule:evenodd;clip-rule:evenodd;fill:#003F5E;}
	.st39{fill-rule:evenodd;clip-rule:evenodd;fill:url(#SVGID_8_);}
	.st40{fill-rule:evenodd;clip-rule:evenodd;fill:url(#SVGID_9_);fill-opacity:0;}
</style>
<g>
	
		<linearGradient id="SVGID_1_" gradientUnits="userSpaceOnUse" x1="3740.7749" y1="-921.9335" x2="3740.9575" y2="-921.9335" gradientTransform="matrix(5120 0 0 767.0006 -19150690 707507.0625)">
		<stop  offset="0" style="stop-color:#4F005E"/>
		<stop  offset="1" style="stop-color:#33065B"/>
	</linearGradient>
	<path class="st0" d="M512,0.1H0v767l512-0.2c0,0,365.7,11.8,800.5-161.7c263.7-105.3,593.4,42.3,800.7,27.4
		c181-13,178.5-62.1,347.8-91.7s276.6,63.4,513.4-67.4c172.6-95.3,491.7,162.5,896.7,231.4s777-387.9,841-497.9
		c42.7-73.3,178.7-142.3,408-207L512,0.1L512,0.1z"/>
	
		<linearGradient id="SVGID_2_" gradientUnits="userSpaceOnUse" x1="3740.959" y1="-921.7361" x2="3740.7739" y2="-921.7361" gradientTransform="matrix(5120 0 0 880.2572 -19150690 811153.125)">
		<stop  offset="0" style="stop-color:#210047"/>
		<stop  offset="1" style="stop-color:#020758"/>
	</linearGradient>
	<path class="st1" d="M1855-651.9h3265v880c-425-353-501-179-958-87c-304.7,61.3-593.7,90.3-867,87
		c-179.3-25.3-379.7-77.2-601-155.5s-501-71.5-839,20.5c-290.7,68.7-606,83.7-946,45c-510-58-784,90-909,90v-880H1855z"/>
	<path class="st2" d="M511-920.9V-373c0,0,365.7,9.3,800.5-127.5c263.7-83,525.7,39.3,919.5,18.6s318-99.5,623-99.5
		s570.1-70.8,975-16.5c404.9,54.3,778-236.5,778-323H511z"/>
	<g>
		<g class="st3">
			
				<linearGradient id="SVGID_3_" gradientUnits="userSpaceOnUse" x1="3733.8237" y1="-923.8689" x2="3734.8237" y2="-923.8689" gradientTransform="matrix(450.1034 0 0 339.0366 -1678204.375 313506.125)">
				<stop  offset="0" style="stop-color:#680E88"/>
				<stop  offset="1" style="stop-color:#01D4C6"/>
			</linearGradient>
			<path class="st4" d="M2412.4,124.3c-28.8,37.5,8.3,69.9,68.4,69.1s65.4,138.4,128.5,182.7c63.1,44.2,111.9,84.1,139,72
				s-92.4-60.1-57.9-86.4c34.6-26.3,52.6,9.8,72.1,0s-6-50.3,26.3-69.9c32.3-19.5,73.6-31.6,61.6-58.6s-72.9-69.9-90.2-54.1
				s11.3,51.8-30,43.6c-41.3-8.3-31.6-55.6,13.5-81.1s-89.4-46.6-128.5-12.8C2576.3,162.6,2444.7,82.3,2412.4,124.3L2412.4,124.3z"
				/>
			
				<linearGradient id="SVGID_4_" gradientUnits="userSpaceOnUse" x1="3724.6006" y1="-924.1966" x2="3725.6006" y2="-924.1966" gradientTransform="matrix(196.9601 0 0 309.7536 -730855 286871.375)">
				<stop  offset="0" style="stop-color:#680E88"/>
				<stop  offset="1" style="stop-color:#01D4C6"/>
			</linearGradient>
			<path class="st5" d="M2764.5,452.7c-21.1,22.4-8.9,29.7-20.2,54s41,48.7,42.7,68.3c1.7,19.6-26.1,104.5-19,135.9
				c7.1,31.5,25.5,50.4,39.8,38.6c14.2-11.9-13.7-58.8,36.2-87.9s98-107.4,95.6-133.5s-46.9-13.7-59.9-34.4
				C2866.6,472.9,2793,422.4,2764.5,452.7L2764.5,452.7z"/>
			
				<linearGradient id="SVGID_5_" gradientUnits="userSpaceOnUse" x1="3729.8411" y1="-924.0427" x2="3730.8408" y2="-924.0427" gradientTransform="matrix(289.4561 0 0 322.8412 -1076704.625 298807)">
				<stop  offset="0" style="stop-color:#680E88"/>
				<stop  offset="1" style="stop-color:#01D4C6"/>
			</linearGradient>
			<path class="st6" d="M2964.5,342.7c-41.3,40.5-58.1,79.8-30,114.3s88.3,3.8,99,25.5s-2,155.1,47.1,166s86.2-77.2,86.8-91.3
				c0.6-14.1-9.6-38.9,10.2-54.3c19.8-15.3,37-37.7,31.3-55.5s-32.6,14-51.1-19.2s-6.4-65.1-34.5-67.7s-73.9-0.6-89.9-21.7
				S2980.5,326.9,2964.5,342.7z"/>
			
				<linearGradient id="SVGID_6_" gradientUnits="userSpaceOnUse" x1="3737.1052" y1="-923.1324" x2="3738.1052" y2="-923.1324" gradientTransform="matrix(829.2557 0 0 430.4468 -3096053 397650.4688)">
				<stop  offset="0" style="stop-color:#680E88"/>
				<stop  offset="1" style="stop-color:#01D4C6"/>
			</linearGradient>
			<path class="st7" d="M2963.6,292.4c-6.9,21.4,26.5,29.5,54,6s41.8,22.5,69.3,28.1s65.2-3.6,65.2,17.8s10.2,88.7,36.7,89.7
				s66.3-19.4,62.2-36.7c-4.1-17.3,27.5-20.4,39.8-1c12.2,19.4,26.5,67,35.7,65.6s23.4-65.6,51-58.5s17.3,102.9,57.1,102.9
				s-2-89.5,47.9-118.7s112.1-116.8,113.1-140.2c1-23.4-8.2-35.7,25.5-41.8c33.6-6.1,19.4,45.9,42.8,41.8
				c23.4-4.1,20.4-42.8,60.1-49.9s73.4-14.3,67.3-36.7c-6.1-22.4-61.1-22.4-100.9-25.5c-39.8-3.1-205.9-19.4-216.1-48.9
				c-10.2-29.5-110.1,9.7-153.9,36.4c-43.8,26.8-133.5,44.1-169.2,21.7s-91.5-19.4-117.6,26.5S2972.8,264,2963.6,292.4z"/>
			
				<linearGradient id="SVGID_7_" gradientUnits="userSpaceOnUse" x1="3728.1816" y1="-926.6649" x2="3729.1821" y2="-926.6649" gradientTransform="matrix(251.9763 0 0 187.7136 -936613.4375 174085.75)">
				<stop  offset="0" style="stop-color:#680E88"/>
				<stop  offset="1" style="stop-color:#01D4C6"/>
			</linearGradient>
			<path class="st8" d="M2800.4,103.2c-5.3,13.5,42.2-1.7,57.3,18.7c15.1,20.4,18.1,109,62,110.1s-5.5-29.6,36.5-45.9
				s63.4-45.9,63.4-74.4s35-33.6,32.3-52S2830.9,24.4,2800.4,103.2L2800.4,103.2z"/>
		</g>
		<g transform="translate(2586 1110)">
			<path class="st9" d="M724.5-707.5l-1.4-1.4c5.7-5.7,10.7-12.1,14.9-19.1l1.7,1C735.4-719.9,730.3-713.4,724.5-707.5L724.5-707.5z
				 M749.7-749.6l-1.9-0.6c2.3-7.8,3.7-15.8,4.1-23.9l2,0.1C753.5-765.7,752.1-757.5,749.7-749.6L749.7-749.6z M752.1-798.6l-2,0.4
				c-1.6-7.9-4.1-15.7-7.6-23l1.8-0.9C747.9-814.6,750.5-806.7,752.1-798.6L752.1-798.6z M731-843l-1.6,1.3
				c-5.1-6.2-11-11.8-17.5-16.7l1.2-1.6C719.8-855.1,725.8-849.4,731-843z M691.6-872.2l-0.8,1.8c-7.5-3.1-15.3-5.2-23.4-6.4l0.3-2
				C675.9-877.5,684-875.3,691.6-872.2L691.6-872.2z M643.1-879.3l0.2,2c-8.1,0.8-16,2.6-23.6,5.3l-0.7-1.9
				C626.8-876.6,634.9-878.5,643.1-879.3z M596.8-862.6l1.1,1.7c-6.7,4.5-12.9,9.9-18.3,15.9l-1.5-1.3
				C583.7-852.6,590-858,596.8-862.6L596.8-862.6z M564-826.2l1.8,0.9c-3.8,7.2-6.7,14.8-8.7,22.6l-1.9-0.5
				C557.1-811.1,560.1-818.9,564-826.2L564-826.2z M552.2-778.5h2c0,8.1,1,16.2,3,24l-1.9,0.5C553.3-762,552.2-770.3,552.2-778.5
				L552.2-778.5z M564.3-731l1.7-0.9c3.9,7.1,8.6,13.8,14,19.8l-1.5,1.4C573-716.9,568.2-723.7,564.3-731L564.3-731z M597.3-694.7
				l1.1-1.7c6.8,4.5,14,8.1,21.7,10.8l-0.7,1.9C611.7-686.5,604.2-690.2,597.3-694.7z M643.6-678.4l0.2-2c8.1,0.8,16.2,0.5,24.2-0.7
				l0.3,2C660.2-677.9,651.9-677.6,643.6-678.4L643.6-678.4z M692.1-685.8l-0.8-1.8c7.5-3.1,14.5-7.2,21-12l1.2,1.6
				C706.9-693.1,699.7-689,692.1-685.8L692.1-685.8z"/>
			<path class="st10" d="M653.1-710.6v-2c6.7,0,13.2-1,19.4-2.9l0.6,1.9C666.6-711.6,659.9-710.6,653.1-710.6z M691.4-722.4
				l-1.1-1.7c5.5-3.7,10.3-8.2,14.5-13.3l1.6,1.3C702-730.8,697-726.2,691.4-722.4L691.4-722.4z M716.5-753.5l-1.9-0.7
				c2.4-6.1,4-12.6,4.5-19.1l2,0.2C720.6-766.5,719-759.8,716.5-753.5L716.5-753.5z M719.8-793.5l-1.9,0.4c-1.4-6.4-3.8-12.6-7-18.3
				l1.7-1C715.9-806.5,718.4-800.1,719.8-793.5z M700.1-828.4l-1.4,1.4c-4.8-4.5-10.2-8.3-16.1-11.3l0.9-1.8
				C689.6-837,695.2-833.1,700.1-828.4L700.1-828.4z M664.3-846.3l-0.3,2c-6.5-1.1-13.1-1.2-19.7-0.3l-0.3-2
				C650.8-847.5,657.6-847.4,664.3-846.3z M624.6-840.9l0.8,1.8c-6,2.8-11.5,6.4-16.4,10.8l-1.3-1.5
				C612.7-834.3,618.4-838.1,624.6-840.9L624.6-840.9z M594.7-814.3l1.7,1c-3.4,5.6-6,11.7-7.6,18.1l-1.9-0.5
				C588.6-802.2,591.2-808.5,594.7-814.3z M584.9-775.4l2-0.1c0.3,6.6,1.6,13.1,3.9,19.3l-1.9,0.7
				C586.6-761.9,585.3-768.6,584.9-775.4L584.9-775.4z M598.6-737.8l1.6-1.2c4,5.2,8.7,9.9,14,13.8l-1.2,1.6
				C607.6-727.6,602.7-732.3,598.6-737.8z M631-714.3l0.7-1.9c6.2,2.1,12.7,3.3,19.3,3.5l-0.1,2C644.2-710.9,637.5-712.1,631-714.3
				L631-714.3z M653.1-739.5c-21.7,0-39.4-17.6-39.4-39.4s17.6-39.4,39.4-39.4c21.8,0,39.4,17.6,39.4,39.4S674.9-739.5,653.1-739.5z
				 M653.1-741.5c20.6,0,37.4-16.7,37.4-37.4s-16.7-37.4-37.4-37.4l0,0c-20.6,0-37.4,16.7-37.4,37.4
				C615.7-758.3,632.5-741.5,653.1-741.5z M653.1-758.5c-11.3,0-20.4-9.1-20.4-20.4s9.1-20.4,20.4-20.4l0,0
				c11.3,0,20.4,9.1,20.4,20.4S664.4-758.5,653.1-758.5z M653.1-760.5c10.2,0,18.4-8.2,18.4-18.4s-8.2-18.4-18.4-18.4l0,0
				c-10.2,0-18.4,8.3-18.4,18.4C634.7-768.7,642.9-760.5,653.1-760.5z"/>
			<circle class="st9" cx="653.1" cy="-778.9" r="10.8"/>
		</g>
		<g transform="translate(2427 955)">
			<path class="st11" d="M723.7-707.8l-1.4-1.4c5.7-5.7,10.7-12.1,14.9-19.1l1.7,1C734.7-720.1,729.6-713.6,723.7-707.8z M749-749.8
				l-1.9-0.6c2.3-7.8,3.7-15.8,4.1-23.9l2,0.1C752.8-765.9,751.4-757.7,749-749.8z M751.3-798.8l-2,0.4c-1.6-8-4.1-15.7-7.6-23
				l1.8-0.8C747.1-814.8,749.7-807,751.3-798.8L751.3-798.8z M730.3-843.3l-1.6,1.3c-5.1-6.2-11-11.8-17.5-16.7l1.2-1.6
				C719-855.3,725-849.6,730.3-843.3z M690.9-872.4l-0.8,1.8c-7.5-3.1-15.3-5.2-23.4-6.4l0.3-2C675.2-877.8,683.2-875.6,690.9-872.4
				L690.9-872.4z M642.3-879.5l0.2,2c-8.1,0.8-16,2.6-23.6,5.3l-0.7-1.9C626-876.9,634.1-878.7,642.3-879.5z M596.1-862.9l1.1,1.7
				c-6.7,4.5-12.9,9.9-18.3,15.9l-1.5-1.3C583-852.8,589.2-858.3,596.1-862.9z M563.2-826.5l1.8,0.9c-3.8,7.2-6.7,14.8-8.7,22.6
				l-2-0.5C556.4-811.4,559.3-819.2,563.2-826.5z M551.5-778.8h2c0,8.1,1,16.2,3,24l-1.9,0.5C552.5-762.3,551.5-770.5,551.5-778.8
				L551.5-778.8z M563.5-731.2l1.8-0.9c3.9,7.1,8.6,13.8,14,19.7l-1.5,1.4C572.3-717.2,567.4-723.9,563.5-731.2L563.5-731.2z
				 M596.6-695l1.1-1.7c6.8,4.5,14,8.1,21.7,10.8l-0.7,1.9C610.9-686.7,603.5-690.4,596.6-695L596.6-695z M642.9-678.6l0.2-2
				c8.1,0.8,16.2,0.5,24.2-0.7l0.3,2C659.4-678.1,651.1-677.9,642.9-678.6z M691.4-686l-0.8-1.8c7.5-3.1,14.5-7.2,21-12.1l1.2,1.6
				C706.2-693.3,699-689.2,691.4-686L691.4-686z"/>
			<path class="st12" d="M652.4-710.9v-2c6.7,0,13.2-1,19.4-2.9l0.6,1.9C665.9-711.9,659.1-710.9,652.4-710.9z M690.6-722.6
				l-1.1-1.7c5.5-3.7,10.3-8.2,14.5-13.3l1.6,1.3C701.3-731,696.2-726.4,690.6-722.6L690.6-722.6z M715.8-753.8l-1.9-0.7
				c2.4-6.1,4-12.6,4.5-19.1l2,0.2C719.8-766.7,718.3-760.1,715.8-753.8L715.8-753.8z M719.1-793.8l-1.9,0.4
				c-1.4-6.4-3.8-12.6-7-18.3l1.7-1C715.2-806.8,717.6-800.4,719.1-793.8z M699.4-828.6l-1.4,1.4c-4.8-4.5-10.2-8.3-16.1-11.3
				l0.9-1.8C688.9-837.2,694.4-833.3,699.4-828.6L699.4-828.6z M663.6-846.5l-0.3,2c-6.5-1.1-13.1-1.2-19.7-0.3l-0.3-2
				C650-847.7,656.8-847.6,663.6-846.5z M623.8-841.2l0.8,1.8c-6,2.8-11.5,6.4-16.4,10.8l-1.3-1.5
				C611.9-834.6,617.6-838.3,623.8-841.2L623.8-841.2z M594-814.5l1.7,1c-3.4,5.6-6,11.7-7.6,18.1l-1.9-0.5
				C587.8-802.4,590.4-808.7,594-814.5z M584.2-775.6l2-0.1c0.3,6.6,1.6,13.1,3.9,19.3l-1.9,0.7
				C585.9-762.2,584.5-768.8,584.2-775.6L584.2-775.6z M597.9-738l1.6-1.2c4,5.2,8.7,9.9,14,13.8l-1.2,1.6
				C606.8-727.8,602-732.6,597.9-738z M630.3-714.5l0.7-1.9c6.2,2.1,12.7,3.3,19.3,3.5l-0.1,2C643.4-711.1,636.7-712.3,630.3-714.5
				L630.3-714.5z M652.4-739.8c-21.7,0-39.4-17.6-39.4-39.4s17.6-39.4,39.4-39.4c21.8,0,39.4,17.6,39.4,39.4
				S674.1-739.8,652.4-739.8z M652.4-741.8c20.6,0,37.4-16.7,37.4-37.4s-16.7-37.4-37.4-37.4l0,0c-20.6,0-37.4,16.7-37.4,37.4
				S631.7-741.8,652.4-741.8z M652.4-758.7c-11.3,0-20.4-9.1-20.4-20.4s9.1-20.4,20.4-20.4l0,0c11.3,0,20.4,9.1,20.4,20.4
				C672.8-767.9,663.6-758.7,652.4-758.7z M652.4-760.7c10.2,0,18.4-8.2,18.4-18.4s-8.2-18.4-18.4-18.4l0,0
				c-10.2,0-18.4,8.3-18.4,18.4C633.9-769,642.2-760.7,652.4-760.7z"/>
			<circle class="st13" cx="652.4" cy="-779.1" r="10.8"/>
		</g>
		<g transform="translate(2216 1338)">
			<path class="st11" d="M723.7-707.8l-1.4-1.4c5.7-5.7,10.7-12.1,14.9-19.1l1.7,1C734.7-720.1,729.6-713.6,723.7-707.8z M749-749.8
				l-1.9-0.6c2.3-7.8,3.7-15.8,4.1-23.9l2,0.1C752.8-765.9,751.4-757.7,749-749.8z M751.3-798.8l-2,0.4c-1.6-8-4.1-15.7-7.6-23
				l1.8-0.8C747.1-814.8,749.7-807,751.3-798.8L751.3-798.8z M730.3-843.3l-1.6,1.3c-5.1-6.2-11-11.8-17.5-16.7l1.2-1.6
				C719-855.3,725-849.6,730.3-843.3z M690.9-872.4l-0.8,1.8c-7.5-3.1-15.3-5.2-23.4-6.4l0.3-2C675.2-877.8,683.2-875.6,690.9-872.4
				L690.9-872.4z M642.3-879.5l0.2,2c-8.1,0.8-16,2.6-23.6,5.3l-0.7-1.9C626-876.9,634.1-878.7,642.3-879.5z M596.1-862.9l1.1,1.7
				c-6.7,4.5-12.9,9.9-18.3,15.9l-1.5-1.3C583-852.8,589.2-858.3,596.1-862.9z M563.2-826.5l1.8,0.9c-3.8,7.2-6.7,14.8-8.7,22.6
				l-2-0.5C556.4-811.4,559.3-819.2,563.2-826.5z M551.5-778.8h2c0,8.1,1,16.2,3,24l-1.9,0.5C552.5-762.3,551.5-770.5,551.5-778.8
				L551.5-778.8z M563.5-731.2l1.8-0.9c3.9,7.1,8.6,13.8,14,19.7l-1.5,1.4C572.3-717.2,567.4-723.9,563.5-731.2L563.5-731.2z
				 M596.6-695l1.1-1.7c6.8,4.5,14,8.1,21.7,10.8l-0.7,1.9C610.9-686.7,603.5-690.4,596.6-695L596.6-695z M642.9-678.6l0.2-2
				c8.1,0.8,16.2,0.5,24.2-0.7l0.3,2C659.4-678.1,651.1-677.9,642.9-678.6z M691.4-686l-0.8-1.8c7.5-3.1,14.5-7.2,21-12.1l1.2,1.6
				C706.2-693.3,699-689.2,691.4-686L691.4-686z"/>
			<path class="st12" d="M652.4-710.9v-2c6.7,0,13.2-1,19.4-2.9l0.6,1.9C665.9-711.9,659.1-710.9,652.4-710.9z M690.6-722.6
				l-1.1-1.7c5.5-3.7,10.3-8.2,14.5-13.3l1.6,1.3C701.3-731,696.2-726.4,690.6-722.6L690.6-722.6z M715.8-753.8l-1.9-0.7
				c2.4-6.1,4-12.6,4.5-19.1l2,0.2C719.8-766.7,718.3-760.1,715.8-753.8L715.8-753.8z M719.1-793.8l-1.9,0.4
				c-1.4-6.4-3.8-12.6-7-18.3l1.7-1C715.2-806.8,717.6-800.4,719.1-793.8z M699.4-828.6l-1.4,1.4c-4.8-4.5-10.2-8.3-16.1-11.3
				l0.9-1.8C688.9-837.2,694.4-833.3,699.4-828.6L699.4-828.6z M663.6-846.5l-0.3,2c-6.5-1.1-13.1-1.2-19.7-0.3l-0.3-2
				C650-847.7,656.8-847.6,663.6-846.5z M623.8-841.2l0.8,1.8c-6,2.8-11.5,6.4-16.4,10.8l-1.3-1.5
				C611.9-834.6,617.6-838.3,623.8-841.2L623.8-841.2z M594-814.5l1.7,1c-3.4,5.6-6,11.7-7.6,18.1l-1.9-0.5
				C587.8-802.4,590.4-808.7,594-814.5z M584.2-775.6l2-0.1c0.3,6.6,1.6,13.1,3.9,19.3l-1.9,0.7
				C585.9-762.2,584.5-768.8,584.2-775.6L584.2-775.6z M597.9-738l1.6-1.2c4,5.2,8.7,9.9,14,13.8l-1.2,1.6
				C606.8-727.8,602-732.6,597.9-738z M630.3-714.5l0.7-1.9c6.2,2.1,12.7,3.3,19.3,3.5l-0.1,2C643.4-711.1,636.7-712.3,630.3-714.5
				L630.3-714.5z M652.4-739.8c-21.7,0-39.4-17.6-39.4-39.4s17.6-39.4,39.4-39.4c21.8,0,39.4,17.6,39.4,39.4
				S674.1-739.8,652.4-739.8z M652.4-741.8c20.6,0,37.4-16.7,37.4-37.4s-16.7-37.4-37.4-37.4l0,0c-20.6,0-37.4,16.7-37.4,37.4
				S631.7-741.8,652.4-741.8z M652.4-758.7c-11.3,0-20.4-9.1-20.4-20.4s9.1-20.4,20.4-20.4l0,0c11.3,0,20.4,9.1,20.4,20.4
				C672.8-767.9,663.6-758.7,652.4-758.7z M652.4-760.7c10.2,0,18.4-8.2,18.4-18.4s-8.2-18.4-18.4-18.4l0,0
				c-10.2,0-18.4,8.3-18.4,18.4C633.9-769,642.2-760.7,652.4-760.7z"/>
			<circle class="st13" cx="652.4" cy="-779.1" r="10.8"/>
		</g>
		<g transform="translate(1876 990)">
			<path class="st11" d="M723.7-707.8l-1.4-1.4c5.7-5.7,10.7-12.1,14.9-19.1l1.7,1C734.7-720.1,729.6-713.6,723.7-707.8z M749-749.8
				l-1.9-0.6c2.3-7.8,3.7-15.8,4.1-23.9l2,0.1C752.8-765.9,751.4-757.7,749-749.8z M751.3-798.8l-2,0.4c-1.6-8-4.1-15.7-7.6-23
				l1.8-0.8C747.1-814.8,749.7-807,751.3-798.8L751.3-798.8z M730.3-843.3l-1.6,1.3c-5.1-6.2-11-11.8-17.5-16.7l1.2-1.6
				C719-855.3,725-849.6,730.3-843.3z M690.9-872.4l-0.8,1.8c-7.5-3.1-15.3-5.2-23.4-6.4l0.3-2C675.2-877.8,683.2-875.6,690.9-872.4
				L690.9-872.4z M642.3-879.5l0.2,2c-8.1,0.8-16,2.6-23.6,5.3l-0.7-1.9C626-876.9,634.1-878.7,642.3-879.5z M596.1-862.9l1.1,1.7
				c-6.7,4.5-12.9,9.9-18.3,15.9l-1.5-1.3C583-852.8,589.2-858.3,596.1-862.9z M563.2-826.5l1.8,0.9c-3.8,7.2-6.7,14.8-8.7,22.6
				l-2-0.5C556.4-811.4,559.3-819.2,563.2-826.5z M551.5-778.8h2c0,8.1,1,16.2,3,24l-1.9,0.5C552.5-762.3,551.5-770.5,551.5-778.8
				L551.5-778.8z M563.5-731.2l1.8-0.9c3.9,7.1,8.6,13.8,14,19.7l-1.5,1.4C572.3-717.2,567.4-723.9,563.5-731.2L563.5-731.2z
				 M596.6-695l1.1-1.7c6.8,4.5,14,8.1,21.7,10.8l-0.7,1.9C610.9-686.7,603.5-690.4,596.6-695L596.6-695z M642.9-678.6l0.2-2
				c8.1,0.8,16.2,0.5,24.2-0.7l0.3,2C659.4-678.1,651.1-677.9,642.9-678.6z M691.4-686l-0.8-1.8c7.5-3.1,14.5-7.2,21-12.1l1.2,1.6
				C706.2-693.3,699-689.2,691.4-686L691.4-686z"/>
			<path class="st12" d="M652.4-710.9v-2c6.7,0,13.2-1,19.4-2.9l0.6,1.9C665.9-711.9,659.1-710.9,652.4-710.9z M690.6-722.6
				l-1.1-1.7c5.5-3.7,10.3-8.2,14.5-13.3l1.6,1.3C701.3-731,696.2-726.4,690.6-722.6L690.6-722.6z M715.8-753.8l-1.9-0.7
				c2.4-6.1,4-12.6,4.5-19.1l2,0.2C719.8-766.7,718.3-760.1,715.8-753.8L715.8-753.8z M719.1-793.8l-1.9,0.4
				c-1.4-6.4-3.8-12.6-7-18.3l1.7-1C715.2-806.8,717.6-800.4,719.1-793.8z M699.4-828.6l-1.4,1.4c-4.8-4.5-10.2-8.3-16.1-11.3
				l0.9-1.8C688.9-837.2,694.4-833.3,699.4-828.6L699.4-828.6z M663.6-846.5l-0.3,2c-6.5-1.1-13.1-1.2-19.7-0.3l-0.3-2
				C650-847.7,656.8-847.6,663.6-846.5z M623.8-841.2l0.8,1.8c-6,2.8-11.5,6.4-16.4,10.8l-1.3-1.5
				C611.9-834.6,617.6-838.3,623.8-841.2L623.8-841.2z M594-814.5l1.7,1c-3.4,5.6-6,11.7-7.6,18.1l-1.9-0.5
				C587.8-802.4,590.4-808.7,594-814.5z M584.2-775.6l2-0.1c0.3,6.6,1.6,13.1,3.9,19.3l-1.9,0.7
				C585.9-762.2,584.5-768.8,584.2-775.6L584.2-775.6z M597.9-738l1.6-1.2c4,5.2,8.7,9.9,14,13.8l-1.2,1.6
				C606.8-727.8,602-732.6,597.9-738z M630.3-714.5l0.7-1.9c6.2,2.1,12.7,3.3,19.3,3.5l-0.1,2C643.4-711.1,636.7-712.3,630.3-714.5
				L630.3-714.5z M652.4-739.8c-21.7,0-39.4-17.6-39.4-39.4s17.6-39.4,39.4-39.4c21.8,0,39.4,17.6,39.4,39.4
				S674.1-739.8,652.4-739.8z M652.4-741.8c20.6,0,37.4-16.7,37.4-37.4s-16.7-37.4-37.4-37.4l0,0c-20.6,0-37.4,16.7-37.4,37.4
				S631.7-741.8,652.4-741.8z M652.4-758.7c-11.3,0-20.4-9.1-20.4-20.4s9.1-20.4,20.4-20.4l0,0c11.3,0,20.4,9.1,20.4,20.4
				C672.8-767.9,663.6-758.7,652.4-758.7z M652.4-760.7c10.2,0,18.4-8.2,18.4-18.4s-8.2-18.4-18.4-18.4l0,0
				c-10.2,0-18.4,8.3-18.4,18.4C633.9-769,642.2-760.7,652.4-760.7z"/>
			<circle class="st13" cx="652.4" cy="-779.1" r="10.8"/>
		</g>
		<g transform="translate(2512 1186)">
			<path class="st14" d="M550.7-841.5c-21.8,0-39.4-17.7-39.4-39.4s17.6-39.4,39.4-39.4s39.4,17.7,39.4,39.4
				S572.4-841.5,550.7-841.5z M550.7-843.5c20.6,0,37.4-16.7,37.4-37.4c0-20.6-16.7-37.4-37.4-37.4l0,0c-20.7,0-37.4,16.8-37.4,37.4
				S530-843.5,550.7-843.5z M550.7-860.5c-11.3,0-20.4-9.1-20.4-20.4s9.1-20.4,20.4-20.4l0,0c11.3,0,20.4,9.1,20.4,20.4
				S562-860.5,550.7-860.5z M550.7-862.5c10.2,0,18.4-8.2,18.4-18.4s-8.2-18.4-18.4-18.4l0,0c-10.2,0-18.4,8.3-18.4,18.4
				C532.2-870.7,540.5-862.5,550.7-862.5z"/>
			<circle class="st15" cx="550.7" cy="-880.9" r="10.8"/>
		</g>
		<g transform="translate(2256 1142)">
			<path class="st10" d="M551-841.2c-21.8,0-39.4-17.7-39.4-39.4S529.2-920,551-920s39.4,17.6,39.4,39.4S572.7-841.2,551-841.2z
				 M551-843.2c20.6,0,37.4-16.7,37.4-37.4S571.6-918,551-918l0,0c-20.7,0-37.4,16.7-37.4,37.4C513.6-860,530.3-843.3,551-843.2z
				 M551-860.2c-11.3,0-20.4-9.1-20.4-20.4s9.1-20.5,20.4-20.5l0,0c11.3,0,20.4,9.1,20.4,20.4C571.4-869.3,562.2-860.2,551-860.2z
				 M551-862.2c10.2,0,18.4-8.2,18.4-18.4s-8.3-18.5-18.4-18.5l0,0c-10.2,0-18.4,8.3-18.4,18.4C532.5-870.5,540.8-862.2,551-862.2z"
				/>
			<circle class="st9" cx="551" cy="-880.6" r="10.8"/>
		</g>
		<g transform="translate(2501 1478)">
			<path class="st14" d="M550.9-841.6c-21.7,0-39.4-17.6-39.4-39.4c0-21.8,17.7-39.4,39.4-39.4c21.7,0,39.4,17.6,39.4,39.4
				C590.3-859.2,572.6-841.6,550.9-841.6z M550.9-843.6c20.6,0,37.4-16.7,37.4-37.4c0-20.6-16.7-37.4-37.4-37.4l0,0
				c-20.6,0-37.4,16.7-37.4,37.4C513.5-860.4,530.3-843.6,550.9-843.6z M550.9-860.6c-11.3,0-20.4-9.1-20.4-20.4
				c0-11.3,9.1-20.4,20.4-20.4l0,0c11.3,0,20.4,9.1,20.4,20.4C571.3-869.7,562.2-860.6,550.9-860.6z M550.9-862.6
				c10.2,0,18.4-8.2,18.4-18.4c0-10.2-8.2-18.4-18.4-18.4l0,0c-10.2,0-18.4,8.3-18.4,18.4C532.5-870.8,540.7-862.6,550.9-862.6z"/>
			<circle class="st15" cx="550.9" cy="-881" r="10.8"/>
		</g>
		<g transform="translate(2568 1387)">
			<path class="st12" d="M550.6-841.2c-21.7,0-39.4-17.7-39.4-39.4s17.7-39.4,39.4-39.4c21.7,0,39.4,17.7,39.4,39.4
				S572.4-841.2,550.6-841.2z M550.6-843.2c20.7,0,37.4-16.7,37.4-37.4c0-20.6-16.7-37.4-37.4-37.4l0,0c-20.6,0-37.4,16.8-37.4,37.4
				C513.2-860,530-843.2,550.6-843.2z M550.6-860.2c-11.3,0-20.4-9.1-20.4-20.4s9.1-20.4,20.4-20.4l0,0c11.3,0,20.4,9.1,20.4,20.4
				S561.9-860.2,550.6-860.2z M550.6-862.2c10.2,0,18.4-8.2,18.4-18.4s-8.2-18.4-18.4-18.4l0,0c-10.2,0-18.4,8.3-18.4,18.4
				C532.2-870.4,540.4-862.2,550.6-862.2z"/>
			<circle class="st13" cx="550.6" cy="-880.6" r="10.8"/>
		</g>
		<g transform="translate(2192 1225)">
			<path class="st14" d="M550.7-842.1c-21.7,0-39.4-17.7-39.4-39.4c0-21.7,17.7-39.4,39.4-39.4s39.4,17.6,39.4,39.4
				C590.1-859.7,572.5-842.1,550.7-842.1z M550.7-844.1c20.6,0,37.4-16.7,37.4-37.4c0-20.7-16.7-37.4-37.4-37.4l0,0
				c-20.6,0-37.4,16.7-37.4,37.4C513.3-860.9,530.1-844.1,550.7-844.1z M550.7-861.1c-11.3,0-20.4-9.1-20.4-20.4
				c0-11.3,9.1-20.4,20.4-20.4l0,0c11.3,0,20.4,9.1,20.4,20.4C571.1-870.2,562-861.1,550.7-861.1z M550.7-863.1
				c10.2,0,18.4-8.2,18.4-18.4c0-10.2-8.2-18.4-18.4-18.4l0,0c-10.2,0-18.4,8.3-18.4,18.4C532.3-871.3,540.5-863.1,550.7-863.1z"/>
			<circle class="st15" cx="550.7" cy="-881.5" r="10.8"/>
		</g>
		<g transform="translate(2057 1244)">
			<path class="st10" d="M551-841.7c-21.7,0-39.4-17.6-39.4-39.4s17.7-39.4,39.4-39.4s39.4,17.6,39.4,39.4S572.8-841.7,551-841.7z
				 M551-843.7c20.6,0,37.4-16.7,37.4-37.4s-16.7-37.4-37.4-37.4l0,0c-20.6,0-37.4,16.8-37.4,37.4
				C513.6-860.5,530.4-843.7,551-843.7z M551-860.7c-11.3,0-20.4-9.1-20.4-20.4s9.1-20.4,20.4-20.4l0,0c11.3,0,20.4,9.1,20.4,20.4
				S562.3-860.7,551-860.7z M551-862.7c10.2,0,18.4-8.2,18.4-18.4s-8.2-18.4-18.4-18.4l0,0c-10.2,0-18.4,8.3-18.4,18.4
				C532.6-870.9,540.8-862.7,551-862.7z"/>
			<circle class="st9" cx="551" cy="-881.1" r="10.8"/>
		</g>
		<g transform="translate(2429 1141)">
			<path class="st12" d="M550.4-841.7c-21.7,0-39.4-17.6-39.4-39.4s17.7-39.4,39.4-39.4c21.7,0,39.4,17.6,39.4,39.4
				S572.2-841.7,550.4-841.7z M550.4-843.7c20.6,0,37.4-16.7,37.4-37.4s-16.7-37.4-37.3-37.4l0,0c-20.7,0-37.4,16.7-37.4,37.4
				C513.1-860.5,529.8-843.8,550.4-843.7z M550.4-860.7c-11.2,0-20.4-9.1-20.4-20.4s9.1-20.4,20.4-20.4l0,0
				c11.3,0,20.4,9.1,20.4,20.4C570.9-869.8,561.7-860.7,550.4-860.7z M550.4-862.7c10.2,0,18.4-8.2,18.4-18.4s-8.2-18.4-18.4-18.4
				l0,0c-10.1-0.1-18.4,8.2-18.4,18.4C532-871,540.3-862.7,550.4-862.7z"/>
			<circle class="st13" cx="550.4" cy="-881.1" r="10.8"/>
		</g>
	</g>
	<g class="st16">
		<path class="st17" d="M2693.9-425.7h9.4v1.5h-9.4v9.4h-1.5v-9.4h-9.4v-1.5h9.4v-9.4h1.5V-425.7z M2945.8-363.2h11.8v1.5h-11.8
			v11.8h-1.5v-11.8h-11.8v-1.5h11.8V-375h1.5V-363.2z M2541-144h14.6v2H2541v14.6h-2V-142h-14.6v-2h14.6v-14.6h2V-144z"/>
		<path class="st18" d="M3044.7-430.5v2c-1.7,0-3.6-0.6-6-1.9c-1.1-0.6-2.3-1.2-3.4-1.8l-3.6-2c-6.7-3.7-11.3-5.5-16-5.5
			s-9.4,1.7-16,5.5l-3.6,2c-1.4,0.8-2.4,1.3-3.4,1.8c-2.5,1.2-4.4,1.9-6,1.9s-3.5-0.6-6-1.9c-1.1-0.6-2.3-1.2-3.4-1.8l-3.6-2
			c-6.7-3.7-11.3-5.5-16-5.5s-9.4,1.7-16,5.5l-3.6,2c-1.4,0.8-2.4,1.3-3.4,1.8c-2.5,1.2-4.4,1.9-6,1.9s-3.5-0.6-6-1.9
			c-1.1-0.6-2.3-1.2-3.4-1.8l-3.6-2c-6.7-3.7-11.3-5.5-16-5.5c-4.8,0-9.4,1.7-16,5.5l-3.6,2c-1.4,0.8-2.4,1.3-3.4,1.8
			c-2.5,1.2-4.4,1.9-6,1.9v-2c2.3,0,2.1,0.1,12-5.5c6.9-3.9,11.8-5.7,17-5.7s10.1,1.8,17,5.7c9.9,5.5,9.8,5.5,12,5.5s2.1,0.1,12-5.5
			c6.9-3.9,11.8-5.7,17-5.7s10.1,1.8,17,5.7c9.9,5.5,9.8,5.5,12,5.5s2.1,0.1,12-5.5c6.9-3.9,11.8-5.7,17-5.7s10.1,1.8,17,5.7
			C3042.5-430.4,3042.4-430.5,3044.7-430.5L3044.7-430.5z"/>
		<path class="st19" d="M2821.4-266.9v2c-1.8,0-3.9-0.7-6.7-2.1c-1.3-0.6-2.5-1.3-3.8-2c-0.2-0.1-3.1-1.8-4-2.3
			c-7.5-4.2-12.6-6.1-18-6.1s-10.5,2-18,6.1c-0.9,0.5-3.9,2.2-4,2.3c-1.5,0.9-2.7,1.5-3.8,2c-2.8,1.4-4.9,2.1-6.7,2.1
			s-3.9-0.7-6.7-2.1c-1.3-0.6-2.5-1.3-3.8-2c-0.2-0.1-3.1-1.8-4-2.3c-7.5-4.2-12.6-6.1-18-6.1s-10.5,2-18,6.1
			c-0.9,0.5-3.9,2.2-4,2.3c-1.2,0.7-2.5,1.4-3.8,2c-2.8,1.4-4.9,2.1-6.7,2.1s-3.9-0.7-6.7-2.1c-1.3-0.6-2.5-1.3-3.8-2
			c-0.2-0.1-3.1-1.8-4-2.3c-7.5-4.2-12.6-6.1-18-6.1s-10.5,2-18,6.1c-0.9,0.5-3.9,2.2-4,2.3c-1.6,0.9-2.7,1.5-3.8,2
			c-2.8,1.4-4.9,2.1-6.7,2.1s-3.9-0.7-6.7-2.1c-1.3-0.6-2.5-1.3-3.8-2c-0.2-0.1-3.1-1.8-4-2.3c-7.5-4.2-12.6-6.1-18-6.1
			s-10.5,2-18,6.1c-0.9,0.5-3.9,2.2-4,2.3c-1.6,0.9-2.7,1.5-3.8,2c-2.8,1.4-4.8,2.1-6.7,2.1v-2c1.4,0,3.3-0.6,5.8-1.8
			c1.2-0.6,2.5-1.3,3.7-2c0.2-0.1,3.1-1.8,4-2.3c7.7-4.3,13.2-6.4,19-6.4s11.2,2,19,6.4c0.9,0.5,3.9,2.2,4,2.3
			c1.2,0.7,2.4,1.4,3.7,2c2.5,1.2,4.3,1.8,5.8,1.8s3.3-0.6,5.8-1.8c1.2-0.6,2.5-1.3,3.7-2c0.2-0.1,3.1-1.8,4-2.3
			c7.7-4.3,13.2-6.4,19-6.4s11.2,2,19,6.4c0.9,0.5,3.9,2.2,4,2.3c1.2,0.7,2.4,1.4,3.7,2c2.5,1.2,4.3,1.8,5.8,1.8s3.3-0.6,5.8-1.8
			c1.2-0.6,2.5-1.3,3.7-2c0.2-0.1,3.1-1.8,4.1-2.3c7.7-4.3,13.1-6.4,18.9-6.4s11.2,2,19,6.4c0.9,0.5,3.9,2.2,4,2.3
			c1.5,0.9,2.6,1.5,3.7,2c2.5,1.2,4.3,1.8,5.8,1.8s3.3-0.6,5.8-1.8c1.2-0.6,2.5-1.3,3.7-2c0.2-0.1,3.1-1.8,4-2.3
			c7.8-4.3,13.2-6.4,19-6.4s11.2,2,18.9,6.4c0.9,0.5,3.9,2.2,4.1,2.3c1.5,0.9,2.6,1.5,3.7,2C2818.1-267.5,2819.9-266.9,2821.4-266.9
			z"/>
		<path class="st20" d="M2917.3-5.5v2c-1.8,0-3.9-0.7-6.7-2.1c-1.3-0.6-2.5-1.3-3.8-2c-0.2-0.1-3.1-1.8-4-2.3
			c-7.5-4.2-12.6-6.1-18-6.1s-10.5,2-18,6.1c-0.9,0.5-3.9,2.2-4,2.3c-1.6,0.9-2.7,1.5-3.8,2c-2.8,1.4-4.8,2.1-6.7,2.1
			s-3.9-0.7-6.7-2.1c-1.3-0.6-2.5-1.3-3.8-2c-0.2-0.1-3.1-1.8-4-2.3c-7.5-4.2-12.6-6.1-18-6.1s-10.5,2-18,6.1
			c-0.9,0.5-3.9,2.2-4,2.3c-1.5,0.9-2.7,1.5-3.8,2c-2.8,1.4-4.9,2.1-6.7,2.1s-3.9-0.7-6.7-2.1c-1.3-0.6-2.5-1.3-3.8-2
			c-0.2-0.1-3.1-1.8-4-2.3c-7.5-4.2-12.6-6.1-18-6.1s-10.5,2-18,6.1c-0.9,0.5-3.9,2.2-4,2.3c-1.6,0.9-2.7,1.5-3.8,2
			c-2.8,1.4-4.9,2.1-6.7,2.1s-3.9-0.7-6.7-2.1c-1.3-0.6-2.5-1.3-3.8-2c-0.2-0.1-3.1-1.8-4-2.3c-7.5-4.2-12.6-6.1-18-6.1
			s-10.5,2-18,6.1c-0.9,0.5-3.9,2.2-4,2.3c-1.6,0.9-2.7,1.5-3.8,2c-2.8,1.4-4.9,2.1-6.7,2.1v-2c1.4,0,3.3-0.6,5.8-1.8
			c1.2-0.6,2.5-1.3,3.7-2c0.2-0.1,3.1-1.8,4.1-2.3c7.7-4.3,13.1-6.4,18.9-6.4s11.2,2,18.9,6.4c0.9,0.5,3.9,2.2,4.1,2.3
			c1.2,0.7,2.4,1.4,3.7,2c2.5,1.2,4.3,1.8,5.8,1.8s3.3-0.6,5.8-1.8c1.2-0.6,2.5-1.3,3.7-2c0.2-0.1,3.1-1.8,4.1-2.3
			c7.7-4.3,13.1-6.4,18.9-6.4s11.2,2,19,6.4c0.9,0.5,3.9,2.2,4,2.3c1.5,0.9,2.6,1.5,3.7,2c2.5,1.2,4.3,1.8,5.8,1.8s3.3-0.6,5.8-1.8
			c1.2-0.6,2.5-1.3,3.7-2c0.2-0.1,3.1-1.8,4-2.3c7.7-4.3,13.2-6.4,19-6.4s11.2,2,19,6.4c0.9,0.5,3.9,2.2,4,2.3
			c1.5,0.9,2.6,1.5,3.7,2c2.5,1.2,4.3,1.8,5.8,1.8s3.3-0.6,5.8-1.8c1.2-0.6,2.5-1.3,3.7-2c0.2-0.1,3.1-1.8,4-2.3
			c7.7-4.3,13.2-6.4,19-6.4s11.2,2,19,6.4c0.9,0.5,3.9,2.2,4.1,2.3c1.5,0.9,2.6,1.5,3.7,2C2914.1-6.1,2915.9-5.5,2917.3-5.5z"/>
		<path class="st21" d="M2482.4,1.5c-0.4,4.2-4.2,7.3-8.4,6.9c-4.2-0.4-7.3-4.2-6.9-8.4c0.4-4.2,4.2-7.3,8.4-6.9
			c3.6,0.4,6.5,3.2,6.9,6.9h6.7v1.5H2482.4z M2925.9,79.3v1.5h-20v-1.5H2925.9z M2885.9,79.3v1.5h-20v-1.5H2885.9z M2845.9,79.3v1.5
			h-20v-1.5H2845.9z M2805.9,79.3v1.5h-20v-1.5H2805.9z M2765.9,79.3v1.5h-20v-1.5H2765.9z M2725.9,79.3v1.5h-20v-1.5H2725.9z
			 M2685.9,79.3v1.5h-20v-1.5H2685.9z M2645.9,79.3v1.5h-8c-4.2,0-8.3-1.4-11.7-3.9l0.9-1.2c3.1,2.4,6.9,3.6,10.8,3.6L2645.9,79.3
			L2645.9,79.3z M2616.6,59.2l-1.3,0.7l-9.3-17.7l1.3-0.7L2616.6,59.2z M2598,23.8l-1.3,0.7l-7.1-13.5c-0.7-1.3-1.6-2.6-2.6-3.7
			l1.1-1c1.1,1.2,2,2.5,2.8,4L2598,23.8z M2569.2,0v1.5h-20V0H2569.2z M2529.2,0v1.5h-20V0H2529.2z"/>
		<path class="st17" d="M3090.5,9.2v2h-80.1c-6,0-11.4-3.3-14.2-8.5l-83.5-161.1c-2.4-4.6-7.2-7.5-12.4-7.5h-80.1v-2h80.1
			c5.9,0,11.4,3.3,14.2,8.5L2998,1.7c2.4,4.6,7.2,7.5,12.4,7.5H3090.5z M2698-165.9v-2h135.3c5.2,0,10-2.9,12.4-7.5l39.5-76
			c2.8-5.3,8.3-8.5,14.2-8.5h90.1v2h-90.1c-5.2,0-10,2.9-12.4,7.5l-39.5,76c-2.8,5.3-8.3,8.5-14.2,8.5H2698z"/>
		<path class="st21" d="M2976-162.9v-1.5h20v1.5H2976z M3016-162.9v-1.5h20v1.5H3016z M3056-162.9v-1.5h20v1.5H3056z M3095.8-166.2
			l-0.9-1.2c1.6-1.2,2.9-2.8,3.9-4.6l6.4-12l1.3,0.7l-6.4,12C3099-169.3,3097.6-167.6,3095.8-166.2L3095.8-166.2z M3118.1-198.4
			l-0.6-1.4c1.9-0.8,3.9-1.2,6-1.2h14.1v1.5h-14.1C3121.7-199.5,3119.8-199.1,3118.1-198.4z M3157.7-199.5v-1.5h20v1.5H3157.7z
			 M3203.7-194.1c-3.4,0-6.2-2.8-6.2-6.2s2.8-6.2,6.2-6.2l0,0c3.4,0,6.2,2.8,6.2,6.2C3209.9-196.8,3207.1-194.1,3203.7-194.1z"/>
		<path class="st22" d="M2736.5-394.3c-2.2,0-4-1.8-4-4s1.8-4,4-4l0,0c2.2,0,4,1.8,4,4S2738.7-394.3,2736.5-394.3z M2616.1-397.3v-2
			h108.8v2H2616.1z M2868.5-394.3c-2.2,0-4-1.8-4-4s1.8-4,4-4l0,0c2.2,0,4,1.8,4,4S2870.7-394.3,2868.5-394.3z M2856.9-399.3v2
			h-108.8v-2H2856.9z M3000.5-394.3c-2.2,0-4-1.8-4-4s1.8-4,4-4l0,0c2.2,0,4,1.8,4,4S3002.7-394.3,3000.5-394.3z M3120.9-399.3v2
			h-108.8v-2H3120.9L3120.9-399.3z M2880.1-397.3v-2h108.8v2H2880.1z M2683.4-75.2c-4,0-7.3-3.3-7.3-7.3s3.3-7.3,7.3-7.3
			s7.3,3.3,7.3,7.3S2687.4-75.2,2683.4-75.2L2683.4-75.2z M2666.7-83.5v2H2518v-2H2666.7z M2865.4-75.2c-4,0-7.3-3.3-7.3-7.3
			s3.3-7.3,7.3-7.3s7.3,3.3,7.3,7.3S2869.4-75.2,2865.4-75.2z M3035.7-83.5v2H2882v-2H3035.7z M2700-81.5v-2h148.8v2H2700z
			 M3052-75.2c-4,0-7.3-3.3-7.3-7.3s3.3-7.3,7.3-7.3s7.3,3.3,7.3,7.3S3056-75.2,3052-75.2z M3068.6-81.5v-2h148.8v2H3068.6z"/>
		<path class="st23" d="M2586.2-362.9h78.4c4.8,0,9.1,2.7,11.4,6.9l8.5,16.2c1.9,3.6,5.6,5.8,9.6,5.8h131.6v2H2694
			c-4.8,0-9.1-2.6-11.4-6.8l-8.5-16.2c-1.9-3.6-5.6-5.8-9.6-5.8h-78.4c-0.6,2.6-3.1,4.3-5.8,3.8c-2.6-0.6-4.3-3.1-3.8-5.8
			c0.6-2.6,3.1-4.3,5.8-3.8C2584.3-366.3,2585.8-364.8,2586.2-362.9z M2847.9-332.1v-2h148.8v2H2847.9z M2836.7-329.1
			c-2.2,0-4-1.8-4-4s1.8-4,4-4l0,0c2.2,0,4,1.8,4,4S2838.9-329.1,2836.7-329.1z M3019.5-332.1v-2h148.8v2H3019.5z M3008.4-329.1
			c-2.2,0-4-1.8-4-4s1.8-4,4-4l0,0c2.2,0,4,1.8,4,4C3012.3-330.9,3010.6-329.1,3008.4-329.1z"/>
		<path class="st17" d="M3134.7-416.7l1.2-0.9l14.1,19.3l-14.1,19.3l-1.2-0.9l13.4-18.4L3134.7-416.7L3134.7-416.7z M2636.1-326.1
			l-1.2,0.9l-16.3-22.3l16.3-22.3l1.2,0.9l-15.7,21.5L2636.1-326.1z M3150.8-166.5l1.2-0.9l21.1,29l-21.1,29l-1.2-0.9l20.5-28.1
			L3150.8-166.5L3150.8-166.5z"/>
		<g transform="translate(2579 873)" class="st24">
			<g>
				<circle id="i_1_" class="st25" cx="563.1" cy="-869.1" r="51.6"/>
			</g>
			<g>
				<path class="st26" d="M559.4-907.5c-14.3,1.7-21.3,16.1-22.3,22.7c-1,6.5-12.7,6.9-13.6,12.2s7,6.1,6.8,7.4s-4.9,15.5-0.2,21.1
					c5.7,6.8,18.2,4.7,19.1,7.3c0.9,2.6,1.4,22.8,1.4,22.8l30-1.9l1.1-86.6C581.7-902.5,559.4-907.5,559.4-907.5z"/>
				<path class="st27" d="M540.5-877.2c-1.5,0-2.7-1.2-2.7-2.7s1.2-2.7,2.7-2.7s2.7,1.2,2.7,2.7S542-877.2,540.5-877.2z
					 M529.1-861.9l1.1-1.1l0.5,0.4c0.4,0.3,0.9,0.6,1.4,0.9c3,1.7,6.5,2,10.5,0l0.7,1.3c-4.5,2.2-8.5,1.9-11.9,0
					C530.5-860.8,529.8-861.3,529.1-861.9z M569.9-814c-25.7-11.6-6.1-23.4-13.2-37.4c-7.1-14,13.1-24.8,0-35.1
					c-13.1-10.3-6.1-24.7-6.1-24.7s13,0.5,17.9,0.2c4.9-0.3,22.9-1.6,30.6,20c7.7,21.6-4.6,28.7,0.3,34.7c4.9,6,12.6,18.5,4,31.4
					C594.8-812,580.4-809.2,569.9-814L569.9-814z M550-879.8c-5.2-4-10.4-7.3-10.4-7.3l0.8-2.4C540.4-889.5,546.1-887.7,550-879.8z"
					/>
			</g>
		</g>
		<g transform="translate(2083 702)" class="st24">
			<g>
				<circle id="k_1_" class="st25" cx="563.4" cy="-868.9" r="51.6"/>
			</g>
			<g>
				<path class="st26" d="M600-847.2c-9.8,7-14.3,7.1-11.6,14.9c0.3,0.9,0.7,1.8,1,2.7l-32.9,2.9c-0.7-2.2-1.5-4.3-2.2-6.2
					c0.2-0.4,2.8-8,6.3-13s3.3-6.7,3.3-6.7s-9.5-1.9-11.1-9.7c-1.6-7.8,7.3-7.2,7.3-7.2s-6-6.7-2.8-15c3.5-9-11.8-19-1.9-25.2
					c5.1-1.1,10.4-0.9,15.5,0.6c16.3,5.6,12.2,25.6,16.7,25.9c5.5,0.4,10.8,2.2,12.6,5.5s-2.8,4.3-2,6.4c0.1,0.2,0.8,2,1.1,2.5
					c0,0-6.9,4.5-11.6,4.6c0,0,4.4,6.1,12.7,1.8C602.3-857.7,605.7-851.3,600-847.2L600-847.2z"/>
				<path class="st27" d="M560.7-845.8c-3.6,5-6.2,12.5-6.3,13l-0.7-2c-3.7-9.5-28-16.2-27.6-39.6c0.4-20.9,15.3-32.5,29.5-35.3
					c-9.9,6.2,5.5,16.3,1.9,25.2c-3.3,8.3,2.8,15,2.8,15s-8.9-0.5-7.3,7.2c1.6,7.7,11.1,9.7,11.1,9.7S564.4-851,560.7-845.8z
					 M580.4-877.6c-1.5,0-2.7-1.2-2.7-2.7s1.2-2.7,2.7-2.7s2.7,1.2,2.7,2.7S581.9-877.6,580.4-877.6z M568.3-879.9
					c2.3-5.2,6.3-9.5,11.3-12.2l1.9,3.5L568.3-879.9z"/>
				<path class="st28" d="M596.9-814.3l-42.7,13.6c0,0,1.7-16.6,2.3-25.9l32.9-3C591.6-824.4,594.1-819.3,596.9-814.3z"/>
			</g>
		</g>
		<g transform="translate(2475 597)" class="st24">
			<g>
				<circle id="m_1_" class="st25" cx="563.6" cy="-869.2" r="51.6"/>
			</g>
			<g>
				<path class="st9" d="M602.6-829.5l-0.6,0.3l-24.2,14.9l-0.1-0.1c-3.5-2.7-6.7-5.7-9.5-9.2c-2.4-2.8-4.6-5.7-6.7-8.7
					c-6.7,3-13.1,3.5-15.6,0.8c-1.6-1.8-2.5-6.6-3.4-9.9c9.3-3.8,8.6-9,8.6-9c-5.2,3.3-8.6,4.7-10.1,4.5c-0.4-2.2-0.6-3.8-0.6-4.1
					c-0.2-1-7.5,1-8.5-3.2s9.9-13,8.9-18.4c-0.8-4.6-1.4-10.6,0.6-16c1.1-3,3-5.6,5.6-7.6c22.8-17.5,42.1,50.5,42.4,51.5
					c0,0,0.9,1.2,2.3,3C594.1-837.5,598.4-832.4,602.6-829.5z"/>
				<path class="st27" d="M591.6-840.7l-23.4,17.3c0,0,0.3,16,0,15.4c-0.3-0.6,34.5-21.5,34.5-21.5L591.6-840.7z M545.8-862.1
					c-1.5,0-2.7-1.2-2.7-2.7s1.2-2.7,2.7-2.7s2.7,1.2,2.7,2.7S547.3-862.1,545.8-862.1z M542.2-873.1l-0.1-1.5
					c4.8-0.4,9.5,1.2,13,4.3l-1,1.1C550.9-872,546.6-873.4,542.2-873.1z"/>
				<path class="st26" d="M531.3-896c1.7,8.1,6,8.9,9.9,8.4c0,0,3.1,6.3,12.7,6.1c9.7-0.1,12.5,12.9,12.5,12.9c1-1.8,3.2-2.5,5-1.5
					c0.2,0.1,0.4,0.2,0.5,0.4c3.5,2.4,2.7,10.2-2.3,13.3c0,0,9.6,15,16.6,14.3c6.9-0.8,0.3-6.8,5.5-14.9c5.2-8.1,11.8-24.4,1.7-33.1
					c0,0,3.5-4-3.9-10.4c-7.4-6.4-13.8-3.9-13.8-3.9s-6-9.7-19-6.3c-13,3.4-10.9,6.8-18.3,4.8C532.7-907.6,530.3-900.5,531.3-896z"
					/>
			</g>
		</g>
	</g>
	<g class="st16">
		<path class="st29" d="M2729.6-535.1l-1.2,0.9l-8.5-11.6l8.5-11.6l1.2,0.9l-7.8,10.7L2729.6-535.1L2729.6-535.1z M3005.7-549.4
			l1.6-1.2l10.9,14.9l-10.8,14.9l-1.6-1.2l10-13.7L3005.7-549.4L3005.7-549.4z"/>
		<path class="st30" d="M2765.9-580.3h5.6v2h-5.6v5.6h-2v-5.6h-5.6v-2h5.6v-5.6h2V-580.3z M2806.5-550.7c-1.2,0-2.2-1-2.2-2.2
			s1-2.2,2.2-2.2s2.2,1,2.2,2.2S2807.7-550.7,2806.5-550.7z M2751.1-551.9v-2h48.8v2H2751.1z M2868.5-550.7c-1.2,0-2.2-1-2.2-2.2
			s1-2.2,2.2-2.2s2.2,1,2.2,2.2S2869.7-550.7,2868.5-550.7z M2861.9-553.9v2h-48.8v-2H2861.9z M2930.5-550.7c-1.2,0-2.2-1-2.2-2.2
			s1-2.2,2.2-2.2s2.2,1,2.2,2.2S2931.7-550.7,2930.5-550.7z M2985.9-553.9v2h-48.8v-2H2985.9z M2875.1-551.9v-2h48.8v2H2875.1z"/>
		<path class="st31" d="M2776.5-511.4c-1.6,0-3-1.3-3-2.9c0-1.6,1.3-3,2.9-3l0,0c1.6,0,2.9,1.3,2.9,3
			C2779.5-512.7,2778.1-511.4,2776.5-511.4z M2696.1-513.4v-2h68.8v2H2696.1z M2868.5-511.4c-1.6,0-3-1.3-3-2.9c0-1.6,1.3-3,2.9-3
			l0,0c1.6,0,2.9,1.3,2.9,3C2871.4-512.7,2870.1-511.4,2868.5-511.4z M2856.9-515.4v2h-68.8v-2H2856.9z M2960.5-511.4
			c-1.6,0-3-1.3-3-2.9c0-1.6,1.3-3,2.9-3l0,0c1.6,0,2.9,1.3,2.9,3C2963.4-512.7,2962.1-511.4,2960.5-511.4z M3040.9-515.4v2h-68.8
			v-2H3040.9z M2880.1-513.4v-2h68.8v2H2880.1z"/>
		<path class="st32" d="M2756.5-464.1c-2.2,0-4-1.8-4-4s1.8-4,4-4s4,1.8,4,4S2758.7-464.1,2756.5-464.1z M2656.1-467.1v-2h88.8v2
			H2656.1z M2868.5-464.1c-2.2,0-4-1.8-4-4s1.8-4,4-4s4,1.8,4,4S2870.7-464.1,2868.5-464.1z M2856.9-469.1v2h-88.8v-2H2856.9z
			 M2980.5-464.1c-2.2,0-4-1.8-4-4s1.8-4,4-4l0,0c2.2,0,4,1.8,4,4S2982.7-464.1,2980.5-464.1z M3080.9-469.1v2h-88.8v-2H3080.9z
			 M2880.1-467.1v-2h88.8v2H2880.1z"/>
		<g class="st24">
			<path class="st33" d="M2921.4-724.2h-70.2c0.4-19.9-9.2-44.5-10.1-48.9c-0.8-4.2,2.8-12.1,8.5-18.9c7-8.4,8.7-11.6,8.7-11.6
				s13.6,15.8,51.9,20.2c-0.1,1.2-0.2,2.4-0.3,3.6C2907.1-755.5,2931.7-761.8,2921.4-724.2L2921.4-724.2z"/>
			<path class="st34" d="M2796.2-654.7c-1.1,2.4-2.1,4.7-3.1,7.2c21.3,9.4,31.4,26.2,41.1,27.8c-4.9,0.2-11.2,9.6-9.6,13.7
				c-34.7-8.9-46.4-10.1-61.5-26.1c-12.2-12.9,1.6-49.1,16.2-74.8l0,0c7.3-12.9,14.8-23.1,19.3-26.3c2.6-1.8,5.3-3.4,8.1-4.8
				c13.1-6.6,30.5-10.7,43.8-14.2l0.9-0.2h37.4c16.3,4.2,39.4,9.5,52.8,19.2c7.1,5.3,14,11,20.5,16.9c23.7,21.6,55.1,56.8,36.3,76.4
				c-13.4,14-28.1,0.8-41.6-14.8H2796.2L2796.2-654.7z"/>
			<path class="st35" d="M2852.1-756.1c-5.6-7.1-9.3-15.5-10.9-24.4c-3-16.5,2.4-46.3,28.6-46.3s31.6,29.8,28.7,46.3
				c-1.6,8.9-5.3,17.3-10.9,24.4c-2,7.6,0,19,0,19c-9.2,9.8-24.5,10.3-34.3,1.2c-0.4-0.4-0.8-0.8-1.2-1.2
				C2852.1-737.1,2854.1-748.5,2852.1-756.1z"/>
			<path class="st36" d="M2990.1-666.3l-0.7,1.3c-2.3-1.3-16.2-9.4-20-11.5c-5.7-3.3-11.5-6.4-17.4-9.2l0.6-1.4
				c4.9,2.3,10.4,5.2,17.6,9.3C2974-675.7,2987.9-667.6,2990.1-666.3z M2815.1-693.5l1.3,0.7c0.2-0.3-8.6,16.3-11.6,22.2
				c-0.7,1.4-1.4,2.8-2.1,4.1c-1.5,3.1-3.1,6.2-4.5,9.3l-1.4-0.6c2.1-4.5,4.3-9,6.6-13.5C2806.5-677.3,2815.2-693.8,2815.1-693.5
				L2815.1-693.5z M2927.9-697.5l0.8-1.3c3.2,1.9,6.3,4.1,9.3,6.3l-0.9,1.2C2934.1-693.5,2931.1-695.6,2927.9-697.5L2927.9-697.5z"
				/>
			<path class="st35" d="M2897.4-673.9c-5.2,0.4-7.4-1.3-8.4-2.7c-0.5-0.8-0.2-1.7,0.5-2.2c0.1-0.1,0.3-0.2,0.5-0.2
				c6.2-1.3,16.5-5.4,18.4-6.1c6.2-5.5,9.3-6.4,21.6-7.4c6.1-0.4,13.6,2,22.3,6.1c-4.1,10.5-9.5,15.2-9.5,15.2
				c-1-1.1-1.9-2.2-2.9-3.2c-4.8,2.6-13.4,5.7-16.8,7.7c-2.3,1.4-7,4.8-10.8,7.6c-4.7,3.5-10.6,5-16.4,4c-0.8-0.1-1.6-0.4-2.4-0.6
				c-2.2-0.8-4.3-2-6-3.6c-0.9-0.8-0.9-2.1-0.2-3C2889.3-664.5,2893.2-669.2,2897.4-673.9L2897.4-673.9z M2873-598.7
				c0,0.8-0.4,1.5-1,1.9c-1,0.7-2.4,0.5-3.2-0.4c-1.2-1.5-3-3.8-4.9-6.3c-3.2-4.3-6.3-8.1-6.3-8.1c0.4,4.1,6.1,14.7,8.7,19.3
				c0.9,1.2,0.7,2.9-0.5,3.9c-1.2,0.9-2.9,0.7-3.9-0.5c-0.1-0.1-0.2-0.2-0.2-0.3c-5.8-7.1-12.6-18.7-13-19.5l8.7,20.3
				c0.6,1.4,0,3-1.4,3.6c-1.2,0.5-2.5,0.1-3.3-0.9c-5.9-8.2-13-23-12.4-18.3c0.4,3.1,3.4,12.5,4.6,16.2c0.1,0.2,0.1,0.4,0.1,0.6
				c0.1,1.1-0.8,2.1-1.9,2.1c-0.8,0.1-1.6-0.4-1.9-1.1c-5.3-9.6-6-17-11.9-18.5l-4.8-1.2c-1.6-4.1,4.7-13.5,9.6-13.7
				c0.4,0.1,0.8,0.1,1.2,0.1c13.3,0.5,22.2-4,26.9,1.4c3.7,4.3,8.6,14.4,10.4,18.5C2872.9-599.3,2873-599,2873-598.7L2873-598.7z"/>
			<path class="st37" d="M2907.3-678.3l1,1.1c-5.8,5.2-11.9,12.3-18,20.1l-1.2-0.9C2895.3-665.9,2901.4-673,2907.3-678.3
				L2907.3-678.3z M2911.9-675.5l1.1,1.1c-0.3,0.3-0.6,0.6-0.9,0.9c-4,4.1-7.8,8.2-11.6,12.5c-1.8,2-3.6,4.1-5.2,6.3l-1.2-0.9
				c1.7-2.2,3.5-4.3,5.3-6.4C2903.4-666.7,2907.6-671.2,2911.9-675.5L2911.9-675.5z M2916-671.8l1.1,1.1c-0.3,0.3-0.5,0.5-0.8,0.8
				c-3.7,3.8-7.3,7.7-10.8,11.7c-1,1.2-2,2.5-3,3.8l-1.2-0.9c0.9-1.2,1.9-2.5,3.1-3.9C2908.1-663.5,2912-667.7,2916-671.8
				L2916-671.8z M2885.2-754.5l1.1,1c-5.2,5.6-11,8.8-16.6,8.8s-11.1-3-16.3-8.6l1.1-1c4.9,5.2,10.1,8.1,15.2,8.1
				C2874.9-746.2,2880.3-749.2,2885.2-754.5z M2875.2-766.4c-0.1-0.5-0.2-1.1-0.7-2.4l1.4-0.5c0.5,1.4,0.7,2.1,0.7,2.7
				c0.1,1-0.2,1.7-1.1,1.9c-0.8,0.1-1.6,0.4-2.3,0.9l-0.3,0.2c-0.9,0.6-1.6,0.8-3.3,0.8s-2.4-0.2-3.3-0.8l-0.3-0.2l-0.3-0.2
				c-0.5-0.3-1.1-0.5-2-0.7c-1.2-0.2-1.3-1.2-0.9-2.7c0.2-0.6,1.2-3.7,1.4-4.5c0.8-2.7,1.3-5.1,1.5-7.8l1.5,0.1
				c-0.2,2.8-0.7,5.3-1.5,8.1c-0.3,0.8-1.3,3.9-1.4,4.5c-0.1,0.4-0.1,0.7-0.1,0.9c1,0.2,1.9,0.5,2.8,1.1l0.3,0.2
				c0.6,0.4,1.1,0.6,2.4,0.6s1.8-0.1,2.4-0.6l0.3-0.2l0.3-0.2c0.7-0.4,1.6-0.7,2.4-0.9C2875.2-766.2,2875.2-766.2,2875.2-766.4
				L2875.2-766.4z M2879.3-761.2c0.1-0.1,0.3-0.1,0.4,0c0.1,0.1,0.1,0.2,0.1,0.3c-2.3,5.5-8.5,8.1-14,5.8c-2.6-1.1-4.8-3.2-5.8-5.8
				c-0.1-0.2,0-0.3,0.2-0.4c0.1,0,0.2,0,0.3,0.1c2.6,2.2,6,3.3,9.4,3.2C2873.2-757.8,2876.6-759,2879.3-761.2z"/>
			<path class="st38" d="M2856.3-773.1c-1.2,0-2.3-1-2.3-2.3c0-1.2,1-2.3,2.3-2.3s2.3,1,2.3,2.3
				C2858.5-774.1,2857.5-773.1,2856.3-773.1z M2883.3-773.1c-1.2,0-2.3-1-2.3-2.3c0-1.2,1-2.3,2.3-2.3s2.3,1,2.3,2.3
				S2884.6-773.1,2883.3-773.1z M2847.8-780.8l-1-1.7c5.2-2.9,11.2-3.9,17-2.7l-0.4,2C2858.1-784.3,2852.5-783.4,2847.8-780.8
				L2847.8-780.8z M2892.9-782.5l-1,1.7c-4.8-2.7-10.3-3.6-15.7-2.5l-0.4-2C2881.6-786.4,2887.7-785.4,2892.9-782.5L2892.9-782.5z"
				/>
			<path class="st33" d="M2910.2-783.5c-38.3-4.4-51.9-20.2-51.9-20.2c-4.2,4.2-8.2,8.6-12,13.2c-5.7,6.9-4.4,11.8-3.6,16
				c0.5,2.8,5,11.8,9.4,20.3c3.5,6.7,2.3,23,2.1,30c-0.3,14.2-8.5,31.8-22.8,32.3c-35.2,1.2-30.3-39.5-15.3-60.5
				c14.2-19.9,6.5-40.9,15.7-57.1c9.3-16.4,17.3-14.4,17.3-14.4s2.8-12.8,27.6-10.6C2901-832.3,2911.6-806.9,2910.2-783.5
				L2910.2-783.5z"/>
			<path class="st35" d="M2842.9-785.2l2.3,17.2c-5.3-1.1-12.4-12.3-9.4-16.4C2838.7-788.5,2842.9-785.2,2842.9-785.2L2842.9-785.2z
				 M2896.7-785.2c0,0,4.2-3.3,7.1,0.8c2.9,4.1-4.1,15.3-9.4,16.4L2896.7-785.2L2896.7-785.2z"/>
			<g>
				<path class="st33" d="M2952.3-675.2h-167.7c-3.2,0-5.9,2.6-5.9,5.9c0,0.3,0,0.5,0,0.7l11.4,89.2h156.4l11.6-89.2
					c0.4-3.2-1.9-6.2-5.1-6.6C2952.8-675.2,2952.6-675.2,2952.3-675.2z"/>
				
					<radialGradient id="SVGID_8_" cx="3710.7886" cy="-847.6742" r="1.0011" gradientTransform="matrix(0 38.2921 -44.1101 0 -34521.9922 -142732.9375)" gradientUnits="userSpaceOnUse">
					<stop  offset="0" style="stop-color:#20C6B7"/>
					<stop  offset="1" style="stop-color:#4D9ABF"/>
				</radialGradient>
				<path class="st39" d="M2877.6-625.8L2877.6-625.8L2877.6-625.8c-0.1,0-0.1-0.1-0.1-0.1l0.8-4.7l3.6,3.6l-3.8,1.6l0,0l0,0l0,0
					C2877.9-625.5,2877.8-625.7,2877.6-625.8L2877.6-625.8z M2882.9-626.1l3.9,3.9c0.8,0.8,1.2,1.2,1.4,1.7v0.2l-9.3-3.9l0,0
					c0,0-0.1,0-0.1-0.1l0.1-0.1L2882.9-626.1z M2888-619c-0.2,0.4-0.6,0.8-1.3,1.4l-4.4,4.4l-5.7-1.2l0,0c0,0-0.1,0-0.1-0.1
					c0-0.5-0.3-0.9-0.7-1.2v-0.1l0,0l1.1-6.5l0,0c0,0,0-0.1,0.1-0.1c0.5-0.1,0.9-0.3,1.2-0.7l0,0h0.1
					C2878.3-623.1,2888-619,2888-619z M2881.4-612.3l-7.2,7.2l1.2-7.6l0,0l0,0c0,0,0,0,0.1,0l0,0c0.3-0.1,0.5-0.3,0.7-0.5
					c0,0,0.1,0,0.1-0.1l0,0L2881.4-612.3z M2872.6-603.5l-0.8,0.8l-9-12.9l0,0v-0.1l0,0l0,0l0.1-0.1l0,0c0,0,0,0,0.1-0.1h0.1l9.9,2
					h0.1l0,0l0,0c0.1,0.5,0.5,1,1,1.1v0.1l0,0L2872.6-603.5L2872.6-603.5z M2870.9-601.9c-0.6,0.6-0.9,0.9-1.3,1
					c-0.4,0.1-0.8,0.1-1.2,0c-0.5-0.1-0.9-0.5-1.7-1.4l-9-9l2.4-3.6l0,0h0.1c0.5,0.2,1.1,0.1,1.6-0.1c0,0,0,0,0.1,0l0,0
					L2870.9-601.9z M2856.9-612l-2.1-2.1l4.1-1.7l0,0c0,0,0.1,0,0.1,0.1l0,0l0.1,0.2l0,0l0,0L2856.9-612L2856.9-612z M2853.9-615
					l-2.6-2.6c-0.4-0.5-0.8-0.8-1-1.1l7.9,1.7l0,0c0.1,0,0.1,0,0.1,0.1s-0.1,0.1-0.1,0.1l0,0L2853.9-615z M2849.8-620
					c0-0.2,0-0.3,0.1-0.5c0.1-0.5,0.5-0.9,1.4-1.7l3.3-3.3c1.5,2.2,3.1,4.5,4.6,6.7c0,0,0.1,0.1,0,0.1c-0.2,0.2-0.3,0.4-0.4,0.6l0,0
					C2858.8-618.1,2849.8-620,2849.8-620z M2855.5-626.4l4.5-4.5c0.4,0.2,1.9,0.8,3.3,1.4c0.8,0.3,1.6,0.7,2.4,1v0.1
					c-0.1,0.7,0,1.3,0.5,1.8v0.1l0,0l-4.6,7.1l0,0h-0.1c-0.2,0-0.4-0.1-0.5-0.1c-0.2,0-0.3,0-0.5,0.1h-0.1c0,0,0,0,0-0.1
					L2855.5-626.4L2855.5-626.4z M2860.9-631.8l5.8-5.8c0.8-0.8,1.2-1.2,1.7-1.4c0.4-0.1,0.8-0.1,1.2,0c0.5,0.1,0.9,0.5,1.7,1.4
					l1.3,1.3l-4.1,6.4l0,0h-0.1c-0.7-0.2-1.4-0.1-1.9,0.4h-0.1C2866.3-629.5,2860.9-631.8,2860.9-631.8z M2873.4-635.5l3.8,3.8
					l-0.9,5.7l0,0c0,0,0,0-0.1,0l0,0c-0.2,0.1-0.4,0.2-0.6,0.3l0,0l-5.8-2.5l0,0c0,0-0.1,0-0.1-0.1c0-0.3-0.1-0.6-0.3-0.9
					c0,0-0.1-0.1,0-0.1L2873.4-635.5L2873.4-635.5z M2869.5-626.9l5.5,2.3c0,0,0.1,0,0.1,0.1c0,0,0,0,0,0.1s0,0.2,0,0.3v0.1
					c0,0,0,0.1-0.1,0.1l0,0l-12.1,5.2c0,0,0,0-0.1,0v-0.1l0,0l4.5-6.9l0,0l0.1-0.1l0,0h0.3c0.7,0,1.3-0.3,1.7-0.9
					C2869.4-626.9,2869.5-626.9,2869.5-626.9z M2863.3-617.7l12.3-5.2l0,0l0.2,0.1l0,0c0,0,0.1,0,0.1,0.1l0,0l-1.1,6.5l0,0
					c0,0,0,0.1-0.1,0.1c-0.6,0-1.1,0.4-1.4,0.9c0,0,0,0-0.1,0.1h-0.1l-9.8-2C2863.4-617.2,2863.3-617.7,2863.3-617.7z"/>
			</g>
		</g>
	</g>
	
		<linearGradient id="SVGID_9_" gradientUnits="userSpaceOnUse" x1="3740.5425" y1="-932.1602" x2="3740.7251" y2="-932.1602" gradientTransform="matrix(3742 0 0 100 -13995081 93325.1172)">
		<stop  offset="0" style="stop-color:#4F005E"/>
		<stop  offset="1" style="stop-color:#33065B"/>
	</linearGradient>
	<rect x="511" y="59.1" class="st40" width="3742" height="100"/>
</g>
</svg>
