<?xml version="1.0" encoding="utf-8"?> <svg xmlns="http://www.w3.org/2000/svg" viewBox="0 0 200 200"><title>Asset 229</title><g id="Layer_2" data-name="Layer 2"><g id="Layer_1-2" data-name="Layer 1"><g id="yrc"><path d="M120.293,124.671h3.039l-.537,3.669a11.248,11.248,0,0,1-1.432.383,8.7,8.7,0,0,1-1.593.143,3.016,3.016,0,0,1-2.236-.984,3.357,3.357,0,0,1-.626-2.587,4.95,4.95,0,0,1,1.082-2.736,4.662,4.662,0,0,1,1.888-1.339,4.323,4.323,0,0,1,2.535-.076,5.6,5.6,0,0,1,1.245.535.681.681,0,0,0,.1.05s-.181,1.349-.263,1.8a2.619,2.619,0,0,0-2.216-1.062,2.453,2.453,0,0,0-1.269.322,2.735,2.735,0,0,0-.935,1.033,3.871,3.871,0,0,0-.408,1.5,2.461,2.461,0,0,0,.207,1.347,1.408,1.408,0,0,0,.908.7,2.734,2.734,0,0,0,1.047.021c.077-.019.36-.125.375-.21.026-.145.181-1.232.181-1.232l-1.289.046.2-1.323Z"/><polygon points="62.423 115.082 59.728 128.713 137.869 107.371 62.423 115.082"/><polygon points="99.585 122.496 96.65 122.496 96.326 124.276 99.058 124.276 98.842 125.66 96.109 125.66 95.614 128.626 93.934 128.626 95.187 121.112 99.803 121.112 99.585 122.496 99.585 122.496"/><polygon points="112.13 122.496 109.2 122.496 108.925 124.078 111.651 124.078 111.433 125.462 108.707 125.462 108.384 127.439 111.314 127.439 111.094 128.626 106.456 128.626 107.71 121.112 112.348 121.112 112.13 122.496"/><polygon points="125.443 128.626 123.933 128.626 125.042 121.112 126.552 121.112 126.117 124.078 128.937 124.078 129.371 121.112 130.876 121.112 129.767 128.626 128.262 128.626 128.741 125.462 125.921 125.462 125.443 128.626 125.443 128.626"/><polygon points="137.589 122.496 135.402 122.496 134.37 128.626 132.663 128.626 133.695 122.496 131.509 122.496 131.729 121.112 137.81 121.112 137.589 122.496"/><polygon points="117.047 121.112 116.83 122.496 115.703 122.496 114.886 127.439 115.991 127.439 115.773 128.626 111.857 128.626 112.066 127.439 113.178 127.439 113.996 122.496 112.914 122.496 113.121 121.112 117.047 121.112 117.047 121.112"/><path d="M105.823,123.371a1.677,1.677,0,0,0-.5-1.7,3.77,3.77,0,0,0-2.336-.555h-2.347l-1.253,7.514h1.707l.482-2.768h.908l1.441,2.768h1.895c-.315-.455-.915-1.616-1.822-3.276a3.2,3.2,0,0,0,1.242-.791A2.283,2.283,0,0,0,105.823,123.371Zm-2.248.842a2.442,2.442,0,0,1-1.237.26h-.552l.339-1.977h.518a2.348,2.348,0,0,1,1.181.188.631.631,0,0,1,.267.727A1.082,1.082,0,0,1,103.575,124.213Z"/><polygon points="63.918 107.174 62.956 112.116 138.052 107.289 63.918 107.174"/><path d="M139.072,81.767h-.928s-1.026-1.137-1.577-1.708a9.649,9.649,0,0,0-2.526-1.843,9.345,9.345,0,0,0-5.474-.817,7.29,7.29,0,0,0-3.283,1.258,11.312,11.312,0,0,0-1.653,1.373c-.517.529-.975,1.112-1.443,1.688a19.633,19.633,0,0,0-2.783,6.772,18.957,18.957,0,0,0-.242,2.369,12.076,12.076,0,0,0,.132,2.875,7.485,7.485,0,0,0,1.066,2.49,6.567,6.567,0,0,0,1.672,1.744,5.363,5.363,0,0,0,1.863.817,9.36,9.36,0,0,0,2.42.28,10.337,10.337,0,0,0,1.638-.139,8.11,8.11,0,0,0,1.619-.494c.338-.134.674-.278,1.012-.411a12.512,12.512,0,0,0,2.469-1.344,18.855,18.855,0,0,0,2.585-2.059h.928l-1.485,7.743c-1.045.41-2.056.918-3.11,1.3a33.426,33.426,0,0,1-3.207,1.032,17.361,17.361,0,0,1-3.378.47,20.667,20.667,0,0,1-3.527,0,21,21,0,0,1-4.084-.892,10.138,10.138,0,0,1-2.6-1.241,10.275,10.275,0,0,1-2.167-2.18,9.921,9.921,0,0,1-1.512-2.627,14.569,14.569,0,0,1-.682-2.9,20.818,20.818,0,0,1,.057-5.75,19.664,19.664,0,0,1,.383-2.132,32.667,32.667,0,0,1,1.779-5.182A18.014,18.014,0,0,1,114.38,79.8a19.348,19.348,0,0,1,1.777-2.482,23.029,23.029,0,0,1,4.221-3.559,22.723,22.723,0,0,1,2-1.1,15.456,15.456,0,0,1,3.638-1.071q1.421-.249,2.855-.361a19.176,19.176,0,0,1,3.259-.038,22.77,22.77,0,0,1,4.352.82c.027.008.054.028.08.036l3.851,1.743-1.345,7.983Z"/><path d="M103.758,90.715a21.49,21.49,0,0,0,4.515-3.122,14.846,14.846,0,0,0,2.721-4.165,11.218,11.218,0,0,0,.9-4.744,6.242,6.242,0,0,0-3.92-5.951c-1.763-.859-5.563-.853-5.759-.852H81.185l-8.473,11.4-4.082-11.4H59.583l7.462,19.261L64.4,104.7h8.095L75.063,91.11,87.988,74.593,82.113,104.7h8.1L92.5,92.444h2.864l6.6,12.258h9.957Zm-.773-7.786a5.312,5.312,0,0,1-1.3,2.083,6.252,6.252,0,0,1-1.921,1.241,8.027,8.027,0,0,1-2.574.457H93.523l1.715-8.9H98.95l2.347.282a3.3,3.3,0,0,1,1.372.818,2.333,2.333,0,0,1,.627,1.325A5.283,5.283,0,0,1,102.985,82.929Z"/></g></g></g></svg>