<?xml version="1.0" encoding="utf-8"?> <svg xmlns="http://www.w3.org/2000/svg" viewBox="0 0 200 200"><title>Asset 247</title><g id="Layer_2" data-name="Layer 2"><g id="Layer_1-2" data-name="Layer 1"><path id="eme" d="M128.565,103l-1.467,1.871-.294.367a.622.622,0,0,1-.44.256,18.489,18.489,0,0,0-5.684-1.173c-1.871,0-3.448.476-3.448,2.053,0,2.017,4.878,2.164,8.435,3.888a4.871,4.871,0,0,1,2.971,4.695c.11,3.887-3.631,5.574-8.765,5.574a25.879,25.879,0,0,1-7.922-1.247l-.623-.257.77-1.467.44-.843a.558.558,0,0,1,.44-.257,24.978,24.978,0,0,0,6.748,1.174c2.274,0,3.3-.77,3.3-2.421,0-2.347-4.144-2.237-8.289-3.887a4.352,4.352,0,0,1-3.154-4.438c0-3.814,4.218-5.391,8.949-5.391a23.523,23.523,0,0,1,6.748,1.027,2.9,2.9,0,0,1,.55.183l.7.293Zm23.288,7.959c0-6.382-4.071-9.5-10.708-9.5-6.6,0-10.71,3.081-10.71,9.5,0,6.381,4.034,9.5,10.71,9.5S151.853,117.372,151.853,110.954Zm-103.9-8.912c.662,0,.736.039.99.33l6.9,10.783h.147l6.565-10.783c.254-.291.329-.33.99-.33h4.438v18.117H63.027V110.074c0-1.247.036-1.724.036-2.054,0,0-6.375,10.856-7.115,11.7h-.036c-.66-.77-7.482-11.7-7.482-11.7,0,.366.037.843.037,2.054v10.085H43.516V102.042ZM96.4,120.049H90.57V102.482c0-.477.183-.55.916-.55h6.969c3.3,0,10.012.11,10.012,5.1,0,3.41-3.337,4.364-4.914,4.877l7.555,8.106h-6.492l-6.2-7.482H96.4v7.518Zm78.191-.073h-3.741a1.235,1.235,0,0,1-.99-.367c-.4-.44-10.306-12.066-10.306-12.066,0,.367.037,1.174.037,2.384v10.086H154.6V102.3c.036-.328.253-.4.807-.4h3.631c.661,0,.735.039.99.33l9.682,11.443L169.6,101.9h4.071l.917-.036v18.117ZM25.435,101.9H40.692l-1.247,2.861H30.386v4.364h8.105v2.861h-8.1v5.171H40.472v2.861H24.591v-17.6C24.628,102.008,24.772,101.9,25.435,101.9Zm47.09,0H87.782l-1.247,2.861H77.477v4.364h8.141v2.861H77.477v5.134H87.562v2.861H71.682V102.3C71.718,101.971,71.935,101.9,72.525,101.9Zm68.62,15.77c-3.228,0-4.585-2.6-4.585-6.711s1.357-6.748,4.585-6.748,4.583,2.6,4.583,6.748S144.372,117.665,141.145,117.665ZM97.5,109.744c2.788,0,5.134-.257,5.134-2.678,0-2.31-2.456-2.384-4.694-2.384H96.364v5.062Zm9.936-38.938L104.8,67.567l-.036-.036-6.455-7.959-.11-.146a3.212,3.212,0,0,1-.55-.881c0-.11,0-.22.036-.256l2.274-3.815c-.073.147-.183.441,1.027,1.871l6.272,7.7.036.036,6.455,7.959.11.147c.413.491.658.883.55,1.063L112.134,77.1a.269.269,0,0,0,.024-.24l-.1.166a.079.079,0,0,1-.073.074c-.257.147-.88-.037-1.137-.147l-.11-.037-1.008-.421.788.972.11.147c.413.527.658.883.55,1.063l-1.011,1.711-1.226,2.1a.079.079,0,0,1-.074.073c-.257.147-.88-.036-1.136-.146l-.11-.037-1.12-.468.826,1.018.11.147c.367.477.66.88.55,1.063l-2.31,3.888a.3.3,0,0,0,.048-.156l-.048.082a.08.08,0,0,1-.074.074c-.256.147-.88-.037-1.137-.147l-.11-.037-1.018-.425.762.939.11.147a4.569,4.569,0,0,1,.55.843.336.336,0,0,1-.037.294l-2.2,3.814c.109-.184.073-.44-1.064-1.834l-6.185-7.595L91.712,82.55l2.672,3.281.037.037,6.454,7.959.11.146a4.465,4.465,0,0,1,.55.844.409.409,0,0,1-.036.293l-2.2,3.814c.11-.183.073-.44-1.063-1.833l-6.272-7.7-.037-.037-6.454-7.958-.11-.147c-.4-.513-.66-.917-.55-1.1l.081-.139a.338.338,0,0,0-.191.1l2.2-3.741s.074-.036.074-.073l.073-.073a1.873,1.873,0,0,1,1.173.146l.11.037,1.14.477-.773-.954-.11-.146c-.4-.514-.66-.918-.55-1.1l.075-.128a.338.338,0,0,0-.148.092l2.2-3.741s.074-.037.074-.074l.073-.073c.257-.147.917.073,1.173.147l.11.036,1.042.438-.712-.878-.11-.146c-.4-.514-.66-.917-.55-1.1l.112-.19a.393.393,0,0,0-.3.117l2.2-3.741.147-.147a.559.559,0,0,1,.256-.054l.331.032a2.994,2.994,0,0,1,.587.169l.11.037,1.14.477L95.08,65l-.109-.146a3.2,3.2,0,0,1-.55-.881c0-.11,0-.22.036-.257L96.731,59.9c-.073.147-.183.44,1.027,1.871l6.169,7.576,3.51,1.457Zm-9.9,9.468,3.455,1.434L98.375,78.5l-3.454-1.434Zm3.183-5.484,3.5,1.454L101.659,73.1l-3.5-1.453Z"/></g></g></svg>