<?xml version="1.0" encoding="utf-8"?> <svg xmlns="http://www.w3.org/2000/svg" viewBox="0 0 200 200"><title>Asset 230</title><g id="Layer_2" data-name="Layer 2"><g id="Layer_1-2" data-name="Layer 1"><g id="tar"><polygon points="80 87 62 87 62 91 69 91 69 110 74 110 74 91 80 91 80 87"/><path d="M40.906,82.419A15.926,15.926,0,1,0,56.843,98.348,15.926,15.926,0,0,0,40.906,82.419Zm0,26.547A10.621,10.621,0,1,1,51.53,98.348,10.621,10.621,0,0,1,40.906,108.966Z"/><path d="M40.906,92.89a5.457,5.457,0,1,0,5.464,5.458A5.451,5.451,0,0,0,40.906,92.89Z"/><polygon points="173 91 173 87 155 87 155 91 162 91 162 110 167 110 167 91 173 91"/><path d="M83.312,87l-8.3,23H80.02l1.675-5h7.981l1.614,5h5.129L88.242,87ZM83,101l2.7-8h.057l2.611,8Z"/><polygon points="143 100 153 100 153 96 142 96 142 91 154 91 154 87 138 87 138 110 155 110 155 106 143 106 143 100"/><path d="M110,99.159V99.11c2.138-1.03,3.056-3.057,3.056-5.766,0-3.474-2.188-6.34-5.65-6.344H97v23h4v-9h4.359c2.2,0,3,1.067,3.307,3.482.225,1.839.168,4.066.7,5.518h4.36c-.777-1.3-.748-4.006-.832-5.454C112.75,102.22,112.141,99.8,110,99.159ZM105.705,97H101V91h4.7c1.914,0,2.951.9,2.951,2.954C108.656,96.1,107.619,97,105.705,97Z"/><path d="M127,102h4.809c-.3,3.3-2.237,5.135-5.6,5.135-4.642,0-6.389-4-6.389-7.969,0-4.166,1.747-8.164,6.389-8.164a4.828,4.828,0,0,1,4.971,4h4.479c-.532-5.071-4.8-7.885-9.308-7.885-6.831,0-10.851,5.164-10.851,11.8,0,6.449,4.02,11.624,10.851,11.624a7.434,7.434,0,0,0,6.059-3.074l.492,2.537H136V98h-9Z"/></g></g></g></svg>