<?xml version="1.0" encoding="utf-8"?> <svg xmlns="http://www.w3.org/2000/svg" viewBox="0 0 200 200"><title>Asset 248</title><g id="Layer_2" data-name="Layer 2"><g id="Layer_1-2" data-name="Layer 1"><path id="emd" d="M85.866,127.884l-.09-.1a1.555,1.555,0,0,1,1.559,1.4v9.284a1.852,1.852,0,0,1-1.694,1.584H84.564c-.8,0-1.267-.846-1.267-1.584v-9.284a1.216,1.216,0,0,1,1.267-1.3ZM73.384,114.365l.015-.047a1.42,1.42,0,0,1,1.454,1.363v9.2a1.571,1.571,0,0,1-1.391,1.653H72.384a1.711,1.711,0,0,1-1.569-1.653v-9.2a1.486,1.486,0,0,1,1.569-1.316Zm-5.506,0-.346-.047a1.411,1.411,0,0,1,1.447,1.363v9.2a1.753,1.753,0,0,1-1.607,1.653H66.294a1.529,1.529,0,0,1-1.353-1.653v-9.2a1.287,1.287,0,0,1,1.353-1.316Zm22.6-27.378a1.475,1.475,0,0,1,1.264,1.471V89.3a1.121,1.121,0,0,1-1.264,1.072H81.405c-.213,0,.056.3.056.495v6.551c0,.194-.269.728-.056.728h7.55c.76,0,1.317.178,1.317.833v.78c0,.665-.557,1.091-1.317,1.091h-7.55c-.213,0,.056.28.056.48v7.905c0,.193-.269.741-.056.741h9.234l.207-.154c.726,0,1.262.311,1.262.978v.74a1.182,1.182,0,0,1-1.212,1.213l-12.288,0a1.51,1.51,0,0,1-1.552-1.442V88.681a1.7,1.7,0,0,1,1.5-1.694ZM73.384,100.845l.015.012a1.33,1.33,0,0,1,1.454,1.247v9.286a1.3,1.3,0,0,1-1.391,1.285H72.384a1.463,1.463,0,0,1-1.569-1.285V102.1a1.443,1.443,0,0,1,1.569-1.259ZM132.8,112.674h-7.58c-.966,0-1.54-.456-1.54-1.347V88.674a1.447,1.447,0,0,1,1.485-1.417l7.771-.006c5.639,0,8.731,3.464,8.731,8.208v8.906c0,5.179-3.174,8.3-8.867,8.309ZM97.98,100.845l.023.011a1.321,1.321,0,0,1,1.446,1.245v9.289c0,.736-.834,1.284-1.639,1.284H96.732c-.808,0-.954-.548-.954-1.284V102.1c0-.732.144-1.248.954-1.256Zm2.8-13.858a1.575,1.575,0,0,1,1.362.969l5.316,17.7,5.4-17.672a1.435,1.435,0,0,1,1.309-1h4l-.038.029a1.677,1.677,0,0,1,1.506,1.666V111.31A1.54,1.54,0,0,1,118,112.674h-.911a1.388,1.388,0,0,1-1.483-1.364V93.366c0-.149-.3-.143-.331-.046l-5.846,18.392a1.37,1.37,0,0,1-1.4.962H106.8a1.426,1.426,0,0,1-1.431-.969s-5.719-18.179-5.789-18.391c-.043-.131-.294-.089-.294.027l-.006,4.506a1.4,1.4,0,0,1-1.474,1.308H96.731a1.5,1.5,0,0,1-1.525-1.374l0-9.232a1.679,1.679,0,0,1,1.606-1.562Zm31.554,22.453c3.612,0,5.293-1.759,5.293-5.105V95.908c0-3.41-1.6-5.381-5.236-5.381l-4.179,0c-.21,0-.13.157-.13.349v18.2c0,.193-.08.352.13.352l4.122,0ZM61.27,86.987l-.057.029c.8,0,1.158.853,1.158,1.595v9.281c0,.736-.277,1.263-1.08,1.263h-1.08c-.82,0-1.878-.527-1.878-1.263V88.611a2.081,2.081,0,0,1,1.878-1.624ZM97.98,73.468l.016.086a1.6,1.6,0,0,1,1.453,1.567V84.4c0,.74-.84,1.235-1.645,1.235H96.728c-.8,0-.95-.5-.95-1.235V75.121c0-.736.144-1.639.95-1.653Zm5.874,0-.038.086a1.645,1.645,0,0,1,1.507,1.567V84.4a1.3,1.3,0,0,1-1.432,1.235h-1.074a1.394,1.394,0,0,1-1.532-1.235V75.121a1.76,1.76,0,0,1,1.532-1.653ZM85.866,59.949l-.1.143a1.681,1.681,0,0,1,1.569,1.54v9.281a1.818,1.818,0,0,1-1.7,1.541H84.557a1.418,1.418,0,0,1-1.26-1.541V61.632c0-.734.454-1.669,1.26-1.683Z"/></g></g></svg>