<?xml version="1.0" encoding="utf-8"?> <svg xmlns="http://www.w3.org/2000/svg" viewBox="0 0 200 200"><title>Asset 254</title><g id="Layer_2" data-name="Layer 2"><g id="Layer_1-2" data-name="Layer 1"><g id="bay"><path d="M29.151,98.591a2.081,2.081,0,0,0-2.167-2.015H21.378v7.609h5.7a2.407,2.407,0,0,0,1.477-4.18A1.908,1.908,0,0,0,29.151,98.591ZM22.9,97.716h3.843a.911.911,0,0,1,.79.952.9.9,0,0,1-.79.951H22.9Zm3.942,4.947H22.9v-1.9h3.942a.909.909,0,0,1,.879.951A.9.9,0,0,1,26.842,102.663Z"/><path d="M34.538,96.576l-3.811,7.609h1.721l.636-1.141h4.572l.64,1.141h1.719l-3.81-7.609Zm-.765,4.565,1.6-3.288,1.595,3.288Z"/><polygon points="47.63 112.175 42.304 112.175 42.304 110.653 47.63 110.653 47.63 108.75 42.304 108.75 42.304 107.609 47.63 107.609 47.63 105.707 40.782 105.707 40.782 113.696 47.63 113.696 47.63 112.175"/><path d="M48.477,82.808a2.377,2.377,0,0,0-.783-1.8,1.923,1.923,0,0,0,.6-1.422,2.1,2.1,0,0,0-2.166-2.038H40.782v7.61h5.437A2.382,2.382,0,0,0,48.477,82.808ZM42.3,78.693H45.89a.909.909,0,0,1,.786.951.9.9,0,0,1-.786.952H42.3Zm0,4.88V82.117h3.683c.534.01.837.2.837.7,0,.52-.4.706-.92.706Z"/><path d="M42,93.151h4.574l.638,1.522h1.722l-3.813-7.99H43.46l-3.812,7.99h1.721Zm2.29-4.429,1.594,3.288H42.7Z"/><polygon points="43.445 104.185 45.099 104.185 45.102 101.525 48.964 96.575 47.035 96.575 44.292 100.247 41.549 96.575 39.623 96.575 43.445 101.226 43.445 104.185"/><path d="M141.226,95.544l2.214.2c.671.079.83.616.633,1.4-.593,2.365-2.558,8.161-4.305,13.129h-.077c-1.816-4.946-3.4-9.139-4.854-13.286-.238-.713-.551-1.177.359-1.256l1.465-.187v-.871H127.91v.87c1.9.079,2.377.313,3.085,2.054,1.977,4.736,5.3,13.145,6.244,15.871a5.586,5.586,0,0,1,.338,1.935,8.573,8.573,0,0,1-.937,3.354c-.591,1.3-1.3,1.658-1.734,1.658-.393,0-.744-.117-1.457-.829a1.653,1.653,0,0,0-1.182-.55,2.25,2.25,0,0,0-1.738,2.21c0,.95,1.107,2.053,2.766,2.053,1.578,0,3.591-.474,5.608-6.319,2.445-7.029,5.934-16.661,7.153-19.425.714-1.579,1.258-1.894,2.78-2.012v-.869h-7.61Z"/><path d="M158.213,93.928c-6.182,0-9.117,4.4-9.117,10.341,0,6.262,2.7,10.1,9.155,10.027a7.463,7.463,0,0,0,7.225-4.36l-1.315-.689a5.608,5.608,0,0,1-5.117,3.04c-4.914,0-5.9-4.3-5.825-8.864h11.412c.831,0,1.588-.211,1.588-1.518C166.219,99.568,165.462,93.928,158.213,93.928Zm2.537,7.974h-7.492s.6-6.584,4.718-6.584c3.684,0,4.12,3.769,4.12,5.314C162.1,101.378,161.863,101.892,160.75,101.9Z"/><path d="M125.627,110.332h0V99.183c0-2.3-.5-5.276-6.492-5.276-4.482,0-8,2.341-8,4.523,0,1.268,1.448,1.865,2.2,1.865.832,0,1.036-.438,1.234-1.111.871-2.936,2.427-3.889,4.015-3.889,1.547,0,3.231.794,3.231,3.97v1.661c-.76,1.034-4.69,2.027-7.823,3.019a4.528,4.528,0,0,0-3.542,4.719,5.422,5.422,0,0,0,5.726,5.637c2.457-.082,4.671-1.556,5.938-2.387l.414,2.377,6.136-.99v-.991l-1.643-.2C126,111.954,125.627,111.758,125.627,110.332Zm-3.8-2.185a3.7,3.7,0,0,1-3.865,4.049c-2.461,0-3.578-1.748-3.578-4.087,0-1.862.765-2.817,2.987-3.646a27.121,27.121,0,0,0,4.456-1.908Z"/><path d="M48.3,117.921a2.36,2.36,0,0,0-2.3-2.322h-5.21v7.609h1.522v-3.043h2.523l2.253,3.043h1.935l-2.34-3.1A2.24,2.24,0,0,0,48.3,117.921ZM45.8,119.4H42.3v-2.283h3.5c.515,0,.871.625.871,1.143S46.313,119.4,45.8,119.4Z"/><path d="M180.415,93.928c-1.427,0-2.626.872-5.241,3.169l-.494-3.169-6.059.989v.991l1.542.171c1.031.159,1.3.332,1.3,1.76l0,15.857h3.712l.016-12.648c0-3.049,1.345-4.031,2.257-4.031a5.2,5.2,0,0,1,2.457.872,1.649,1.649,0,0,0,.792.2,2.089,2.089,0,0,0,1.818-2.221A1.91,1.91,0,0,0,180.415,93.928Z"/><polygon points="50.294 104.185 57.522 104.185 57.522 102.663 51.815 102.663 51.815 100.761 57.142 100.761 57.142 99.619 51.815 99.619 51.815 97.717 57.522 97.717 57.522 96.575 50.294 96.575 50.294 104.185"/><path d="M44.306,71.545A28.466,28.466,0,1,0,72.761,100,28.454,28.454,0,0,0,44.306,71.545Zm23.706,38.228A25.652,25.652,0,1,1,69.942,100,25.645,25.645,0,0,1,68.012,109.773Z"/><path d="M65.369,100.994a2.336,2.336,0,0,0,1.85-2.343A2.417,2.417,0,0,0,64.884,96.3l-4.7-.034v7.919h1.521v-3.424h1.761l2.252,3.424h1.922ZM64.72,100H61.708V97.717H64.72c.517,0,.874.626.874,1.143A1.1,1.1,0,0,1,64.72,100Z"/><path d="M99.755,98.86v-.081c3.8-.754,6.094-3.051,6.094-6.1a5.541,5.541,0,0,0-2.361-4.911c-1.542-1.028-3.81-1.459-6.918-1.462H84.916v1.221c3.424.238,3.424.319,3.424,2.537v20.051c0,2.219,0,2.3-3.424,2.538V113.7h12.49c6.024,0,9.713-2.129,9.713-7.637C107.119,101.384,103.941,99.371,99.755,98.86Zm-7.23-9.033h0c0-1.7.16-1.983,3.25-2.023,2.852-.04,6.084,1.116,6.084,5.2,0,3.875-2.461,5.469-6.6,5.477H92.525Zm3.845,22.65c-3.169,0-3.844-.662-3.844-3.117V100h2.935c4.914,0,7.611,2.322,7.611,6.523C103.072,111.281,99.778,112.477,96.37,112.477Z"/></g></g></g></svg>