<?xml version="1.0" encoding="utf-8"?> <svg xmlns="http://www.w3.org/2000/svg" viewBox="0 0 200 200"><title>Asset 261</title><g id="Layer_2" data-name="Layer 2"><g id="Layer_1-2" data-name="Layer 1"><g id="aer"><path id="aer-2" data-name="aer" d="M62.42,105.725a1.217,1.217,0,0,1-1.528.148c-.889-.593.149-1.883.149-1.883,1.63-2.747,1.111-4.486,1.111-4.486-.223-3.412-4.15-3.08-4.15-3.08H17.4s-1.111-.343-.592.916c0,0,.963,2.778,3.186,2.778H52.816s.922.1.888.813c-.027.6-.888.665-.888.665H19.324s-1.111-.159-.593,1.1c0,0,.964,2.957,3.186,2.957h28.6s1.037-.261,1.037.4-1.112.333-1.112.333H21.473a1.16,1.16,0,0,0-.592,1.662s.963,3.51,3.184,3.51H53.334s1.47,3.217,5.864,1.969l-1.27,2.834h2.3l3.49-8.5h13.7l3.408,8.5h2.223L70.9,86.085l-8.475,19.64Zm2.161-.067L70.87,91.083l5.882,14.575Zm7.242-21.486,12.929,32.2H88.53L73.711,79.557ZM94.936,98.107a7.6,7.6,0,0,0-7.944,7.771c0,4.65,3.574,7.756,8.028,7.756a7.659,7.659,0,0,0,6.235-2.952l-2.621-2a4.685,4.685,0,0,1-3.958,1.8,3.718,3.718,0,0,1-3.96-3.714h11v-.609C101.717,101,99.048,98.107,94.936,98.107Zm-4.22,6.073a3.618,3.618,0,0,1,3.81-3.52c2.3,0,3.717,1.3,3.747,3.52Zm21.228-6.063a4.559,4.559,0,0,0-4.352,2.737h-.7V98.639h-3.325v14.406h3.325v-7.709a4.6,4.6,0,0,1,4.726-3.719C111.63,101.617,111.944,98.117,111.944,98.117Zm7.191,0a7.765,7.765,0,1,0,8,7.761A7.642,7.642,0,0,0,119.135,98.117Zm0,12.191a4.431,4.431,0,1,1,4.334-4.43A4.272,4.272,0,0,1,119.135,110.308Zm20.629-9.812h.142a5.95,5.95,0,0,0-4.8-2.281c-4.549,0-7.27,3.34-7.27,7.709s2.832,7.878,7.045,7.878a6.173,6.173,0,0,0,4.515-1.734v8.375h4.063V98.65h-3.694Zm-3.92,9.812a4.431,4.431,0,1,1,4.339-4.43A4.275,4.275,0,0,1,135.844,110.308Zm19.065-3.755c0,1.97-.875,3.755-3.293,3.755-2.568,0-2.618-2.706-2.618-4.333V98.65h-3.693v9.167c0,3.018,1.5,5.638,5.441,5.638,2.129,0,3.531-.768,4.284-2.246h-.121v1.847h4.063V98.65h-4.063v7.9Zm6.28-7.9h3.694v14.406h-3.694Zm2.169-7.383a2.208,2.208,0,1,0,2.394,2.2A2.264,2.264,0,0,0,163.358,91.267Zm12.728,6.927a5.591,5.591,0,0,0-5.047,2.67h-.247V98.65H167.1v21.793h3.693v-8.866h.463a6.7,6.7,0,0,0,4.984,2.169c4.189,0,7.094-3.407,7.094-7.776s-2.721-7.776-7.247-7.776Zm-.735,12.114a4.432,4.432,0,1,1,4.314-4.43A4.263,4.263,0,0,1,175.351,110.308Z"/></g></g></g></svg>