<?xml version="1.0" encoding="utf-8"?> <svg xmlns="http://www.w3.org/2000/svg" viewBox="0 0 200 200"><title>Asset 259</title><g id="Layer_2" data-name="Layer 2"><g id="Layer_1-2" data-name="Layer 1"><path id="agr" d="M101.151,110.952c-2.938,0-6.7-.557-8.814-1.873-3.168-1.971-4.22-5.742-4.22-9.308,0-3.386,1.263-6.929,4.22-8.83,2.905-1.869,5.746-1.893,8.814-1.893h.287c2.958,0,5.713.082,8.527,1.893,2.957,1.9,4.22,5.444,4.22,8.83,0,3.566-1.052,7.337-4.22,9.308-2.133,1.326-5.876,1.873-8.814,1.873ZM60.6,99.435v11.5c-5.313.043-14.948,0-14.948,0-7.269-.033-8.342-8.1-8.365-10.751-.024-2.7,1.225-10.773,8.365-10.767,0,0,9.7.008,14.948.055V93.3s-7.083-.063-10.979-.089a23.635,23.635,0,0,0-3.969.089c-2.012.592-2.828,4.471-2.824,6.7,0,2.476.84,7.153,2.824,7.153.058,0,8.667.072,9.2,0v-4.267H47.568v-3.45Zm-22.93,11.5H31.1l-2.193-4.216H18.61L16.8,110.934H9.849L19.886,89.47h7.748Zm120.233,0h-6.564l-2.195-4.216h-10.3l-2.192,4.216h-6.568L140.121,89.47h7.747L157.9,110.934Zm6.186-21.464v21.464h-5.367V89.47Zm9.2,21.464h-5.366V89.47h6.929l9.936,14.838V89.47h5.366v21.464h-6.464l-10.4-15.987ZM135.725,93.3h-8.049v17.632H122.31V93.3h-8.433V89.47h21.848V93.3Zm-66.31,17.632H63.666V89.47H83.754c1.17.334,1.822,1.954,2.173,2.906a11.266,11.266,0,0,1,.067,8.052c-.365.916-1.053,2.24-2.24,2.279,3.7.913,3.074,5.287,2.97,8.226h-5.53c.032-1.71.924-8.024-2.58-8.048h-9.2Zm31.736-4.3c8.2,0,7.3-5.521,7.293-6.868s.027-6.819-7.208-6.893h-.085c-7.321.032-7.283,5.541-7.293,6.894S93.751,106.639,101.151,106.639ZM23.761,95.381l-3.464,7.5h6.927Zm120.233,0-3.465,7.5h6.93ZM79.321,93.3H69.415v6.133h10.3C80.663,98.177,80.73,94.012,79.321,93.3Z"/></g></g></svg>