<?xml version="1.0" encoding="utf-8"?> <svg xmlns="http://www.w3.org/2000/svg" viewBox="0 0 200 200"><title>Asset 240</title><g id="Layer_2" data-name="Layer 2"><g id="Layer_1-2" data-name="Layer 1"><g id="int"><path d="M63.126,85.72c5.319-.935,11.1-1.713,17.257-2.307l.894-4.517c-6.747.513-13.138,1.258-19.045,2.206a9.17,9.17,0,0,1,.919,4.019Z"/><path d="M74.406,99.109a15.625,15.625,0,0,0,.382-2.8,2.962,2.962,0,0,0-3-3.228c-3.739,0-7.893,4.814-9.563,7.968h-.214l1.293-5.458.452-2.281-5.341.21L58.312,95.2l1.469.2-.388,2.921-1.71,8.632-1.217,4.964h3.59l1.4-6.921c1.324-2.349,5.613-8.85,8.483-8.85.866,0,1.287.723,1.287,1.527a8.748,8.748,0,0,1-.175,1.378l-1.609,7.9-1.181,4.964h5.511l.105-1.614-1.464-.151.382-3.141Z"/><path d="M80.964,90.218l-.659,3.475H78.384l-.326,1.4H79.92l-2.132,11.061a11.372,11.372,0,0,0-.307,2.182,3.939,3.939,0,0,0,4.184,4.117,6.556,6.556,0,0,0,2.792-.623l.418-2.107a3.975,3.975,0,0,1-2.162.624,1.754,1.754,0,0,1-1.919-1.8,11.859,11.859,0,0,1,.245-1.91l2.266-11.548h4.26l.422-1.4H83.655l.875-4.376Z"/><path d="M107.273,82.084l.777-3.955q-2.523-.04-5.044-.038c-5.612,0-11.093.155-16.379.455l-.877,4.4c6.818-.519,14.031-.822,21.523-.867Z"/><path d="M101.605,96.637c0-2.237-1.724-3.526-3.857-3.526-5.026,0-11.172,5.337-11.182,12.957h0c.008,3.814,2.236,6.388,5.623,6.388,3.272,0,6.385-1.571,9.074-3.348l.456-2.341c-1.925,1.5-5.214,3.383-7.661,3.383-2.682,0-4.159-2.165-4.159-4.786v-.625C98.308,104.528,101.605,100.128,101.605,96.637Zm-5.232-1.431A2.078,2.078,0,0,1,98.5,97.442c0,1.814-1.845,5.59-8.268,5.9C90.509,100.3,92.817,95.206,96.373,95.206Z"/><path d="M109.827,95.594l.492-2.295-5.315.22-.139,1.683,1.436.209-.353,2.727-1.645,8.356-1.328,5.42h3.6l.865-4.5a11.819,11.819,0,0,1,.909-2.643,43.341,43.341,0,0,1,3.507-5.173,9.781,9.781,0,0,1,3.263-2.75,5.505,5.505,0,0,1,.81-.258l.638-3.183c-3.191,1.118-6.409,5.071-7.911,7.68l-.187-.033h.064Z"/><polygon points="54.408 98.344 55.633 93.311 50.081 93.523 49.975 95.194 51.443 95.395 51.057 98.312 49.454 106.494 48.122 111.914 53.677 111.914 53.781 110.302 52.31 110.154 52.798 107.013 54.408 98.344"/><path d="M159.028,89.313l-3.569.9-.66,3.478h-2.2l-.416,1.4h2.233l-2.129,11.065a11.157,11.157,0,0,0-.316,2.183,3.942,3.942,0,0,0,4.193,4.12,6.6,6.6,0,0,0,2.792-.625l.418-2.11a3.973,3.973,0,0,1-2.163.626,1.755,1.755,0,0,1-1.92-1.8,12.34,12.34,0,0,1,.239-1.911l2.278-11.552h4.256l.418-1.4h-4.328Z"/><path d="M137.905,105.364v-.623c8.41-.211,11.784-4.614,11.784-8.108,0-2.236-1.677-3.525-3.814-3.525-5.031,0-11.16,5.34-11.17,12.961,0,3.811,2.242,6.395,5.629,6.395,3.292,0,6.4-1.572,9.085-3.354l.456-2.343c-1.922,1.506-5.281,3.387-7.725,3.387C139.458,110.154,137.905,107.991,137.905,105.364ZM144.537,95.2a2.08,2.08,0,0,1,2.125,2.24c0,1.814-1.845,5.59-8.285,5.9C138.664,100.3,140.972,95.2,144.537,95.2Z"/><path d="M53.949,91.148a6.029,6.029,0,1,0-6.021-6.029A6.022,6.022,0,0,0,53.949,91.148Z"/><path d="M175.5,90.406c-11.681-6.5-34.773-11.189-62.2-12.134l-.761,3.819c26.2.256,49.1,3.643,62.747,8.675C176.067,91.053,176.222,90.819,175.5,90.406Z"/><path d="M114.453,120.985c-1.706.018-3.426.037-5.158.037a295.251,295.251,0,0,1-34.122-1.893C48.491,116,30.059,109.3,30.059,101.549c0-4.405,5.947-8.463,15.98-11.729a9.191,9.191,0,0,1-1.287-4.7c0-.091,0-.173,0-.259C30.906,88.794,22.4,94.126,22.4,100c0,9.414,21.837,17.44,52.491,20.536a280.863,280.863,0,0,0,28.113,1.372q5.668,0,11.336-.214C120.135,121.429,119.6,120.923,114.453,120.985Z"/><path d="M135.361,93.107l-3.981.415a3.15,3.15,0,0,1,1.3,2.585c0,2.451-2.338,5.563-3.846,7.375L125.3,107.71a43.977,43.977,0,0,0-1.23-9.22,9.443,9.443,0,0,0-2.281-3.822,6.4,6.4,0,0,0-2.9-1.473l-.727,3.623a4.155,4.155,0,0,1,2.355,2.3c.683,1.8.346,1.792.706,3.7a44.153,44.153,0,0,1,.561,7.722v1.5l2.088,0h0l7.081-8.592,3.381-4.373a6.335,6.335,0,0,0,1.566-3.949A4.158,4.158,0,0,0,135.361,93.107Z"/></g></g></g></svg>