<?xml version="1.0" encoding="utf-8"?> <svg xmlns="http://www.w3.org/2000/svg" viewBox="0 0 200 200"><title>Asset 231</title><g id="Layer_2" data-name="Layer 2"><g id="Layer_1-2" data-name="Layer 1"><path id="spr" d="M46,125H42V100h3.306a18.9,18.9,0,0,1-.2,3h.515a6.341,6.341,0,0,1,6.016-3.646c4.41,0,6.838,2.972,6.838,8.285,0,6.193-3.473,9.911-9.677,9.911a14.577,14.577,0,0,1-2.8-.211Zm78.3,0c13.938-4.6,34.139-15.3,48.193-24.865,1.174-.8,2.1-1.546,2.1-2.842,0-2.261-4.2-5.289-6.24-6.5C157.3,102.127,135.294,119.1,124.3,125Zm-94.336-7.273a20.281,20.281,0,0,1-4.839-.561l.214-3.61a15.588,15.588,0,0,0,4.98.874c2.634,0,4.767-1.084,4.767-3.645,0-4.98-10.494-2.874-10.494-10.52,0-4.067,3.238-6.905,8.823-6.905a26.394,26.394,0,0,1,4.34.42l-.214,3.4a15.317,15.317,0,0,0-4.34-.666c-2.987,0-4.517,1.367-4.517,3.33,0,4.734,10.494,2.98,10.494,10.379C39.178,114.566,35.7,117.718,29.964,117.727Zm76.7-.172c-3.583-.005-4.66-1.371-4.66-5.056V103H99v-3h3V94.46l4-1.017V100h4v3h-4v8.206c.086,2.595.62,3.3,2.4,3.3a5.708,5.708,0,0,0,1.6-.281v2.969A17.737,17.737,0,0,1,106.66,117.555ZM70.5,103.453c-3.711-.641-5.5,1.871-5.5,7.273V117H61V100h3.812a23.519,23.519,0,0,1-.374,4h.077c.82-2.436,2.691-4.691,6.168-4.363ZM77,117H73V100h4Zm9,0H82V100h3.668a21.284,21.284,0,0,1-.251,3.317l.036.035a6.56,6.56,0,0,1,6.223-3.694c4.064,0,5.324,2.429,5.324,5.438V117H93V105.779c0-2.173-.584-3.435-2.539-3.435-2.573,0-4.461,2.769-4.461,6.24Zm51.231-1.622c6.108-6.281,17.183-20.539,22.11-31.993,2.063,1.233,4.921,3.006,4.921,5.425,0,1.474-.736,2.291-1.731,3.7C158.309,98.5,145.841,109.5,137.231,115.378ZM50.376,102.685c-2.848,0-4.376,3.3-4.376,6.276v5.367a9.558,9.558,0,0,0,2.774.349c3.024,0,5.088-1.822,5.088-6.522C53.862,104.662,52.766,102.7,50.376,102.685Zm93.422,3.727c2.69-7.085,5.116-23.275,5.057-30.184,3.151,1.765,5.569,4.086,5.569,7.413,0,6.364-4.678,15.226-10.626,22.771Zm1.259-7.277a59.287,59.287,0,0,0-.958-21.457c-.773-2.984-3.5-6.354-6.028-7.406A168.658,168.658,0,0,1,145.057,99.135ZM75.389,97.356a2.352,2.352,0,1,1,0-4.7,2.351,2.351,0,1,1,0,4.7Z"/></g></g></svg>