<?xml version="1.0" encoding="utf-8"?> <svg xmlns="http://www.w3.org/2000/svg" viewBox="0 0 200 200"><title>Asset 258</title><g id="Layer_2" data-name="Layer 2"><g id="Layer_1-2" data-name="Layer 1"><g id="app"><path d="M93.505,115.607V96.952c-1.961.048-3.531.1-5.492.144v1.095a.785.785,0,0,0,.619.784,2.771,2.771,0,0,1,.98.248c.477.358.362,1.079.362,1.62v14.763c0,.466.035,1.057-.4,1.345-.247.164-.482.1-.761.172-.7.17-.5.815-.5,1.6h7.153v-.713C95.467,116.431,93.505,118.116,93.505,115.607Z"/><path d="M86.872,105.575a7.051,7.051,0,0,0-4.551-2.211l-.658-.043a7.082,7.082,0,0,0-3.734.909l-.531.352-.37-.374v-.546l-4.4.136c0,.52-.021,1.33.5,1.649a2.393,2.393,0,0,0,.56.224c.357.129.2.643.2.95v14.7c0,.258.22.517.214.776-.011.525-.074.8-.606.872a.864.864,0,0,0-.785,1V125h6.631c0-.414.166-1.48-.325-1.843-.276-.2-.88-.168-1.2-.218a.99.99,0,0,1-.79-.961v-3.992a99.243,99.243,0,0,0,.466-10.468c0-.313.135-.625.137-.937,0-.07.066-.141.066-.211,0-.155.468-.356.589-.427a4.374,4.374,0,0,1,4.588,0c1.807,1.268,2.067,3.9,1.94,5.923-.1,1.6-.488,3.462-1.829,4.5a3.674,3.674,0,0,1-2.065.726l-.371,0c-.123-.005-.246-.014-.368-.029-.237-.03-.6-.181-.931-.233l-.191-.018a.587.587,0,0,0-.326.078c-.435.279-.278,1.076-.2,1.487l0,.025a7.731,7.731,0,0,0,2.743.622l.707,0a7.217,7.217,0,0,0,2.07-.413,6.915,6.915,0,0,0,3.855-3.541A9.049,9.049,0,0,0,86.872,105.575Z"/><path d="M78.4,70.607a8.207,8.207,0,0,0,1.624-3.446,18.12,18.12,0,0,0,.372-2.095,2.58,2.58,0,0,0,.023-1.159c-.186-.433-1.029.572-1.175.67a2.4,2.4,0,0,1-1.029.286,9.751,9.751,0,0,0-4.262,1.578,7.335,7.335,0,0,0-2.691,5.35A5.648,5.648,0,0,0,74,72.28,5.438,5.438,0,0,0,78.4,70.607Z"/><path d="M70.935,105.575a7.028,7.028,0,0,0-4.5-2.2l-.648-.044a6.967,6.967,0,0,0-3.692.905l-.529.351-.225-.374v-.546l-4.809.136c0,.33.082.668.111,1,.048.545.58.726,1.045.822.441.184.514.541.514,1v9.3a4.138,4.138,0,0,1-.7-.29,5.713,5.713,0,0,1-2.166-2.238,24.949,24.949,0,0,1-1.769-4.016c-.366-.98-.717-1.963-1.074-2.945l-2-5.551-1.655-4.635-1.047-2.928a4.445,4.445,0,0,0-.712-1.584c-.449-.459-1.149.228-1.526.5h0c-.551.393-1.3.743-1.591,1.387a1.636,1.636,0,0,0,.1,1.184c.033.1.17.32.134.422q-.178.506-.356,1.011-.912,2.588-1.823,5.173L38,112.789a13.054,13.054,0,0,1-.915,2.2,2.65,2.65,0,0,1-1.145,1.175c-.185.082-.484.127-.664.224a1.225,1.225,0,0,0-.614,1.1v.843h7.013c0-.785.15-1.392-.3-1.887-.271-.3-.663-.314-1.029-.43-.522-.164-.522-.6-.444-1.072a13.779,13.779,0,0,1,.464-1.761c.1-.326.208-.723.316-1.047.012-.04.33-1.257.374-1.257h8.658c.131,0,.278.734.316.843a12.028,12.028,0,0,0,1.84,3.553,9.531,9.531,0,0,0,3.114,2.608,9.1,9.1,0,0,0,3.216.921v2.523c0,.258-.006.518-.011.776-.011.528-.353.8-.886.873a1.1,1.1,0,0,0-1.064.995V125h7.322c0-.414.166-1.48-.325-1.843a2.909,2.909,0,0,0-1.154-.218.947.947,0,0,1-.743-.961v-3.992a95.817,95.817,0,0,0,.32-10.468c0-.313.109-.625.11-.937,0-.07.054-.141.054-.211,0-.154.46-.356.581-.427a4.337,4.337,0,0,1,4.567,0c1.806,1.268,2.059,3.9,1.931,5.923-.1,1.581-.479,3.405-1.775,4.453a3.638,3.638,0,0,1-2.014.764l-.365.012c-.121,0-.243-.007-.364-.018a4.259,4.259,0,0,1-.894-.181c-.055-.017-.111-.034-.169-.048l-.173-.03a.529.529,0,0,0-.336.074c-.434.281-.277,1.074-.2,1.487l.007.025a7.726,7.726,0,0,0,2.742.622l.707,0a7.244,7.244,0,0,0,2.069-.413,6.919,6.919,0,0,0,3.857-3.541A9.027,9.027,0,0,0,70.935,105.575Zm-28.951,2.948a5.1,5.1,0,0,1,.524-1.58q.552-1.6,1.119-3.189.885-2.505,1.78-5.005l.012-.035,1.747,4.948,1.638,4.861Z"/><path d="M57.431,91.94a14.863,14.863,0,0,0,1.907,3.253A7.858,7.858,0,0,0,62.8,97.708a9.519,9.519,0,0,0,5.563.148,8.876,8.876,0,0,1,3.521-.625c1.57.256,3.236.647,4.772,0a10.186,10.186,0,0,0,3.326-2.589A22.939,22.939,0,0,0,81.9,92.281a14.841,14.841,0,0,0,1.59-13.989,7.813,7.813,0,0,0-3.1-3.827,6.112,6.112,0,0,0-2.168-.759,7.1,7.1,0,0,0-2.816.3,8.369,8.369,0,0,1-3.148.257A9.026,9.026,0,0,1,69.413,73.2c-1.689-.879-3.355-1.978-5.3-2.166-3.163-.3-6.129,2.2-7.4,4.931-1.47,3.153-1.5,6.939-.951,10.31A23.462,23.462,0,0,0,57.431,91.94Z"/><path d="M108.4,108.8a8.509,8.509,0,0,0-1.2-3.041,4.871,4.871,0,0,0-2.676-1.87,6.662,6.662,0,0,0-1.391-.232h0l-.468-.012a7.344,7.344,0,0,0-5.07,2.116l-.427.47a8.716,8.716,0,0,0-1.082,9.13,7.171,7.171,0,0,0,6.744,3.7l.588-.03q.292-.025.587-.069a8.545,8.545,0,0,0,3.984-1.594l.04-.03c-.173-.436-.486-1.014-1-1.085l-.153,0a5.8,5.8,0,0,0-1.1.4,5.873,5.873,0,0,1-1.175.223l-.4.02a5.04,5.04,0,0,1-3.985-1.682,6.027,6.027,0,0,1-1.371-3.095,51.549,51.549,0,0,0,5.3-1.526A37.183,37.183,0,0,0,108.4,108.8Zm-6.266.7q-.874.228-1.755.424l-1.77.364c.052-1.947.7-5.022,3.174-5.034l.3.013a2.737,2.737,0,0,1,1.849.868,5.1,5.1,0,0,1,1.022,2.164c.024.089.046.178.068.269.038.158-.188.157-.321.2-.276.087-.552.17-.829.252Q103.008,109.276,102.132,109.5Z"/><path d="M154.053,100.794a1.449,1.449,0,0,0-1.358-1.149,1.253,1.253,0,1,0,.208,2.48,3.251,3.251,0,0,1-.793,2.077l-.093.11.46.463C153.487,103.749,154.5,102.316,154.053,100.794Z"/><path d="M165.182,113.351c-.925-3.223-5.161-2.985-7.473-4.549a1.885,1.885,0,0,1,.035-3.287,3.427,3.427,0,0,1,1.9-.483c.452.017,1.354.1,1.354.723a1.722,1.722,0,0,0,.309,1.553,2.16,2.16,0,0,0,2.16.428c1.566-.531,1.312-2.4.162-3.216a6.47,6.47,0,0,0-3.663-.955,7.914,7.914,0,0,0-4.034,1.089,4.162,4.162,0,0,0-2.175,3.521h0c0,3.656,4.169,3.967,6.7,5.169a3.031,3.031,0,0,1,1.581,1.4,2.1,2.1,0,0,1-.207,2.031c-.839,1.153-2.625,1.4-3.936,1.19-.545-.086-1.19-.327-1.19-.978,0-.445.251-.785.074-1.237a1.562,1.562,0,0,0-.763-.78c-1.344-.7-3.3.177-2.925,1.875.276,1.25,1.687,1.867,2.787,2.2a10.062,10.062,0,0,0,3.965.395,7.073,7.073,0,0,0,4.2-1.852A4.34,4.34,0,0,0,165.182,113.351Z"/><path d="M152,108.8a8.511,8.511,0,0,0-1.2-3.041,4.866,4.866,0,0,0-2.675-1.87,6.748,6.748,0,0,0-1.392-.232h0l-.468-.012-.469.02a7.352,7.352,0,0,0-4.6,2.1,8.674,8.674,0,0,0-1.51,9.6,7.172,7.172,0,0,0,6.744,3.7l.589-.03c.195-.017.391-.04.586-.069a8.552,8.552,0,0,0,3.986-1.594l.036-.03c-.153-.437-.5-1.015-1-1.085l-.154,0a5.735,5.735,0,0,0-1.1.4,5.892,5.892,0,0,1-1.177.223l-.4.02a5.04,5.04,0,0,1-3.983-1.682,6.028,6.028,0,0,1-1.372-3.095,51.67,51.67,0,0,0,5.3-1.525A37.506,37.506,0,0,0,152,108.8Zm-8.022,1.128-1.768.364c.047-1.951.7-5.034,3.173-5.034h0l.3.013a2.742,2.742,0,0,1,1.85.868,5.093,5.093,0,0,1,1.02,2.163c.024.09.046.179.068.268.038.158-.188.157-.322.2q-1.275.4-2.57.734Q144.856,109.727,143.975,109.926Z"/><path d="M136.376,105.349a5.382,5.382,0,0,0-4.363-1.805,7.363,7.363,0,0,0-5.127,2.105,8.336,8.336,0,0,0-2.335,6.089,6.973,6.973,0,0,0,7.37,7.2,9.354,9.354,0,0,0,5.488-1.7l.036-.03-.016-.044c-.086-.211-.547-1.25-1.313-1.01a6.042,6.042,0,0,1-2.67.611,5.28,5.28,0,0,1-5.294-4.77,44.8,44.8,0,0,0,9.4-3.184l.074-.033.2-.1-.07-.292A7.274,7.274,0,0,0,136.376,105.349Zm-8.46,4.822c.018-.768.267-5.024,3.212-5.024,2.182,0,2.884,1.625,3.3,3.4A55.19,55.19,0,0,1,127.916,110.171Z"/><path d="M118.315,103.5a9.387,9.387,0,0,0-5.587.835V97.021l-4.852.135c0,.578-.053,1.382.556,1.681a3.57,3.57,0,0,0,.746.191c.43.115.412.564.412.952v18.948c.392,0,.782.081,1.054-.144.418-.347.9-.693,1.314-1.038.209-.174.221-.23.466-.072a9.146,9.146,0,0,0,1.381.711,7.72,7.72,0,0,0,2.785.632,7.061,7.061,0,0,0,6.82-4.651,8.983,8.983,0,0,0-1.349-8.8A7.064,7.064,0,0,0,118.315,103.5Zm-.273,13a4.4,4.4,0,0,1-2.32.6,7.539,7.539,0,0,1-2.994-1.038v-9.718c0-.049.47-.186.518-.215.276-.158.641-.313.931-.446a4.3,4.3,0,0,1,1.713-.385,3.7,3.7,0,0,1,3.248,1.727,6.967,6.967,0,0,1,.91,3.169C120.206,112.3,119.967,115.206,118.042,116.5Z"/></g></g></g></svg>