<?xml version="1.0" encoding="utf-8"?> <svg xmlns="http://www.w3.org/2000/svg" viewBox="0 0 200 200"><title>Asset 250</title><g id="Layer_2" data-name="Layer 2"><g id="Layer_1-2" data-name="Layer 1"><path id="cre" d="M25.84,110.124a11.321,11.321,0,0,1-4.625.931c-4.855,0-8.016-3.289-8.016-8.242a8.2,8.2,0,0,1,8.649-8.574,9.242,9.242,0,0,1,4.059.863L25.24,97.33a7.179,7.179,0,0,0-3.392-.763c-3.692,0-5.69,2.756-5.69,6.113,0,3.722,2.4,6.016,5.588,6.016a8.446,8.446,0,0,0,3.6-.764Zm3.469-10.385c0-1.893-.034-3.365-.135-5.437h2.562l.134,3.8h.1c.734-2.072,2.5-3.691,4.461-3.691.3,0,.424-.138.769-.071v2.725a8.914,8.914,0,0,0-1-.067c-2.064,0-3.43,1.563-3.833,3.722a9.973,9.973,0,0,0,0,1.4v9.109H29.275Zm13.555,3.405c.066,3.956,2.562,5.586,5.49,5.586a11.122,11.122,0,0,0,4.457-.8l.532,2.059a13.086,13.086,0,0,1-5.391,1.03c-4.922,0-7.915-3.289-7.915-8.111,0-4.883,2.893-8.7,7.584-8.7,5.255,0,6.62,4.618,6.62,7.576a7.239,7.239,0,0,1-.1,1.4Zm8.549-1.936c.035-1.726-.762-4.753-4.025-4.753-3,0-4.258,3.027-4.489,4.753Zm19.282,5.627a38.111,38.111,0,0,0,0,4.388h-2.63L67.8,108.46h-.1a5.722,5.722,0,0,1-4.926,2.494c-3.259,0-5.066-2.243-5.066-4.569,0-3.889,3.661-5.966,9.532-5.931v-.332c0-1.331-.219-3.755-3.512-3.723a7.52,7.52,0,0,0-4.153,1.2l-.629-1.96a10.969,10.969,0,0,1,5.46-1.4c4.956,0,6.288,3.356,6.288,6.581v6.015Zm-3.453-4.354c-2.763-.066-6.639.5-6.639,3.621a2.629,2.629,0,0,0,2.815,2.793,3.886,3.886,0,0,0,3.825-2.691,2.886,2.886,0,0,0,0-.932ZM78.637,90.75V94.3H82.09V97.41H78.637v8.095c0,1.994.524,3.124,2.154,3.124a5.3,5.3,0,0,0,1.674-.2l.127,2.226a8.046,8.046,0,0,1-2.6.4,4.38,4.38,0,0,1-3.247-1.23,6.276,6.276,0,0,1-1.215-4.22v-8.2H73.112V94.3h2.417V91.647Zm8.183,1.135a1.922,1.922,0,0,1-1.829-2.012,1.879,1.879,0,1,1,3.757.03,1.906,1.906,0,0,1-1.894,1.982Zm-1.276,19.338V94.3h2.762v16.921ZM94.967,94.3l3.157,9.16a43.212,43.212,0,0,1,1.3,4.308h.1c.366-1.382.831-2.814,1.366-4.308l3.124-9.16h3.063l-6.324,16.921H97.958L91.837,94.3Zm15.552,8.842c.067,3.956,2.562,5.586,5.49,5.586a11.116,11.116,0,0,0,4.456-.8l.534,2.059a13.092,13.092,0,0,1-5.39,1.03c-4.926,0-7.918-3.289-7.918-8.111,0-4.883,2.895-8.7,7.587-8.7,5.255,0,6.621,4.618,6.621,7.576a7.346,7.346,0,0,1-.1,1.4l-11.276-.034Zm8.551-1.936c.032-1.726-.767-4.753-4.024-4.753-3,0-4.259,3.027-4.493,4.753Zm34.5-2.251c0-1.694.05-2.583-.046-4.655h2.6l.162,3.453h.069a5.487,5.487,0,0,1,5.161-3.253c2.226,0,5.526,1.065,5.526,6.582v10.139h-2.763v-9.806c0-2.593-.884-4.786-3.647-4.786a4.61,4.61,0,0,0-4.3,4.355v10.237h-2.762Zm20.221,4.187c.065,3.956,2.562,5.586,5.487,5.586a11.129,11.129,0,0,0,4.461-.8l.53,2.059a13.058,13.058,0,0,1-5.386,1.03c-4.924,0-7.92-3.289-7.92-8.111,0-4.883,2.893-8.7,7.584-8.7,5.253,0,6.62,4.618,6.62,7.576a7.809,7.809,0,0,1-.1,1.4Zm8.548-1.936c.034-1.726-.763-4.753-4.024-4.753-2.99,0-4.258,3.027-4.49,4.753ZM138.707,97.2l-6.829,2.068.414-5.066a45.07,45.07,0,0,0,6.1-2.453,20.262,20.262,0,0,0,5.374-3.435,12.917,12.917,0,0,0-6.255-1.6,13.343,13.343,0,0,0-1.389,26.589l2.581-16.1Zm7.156-7.455-3.881,22.824a13.413,13.413,0,0,0,3.881-22.824Z"/></g></g></svg>