<?xml version="1.0" encoding="utf-8"?> <svg xmlns="http://www.w3.org/2000/svg" viewBox="0 0 200 200"><title>Asset 233</title><g id="Layer_2" data-name="Layer 2"><g id="Layer_1-2" data-name="Layer 1"><g id="rhe"><path d="M104.527,92.218c-2.16,0-5.066,3.793-5.066,10.676,0,10.021,2.511,11.579,5.362,11.579,2,0,4.2-1.98,4.341-7.838h-3.082c-.106,1.958-.449,2.972-1.555,2.972-1.249,0-1.625-1.8-1.683-5.7h6.438l.019-1.185C109.3,93.811,106.986,92.218,104.527,92.218Zm-1.631,8.814c.164-2.73.682-3.978,1.631-4.008,1.152-.038,1.494,1.133,1.574,4.008Z"/><path d="M132.648,92.018a3.082,3.082,0,0,0-3.042,1.62,2.527,2.527,0,0,0-2.066-1.62c-.986,0-2.754.506-2.754,1.013V91.8h-3.031V114.05h3.031V97.181a1.373,1.373,0,0,1,1.313-1.418,1.326,1.326,0,0,1,1.339,1.418V114.05h2.653V97.283c0-1.013.461-1.419,1.149-1.419a1.3,1.3,0,0,1,1.124,1.419V114.05H135.4V95.663C135.4,94.346,134.515,92.018,132.648,92.018Z"/><path d="M115.786,92.218c-2.16,0-5.066,3.793-5.066,10.676,0,10.021,2.511,11.579,5.362,11.579,2,0,4.2-1.98,4.342-7.838h-3.086c-.1,1.958-.447,2.972-1.552,2.972-1.25,0-1.625-1.8-1.682-5.7h6.439l.016-1.185C120.559,93.811,118.244,92.218,115.786,92.218Zm-1.631,8.814c.163-2.73.679-3.978,1.632-4.008,1.151-.038,1.491,1.133,1.571,4.008Z"/><path d="M99.592,56.77c-23.18,0-41.97,19.355-41.97,43.23s18.79,43.23,41.97,43.23S141.56,123.876,141.56,100,122.769,56.77,99.592,56.77Zm0,83.475c-21.58,0-39.075-18.019-39.075-40.247A40.945,40.945,0,0,1,68.18,76.161c.517-.432.91.154.91.457v46.408h4.547V108.958c0-.708.4-1.223.89-.717l14.8,17.907h5.847l-16.8-20.337c9.729-6.377,9.081-18.415,5.8-24.466-3.732-6.882-10.809-5.958-14.642-6.057-.344,0-.427-.363-.231-.616a39.651,39.651,0,0,1,18.367-12.96V114.05h3.41V97.977a1.848,1.848,0,0,1,1.993-1.924,1.765,1.765,0,0,1,1.8,1.924V114.05h3.411V97.268c0-1.923-1.253-6.783-7.149-5.062l-.138-31.444a37.551,37.551,0,0,1,8.679-1.011c21.576,0,39.036,18.02,39.036,40.247S121.178,140.233,99.589,140.245ZM73.6,101.965l.036-.013V80.117c0-.708.493-1.013,1.18-.911,3.833,0,7.812,3.845,7.812,12.146s-5.373,10.933-6.747,11.54S73.6,102.774,73.6,101.965Z"/></g></g></g></svg>