<?xml version="1.0" encoding="utf-8"?> <svg xmlns="http://www.w3.org/2000/svg" viewBox="0 0 200 200"><title>Asset 251</title><g id="Layer_2" data-name="Layer 2"><g id="Layer_1-2" data-name="Layer 1"><path id="boe" d="M28.811,118.56a24.646,24.646,0,0,1-6.884-6.772,23.918,23.918,0,0,1-3.789-12.8,23.465,23.465,0,1,1,41.83,14.582c-1.335,1.681-2.63,2.667-5.594,4.992V104.817h2.593v9.392a21.366,21.366,0,0,0,3.329-4.746,21.856,21.856,0,0,0,2.629-10.527,21.342,21.342,0,1,0-42.682.15c0,5.486,1.9,10.329,5.974,15.123v-9.392H28.81V118.56Zm4.816,2.373a8.12,8.12,0,0,1-2.593-1.04V104.817h2.593Zm4.446,1.233a4.813,4.813,0,0,1-1.321-.246c-.249-.051-.161-.051-1.273-.247V89.256h2.594Zm4.446.2c0,.049-.21.049-.7.049a4.23,4.23,0,0,1-1.149-.049V89.256h1.853Zm4.816-.742a12.153,12.153,0,0,1-2.223.593V89.256h2.223Zm.13-33.805-5.882-4.549L35.7,87.817l-1.285-1.682,7.168-5.584,7.167,5.584Zm4.686,32.076a23.876,23.876,0,0,1-2.593,1.088V104.817h2.593ZM78.085,85.181V79.068a3.048,3.048,0,0,1,1.519-.3c1.781,0,2.811,1.1,2.811,3.082,0,2.322-.992,3.327-3.121,3.327H78.085Zm-1.162-7.41H74.01v1.1l1.482.3V93.55l-1.482.3v.6h6.275a9.943,9.943,0,0,0,3.261-.176,4.14,4.14,0,0,0,2.669-3.992c0-2.421-1.385-4-3.954-4.541,2.026-.989,2.964-2.2,2.964-3.925,0-2.522-1.876-4.139-4.694-4.139-.2,0-.791.025-1.533.076Zm1.162,8.521h1.062c2.866,0,4.2,1.258,4.2,3.679A3.515,3.515,0,0,1,79.6,93.787a2.285,2.285,0,0,1-1.519-.337Zm15-3.815c-2.966,0-4.992,2.671-4.992,6.526,0,3.608,1.928,6.078,4.745,6.078,2.966,0,4.992-2.618,4.992-6.522,0-3.659-1.928-6.082-4.745-6.082m-.1,1.187c1.383,0,2.173,1.632,2.173,4.6,0,3.706-.79,5.586-2.273,5.586-1.383,0-2.175-1.78-2.175-4.944,0-3.312.842-5.239,2.275-5.239m15.42,4.851c-.05-4.075-1.384-6.033-4.153-6.033-2.864,0-4.6,2.493-4.6,6.6,0,3.855,1.68,5.991,4.647,5.991,1.929,0,2.817-.637,4.053-2.861l-1.088-.442c-.74,1.136-1.384,1.539-2.274,1.539-1.779,0-2.618-1.456-2.865-4.791ZM102.13,87.4c.3-2.593.889-3.706,2.026-3.706s1.631.743,1.729,3.706Zm-22.563,32.6v-.952l-1.111-.3V104.374l1.111-.3v-1.114H74.01v1.163l1.482.247v14.433l-1.482.3v.9Zm12.967,0v-.952l-1.111-.3V111.1c0-2.028-1.1-3.214-2.976-3.214-1.086,0-1.841.3-3.323,1.435V107.41h-.788l-2.916,1.215v.989l1.111.2v9l-1.111.3v.9h4.816v-.952l-1.112-.3V110.7a3.164,3.164,0,0,1,2.323-1.087c.938,0,1.382.641,1.382,2.026v7.216l-1.111.246v.9Zm11.485-10.744v-1.181l-1.987-.3h-.445c-.2.371-.4.224-.445.224a3.2,3.2,0,0,1-1.088-.109,5.618,5.618,0,0,0-1.581-.2,4.048,4.048,0,0,0-4.1,4.125,3.63,3.63,0,0,0,2.027,3.421c-1.582.987-2.226,1.783-2.226,2.674,0,.691.4,1.14,1.384,1.535-1.432.94-1.925,1.582-1.925,2.57,0,1.535,1.729,2.524,4.4,2.524,3.559,0,5.881-1.682,5.881-4.3,0-1.83-1.088-2.717-3.41-2.819l-2.965-.146c-.742-.05-1.038-.2-1.038-.493s.345-.693.939-1.088a4.21,4.21,0,0,0,5.485-3.882,4.144,4.144,0,0,0-.888-2.549Zm-5.448-.49c1.187,0,1.778,1.038,1.778,3.214,0,1.828-.541,2.769-1.679,2.769-1.185,0-1.681-.941-1.681-3.017,0-2.026.495-2.966,1.582-2.966M97.83,119.7c3.805.246,4.35.444,4.35,1.484,0,1.184-1.532,2.025-3.56,2.025-1.631,0-2.618-.641-2.618-1.729a2.259,2.259,0,0,1,.889-1.829Zm10.034-7.1c.3-2.594.94-3.706,2.076-3.706s1.632,1.112,1.68,3.706Zm13.2-18.154V93.8l-1.111-.248V86.086c0-2.224-1.073-3.362-3-3.362a4.586,4.586,0,0,0-3.3,1.435v-7.5h-.8l-3.281.677v.842l1.482.3V93.549l-1.482.3v.6h5.187V93.8l-1.111-.248V85.591c1.111-.838,1.53-1.087,2.272-1.087,1.037,0,1.433.644,1.433,2.423V93.6l-1.112.247v.6Zm5.187-12.226h-.64l-3.065,1.2v.792l1.482.247V93.55l-1.482.3v.6H128.1V93.8l-1.853-.248V87.075A2.95,2.95,0,0,1,127.856,85l1.321.693a1.909,1.909,0,0,0,.96-1.482,1.357,1.357,0,0,0-1.476-1.434c-.888,0-1.3.445-2.413,2.125Zm7.466-5.521a1.582,1.582,0,1,0,1.583,1.581,1.56,1.56,0,0,0-1.583-1.581m2.537,17.747V93.8l-1.111-.248V82.587h-.635l-3.07.93v.84l1.482.3v8.9l-1.482.3v.6h4.816Zm-22.06,19.265a15.129,15.129,0,0,0-.347-3.011,3.745,3.745,0,0,0-3.854-2.939c-2.867,0-4.6,2.434-4.6,6.537,0,3.808,1.681,6.035,4.647,6.035,1.928,0,2.965-.737,4.1-2.861l-1.088-.445c-.742,1.138-1.383,1.531-2.323,1.531-1.779,0-2.62-1.513-2.868-4.847Zm6.5,6.3v-.952l-1.111-.3v-16.9h-.793l-2.912.742v.841l1.111.15v15.221l-1.482.3v.9Zm12.967,0v-.952l-1.111-.3v-7.61c0-2.026-1.123-3.163-2.952-3.163a4.537,4.537,0,0,0-3.347,1.432v-7.563h-.689l-3.016.742v.841l1.112.247v15.124l-1.482.3v.9h5.187v-.952l-1.112-.3v-7.908c1.112-.839,1.581-1.136,2.272-1.136,1.038,0,1.433.644,1.433,2.421v6.723l-1.111.247v.9Zm10.387-6.3a15.264,15.264,0,0,0-.348-3.011,3.746,3.746,0,0,0-3.854-2.939c-2.867,0-4.6,2.434-4.6,6.537,0,3.808,1.681,6.035,4.647,6.035,1.929,0,2.964-.737,4.1-2.861l-1.088-.445c-.742,1.138-1.383,1.531-2.323,1.531-1.779,0-2.619-1.513-2.866-4.847Zm-6.327-1.111c.3-2.594.938-3.706,2.075-3.706s1.631,1.112,1.682,3.706ZM161,82.825l-2.076-.039h-.443a2.132,2.132,0,0,0-.445.094,3.735,3.735,0,0,1-1.088-.176,6,6,0,0,0-1.58-.238,4.036,4.036,0,0,0-4.1,4.109,3.62,3.62,0,0,0,2.026,3.413c-1.583.989-2.225,1.78-2.225,2.621,0,.691.4,1.186,1.384,1.581-1.384.89-1.927,1.583-1.927,2.571,0,1.533,1.729,2.522,4.4,2.522,3.558,0,5.881-1.681,5.881-4.3,0-1.829-1.088-2.717-3.41-2.816l-2.965-.148c-.742-.051-1.039-.2-1.039-.544,0-.247.347-.644.941-1.037a3.988,3.988,0,0,0,1.332.2,3.926,3.926,0,0,0,4.151-3.921,3.411,3.411,0,0,0-.89-2.389H161v-1.5ZM153.78,94.39c4.9.3,5.29.395,5.29,1.532s-1.533,2.027-3.558,2.027c-1.632,0-2.62-.643-2.62-1.73A2.261,2.261,0,0,1,153.78,94.39Zm1.78-4.893c-1.186,0-1.679-.939-1.679-3.015,0-2.027.493-2.965,1.581-2.965,1.186,0,1.778,1.038,1.778,3.212,0,1.829-.543,2.768-1.68,2.768Zm-6.342,4.946V93.8l-1.111-.3V85.839c0-2.026-1.1-3.212-2.978-3.212-1.086,0-1.468.3-3.32,1.433V82.217h-.532L138.1,83.368v.988l1.852.2v9l-1.852.3v.6h5.187V93.8l-1.482-.3V85.444c1.111-.792,1.58-1.088,2.323-1.088.938,0,1.381.642,1.381,2.026V93.6l-1.111.248v.6Zm18.453-1.08c-1.781,0-2.619-1.355-2.868-4.736h6.278c-.05-4-1.384-6.089-4.152-6.089-2.866,0-4.6,2.466-4.6,6.569,0,3.854,1.681,5.977,4.646,5.977,1.928,0,2.817-.643,4.053-2.869l-1.087-.445C169.2,92.907,168.559,93.363,167.671,93.363Zm-.84-9.672c1.135,0,1.63.94,1.728,3.706H164.8c.3-2.459.89-3.706,2.028-3.706Zm9.8-1.474h-.561l-3.144,1.2v.79l1.482.247V93.55l-1.482.3v.6h5.558V93.8l-1.482-.247V87.076A2.729,2.729,0,0,1,178.466,85l1.25.693a1.86,1.86,0,0,0,.922-1.482,1.4,1.4,0,0,0-1.534-1.434c-.89,0-1.358.445-2.47,2.125V82.217ZM148.393,101.9a1.655,1.655,0,0,0-1.68,1.632,1.558,1.558,0,0,0,1.582,1.578,1.645,1.645,0,0,0,1.633-1.628,1.584,1.584,0,0,0-1.534-1.582m9.716,18.1h-5.557m11.485,0h-4.816m9.767-1.25v-7.265c0-2.471-.858-3.508-2.982-3.508-1.287,0-2.11.444-3.4,1.631a3.088,3.088,0,0,0-2.817-1.582,4.994,4.994,0,0,0-3.408,1.431v-1.779h-.53l-3.159.941v.838l1.536.249V118.8l-1.536.3v.878h5.225v-.927l-1.229-.3V110.8c.922-.84,1.374-1.137,2.167-1.137,1.087,0,1.521.693,1.521,2.224V118.8l-1.229.3v.878h4.918v-.927l-1.229-.3v-7.907a3.07,3.07,0,0,1,2.263-1.187c1.038,0,1.425.643,1.425,2.274V118.8l-1.229.3v.878h5.226v-.927l-1.537-.3Zm-17.918,1.25v-.952l-1.482-.3V107.78h-.5l-3.2.992v.791l1.482.3v8.945l-1.482.3v.9"/></g></g></svg>