<?xml version="1.0" encoding="utf-8"?> <svg xmlns="http://www.w3.org/2000/svg" viewBox="0 0 200 200"><title>Asset 243</title><g id="Layer_2" data-name="Layer 2"><g id="Layer_1-2" data-name="Layer 1"><g id="for"><path d="M75.476,94.72c1.991-5.909-2.337-6.386-4.863-6.386l.164-.08h-4.21l-7.284,22.024h3.948L66.592,100h.056l.109,10.278h4.159l-.158-9.841A9.69,9.69,0,0,0,75.476,94.72Zm-3.849-.167c-.6,1.783-1.76,3.255-3.563,3.255l-.676-.263,1.941-5.987h.528C71.875,91.558,72.144,92.991,71.627,94.553Z"/><polygon points="77.949 91.925 81.049 91.925 75.118 109.721 79.069 109.9 84.998 91.925 88.125 91.925 89.479 88.254 79.301 88.254 77.949 91.925"/><path d="M57.879,88.3c-3.522,0-8.047,3.042-10.782,11.165s-.256,11.152,3.267,11.152,8.047-3.044,10.78-11.162S61.407,88.3,57.879,88.3Zm-.946,11.155c-.583,1.724-2.607,7.2-5.233,7.2s-.97-5.476-.386-7.2c.646-1.923,2.61-7.2,5.233-7.2S57.588,97.5,56.933,99.453Z"/><polygon points="43.678 92.568 47.703 92.467 49.056 88.254 41.08 88.254 33.798 110.278 37.748 110.278 40.768 101.101 44.401 101.101 45.753 97.156 42.121 97.236 43.678 92.568"/><polygon points="149.372 110.278 157.494 110.278 158.849 105.873 154.737 105.873 156.388 101.468 159.965 101.468 161.33 97.43 157.75 97.43 159.348 91.925 163.404 91.925 164.769 88.311 156.704 88.71 149.372 110.278"/><path d="M155.19,77.345c-14.868-5.827-34.614-9.035-55.6-9.035s-40.731,3.209-55.6,9.035c-15.2,5.955-23.566,14-23.566,22.661s8.369,16.7,23.566,22.654c14.868,5.823,34.614,9.03,55.6,9.03h.024c20.991,0,40.724-3.209,55.583-9.032,15.193-5.953,23.56-14,23.56-22.652S170.388,83.3,155.19,77.345Zm-.8,43.252c-14.614,5.726-34.067,8.88-54.776,8.88h-.023c-20.717,0-40.177-3.154-54.793-8.879-14.29-5.6-22.16-12.911-22.16-20.593s7.87-15,22.16-20.6c14.618-5.728,34.077-8.882,54.793-8.882s40.174,3.154,54.792,8.882c14.291,5.6,22.161,12.916,22.161,20.6S168.676,115,154.39,120.6Z"/><path d="M151.048,98.165h-6.439l-1.333,3.67h2.507c-.5,1.835-1.789,4.636-3.795,4.636-2.9,0-1.381-4.723-.637-6.956.678-2.032,2.719-7.358,5.327-7.188,1.5,0,1.253,1.694,1.079,2.775l4.361-1.6c.177-3.062-1.118-5.121-4.149-5.121-5.622,0-9.192,6.265-10.851,11.253-1.595,4.777-1.933,11.025,3.424,11.025s8.418-6.172,9.945-10.746Z"/><path d="M117.867,88.386c-3.478,0-7.937,3.029-10.618,11.135s-.228,11.136,3.252,11.136,7.939-3.034,10.619-11.136S121.348,88.386,117.867,88.386Zm-.912,11.135c-.565,1.712-2.554,7.182-5.15,7.182s-.966-5.465-.4-7.182c.637-1.924,2.563-7.188,5.153-7.188S117.593,97.6,116.955,99.521Z"/><path d="M100.244,88.745l-.1-.124H97.3l-7.215,21.657h3.518c6.218,0,9.9-4.379,11.96-10.538C109.6,87.694,100.935,88.745,100.244,88.745Zm1.4,10.918c-.9,2.691-3.21,6.985-6.328,6.814l4.651-13.913C103.215,92.565,102.556,96.913,101.64,99.663Z"/><path d="M130.112,88.745l.129-.124h-3.077l-7.181,21.657h3.5c6.186,0,9.85-4.38,11.9-10.535C139.4,87.694,130.792,88.745,130.112,88.745Zm1.363,10.918c-.9,2.686-3.188,6.979-6.293,6.814L129.81,92.56C133.047,92.56,132.387,96.913,131.475,99.663Z"/></g></g></g></svg>