<?xml version="1.0" encoding="utf-8"?> <svg xmlns="http://www.w3.org/2000/svg" viewBox="0 0 200 200"><title>Asset 249</title><g id="Layer_2" data-name="Layer 2"><g id="Layer_1-2" data-name="Layer 1"><path id="eat" d="M53.937,116.667l3.255-9.355H45.28v-2.863H58.1l2.97-8.947H45.28V93.354H61.922l3.137-10.021H33.334v33.284H53.758m102.379-12.168L149.4,83.333H131.6v33.284h11.175V95.5h.24l6.651,21.115h17V83.333h-10.79v21.116Zm-34.772,3.759a6.809,6.809,0,0,0,7.09-6.636,6.956,6.956,0,0,0-6.915-7,7.121,7.121,0,0,0-7.108,7,6.668,6.668,0,0,0,6.933,6.636m-5.949-24.875H81.889V93.354h10.79v23.263h17.142a18.853,18.853,0,0,1-8.182-15.312,18.394,18.394,0,0,1,13.835-17.926M70.646,108.028l-2.933,8.589H84.928l-2.754-8.589Zm5.873-18.4,3.289,10.527H73.086Z"/></g></g></svg>