<?xml version="1.0" encoding="utf-8"?> <svg xmlns="http://www.w3.org/2000/svg" viewBox="0 0 200 200"><title>Asset 236</title><g id="Layer_2" data-name="Layer 2"><g id="Layer_1-2" data-name="Layer 1"><path id="nov" d="M140.9,123.566v-.29a2.186,2.186,0,0,0,1.061-.693,1.583,1.583,0,0,0,.374-1,.351.351,0,0,0-.06-.211.125.125,0,0,0-.092-.058.98.98,0,0,0-.32.133.571.571,0,0,1-.251.058.663.663,0,0,1-.712-.716.733.733,0,0,1,.25-.555.862.862,0,0,1,.606-.23,1.031,1.031,0,0,1,.781.379,1.435,1.435,0,0,1,.344,1,1.968,1.968,0,0,1-.477,1.261,3.149,3.149,0,0,1-1.5.918Zm30.227-8.337h-.2a3.8,3.8,0,0,0-1.175-1.964,2.887,2.887,0,0,0-1.833-.6,3,3,0,0,0-1.619.45,2.969,2.969,0,0,0-1.14,1.438,6.331,6.331,0,0,0-.414,2.456,5.12,5.12,0,0,0,.392,2.1,2.915,2.915,0,0,0,1.177,1.363,3.407,3.407,0,0,0,1.8.473,3.134,3.134,0,0,0,1.547-.372,5.068,5.068,0,0,0,1.473-1.479l.206.132a4.694,4.694,0,0,1-1.581,1.746,4.02,4.02,0,0,1-2.144.553,4.072,4.072,0,0,1-3.465-1.645,4.679,4.679,0,0,1-.917-2.882,5.078,5.078,0,0,1,.6-2.455,4.362,4.362,0,0,1,1.663-1.734,4.52,4.52,0,0,1,2.315-.616,4.241,4.241,0,0,1,1.926.476,1.094,1.094,0,0,0,.4.145.446.446,0,0,0,.311-.127,1.034,1.034,0,0,0,.248-.494h.231l.2,3.035Zm-65.167-3.035A4.122,4.122,0,0,1,109,113.512a4.532,4.532,0,0,1,1.285,3.3,4.657,4.657,0,0,1-1.294,3.374,4.353,4.353,0,0,1-6.258.034,4.668,4.668,0,0,1-1.267-3.389,4.5,4.5,0,0,1,1.461-3.469,4.347,4.347,0,0,1,3.034-1.164Zm67.9,7.851a.714.714,0,0,1,.524.214.732.732,0,0,1,0,1.034.745.745,0,0,1-1.043,0,.706.706,0,0,1-.218-.517.689.689,0,0,1,.218-.521A.71.71,0,0,1,173.855,120.045Zm-132.547-7.4h-.32a.927.927,0,0,0-.81.342,1.976,1.976,0,0,0-.147.961v7.522h-.237l-5.939-7.187v5.5a1.808,1.808,0,0,0,.181,1.028,1.023,1.023,0,0,0,.777.275h.318v.243H32v-.243h.312a.926.926,0,0,0,.816-.342,1.976,1.976,0,0,0,.147-.961v-6.206a4.262,4.262,0,0,0-.6-.6,2.223,2.223,0,0,0-.593-.268,2.126,2.126,0,0,0-.585-.059V112.4h2.443l5.5,6.693v-5.147a1.756,1.756,0,0,0-.186-1.027.989.989,0,0,0-.774-.276h-.313V112.4h3.135Zm36.92,0h-.319a.933.933,0,0,0-.811.342,2.009,2.009,0,0,0-.145.961v7.522h-.239l-5.936-7.187v5.5a1.822,1.822,0,0,0,.179,1.028,1.019,1.019,0,0,0,.776.275h.319v.243H68.917v-.243h.312a.929.929,0,0,0,.819-.342,2.009,2.009,0,0,0,.145-.961v-6.206a4.27,4.27,0,0,0-.595-.6,2.253,2.253,0,0,0-.593-.268,2.137,2.137,0,0,0-.587-.059V112.4h2.446l5.5,6.693v-5.147a1.76,1.76,0,0,0-.184-1.027,1,1,0,0,0-.777-.276h-.313V112.4h3.136Zm83.957,0h-.319a.926.926,0,0,0-.81.342,1.976,1.976,0,0,0-.147.961v7.522h-.238l-5.935-7.187v5.5a1.824,1.824,0,0,0,.178,1.028,1.018,1.018,0,0,0,.775.275h.321v.243h-3.136v-.243h.313a.926.926,0,0,0,.817-.342,1.98,1.98,0,0,0,.146-.961v-6.206a4.162,4.162,0,0,0-.595-.6,2.253,2.253,0,0,0-.593-.268,2.126,2.126,0,0,0-.585-.059V112.4h2.443l5.5,6.693v-5.147a1.756,1.756,0,0,0-.186-1.027.991.991,0,0,0-.777-.276h-.311V112.4h3.134Zm-41.4,0h-.314a.931.931,0,0,0-.812.342,2,2,0,0,0-.146.961v7.522h-.24l-5.936-7.187v5.5a1.808,1.808,0,0,0,.181,1.028,1.013,1.013,0,0,0,.775.275h.319v.243h-3.135v-.243h.311a.93.93,0,0,0,.819-.342,2,2,0,0,0,.145-.961v-6.206a4.162,4.162,0,0,0-.595-.6,2.187,2.187,0,0,0-.594-.268,2.109,2.109,0,0,0-.583-.059V112.4h2.444l5.5,6.693v-5.147a1.775,1.775,0,0,0-.185-1.027.991.991,0,0,0-.776-.276h-.312V112.4h3.131v.243Zm31.088,0h-.325a.955.955,0,0,0-.8.323,1.864,1.864,0,0,0-.169,1.014v5.764a2.864,2.864,0,0,0,.087.894.588.588,0,0,0,.277.283,1.266,1.266,0,0,0,.606.158h.325v.244h-3.859v-.243h.32a.963.963,0,0,0,.808-.322,1.97,1.97,0,0,0,.161-1.013v-5.765a2.947,2.947,0,0,0-.086-.895.594.594,0,0,0-.273-.282,1.262,1.262,0,0,0-.61-.16h-.32V112.4h3.86Zm-120.88,0h-.325a.963.963,0,0,0-.8.323,1.927,1.927,0,0,0-.165,1.014v5.764a2.95,2.95,0,0,0,.085.894.589.589,0,0,0,.281.283,1.253,1.253,0,0,0,.6.158h.325v.244H27.135v-.243h.318a.97.97,0,0,0,.811-.322,1.984,1.984,0,0,0,.16-1.013v-5.765a2.894,2.894,0,0,0-.088-.895.574.574,0,0,0-.272-.282,1.269,1.269,0,0,0-.611-.16h-.318V112.4h3.857Zm69.306,0h-.325a.964.964,0,0,0-.8.323A1.91,1.91,0,0,0,99,113.978v5.764a2.845,2.845,0,0,0,.089.894.579.579,0,0,0,.277.283,1.264,1.264,0,0,0,.6.158h.326v.244H96.441v-.243h.317a.965.965,0,0,0,.81-.322,1.984,1.984,0,0,0,.16-1.013v-5.765a2.947,2.947,0,0,0-.086-.895.588.588,0,0,0-.274-.282,1.24,1.24,0,0,0-.61-.16h-.317V112.4H100.3Zm-37.032,8.68h-3.86v-.244h.338a.915.915,0,0,0,.819-.366,2.1,2.1,0,0,0,.137-.969v-5.764a1.8,1.8,0,0,0-.185-1.048.979.979,0,0,0-.771-.289h-.338V112.4h3.282a7.783,7.783,0,0,1,2.114.208,2.425,2.425,0,0,1,1.156.763,1.97,1.97,0,0,1,.475,1.326,2.078,2.078,0,0,1-.543,1.429,3.048,3.048,0,0,1-1.677.853l1.859,2.56a4.732,4.732,0,0,0,1.1,1.174,2.809,2.809,0,0,0,1.2.366v.244h-2.4l-3.047-4.172c-.226.009-.412.013-.553.013-.057,0-.12,0-.186-.005s-.133,0-.2-.008v2.594a1.81,1.81,0,0,0,.187,1.047.961.961,0,0,0,.757.287h.352Zm18.449,0H78.88v-.244a1.549,1.549,0,0,0,.731-.256,4.04,4.04,0,0,0,.75-1.284l3.166-7.344h.233l3.135,7.423a3.394,3.394,0,0,0,.687,1.161,1.4,1.4,0,0,0,.861.3v.244H84.889v-.244a1.32,1.32,0,0,0,.727-.177.46.46,0,0,0,.191-.369,2.735,2.735,0,0,0-.266-.915L85,118.334H81.509l-.612,1.409a2.227,2.227,0,0,0-.223.777.447.447,0,0,0,.193.357,1.729,1.729,0,0,0,.848.2Zm42.56,0h-2.837v-.244a1.535,1.535,0,0,0,.731-.256,4.036,4.036,0,0,0,.752-1.284l3.166-7.344h.232l3.136,7.423a3.378,3.378,0,0,0,.687,1.161,1.388,1.388,0,0,0,.86.3v.244h-3.551v-.244a1.335,1.335,0,0,0,.726-.177.462.462,0,0,0,.188-.369,2.679,2.679,0,0,0-.265-.915l-.546-1.282H124.07l-.611,1.409a2.127,2.127,0,0,0-.227.777.449.449,0,0,0,.2.357,1.713,1.713,0,0,0,.846.2v.244Zm-28.865-6.83h-.253a2.492,2.492,0,0,0-.2-.789,1.336,1.336,0,0,0-.549-.564,1.928,1.928,0,0,0-.9-.181H92.242v6.818a1.811,1.811,0,0,0,.178,1.027,1.013,1.013,0,0,0,.777.275h.313v.244H89.69v-.244h.321a.911.911,0,0,0,.808-.342,1.955,1.955,0,0,0,.148-.96v-6.818H89.884a3.128,3.128,0,0,0-.9.092,1.222,1.222,0,0,0-.589.482,1.95,1.95,0,0,0-.293.96h-.252l.106-2.093h7.35Zm-45.589,0h-.252a2.47,2.47,0,0,0-.2-.789,1.351,1.351,0,0,0-.548-.564,1.942,1.942,0,0,0-.9-.181H46.654v6.818a1.811,1.811,0,0,0,.178,1.027,1.018,1.018,0,0,0,.777.275h.314v.244H44.1v-.244h.32a.917.917,0,0,0,.809-.342,2,2,0,0,0,.144-.96v-6.818H44.3a3.11,3.11,0,0,0-.9.092,1.239,1.239,0,0,0-.593.482,1.962,1.962,0,0,0-.29.96h-.253l.1-2.093h7.353Zm88.929,6.83h-6.97v-.244h.339a.9.9,0,0,0,.814-.366,2.079,2.079,0,0,0,.141-.977v-5.756a1.825,1.825,0,0,0-.185-1.048.98.98,0,0,0-.77-.289h-.339V112.4h4.076v.243a2.52,2.52,0,0,0-1,.133.825.825,0,0,0-.4.348,2.883,2.883,0,0,0-.1,1.007v5.6a1.811,1.811,0,0,0,.1.751.476.476,0,0,0,.248.2,4.311,4.311,0,0,0,1.034.066h.658a4.789,4.789,0,0,0,1.454-.153,1.89,1.89,0,0,0,.763-.535,4.465,4.465,0,0,0,.692-1.215l.217.048-.771,2.42Zm-80.917-6.969h-.26a3.012,3.012,0,0,0-.311-.969,1.065,1.065,0,0,0-.5-.4,3.012,3.012,0,0,0-.935-.1H53.355v3.527h1.978a1.62,1.62,0,0,0,1.03-.23,1.467,1.467,0,0,0,.386-1.065h.245v3.105h-.245a3.5,3.5,0,0,0-.186-.835.827.827,0,0,0-.392-.362,2.051,2.051,0,0,0-.837-.131H53.355v2.94a2.647,2.647,0,0,0,.054.722.417.417,0,0,0,.186.2,1.128,1.128,0,0,0,.5.075h1.528a4.183,4.183,0,0,0,1.11-.105,1.634,1.634,0,0,0,.664-.415,5.053,5.053,0,0,0,.844-1.23h.265l-.775,2.237H50.793v-.243h.319a1.285,1.285,0,0,0,.6-.151.567.567,0,0,0,.29-.316,3.165,3.165,0,0,0,.076-.863v-5.8a1.907,1.907,0,0,0-.174-1.048,1.029,1.029,0,0,0-.8-.263h-.319V112.4h6.941l.1,1.954Zm48-1.678a2.377,2.377,0,0,0-1.94.89,4.987,4.987,0,0,0-.91,3.236,5.261,5.261,0,0,0,.944,3.363,2.343,2.343,0,0,0,1.912.9,2.634,2.634,0,0,0,2.1-.982,4.772,4.772,0,0,0,.823-3.092,5.365,5.365,0,0,0-.909-3.417A2.466,2.466,0,0,0,105.831,112.674Zm21.538,5.173-1.527-3.607-1.568,3.607Zm-42.56,0-1.528-3.607-1.567,3.607ZM61.97,116.735l.218,0c.064,0,.113,0,.154,0a2.934,2.934,0,0,0,1.941-.554,1.754,1.754,0,0,0,.655-1.408,1.823,1.823,0,0,0-.528-1.357,1.887,1.887,0,0,0-1.4-.524,5.885,5.885,0,0,0-1.042.124v3.712ZM73.777,80.609A11.813,11.813,0,1,0,85.7,92.422c0-5.923-4.4-12.458-10.134-13.61L74.4,78.656c8.619.211,15.509,5.144,15.509,13.766a16.132,16.132,0,1,1-16.13-15.988v4.175Zm79.528-.037h-1.111a3.075,3.075,0,0,0-2.678,1.349,5.775,5.775,0,0,0-.455,2.9V95.907a18.211,18.211,0,0,1-.882,6.379,8.154,8.154,0,0,1-3.459,3.889A13.1,13.1,0,0,1,137.7,107.8q-4.827,0-7.33-1.552a8.546,8.546,0,0,1-3.547-4.17,21.54,21.54,0,0,1-.7-6.733V84.662q0-2.52-.748-3.305a3.233,3.233,0,0,0-2.429-.785h-1.107v-.748h12.749v.748h-1.131a3.035,3.035,0,0,0-2.612,1.066,5.6,5.6,0,0,0-.543,3.024v11.91a24.155,24.155,0,0,0,.316,3.648,7.374,7.374,0,0,0,1.14,3.2,6.1,6.1,0,0,0,2.383,1.894,8.774,8.774,0,0,0,3.818.746,11.207,11.207,0,0,0,5.176-1.171,6.482,6.482,0,0,0,3.124-2.991,16.13,16.13,0,0,0,.837-6.178V84.662c0-1.707-.2-2.773-.609-3.205a3.329,3.329,0,0,0-2.522-.885H142.86v-.748h10.445v.748Zm-46.551,27.205h-.8L94.9,84.218A12.632,12.632,0,0,0,93.7,82a3.738,3.738,0,0,0-1.338-.977,6.6,6.6,0,0,0-2.143-.453v-.748h12.053v.748a5.786,5.786,0,0,0-2.653.644,1.429,1.429,0,0,0-.61,1.189,8.589,8.589,0,0,0,1,3.145l7.506,16.02,6.963-15.821A9.96,9.96,0,0,0,115.5,82.5a1.5,1.5,0,0,0-.628-1.117,4.354,4.354,0,0,0-2.132-.756c-.075-.012-.2-.034-.371-.059v-.748h9.094v.748a5.007,5.007,0,0,0-2.372.926,8.3,8.3,0,0,0-2.043,3.024l-10.294,23.255Zm48.171,0h-.8v-9.37h.8a12.574,12.574,0,0,0,1.524,4.4,7.162,7.162,0,0,0,2.926,2.428,9.674,9.674,0,0,0,4.32.967,6.452,6.452,0,0,0,4.3-1.331,3.861,3.861,0,0,0,.977-5.178,6.263,6.263,0,0,0-1.86-1.914q-.846-.6-4.634-2.568a45.331,45.331,0,0,1-5.385-3.136,8.681,8.681,0,0,1-2.426-2.579,6.018,6.018,0,0,1-.826-3.1,6.511,6.511,0,0,1,2.436-5.07,9.087,9.087,0,0,1,6.2-2.127,13.257,13.257,0,0,1,4.982,1.07,5.443,5.443,0,0,0,1.719.5,1.352,1.352,0,0,0,.925-.314,2.4,2.4,0,0,0,.576-1.259h.805v9.455h-.805a11.188,11.188,0,0,0-1.4-4.335,7.1,7.1,0,0,0-2.884-2.558,8.484,8.484,0,0,0-3.872-.948,5.508,5.508,0,0,0-3.741,1.28,3.775,3.775,0,0,0-1.481,2.912,3.319,3.319,0,0,0,.935,2.278q1.352,1.511,6.419,4.03a45.25,45.25,0,0,1,5.644,3.153,7.9,7.9,0,0,1,2.33,2.59,6.42,6.42,0,0,1,.816,3.124,6.857,6.857,0,0,1-2.6,5.35,9.865,9.865,0,0,1-6.69,2.246,15.5,15.5,0,0,1-2.415-.18,26.68,26.68,0,0,1-2.8-.738,13.462,13.462,0,0,0-2.688-.633,1.2,1.2,0,0,0-.858.3,2.323,2.323,0,0,0-.469,1.251Zm-118.979-.623H25.676v-.746H26.7a3.138,3.138,0,0,0,2.677-1.047,5.761,5.761,0,0,0,.479-2.944v-19a13.282,13.282,0,0,0-1.948-1.833,7.5,7.5,0,0,0-1.947-.826,7.489,7.489,0,0,0-1.917-.18v-.748H32.05l18.037,20.5V84.561q0-2.52-.608-3.143a3.38,3.38,0,0,0-2.548-.846h-1.02v-.748H56.18v.748H55.136a3.11,3.11,0,0,0-2.656,1.047A5.72,5.72,0,0,0,52,84.561V107.6h-.782L31.768,85.59v16.826q0,2.517.586,3.144a3.428,3.428,0,0,0,2.546.847h1.046v.746ZM73.807,82.51c6.373.007,11.52,3.614,11.52,9.912a11.469,11.469,0,0,1-11.52,11.42l-.03,0a11.419,11.419,0,1,1,0-22.837c.009,0,.019,1.507.03,1.507-.011,0-.021,1.407-.03,1.408a8.5,8.5,0,1,0,0,17.008h.03a8.55,8.55,0,0,0,8.581-8.5C82.388,87.732,78.555,82.525,73.807,82.51Z"/></g></g></svg>