<?xml version="1.0" encoding="utf-8"?> <svg xmlns="http://www.w3.org/2000/svg" viewBox="0 0 200 200"><title>Asset 253</title><g id="Layer_2" data-name="Layer 2"><g id="Layer_1-2" data-name="Layer 1"><path id="bla" d="M57.733,123.546a7.3,7.3,0,0,1,12.627-5.152l-1.977,2.3a4.848,4.848,0,0,0-3.513-1.643c-2.305,0-3.951,1.973-3.951,4.494s1.535,4.5,3.951,4.5a5.093,5.093,0,0,0,3.624-1.646l1.975,2.082A7.193,7.193,0,0,1,64.761,131C60.7,131,57.735,127.715,57.733,123.546Zm99.583,0a7.3,7.3,0,0,1,12.627-5.152l-1.976,2.3a4.852,4.852,0,0,0-3.513-1.643c-2.305,0-3.954,1.973-3.954,4.494s1.649,4.5,3.954,4.5a4.9,4.9,0,0,0,3.622-1.646l1.979,2.082A7.048,7.048,0,0,1,164.344,131c-4.061,0-7.026-3.287-7.028-7.456Zm-85.225-6.985h2.752v6.108l6.278-6.108h3.732l-5.711,5.926,5.929,8.225H81.448l-4.62-6.1L74.843,126.4v4.315H72.091Zm-55.424,0h6.921a4.784,4.784,0,0,1,3.556,1.135,3.02,3.02,0,0,1,.922,2.342v.109a3.284,3.284,0,0,1-1.857,3.071c1.645.657,2.643,1.644,2.643,3.508v.109c0,2.631-1.971,3.877-5.045,3.877h-7.14Zm24.371,14.151H31.211V116.561h2.752v11.4h7.075Zm4.728,0H42.691l5.981-14.243.228.092h2.466L57.3,130.712H54.109L52.9,127.568H46.974Zm106.121,0h-2.752v-11.4h-4.324v-2.752h11.4v2.752h-4.324Zm-17.518,0h-3.074l5.9-14.243.153.092h2.737l5.927,14.151h-3.185l-1.317-3.144h-5.819Zm-4.5,0H119.261V116.561h9.827v2.752h-7.076v3.145h6.29v2.751h-6.29v2.752h7.862Zm-26.326-14.151h3.482l3.623,10.086,3.624-10.086h3.184l-5.489,14.151h-2.745l-5.679-14.151h-.01l-.028-.092Zm71.531,14.151h-3.145V116.561h3.145v5.9h5.5v-5.9h2.751v14.151h-2.751v-5.5h-5.5Zm-77.819-1.9a5.85,5.85,0,0,1-3.733,1.426c-2.418,0-4.283-1.426-4.283-3.837a3.641,3.641,0,0,1,2.11-3.62,5.6,5.6,0,0,1-1.181-2.63v-.109a3.911,3.911,0,0,1,4.148-3.507,3.54,3.54,0,0,1,3.774,3.4,3.582,3.582,0,0,1-2.558,3.509c1.647,1.756,1.685,1.756,1.685,1.756a11.448,11.448,0,0,0,1.225-2.3c2.087,1.2,2.1,1.2,2.1,1.2a14.769,14.769,0,0,1-1.642,2.85c1.865,1.865,1.867,1.865,1.867,1.865-2.086,1.537-2.084,1.537-2.084,1.537l-1.425-1.537Zm-73.453-.847c1.318,0,2.087-.282,2.087-1.375,0-.988-.66-1.377-2.2-1.377H19.812v2.752Zm71.915-.8L93.2,124.533a1.99,1.99,0,0,0-1.1,1.754,1.587,1.587,0,0,0,1.756,1.646A3.419,3.419,0,0,0,95.722,127.165Zm44.687-2.349-1.757-4.715-1.866,4.715Zm-88.6,0L49.939,120.1l-1.867,4.715ZM22.93,122.458c1.425,0,1.6-.777,1.6-1.762v-.109c0-.878-.063-1.273-1.381-1.273H19.811v3.144Zm72.9-2.311a1.243,1.243,0,0,0-1.2-1.315c-.77,0-1.209.549-1.209,1.425a2.892,2.892,0,0,0,.658,1.645C95.284,121.464,95.83,120.915,95.83,120.147ZM117.286,69a2.155,2.155,0,0,1,2.368,2.016v34.642a2.264,2.264,0,0,1-2.368,2.257h-39a2.179,2.179,0,0,1-2.263-2.257V71.015A2.062,2.062,0,0,1,78.285,69Zm-11.007,32.232,9.81-14.544h-6.1c-7.417,11.006-7.417,10.933-7.417,10.933l-3.109-5.43h2.272a4.283,4.283,0,0,0,4.338-4.317,4.188,4.188,0,0,0-1.431-3.416,3.767,3.767,0,0,0,1.223-3.277,4.45,4.45,0,0,0-4.684-4.188H82.7v15.2h7.663l-2.16-3.93V85.9h9.886a1.182,1.182,0,1,1,0,2.359H90.608l7.3,12.971ZM98.093,80.005a1.381,1.381,0,0,1,0,2.751H88.207V80.005Z"/></g></g></svg>