<?xml version="1.0" encoding="utf-8"?> <svg xmlns="http://www.w3.org/2000/svg" viewBox="0 0 200 200"><title>Asset 245</title><g id="Layer_2" data-name="Layer 2"><g id="Layer_1-2" data-name="Layer 1"><g id="pre"><path id="path2" d="M49.446,119.1C66.5,116.657,78.177,108.293,78.67,98.017c.17-4.031-1.994-7.213-5.389-10.4a44.675,44.675,0,0,0-6.619-4.71c.042-.043.127-.085.169-.127,9,4.158,12.73,9.632,13.07,14.894.636,10.267-12.515,19.686-31.57,21.64H47.78ZM76.464,98.7c-.127-4.922-3.31-9.335-8.359-12.517a12.967,12.967,0,0,1,4.625,6.576c2.631,8.784-5.262,19.052-18.034,24.441C67.426,114.905,76.676,107.394,76.464,98.7ZM52.023,85.627c-.087.042-.13.043-.212.085a3.643,3.643,0,0,0-.594.424,5.849,5.849,0,0,0-1.188,1.909c-.255.764-4.922,14.979-5.05,15.319-.169.509.3.806.891.721a4.288,4.288,0,0,0,2.334-.891,10.132,10.132,0,0,0,.976-.934,11.5,11.5,0,0,0,1.4-2.334c.085-.3.849-2.757.934-3.055.212-.679,2.461-7.426,2.545-7.595a3.887,3.887,0,0,0,.3-1.1,3.656,3.656,0,0,0,.085-.678,1.772,1.772,0,0,0-.891-1.825H63.607a5.14,5.14,0,0,1,.806.043,2.092,2.092,0,0,1,1.273.594,1.118,1.118,0,0,1,.339.976c-.042.212-.169.551-.254.806s-4.286,13.238-4.456,13.705a8.951,8.951,0,0,1-.382,1.146,3.616,3.616,0,0,1-.763.976,2,2,0,0,1-.849.424,3.388,3.388,0,0,1-1.06.128H45.955c-.551,0-1.358.042-1.57.763-.3.891-2.843,8.741-3.055,9.42a3.038,3.038,0,0,1-1.4,1.825,5.717,5.717,0,0,1-2.8.551H28.77c-.169-.042-.424,0-.466-.127-.085-.212.424-.509.551-.636A2.945,2.945,0,0,0,29.7,115.2c.127-.3,7.977-24.441,8.189-25.077a18,18,0,0,1,.637-2,7.576,7.576,0,0,1,.721-1.7,2.132,2.132,0,0,1,1.358-.764l.509-.042Zm75.232,19.858h-6.407l-.552,1.782h6.153l-1.146,3.819H119.15l-.551,1.824h7.128l-1.739,3.819H112.022l4.5-15.063h11.838l-1.1,3.819Zm46.675,11.244h-5.643l4.5-15.063h7.554c3.818,0,5.176,1.825,5.006,3.861a4.542,4.542,0,0,1-3.564,4.074c1.231.467,1.782,1.782,1.1,4.031a19.737,19.737,0,0,0-.763,3.1h-5.432a10.913,10.913,0,0,1,.722-3.437c.381-1.23.424-1.952-1.019-1.952H175.5V111.3Zm-72.007,0H96.279l4.5-15.063h7.553c3.819,0,5.177,1.825,5.007,3.861a4.544,4.544,0,0,1-3.564,4.074c1.231.467,1.782,1.782,1.1,4.031a19.737,19.737,0,0,0-.763,3.1h-5.432a10.913,10.913,0,0,1,.722-3.437c.381-1.23.424-1.952-1.019-1.952h-.891V111.3Zm64.115,0H154.072l4.5-15.063h11.838l-1.1,3.819H162.9l-.552,1.782H168.5l-1.146,3.819H161.2l-.551,1.824h7.128l-1.739,3.819Zm-35.007-.042h-5.007l4.5-15.063h8.02c-.382,1.74-1.189,5.643-1.655,7.723h.169c1.274-3.014,2.122-5.22,3.226-7.723h7.807l-4.5,15.063h-5.474l1.146-3.862c.637-2.036,1.655-5.346,2.292-7.255h-.128c-1.4,3.266-3.138,7.337-4.795,11.117H132.3c.807-4.371,1.316-7.256,2-11.032h-.17c-.424,1.782-1.146,4.54-1.91,7.086l-1.188,3.946Zm20.665,0h-5.771l4.5-15.063h5.771Zm-59.32-15.063c3.905,0,5.389,2.08,5.177,4.455-.255,3.225-2.886,5.516-7.129,5.516H87.836l-1.485,5.092H80.792l4.5-15.063ZM32.419,81.553c-7.256,2.292-18.967,7.85-18.585,18.882C14,104.382,16,108.031,19.392,111c.17,0,.425-.042.382-.254a3.558,3.558,0,0,0-.382-.934,7.3,7.3,0,0,1-.636-1.909,12.991,12.991,0,0,1-2.885-7.6c-.382-10.481,11.839-16.973,16.166-18.5C32.716,81.553,32.419,81.553,32.419,81.553Zm57.368,26.563a1.808,1.808,0,0,0,1.995-1.825c.085-.764-.255-1.188-1.231-1.23H89.83l-.934,3.055Zm88.641-3.055H177.41l-.849,2.843h.976a1.774,1.774,0,0,0,1.994-1.656.991.991,0,0,0-1.1-1.187ZM104.6,107.9h.976a1.773,1.773,0,0,0,1.994-1.656.99.99,0,0,0-1.1-1.187h-1.018ZM39.081,82.784c5.941-1.782,6.7-1.4,9.5-1.91-1.019-.381-4.455-.169-7.68.425-1.061.169-7.638,1.272-12.56,4.243-5.686,3.437-9.42,8.444-10.057,13.493A34.6,34.6,0,0,1,29.152,87.324,37.251,37.251,0,0,1,39.081,82.784ZM123.1,90.676h-2.843c0-.594-.213-1.146-1.443-1.146-.721,0-1.443.213-1.485.977-.043.594.509.764,1.782,1.23,2.419.764,3.225,1.74,3.1,3.225-.212,2.461-2.547,3.607-5.05,3.607-2.843,0-4.413-1.273-4.074-3.523h2.8c0,.934.552,1.443,1.74,1.443,1.1,0,1.57-.509,1.654-1.23.043-.679-.466-1.019-1.781-1.443-2.419-.764-3.14-1.655-3.013-2.97.17-1.91,1.825-3.4,4.667-3.4,2.967,0,4.155,1.523,3.947,3.225Zm6.661-3.013h1.995l-.679,2.164H129.08l-1.613,5.389c-.169.679-.169,1.1.679,1.1a6.792,6.792,0,0,0,.934-.043l-.594,2.037a6.274,6.274,0,0,1-1.91.212c-2.249,0-2.461-1.273-1.91-3.14l1.655-5.516h-1.612l.594-2.207h1.613l.891-2.885h2.8l-.849,2.885ZM100.947,98.356h-2.8l3.224-10.693h2.8Zm-11.245,0H86.817L91.06,84.142h9.548l-.722,2.376H93.225l-1.1,3.607H98.4L97.68,92.5H91.4Zm17.016-.042h-2.8l2.291-7.51c.339-1.061.636-2.207.891-3.183h2.716c-.043.255-.213,1.061-.467,1.952a6.035,6.035,0,0,1,4.709-2.291l-.891,2.673a5.52,5.52,0,0,0-5.049,3.734Zm-2.079-12.39h-2.8l.806-2.631h2.8Z"/></g></g></g></svg>