<?xml version="1.0" encoding="utf-8"?>
<!-- Generator: Adobe Illustrator 24.2.0, SVG Export Plug-In . SVG Version: 6.00 Build 0)  -->
<svg version="1.1" id="proofLogo" xmlns="http://www.w3.org/2000/svg" xmlns:xlink="http://www.w3.org/1999/xlink" x="0px" y="0px"
	 viewBox="0 0 365 143.6" style="enable-background:new 0 0 365 143.6;" xml:space="preserve">
<g id="XMLID_1_">
	<path id="XMLID_2_" d="M355.9,34.1c5,0,9.1,4,9.1,9.1c0,5-4.1,9.1-9.1,9.1s-9.1-4-9.1-9.1C346.9,38.2,350.9,34.1,355.9,34.1z
		 M363.8,43.2c0-4.3-3.5-7.9-7.9-7.9c-4.3,0-7.9,3.6-7.9,7.9c0,4.3,3.5,7.9,7.9,7.9C360.3,51,363.8,47.5,363.8,43.2z"/>
	<path id="XMLID_5_" d="M360,48.1h-1.7c-0.1-0.4-0.1-0.7-0.1-1.3c0-2.1-0.7-2.7-2.5-2.7h-1.8V48h-1.6V38h3.4c2.1,0,4.3,0.5,4.3,2.9
		c0,1.7-1.3,2.3-2.5,2.4c1.5,0.3,2.3,1.2,2.3,3C359.8,47.2,359.9,47.9,360,48.1z M358.3,41.1c0-1.2-1-1.7-2.5-1.7H354V43h1.8
		C357.4,43,358.3,42.3,358.3,41.1z"/>
	<polygon id="XMLID_8_" points="317.9,68.8 344,109.2 317,109.2 304.6,87.2 288.8,109.2 261.6,109.2 291.6,68.7 268.6,34.4 
		296,34.4 304.9,50.2 315.2,34.4 342.7,34.4 	"/>
	<path id="XMLID_9_" d="M235.2,34.4h22.5H235.2z"/>
	<path id="XMLID_10_" d="M246.5,115.5c7.8,0,14.1,6.3,14.1,14c0,7.8-6.3,14.1-14.1,14.1c-7.8,0-14.1-6.3-14.1-14.1
		C232.4,121.8,238.7,115.5,246.5,115.5z"/>
	<path id="XMLID_11_" d="M207.4,79.4l22.9,29.8H202l-14.3-22.3v22.3h-22.4V34.4h29.4c8.7,0,15.8,2.5,20.4,7.1
		c4.1,4.1,6.2,9.8,6.2,16.7C221.4,68.5,216,76.5,207.4,79.4z M201.3,59.3c0-2.5-0.7-4.4-2-5.7c-2.7-2.7-7.8-3-11.6-3.1v17.6
		C197.3,68.1,201.3,65.5,201.3,59.3z"/>
	<polygon id="XMLID_14_" points="159.2,34.4 159.2,53.9 142.2,53.9 142.2,109.2 119.8,109.2 119.8,53.9 102.8,53.9 102.8,34.4 	"/>
	<polygon id="XMLID_15_" points="96.7,34.4 96.7,109.2 74.3,109.2 74.3,98.9 74.3,44.7 74.3,34.4 	"/>
	<path id="XMLID_16_" d="M85.5,0c7.8,0,14.1,6.3,14.1,14c0,7.8-6.3,14.1-14.1,14.1S71.4,21.8,71.4,14C71.5,6.3,77.7,0,85.5,0z"/>
	<path id="XMLID_17_" d="M67.5,44.7L55.7,63.8c-3.3-5.5-9.9-9.1-16.5-9.1c-9.4,0-16.3,7.7-16.3,17.1c0,9.4,6.9,17.1,16.3,17.1
		c6.6,0,13.1-3.6,16.5-9.1l11.8,19.1c-7.1,7.4-17.2,12.1-28.3,12.1C17.6,111,0,93.5,0,71.8c0-21.6,17.6-39.2,39.2-39.2
		C50.3,32.6,60.3,37.2,67.5,44.7z"/>
	<polygon id="XMLID_18_" points="257.7,34.4 257.7,109.2 235.3,109.2 235.3,98.9 235.3,44.7 235.3,34.4 	"/>
</g>
</svg>
