<?xml version="1.0" encoding="utf-8"?>
<!-- Generator: Adobe Illustrator 24.2.0, SVG Export Plug-In . SVG Version: 6.00 Build 0)  -->
<svg version="1.1" id="proofLogo" xmlns="http://www.w3.org/2000/svg" xmlns:xlink="http://www.w3.org/1999/xlink" x="0px" y="0px"
	 viewBox="0 0 365 63.5" style="enable-background:new 0 0 365 63.5;" xml:space="preserve">
<g id="XMLID_1_">
	<path id="XMLID_3_" d="M64.8,36c0,0-14.5,0-15.7,0C26,36.5,27.2,16.9,27.2,16.9V0H0v27.1c0,3.8,3.5,36.4,37.5,36.4
		c20.2,0,27.4,0,27.4,0L64.8,36"/>
	<path id="XMLID_4_" d="M30.2,0v15.1c0,0-2.3,18.4,17.6,18.2c2.6,0,17.1,0,17.1,0V21.4h-7.6c0,0-14.7,1.9-14.5-9.4c0-1.4,0-12,0-12
		L30.2,0"/>
	<path id="XMLID_5_" d="M45.8,0v10c0,0-1.1,8.9,10.6,8.6c1.3,0,8.4,0,8.4,0V9.8H60c0,0-5.7,0.4-5.7-6c0-2.1,0-3.8,0-3.8H45.8"/>
	<path id="XMLID_6_" d="M57.6,0h7.2v7c0,0-7.2,1.1-7.2-2.9C57.6,1.1,57.6,0,57.6,0"/>
	<path id="XMLID_12_" d="M349.1,33.3c-7.6-1.7-15.1-2.3-15.1-7c0-3.8,4.4-4.4,7.4-4.4c4.7,0,8.7,1.4,9.1,6.4h12.7
		c-1.1-11.6-10.8-15.1-21.4-15.1c-4.9,0-9.9,0.8-13.8,2.7l0.5-1.4h-13.6l-8.9,32h-0.2l-8.3-32h-13l-8.1,32h-0.2l-8.9-32h-14.1
		l0.5,1.2c-4.2-1.9-9.6-2.5-14.4-2.5c-0.5,0-1.1,0-1.5,0.1c-9.5,0.3-18.8,3.5-21,12.9V0h-13.3v25.3c-3.6-8.2-10.8-12-17.6-12
		c-1.6,0-3.1,0.2-4.6,0.5c-4.3,0.9-8.2,3-10.6,6.6h-0.2V0.1h-13.3v24.2c-4.1-6.9-11.7-10.9-21.4-10.9c-15.2,0-25.1,9.9-25.1,24.9
		c0,3.6,0.6,7,1.7,10c-4.2,0-9.5,0-13.6,0C87.9,48.3,88,43.2,88,39V0.1H74.6c0,0,0.2,38.5,0,46c0,14.9,11.7,15.4,21.9,15.4h22.8V58
		c4.2,3.3,9.7,5.1,16.4,5.1c9.7,0,17.3-4.1,21.4-10.9v9.7h12.7v-6h0.2c2.3,4.1,6.3,6.3,11.3,7c1.4,0.2,3,0.3,4.6,0.3
		c6.8,0,13.9-3.8,17.6-12v10.5h13.3v-5.4c2.8,4.5,8.3,6.7,14.6,6.7c2.1,0,4.2-0.2,6.3-0.7c3.8-0.8,7.3-2.4,10-5.2
		c0.1,1.6,0.5,3.2,0.9,4.6h13.6c-1.2-1.9-1.7-6.2-1.7-10.5V37l8.1,24.7h13.8l8.3-31.7h0.1l8.6,31.7h13.8l9-27.8
		c2.6,4.1,8.2,5.9,13.9,7.1c9.6,2,15.2,3.4,15.2,7.3c0,4.6-4.9,6-8.8,6c-5.2,0-10.1-2.3-10.2-7.9h-12.8C320.1,58.8,331,63,342.3,63
		c11,0,22.2-4,22.2-16.4C364.5,37.8,356.9,35,349.1,33.3z M135.7,53.2c-9,0-11.8-7.5-11.8-15s2.7-15.1,11.8-15.1
		c9,0,11.7,7.6,11.7,15.1C147.4,45.6,144.7,53.2,135.7,53.2z M181.4,53.2L181.4,53.2c-7.9,0-11.4-7.2-11.4-15
		c0-8,3.5-15.1,11.3-15.1h0.1c7.8,0,11.3,7.2,11.3,15.1C192.7,46,189.2,53.2,181.4,53.2z M247.3,43.5c0,2.7-0.4,10.1-9.5,10.8
		c-0.5,0-0.9,0.1-1.4,0.1c-4.3,0-8.1-1.2-8.1-6c0-4.7,3.8-6.1,7.8-6.9c0.5-0.1,1.1-0.2,1.7-0.2c3.7-0.5,7.5-0.8,9.5-2.5V43.5
		L247.3,43.5z M237.8,33.7c-2,0.2-4.1,0.5-6.3,0.8c-5.8,0.8-11.7,2.3-14.6,6.9V29h13c0.5-4.8,3.4-6.9,8-7.2c0.2,0,0.5,0,0.8,0
		c4.7,0,8.7,0.9,8.7,6.4C247.3,32.2,243.2,33.1,237.8,33.7z"/>
	<path id="XMLID_15_" d="M361.7,7.7L361.7,7.7c-1.9,0-3.5,1.2-3.5,3.3s1.6,3.3,3.4,3.3h0.1c1.7-0.1,3.3-1.3,3.3-3.3
		C365,8.9,363.4,7.7,361.7,7.7z M361.7,13.5L361.7,13.5L361.7,13.5c-1.4,0-2.5-1.1-2.5-2.6s1.1-2.6,2.4-2.6h0.1
		c1.3,0,2.3,1.1,2.3,2.6S363,13.5,361.7,13.5z"/>
	<path id="XMLID_18_" d="M363.1,10.2c0-0.8-0.5-1.1-1.4-1.1h-0.1h-1.4v3.5h0.8v-1.5h0.3l0.3,0.5l0.6,1.1h0.9l-1-1.5
		C362.7,11.1,363.1,10.9,363.1,10.2z M361.7,10.6h-0.6V9.8h0.5h0.1c0.2,0,0.6,0.1,0.6,0.4C362.3,10.6,362.1,10.6,361.7,10.6z"/>
</g>
</svg>
