<?xml version="1.0" encoding="utf-8"?>
<!-- Generator: Adobe Illustrator 24.2.0, SVG Export Plug-In . SVG Version: 6.00 Build 0)  -->
<svg version="1.1" id="Layer_1" xmlns="http://www.w3.org/2000/svg" xmlns:xlink="http://www.w3.org/1999/xlink" x="0px" y="0px"
	 viewBox="0 0 149 14.1" style="enable-background:new 0 0 149 14.1;" xml:space="preserve">
<style type="text/css">
	.logoIpsum{fill:#394149;}
</style>
<path class="logoIpsum" d="M74.2,13.9h-5.1V0.2h5.1V13.9z M69.6,13.4h4.1V0.7h-4.1V13.4z M81.3,13.9h-5V0.2h10.5c1.5-0.1,3,0.3,4.2,1.2
	c1.1,1,1.6,2.4,1.5,3.8c0.1,1.2-0.3,2.4-1.1,3.4c-0.9,1.1-2.4,1.6-4.5,1.6c-0.5,0-4.5,0-5.5,0L81.3,13.9z M76.8,13.4h4V9.7h0.3
	c0.1,0,5.2,0,5.8,0c1.9,0,3.3-0.5,4.2-1.4l0,0c0.7-0.9,1-1.9,1-3c0.1-1.3-0.4-2.6-1.3-3.4c-1.1-0.8-2.5-1.2-3.9-1.1h-10L76.8,13.4z
	 M85.7,7.1h-4.9V3.4h5c0.7-0.1,1.4,0.2,1.9,0.7c0.2,0.3,0.3,0.7,0.3,1.2c0,0.4-0.1,0.7-0.2,1.1C87.2,6.9,86.5,7.2,85.7,7.1L85.7,7.1
	z M81.3,6.6h4.4c0.8,0,1.3-0.2,1.6-0.5c0.1-0.3,0.2-0.5,0.2-0.8c0-0.3,0-0.6-0.2-0.9l0,0c-0.2-0.3-0.7-0.5-1.5-0.5h-4.5L81.3,6.6z
	 M101.6,14.1c-4.5,0-7.2-1.1-8.2-3.4c-0.2-0.4-0.3-0.9-0.3-1.4L93,9h5.3l0,0.2c0,0.2,0.1,0.4,0.3,0.6c0.2,0.3,0.9,0.7,3.3,0.7
	c2.8,0,2.8-0.5,2.8-0.8c0-0.4-0.3-0.6-2.6-0.8l-0.4,0c-0.9-0.1-2-0.2-2.4-0.2c-4.2-0.4-6.1-1.7-6.1-4.2c0-2.7,3.2-4.4,8.1-4.4
	c4,0,6.6,1.1,7.7,3.2c0.3,0.5,0.4,1,0.5,1.6l0,0.3h-5.3l0-0.2c0-0.2-0.1-0.3-0.2-0.5c-0.2-0.3-0.8-0.7-2.8-0.7
	c-2.4,0-2.7,0.3-2.7,0.6c0,0.4,0.8,0.6,3.2,0.9c1,0.1,2.7,0.3,3.2,0.3c3.5,0.4,5.1,1.7,5.1,4.1C109.9,11.6,108.5,14.1,101.6,14.1z
	 M93.6,9.5c0.1,0.3,0.1,0.7,0.3,1c0.9,2.1,3.5,3.1,7.7,3.1c3.6,0,7.8-0.7,7.8-4.1c0-2.2-1.4-3.3-4.6-3.6c-0.6-0.1-2.2-0.2-3.2-0.3
	c-2.6-0.3-3.7-0.4-3.7-1.4c0-1,1.1-1.1,3.2-1.1c1.7,0,2.7,0.3,3.2,0.9c0.1,0.1,0.2,0.3,0.3,0.5h4.3c-0.1-0.4-0.2-0.8-0.4-1.1
	c-1-1.9-3.4-2.9-7.3-2.9c-4.6,0-7.6,1.5-7.6,3.9c0,2.3,1.7,3.4,5.6,3.7c0.5,0,1.6,0.1,2.5,0.2l0.4,0c2.1,0.2,3.1,0.4,3.1,1.3
	c0,1.1-1.2,1.3-3.3,1.3c-1.9,0-3.2-0.3-3.6-0.9C98.1,10,98,9.7,98,9.5H93.6z M119.4,14.1c-5.2,0-8.1-2.1-8.1-5.9V0.2h5.1v7.9
	c0,1.3,1.2,2.1,3.2,2.1c2,0,3.2-0.8,3.2-2.1V0.2h5v8.3C127.8,12.1,124.7,14.1,119.4,14.1L119.4,14.1z M111.8,0.7v7.4
	c0,4.7,4.8,5.4,7.6,5.4c2.9,0,7.9-0.7,7.9-5V0.7h-4v7.4c0,1.5-1.4,2.6-3.7,2.6c-2.3,0-3.7-1-3.7-2.6V0.7H111.8z M149,13.9h-4.8V7.7
	l-2.7,6.2h-4.2l-2.7-6.2v6.2h-4.8V0.2h6.3l3.3,7.5l3.4-7.5h6.1L149,13.9z M144.7,13.4h3.8V0.7h-5.3L139.4,9l-3.6-8.3h-5.5v12.7h3.8
	V5.3l3.5,8.1h3.5l3.5-8.1L144.7,13.4z M4.6,0.5H0v13.2h12.6v-3.5h-8V0.5z M21.8,0.2c-5.8,0-8.9,2.8-8.9,6.8c0,4.6,3.2,6.9,8.9,6.9
	c6.2,0,8.9-2.7,8.9-6.9C30.6,2.7,27.7,0.1,21.8,0.2L21.8,0.2z M21.8,3.6c0.4,0,0.8,0,1.2,0.1l-5.1,5.1c-0.2-0.5-0.4-1.1-0.3-1.7
	C17.5,4.9,18.5,3.6,21.8,3.6L21.8,3.6z M21.8,10.5c-0.4,0-0.8,0-1.1-0.1l5.1-5.1C26,5.8,26.1,6.4,26.1,7C26.1,9,25.1,10.5,21.8,10.5
	L21.8,10.5z M39.7,8.7h4.7c-0.1,0.3-0.2,0.6-0.4,0.9c-1,0.8-2.2,1.2-3.5,1.1c-1.3,0.1-2.5-0.3-3.5-1.2c-0.5-0.7-0.7-1.5-0.6-2.4
	c-0.1-0.9,0.2-1.8,0.7-2.5c0.7-0.7,1.8-1.1,3.4-1.1c1-0.1,2.1,0.2,2.9,0.8c0.3,0.2,0.5,0.5,0.6,0.8h4.3c0-0.5-0.2-1.1-0.4-1.6
	c-1-2.1-3.5-3.4-7.6-3.4c-3.6,0-6,1.1-7.3,2.7c-0.9,1.2-1.3,2.6-1.3,4.1c-0.1,1.5,0.4,3,1.2,4.2c1.3,1.7,3.6,2.5,6.5,2.5
	c1.9,0.1,3.7-0.4,5.2-1.5l0.1,1.3h3.6V5.8h-8.8V8.7z M58.7,0.1c-5.8,0-8.9,2.8-8.9,6.8c0,4.6,3.2,6.9,8.9,6.9c6.2,0,8.9-2.7,8.9-6.9
	C67.5,2.7,64.6,0.1,58.7,0.1L58.7,0.1z M58.7,3.6c0.4,0,0.8,0,1.2,0.1l-5.1,5.1c-0.2-0.5-0.3-1.1-0.3-1.7
	C54.4,4.9,55.4,3.6,58.7,3.6L58.7,3.6z M58.7,10.5c-0.4,0-0.8,0-1.2-0.1l5.1-5.1C62.9,5.8,63,6.4,63,7C63,9,62,10.5,58.7,10.5
	L58.7,10.5z"/>
</svg>
