<?xml version="1.0" encoding="utf-8"?>
<!-- Generator: Adobe Illustrator 24.2.0, SVG Export Plug-In . SVG Version: 6.00 Build 0)  -->
<svg version="1.1" id="logoipsum" xmlns="http://www.w3.org/2000/svg" xmlns:xlink="http://www.w3.org/1999/xlink" x="0px" y="0px"
	 viewBox="0 0 123.4 28.5" style="enable-background:new 0 0 123.4 28.5;" xml:space="preserve">
<style type="text/css">
	.logoIpsum{fill:#394149;}
</style>
<path class="logoIpsum" d="M26.5,10c0.4,0,0.5,0.1,0.5,0.5v7.9h4.1c0.3,0,0.5,0.1,0.5,0.5v0.7c0,0.3-0.1,0.5-0.5,0.5h-5.4
	c-0.3,0-0.5-0.1-0.5-0.5v-9.1c0-0.3,0.1-0.5,0.5-0.5L26.5,10z"/>
<path class="logoIpsum" d="M35.1,13.4c0-2.3,1.5-3.7,4-3.7c2.5,0,4,1.4,4,3.7v3.1c0,2.3-1.5,3.7-4,3.7s-4-1.4-4-3.7L35.1,13.4z M41.4,13.4
	c0-1.3-0.8-2-2.3-2s-2.3,0.7-2.3,2v3.1c0,1.3,0.8,2,2.3,2s2.3-0.7,2.3-2V13.4z"/>
<path class="logoIpsum" d="M55,14.5c0.4,0,0.5,0.1,0.5,0.5v1.9c0,0.9-0.4,1.8-1.1,2.4c-0.8,0.7-1.9,1-3,0.9c-2.6,0-4-1.4-4-3.7v-3.1
	c0-2.3,1.5-3.7,4-3.7c2,0,3.3,0.8,3.8,2.4c0.1,0.2,0,0.5-0.2,0.6c0,0-0.1,0-0.1,0L54.2,13c-0.3,0.1-0.5,0-0.6-0.3
	c-0.3-0.9-1.2-1.4-2.2-1.3c-1.5,0-2.3,0.7-2.3,2v3.2c0,1.3,0.8,2,2.3,2s2.4-0.7,2.4-1.6v-0.7h-2.2c-0.4,0-0.5-0.1-0.5-0.5V15
	c0-0.3,0.1-0.5,0.5-0.5H55z"/>
<path class="logoIpsum" d="M59.6,13.4c0-2.3,1.5-3.7,4-3.7s4,1.4,4,3.7v3.1c0,2.3-1.5,3.7-4,3.7s-4-1.4-4-3.7V13.4z M65.9,13.4
	c0-1.3-0.8-2-2.3-2s-2.3,0.7-2.3,2v3.1c0,1.3,0.8,2,2.3,2s2.3-0.7,2.3-2V13.4z"/>
<path class="logoIpsum" d="M72.3,10.2c0-0.2,0.1-0.3,0.3-0.3h0.5c0.2,0,0.3,0.1,0.3,0.3v9.5c0,0.2,0,0.3-0.3,0.3h-0.5
	c-0.2,0-0.3-0.1-0.3-0.3V10.2z"/>
<path class="logoIpsum" d="M82.5,10c1.7,0,3.1,1.4,3.1,3.1c0,1.7-1.4,3.1-3.1,3.1c0,0,0,0,0,0h-3v3.5c0,0.2-0.1,0.3-0.3,0.3h-0.5
	c-0.2,0-0.3-0.1-0.3-0.3v-9.5c0-0.2,0.1-0.3,0.3-0.3H82.5z M82.4,15.2c1.2,0,2.2-1,2.2-2.2s-1-2.2-2.2-2.2h-3v4.4H82.4z"/>
<path class="logoIpsum" d="M93.4,9.8c1.6-0.2,3.1,0.7,3.7,2.2c0.1,0.2,0,0.3-0.2,0.4l-0.4,0.2c-0.2,0.1-0.3,0.1-0.4-0.1
	c-0.5-1.1-1.6-1.8-2.8-1.6c-1.7,0-2.6,0.7-2.6,1.9c0,0.8,0.5,1.4,1.3,1.5c0.5,0.2,1.1,0.3,1.7,0.3c0.7,0,1.4,0.2,2,0.4
	c1,0.3,1.7,1.3,1.6,2.4c0,1.9-1.4,3-3.9,3c-1.7,0.2-3.3-0.8-3.8-2.4c-0.1-0.1,0-0.3,0.1-0.4c0,0,0,0,0,0l0.4-0.2
	c0.1-0.1,0.3,0,0.4,0.1c0,0,0,0,0,0c0.5,1.2,1.6,1.9,2.9,1.8c1.9,0,2.8-0.7,2.8-2c0-0.7-0.5-1.4-1.2-1.5c-0.5-0.2-1.1-0.2-1.6-0.3
	l-1.1-0.1c-0.3-0.1-0.7-0.2-1-0.3c-0.3-0.1-0.6-0.3-0.9-0.5c-0.5-0.5-0.8-1.2-0.8-1.9C89.8,10.9,91.1,9.8,93.4,9.8z"/>
<path class="logoIpsum" d="M102.7,16.6c0.1,1.5,1.4,2.7,2.9,2.6c1.4-0.1,2.5-1.2,2.6-2.6v-6.3c0-0.2,0.1-0.3,0.3-0.3h0.5
	c0.2,0,0.3,0.1,0.3,0.3v6.3c0,2.3-1.3,3.6-3.8,3.6s-3.8-1.4-3.8-3.6v-6.3c0-0.2,0.1-0.3,0.3-0.3h0.5c0.2,0,0.3,0.1,0.3,0.3V16.6z"/>
<path class="logoIpsum" d="M123.1,10c0.2,0,0.3,0.1,0.3,0.3v9.5c0,0.2-0.1,0.3-0.3,0.3h-0.4c-0.2,0-0.3-0.1-0.3-0.3V14
	c0-0.8,0.1-1.7,0.2-2.5h-0.1c-0.3,0.8-0.7,1.5-1.1,2.2l-2.1,3.8c-0.1,0.1-0.2,0.2-0.3,0.2h-0.3c-0.1,0-0.3-0.1-0.3-0.2l-2.2-3.8
	c-0.4-0.7-0.7-1.4-1-2.2h-0.1c0.1,0.8,0.2,1.7,0.2,2.5v5.8c0,0.2-0.1,0.3-0.3,0.3h-0.4c-0.2,0-0.3-0.1-0.3-0.3v-9.5
	c0-0.2,0.1-0.3,0.3-0.3h0.4c0.2,0,0.3,0.1,0.4,0.2l3.5,6.2l3.5-6.2c0.1-0.2,0.2-0.2,0.4-0.2L123.1,10z"/>
<path class="logoIpsum" d="M8.7,17.8V25c0,0.6-0.5,1-1,1c-0.6,0-1-0.5-1-1v-7.2c0.3,0.2,0.6,0.3,1,0.3C8,18.2,8.4,18,8.7,17.8z M17.6,15.7
	c-0.6,0-1,0.4-1,1V18c0,0.6,0.5,1,1,1c0.6,0,1-0.5,1-1v-1.2c0-0.6-0.4-1-0.9-1.1C17.7,15.7,17.7,15.7,17.6,15.7z M4.4,20.5
	c-0.4,0-0.7-0.1-1-0.3v7.3c0,0.6,0.5,1,1.1,1c0.6,0,1-0.5,1-1l0,0v-7.2C5.1,20.5,4.8,20.6,4.4,20.5z M14.4,13.5c-0.6,0-1,0.4-1,0.9
	c0,0,0,0,0,0.1v5.6c0,0.6,0.5,1.1,1,1.1s1.1-0.5,1.1-1c0,0,0,0,0,0v-5.5c0-0.6-0.4-1-0.9-1.1C14.4,13.5,14.4,13.5,14.4,13.5
	L14.4,13.5z M11.1,15.7c-0.4,0-0.7-0.1-1-0.3v7.3c0,0.6,0.5,1.1,1,1.1s1.1-0.5,1.1-1c0,0,0,0,0,0v-7.3
	C11.8,15.6,11.4,15.7,11.1,15.7L11.1,15.7z M2.1,21.2V0.9C2.1,0.4,1.7,0,1.2,0H0.9C0.4,0,0,0.4,0,0.9v20.3c0,0.5,0.4,0.9,0.9,0.9
	h0.2C1.7,22.2,2.1,21.8,2.1,21.2z M4.5,19.8H4.3c-0.5,0-0.9-0.4-0.9-0.9V3.4c0-0.5,0.4-0.9,0.9-0.9h0.2c0.5,0,0.9,0.4,0.9,0.9v15.5
	C5.4,19.4,5,19.8,4.5,19.8L4.5,19.8z M7.8,17.4H7.6c-0.5,0-0.9-0.4-0.9-0.9l0,0V5.8c0-0.5,0.4-0.9,0.9-0.9c0,0,0,0,0,0h0.2
	c0.5,0,0.9,0.4,0.9,0.9v10.7C8.7,17,8.3,17.4,7.8,17.4L7.8,17.4z M11.1,14.9h-0.2c-0.5,0-0.9-0.4-0.9-0.9V8.2c0-0.5,0.4-1,0.9-1
	c0,0,0,0,0.1,0h0.2c0.5,0,0.9,0.4,0.9,0.9V14C12.1,14.5,11.6,14.9,11.1,14.9C11.1,14.9,11.1,14.9,11.1,14.9L11.1,14.9z M14.4,12.8
	h-0.2c-0.5,0-0.9-0.4-0.9-0.9v-1.5c0-0.5,0.4-0.9,0.9-0.9h0.2c0.5,0,0.9,0.4,0.9,0.9v1.5C15.4,12.4,14.9,12.8,14.4,12.8L14.4,12.8z"
	/>
</svg>
