<svg xmlns="http://www.w3.org/2000/svg" xmlns:xlink="http://www.w3.org/1999/xlink" viewBox="0 0 3742 1688" width="3742" height="1688" aria-hidden="true">
  <defs>
    <linearGradient id="gradient-edge" x1="40.57%" x2="58.82%" y1="26.08%" y2="26.08%">
      <stop offset="0%" stop-color="#4F005E"></stop>
      <stop offset="100%" stop-color="#33065B"></stop>
    </linearGradient>
    <linearGradient id="gradient-build" x1="59%" x2="40.47%" y1="41.6%" y2="41.6%">
      <stop offset="0%" stop-color="#210047"></stop>
      <stop offset="100%" stop-color="#020758"></stop>
    </linearGradient>
    <radialGradient id="gradient-pyramid" cx="48.83%" cy="2.82%" r="143.08%" fx="48.83%" fy="2.82%" gradientTransform="matrix(.00246 .64298 -1 .00158 .52 -.29)">
      <stop offset="0%" stop-color="#00D4C5" stop-opacity=".25"></stop>
      <stop offset="38.98%" stop-color="#1D97B2" stop-opacity=".5"></stop>
      <stop offset="78.66%" stop-color="#370065" stop-opacity=".77"></stop>
      <stop offset="100%" stop-color="#370065" stop-opacity="0"></stop>
    </radialGradient>
    <linearGradient id="d" x1="0%" x2="99.99%" y1="50.01%" y2="50.01%">
      <stop offset="0%" stop-color="#680E88"></stop>
      <stop offset="100%" stop-color="#01D4C6"></stop>
    </linearGradient>
    <linearGradient id="e" x1="0%" x2="99.99%" y1="50.01%" y2="50.01%">
      <stop offset="0%" stop-color="#680E88"></stop>
      <stop offset="100%" stop-color="#01D4C6"></stop>
    </linearGradient>
    <linearGradient id="f" x1="0%" x2="99.99%" y1="50.01%" y2="50.01%">
      <stop offset="0%" stop-color="#680E88"></stop>
      <stop offset="100%" stop-color="#01D4C6"></stop>
    </linearGradient>
    <linearGradient id="g" x1="0%" x2="99.99%" y1="50.01%" y2="50.01%">
      <stop offset="0%" stop-color="#680E88"></stop>
      <stop offset="100%" stop-color="#01D4C6"></stop>
    </linearGradient>
    <linearGradient id="h" x1="0%" x2="99.99%" y1="50.01%" y2="50.01%">
      <stop offset="0%" stop-color="#680E88"></stop>
      <stop offset="100%" stop-color="#01D4C6"></stop>
    </linearGradient>
    <circle id="i" cx="52.09" cy="51.83" r="51.62"></circle>
    <circle id="k" cx="52.39" cy="51.95" r="51.62"></circle>
    <circle id="m" cx="52.59" cy="51.73" r="51.62"></circle>
    <radialGradient id="o" cx="48.83%" cy="2.82%" r="125.67%" fx="48.83%" fy="2.82%" gradientTransform="scale(1 .7321) rotate(89.84 .48 .03)">
      <stop offset="0%" stop-color="#00D4C5" stop-opacity=".25"></stop>
      <stop offset="11.88%" stop-color="#09C1BF" stop-opacity=".33"></stop>
      <stop offset="21.28%" stop-color="#10B3BB" stop-opacity="0"></stop>
      <stop offset="100%" stop-color="#370065" stop-opacity="0"></stop>
    </radialGradient>
    <radialGradient id="p" cy="0%" r="100.11%" fx="50%" fy="0%" gradientTransform="matrix(0 .9989 -1.152 0 .5 -.5)">
      <stop offset="0%" stop-color="#20C6B7"></stop>
      <stop offset="100%" stop-color="#4D9ABF"></stop>
    </radialGradient>
  </defs>
  <g fill="none" fill-rule="evenodd">
    <path class="Trinity__g Trinity__g--edge Trinity__g--bg" fill="url(#gradient-edge)" fill-rule="nonzero" d="M1 921h-512v767l512-.17s365.72 11.84 800.48-161.69c263.68-105.25 593.41 42.34 800.73 27.43 181-13.03 178.54-62.07 347.77-91.73 169.23-29.66 276.55 63.38 513.35-67.38 172.6-95.33 491.73 162.5 896.67 231.41 404.94 68.91 777-387.87 841-497.87 42.67-73.33 178.67-142.33 408-207H1z"></path>
    <path class="Trinity__g Trinity__g--build Trinity__g--bg" fill="url(#gradient-build)" fill-rule="nonzero" d="M1344 269h3265v880c-425-353-501-179-958-87-304.67 61.33-593.67 90.33-867 87-179.33-25.33-379.67-77.17-601-155.5-221.33-78.34-501-71.5-839 20.5-290.67 68.67-606 83.67-946 45-510-58-784.03 90-909 90V269h1855z"></path>
    <path class="Trinity__g Trinity__g--dev Trinity__g--bg" fill="#FFF" fill-rule="nonzero" d="M0 0v547.87s365.72 9.33 800.48-127.5c263.68-82.99 525.74 39.28 919.52 18.63 393.78-20.65 318-99.5 623-99.5s570.06-70.84 975-16.5c404.94 54.34 778-236.53 778-323H0z"></path>
    <path class="Trinity__g" fill="url(#gradient-pyramid)" fill-rule="nonzero" d="M932 1446l-932 3.49L415.41 0h101.08z" transform="translate(1891 262)"></path>
    <g class="Trinity__g Trinity__g--edge" fill-rule="nonzero">
      <g opacity=".3">
        <path fill="url(#d)" d="M10.44 80.23c-28.81 37.52 8.26 69.87 68.37 69.12 60.11-.75 65.36 138.41 128.47 182.65 63.11 44.24 111.94 84.06 139 72 27.06-12.06-92.41-60.11-57.85-86.4 34.56-26.29 52.59 9.77 72.12 0s-6-50.34 26.3-69.87 73.63-31.56 61.61-58.6c-12.02-27.04-72.88-69.87-90.16-54.1-17.28 15.77 11.27 51.84-30 43.58-41.27-8.26-31.56-55.6 13.52-81.14s-89.4-46.58-128.47-12.77c-39.07 33.81-170.61-46.55-202.91-4.47z" transform="translate(1891 965)"></path>
        <path fill="url(#e)" d="M362.49 408.57c-21.1 22.42-8.91 29.68-20.19 54-11.28 24.32 41 48.67 42.74 68.26 1.74 19.59-26.12 104.46-19 135.92 7.12 31.46 25.52 50.45 39.76 38.58 14.24-11.87-13.65-58.76 36.21-87.85C491.87 588.39 540 510.07 537.58 484c-2.42-26.07-46.89-13.65-59.94-34.42-13.05-20.77-86.64-71.28-115.15-41.01z" transform="translate(1891 965)"></path>
        <path fill="url(#f)" d="M562.48 298.57c-41.32 40.54-58.09 79.8-30 114.27 28.09 34.47 88.3 3.83 99 25.53 10.7 21.7-2 155.13 47.13 166 49.13 10.87 86.18-77.24 86.82-91.29.64-14.05-9.57-38.94 10.22-54.26s37-37.66 31.28-55.54c-5.72-17.88-32.56 14-51.07-19.15-18.51-33.15-6.39-65.11-34.47-67.67-28.08-2.56-73.85-.63-89.91-21.7-16.06-21.07-52.97-11.91-69 3.81z" transform="translate(1891 965)"></path>
        <path fill="url(#g)" d="M561.61 248.34c-6.88 21.36 26.5 29.49 54 6s41.79 22.49 69.31 28.06c27.52 5.57 65.23-3.6 65.23 17.81s10.19 88.67 36.69 89.69c26.5 1.02 66.25-19.37 62.17-36.69-4.08-17.32 27.52-20.39 39.75-1s26.5 67 35.67 65.62c9.17-1.38 23.44-65.62 51-58.49 27.56 7.13 17.33 102.94 57.08 102.94s-2-89.54 47.9-118.66c49.9-29.12 112.11-116.78 113.13-140.22 1.02-23.44-8.15-35.67 25.48-41.79 33.63-6.12 19.37 45.87 42.81 41.79 23.44-4.08 20.39-42.8 60.14-49.94 39.75-7.14 73.38-14.27 67.26-36.69-6.12-22.42-61.15-22.42-100.9-25.48-39.75-3.06-205.88-19.37-216.07-48.92-10.19-29.55-110.08 9.68-153.9 36.43-43.82 26.75-133.52 44.08-169.19 21.66-35.67-22.42-91.53-19.36-117.62 26.5-26.09 45.86-60.77 92.91-69.94 121.38z" transform="translate(1891 965)"></path>
        <path fill="url(#h)" d="M398.36 59.12c-5.25 13.54 42.2-1.69 57.28 18.7 15.08 20.39 18.14 109 62 110.07 43.86 1.07-5.45-29.55 36.51-45.86s63.37-45.87 63.37-74.4c0-28.53 35-33.6 32.26-52-2.74-18.4-220.84-35.33-251.42 43.49z" transform="translate(1891 965)"></path>
      </g>
      <g fill="#FFBD7C" transform="translate(2586 1110)">
        <path d="M213.47 213.4l-1.41-1.42a99.12 99.12 0 0 0 14.92-19.09l1.72 1.03a101.12 101.12 0 0 1-15.23 19.47zm25.24-42.08l-1.92-.58a99.17 99.17 0 0 0 4.12-23.87l2 .1c-.4 8.25-1.81 16.44-4.2 24.35zm2.38-49.01l-1.96.38a98.56 98.56 0 0 0-7.6-23l1.81-.86a100.56 100.56 0 0 1 7.75 23.48zm-21.07-44.43l-1.55 1.27a100.13 100.13 0 0 0-17.53-16.65l1.2-1.6a101.72 101.72 0 0 1 17.88 16.98zM180.6 48.73l-.76 1.85a98.77 98.77 0 0 0-23.37-6.41l.3-1.98c8.17 1.2 16.18 3.38 23.83 6.54zm-48.53-7.1l.2 1.99c-8.06.8-16 2.58-23.63 5.32l-.68-1.88c7.79-2.8 15.89-4.62 24.11-5.43zM85.83 58.26l1.12 1.66A99.41 99.41 0 0 0 68.67 75.8l-1.49-1.34a102.55 102.55 0 0 1 18.65-16.19zM52.98 94.7l1.76.94a98.38 98.38 0 0 0-8.65 22.63l-1.94-.48a100.38 100.38 0 0 1 8.83-23.1zM41.2 142.35l2-.01a99.32 99.32 0 0 0 3.03 24.04l-1.94.5a101.32 101.32 0 0 1-3.1-24.53zm12.06 47.58l1.76-.95a98.68 98.68 0 0 0 14.04 19.75l-1.48 1.35a100.68 100.68 0 0 1-14.32-20.15zm33.08 36.23l1.1-1.66a98.17 98.17 0 0 0 21.68 10.81l-.66 1.89a100.17 100.17 0 0 1-22.12-11.04zm46.3 16.35l.2-2a99.5 99.5 0 0 0 24.22-.7l.3 1.99a101.5 101.5 0 0 1-24.71.7zm48.51-7.4l-.77-1.84a98.2 98.2 0 0 0 21.02-12.04l1.2 1.6c-6.65 4.99-13.85 9.1-21.45 12.29z"></path>
        <path d="M142.11 210.27v-2c6.66 0 13.2-.98 19.44-2.9l.58 1.92a68.26 68.26 0 0 1-20.02 2.98zm38.27-11.73l-1.12-1.66a66.65 66.65 0 0 0 14.46-13.3l1.56 1.25a68.65 68.65 0 0 1-14.9 13.71zm25.13-31.17l-1.86-.74a65.89 65.89 0 0 0 4.5-19.13l2 .17a67.89 67.89 0 0 1-4.64 19.7zm3.3-39.99l-1.95.43a65.82 65.82 0 0 0-7-18.35l1.73-.99a67.82 67.82 0 0 1 7.22 18.91zm-19.7-34.89l-1.37 1.45a66.43 66.43 0 0 0-16.09-11.28l.9-1.79a68.43 68.43 0 0 1 16.57 11.62zM153.3 74.64l-.33 1.98a66.73 66.73 0 0 0-19.69-.3l-.26-1.99a69.03 69.03 0 0 1 20.28.31zm-39.75 5.33l.84 1.82a66.35 66.35 0 0 0-16.43 10.78l-1.33-1.49a68.35 68.35 0 0 1 16.92-11.1zm-29.83 26.64l1.7 1.04a65.87 65.87 0 0 0-7.58 18.12l-1.94-.5a67.87 67.87 0 0 1 7.82-18.66zm-9.8 38.9l2-.1a66 66 0 0 0 3.9 19.26l-1.88.68a68 68 0 0 1-4.01-19.83zm13.7 37.63l1.6-1.2c3.97 5.24 8.7 9.88 14.03 13.75l-1.17 1.62a68.66 68.66 0 0 1-14.46-14.17zm32.42 23.48l.65-1.89a66.08 66.08 0 0 0 19.33 3.5l-.06 2a68.08 68.08 0 0 1-19.92-3.6zM142.11 181.38a39.38 39.38 0 1 1 0-78.76 39.38 39.38 0 0 1 0 78.76zm0-2a37.38 37.38 0 1 0 0-74.76 37.38 37.38 0 0 0 0 74.76zm0-16.95a20.43 20.43 0 1 1 0-40.86 20.43 20.43 0 0 1 0 40.86zm0-2a18.43 18.43 0 1 0 0-36.86 18.43 18.43 0 0 0 0 36.86z" opacity=".5"></path>
        <circle cx="142.11" cy="142" r="10.77"></circle>
      </g>
      <g fill="#00D6C6" transform="translate(2427 955)">
        <path d="M212.72 213.15l-1.41-1.42a99.12 99.12 0 0 0 14.92-19.08l1.72 1.03a101.12 101.12 0 0 1-15.23 19.47zm25.24-42.07l-1.92-.58a99.17 99.17 0 0 0 4.12-23.88l2 .1c-.4 8.26-1.8 16.44-4.2 24.36zm2.38-49.02l-1.96.4a98.56 98.56 0 0 0-7.6-23.02l1.81-.85a100.56 100.56 0 0 1 7.75 23.47zm-21.07-44.42l-1.55 1.27a100.13 100.13 0 0 0-17.53-16.65l1.2-1.6a101.72 101.72 0 0 1 17.88 16.98zm-39.42-29.16l-.76 1.85a98.77 98.77 0 0 0-23.37-6.4l.3-1.98c8.17 1.19 16.18 3.38 23.83 6.53zm-48.52-7.1l.2 2c-8.07.8-16.01 2.58-23.64 5.32l-.68-1.88c7.79-2.8 15.89-4.62 24.12-5.44zM85.08 58.02l1.12 1.66a99.41 99.41 0 0 0-18.28 15.87l-1.49-1.34a102.55 102.55 0 0 1 18.65-16.19zM52.23 94.44l1.77.94a98.38 98.38 0 0 0-8.65 22.63l-1.95-.47a100.38 100.38 0 0 1 8.83-23.1zM40.46 142.1h2a99.32 99.32 0 0 0 3.03 24.04l-1.94.49a101.32 101.32 0 0 1-3.09-24.53zm12.06 47.59l1.76-.95a98.68 98.68 0 0 0 14.04 19.74l-1.48 1.35a100.68 100.68 0 0 1-14.32-20.14zm33.08 36.23l1.11-1.67a98.17 98.17 0 0 0 21.68 10.82l-.67 1.88a100.17 100.17 0 0 1-22.12-11.03zm46.31 16.34l.19-1.99a99.5 99.5 0 0 0 24.22-.7l.3 1.98a101.5 101.5 0 0 1-24.71.71zm48.5-7.39l-.77-1.84a98.21 98.21 0 0 0 21.02-12.05l1.2 1.6c-6.65 5-13.85 9.11-21.45 12.3z" opacity=".2"></path>
        <path d="M141.35 210.03v-2c6.66 0 13.2-.98 19.44-2.9l.58 1.92a68.26 68.26 0 0 1-20.02 2.98zm38.27-11.73l-1.12-1.66a66.65 66.65 0 0 0 14.46-13.3l1.56 1.25a68.65 68.65 0 0 1-14.9 13.71zm25.13-31.17l-1.86-.74a65.89 65.89 0 0 0 4.5-19.13l2 .17a67.89 67.89 0 0 1-4.64 19.7zm3.3-39.99l-1.95.43a65.82 65.82 0 0 0-7-18.35l1.73-.99a67.82 67.82 0 0 1 7.22 18.91zm-19.7-34.89l-1.37 1.45a66.43 66.43 0 0 0-16.09-11.28l.9-1.79a68.43 68.43 0 0 1 16.57 11.62zM152.55 74.4l-.33 1.98a66.73 66.73 0 0 0-19.69-.3l-.26-1.99a69.03 69.03 0 0 1 20.28.31zm-39.75 5.33l.84 1.82A66.35 66.35 0 0 0 97.2 92.33l-1.33-1.49a68.35 68.35 0 0 1 16.92-11.1zm-29.83 26.64l1.7 1.04a65.87 65.87 0 0 0-7.58 18.12l-1.94-.5a67.87 67.87 0 0 1 7.82-18.66zm-9.8 38.9l2-.1a66 66 0 0 0 3.9 19.26l-1.88.68a68 68 0 0 1-4.01-19.83zm13.7 37.63l1.6-1.2c3.97 5.24 8.7 9.88 14.03 13.75l-1.17 1.62a68.66 68.66 0 0 1-14.46-14.17zm32.42 23.48l.65-1.89a66.08 66.08 0 0 0 19.33 3.5l-.06 2a68.08 68.08 0 0 1-19.92-3.6zM141.35 181.14a39.38 39.38 0 1 1 0-78.76 39.38 39.38 0 0 1 0 78.76zm0-2a37.38 37.38 0 1 0 0-74.76 37.38 37.38 0 0 0 0 74.76zm0-16.95a20.43 20.43 0 1 1 0-40.86 20.43 20.43 0 0 1 0 40.86zm0-2a18.43 18.43 0 1 0 0-36.86 18.43 18.43 0 0 0 0 36.86z" opacity=".5"></path>
        <circle cx="141.35" cy="141.76" r="10.77"></circle>
      </g>
      <g fill="#00D6C6" transform="translate(2216 1338)">
        <path d="M212.72 213.15l-1.41-1.42a99.12 99.12 0 0 0 14.92-19.08l1.72 1.03a101.12 101.12 0 0 1-15.23 19.47zm25.24-42.07l-1.92-.58a99.17 99.17 0 0 0 4.12-23.88l2 .1c-.4 8.26-1.8 16.44-4.2 24.36zm2.38-49.02l-1.96.4a98.56 98.56 0 0 0-7.6-23.02l1.81-.85a100.56 100.56 0 0 1 7.75 23.47zm-21.07-44.42l-1.55 1.27a100.13 100.13 0 0 0-17.53-16.65l1.2-1.6a101.72 101.72 0 0 1 17.88 16.98zm-39.42-29.16l-.76 1.85a98.77 98.77 0 0 0-23.37-6.4l.3-1.98c8.17 1.19 16.18 3.38 23.83 6.53zm-48.52-7.1l.2 2c-8.07.8-16.01 2.58-23.64 5.32l-.68-1.88c7.79-2.8 15.89-4.62 24.12-5.44zM85.08 58.02l1.12 1.66a99.41 99.41 0 0 0-18.28 15.87l-1.49-1.34a102.55 102.55 0 0 1 18.65-16.19zM52.23 94.44l1.77.94a98.38 98.38 0 0 0-8.65 22.63l-1.95-.47a100.38 100.38 0 0 1 8.83-23.1zM40.46 142.1h2a99.32 99.32 0 0 0 3.03 24.04l-1.94.49a101.32 101.32 0 0 1-3.09-24.53zm12.06 47.59l1.76-.95a98.68 98.68 0 0 0 14.04 19.74l-1.48 1.35a100.68 100.68 0 0 1-14.32-20.14zm33.08 36.23l1.11-1.67a98.17 98.17 0 0 0 21.68 10.82l-.67 1.88a100.17 100.17 0 0 1-22.12-11.03zm46.31 16.34l.19-1.99a99.5 99.5 0 0 0 24.22-.7l.3 1.98a101.5 101.5 0 0 1-24.71.71zm48.5-7.39l-.77-1.84a98.21 98.21 0 0 0 21.02-12.05l1.2 1.6c-6.65 5-13.85 9.11-21.45 12.3z" opacity=".2"></path>
        <path d="M141.35 210.03v-2c6.66 0 13.2-.98 19.44-2.9l.58 1.92a68.26 68.26 0 0 1-20.02 2.98zm38.27-11.73l-1.12-1.66a66.65 66.65 0 0 0 14.46-13.3l1.56 1.25a68.65 68.65 0 0 1-14.9 13.71zm25.13-31.17l-1.86-.74a65.89 65.89 0 0 0 4.5-19.13l2 .17a67.89 67.89 0 0 1-4.64 19.7zm3.3-39.99l-1.95.43a65.82 65.82 0 0 0-7-18.35l1.73-.99a67.82 67.82 0 0 1 7.22 18.91zm-19.7-34.89l-1.37 1.45a66.43 66.43 0 0 0-16.09-11.28l.9-1.79a68.43 68.43 0 0 1 16.57 11.62zM152.55 74.4l-.33 1.98a66.73 66.73 0 0 0-19.69-.3l-.26-1.99a69.03 69.03 0 0 1 20.28.31zm-39.75 5.33l.84 1.82A66.35 66.35 0 0 0 97.2 92.33l-1.33-1.49a68.35 68.35 0 0 1 16.92-11.1zm-29.83 26.64l1.7 1.04a65.87 65.87 0 0 0-7.58 18.12l-1.94-.5a67.87 67.87 0 0 1 7.82-18.66zm-9.8 38.9l2-.1a66 66 0 0 0 3.9 19.26l-1.88.68a68 68 0 0 1-4.01-19.83zm13.7 37.63l1.6-1.2c3.97 5.24 8.7 9.88 14.03 13.75l-1.17 1.62a68.66 68.66 0 0 1-14.46-14.17zm32.42 23.48l.65-1.89a66.08 66.08 0 0 0 19.33 3.5l-.06 2a68.08 68.08 0 0 1-19.92-3.6zM141.35 181.14a39.38 39.38 0 1 1 0-78.76 39.38 39.38 0 0 1 0 78.76zm0-2a37.38 37.38 0 1 0 0-74.76 37.38 37.38 0 0 0 0 74.76zm0-16.95a20.43 20.43 0 1 1 0-40.86 20.43 20.43 0 0 1 0 40.86zm0-2a18.43 18.43 0 1 0 0-36.86 18.43 18.43 0 0 0 0 36.86z" opacity=".5"></path>
        <circle cx="141.35" cy="141.76" r="10.77"></circle>
      </g>
      <g fill="#00D6C6" transform="translate(1876 990)">
        <path d="M212.72 213.15l-1.41-1.42a99.12 99.12 0 0 0 14.92-19.08l1.72 1.03a101.12 101.12 0 0 1-15.23 19.47zm25.24-42.07l-1.92-.58a99.17 99.17 0 0 0 4.12-23.88l2 .1c-.4 8.26-1.8 16.44-4.2 24.36zm2.38-49.02l-1.96.4a98.56 98.56 0 0 0-7.6-23.02l1.81-.85a100.56 100.56 0 0 1 7.75 23.47zm-21.07-44.42l-1.55 1.27a100.13 100.13 0 0 0-17.53-16.65l1.2-1.6a101.72 101.72 0 0 1 17.88 16.98zm-39.42-29.16l-.76 1.85a98.77 98.77 0 0 0-23.37-6.4l.3-1.98c8.17 1.19 16.18 3.38 23.83 6.53zm-48.52-7.1l.2 2c-8.07.8-16.01 2.58-23.64 5.32l-.68-1.88c7.79-2.8 15.89-4.62 24.12-5.44zM85.08 58.02l1.12 1.66a99.41 99.41 0 0 0-18.28 15.87l-1.49-1.34a102.55 102.55 0 0 1 18.65-16.19zM52.23 94.44l1.77.94a98.38 98.38 0 0 0-8.65 22.63l-1.95-.47a100.38 100.38 0 0 1 8.83-23.1zM40.46 142.1h2a99.32 99.32 0 0 0 3.03 24.04l-1.94.49a101.32 101.32 0 0 1-3.09-24.53zm12.06 47.59l1.76-.95a98.68 98.68 0 0 0 14.04 19.74l-1.48 1.35a100.68 100.68 0 0 1-14.32-20.14zm33.08 36.23l1.11-1.67a98.17 98.17 0 0 0 21.68 10.82l-.67 1.88a100.17 100.17 0 0 1-22.12-11.03zm46.31 16.34l.19-1.99a99.5 99.5 0 0 0 24.22-.7l.3 1.98a101.5 101.5 0 0 1-24.71.71zm48.5-7.39l-.77-1.84a98.21 98.21 0 0 0 21.02-12.05l1.2 1.6c-6.65 5-13.85 9.11-21.45 12.3z" opacity=".2"></path>
        <path d="M141.35 210.03v-2c6.66 0 13.2-.98 19.44-2.9l.58 1.92a68.26 68.26 0 0 1-20.02 2.98zm38.27-11.73l-1.12-1.66a66.65 66.65 0 0 0 14.46-13.3l1.56 1.25a68.65 68.65 0 0 1-14.9 13.71zm25.13-31.17l-1.86-.74a65.89 65.89 0 0 0 4.5-19.13l2 .17a67.89 67.89 0 0 1-4.64 19.7zm3.3-39.99l-1.95.43a65.82 65.82 0 0 0-7-18.35l1.73-.99a67.82 67.82 0 0 1 7.22 18.91zm-19.7-34.89l-1.37 1.45a66.43 66.43 0 0 0-16.09-11.28l.9-1.79a68.43 68.43 0 0 1 16.57 11.62zM152.55 74.4l-.33 1.98a66.73 66.73 0 0 0-19.69-.3l-.26-1.99a69.03 69.03 0 0 1 20.28.31zm-39.75 5.33l.84 1.82A66.35 66.35 0 0 0 97.2 92.33l-1.33-1.49a68.35 68.35 0 0 1 16.92-11.1zm-29.83 26.64l1.7 1.04a65.87 65.87 0 0 0-7.58 18.12l-1.94-.5a67.87 67.87 0 0 1 7.82-18.66zm-9.8 38.9l2-.1a66 66 0 0 0 3.9 19.26l-1.88.68a68 68 0 0 1-4.01-19.83zm13.7 37.63l1.6-1.2c3.97 5.24 8.7 9.88 14.03 13.75l-1.17 1.62a68.66 68.66 0 0 1-14.46-14.17zm32.42 23.48l.65-1.89a66.08 66.08 0 0 0 19.33 3.5l-.06 2a68.08 68.08 0 0 1-19.92-3.6zM141.35 181.14a39.38 39.38 0 1 1 0-78.76 39.38 39.38 0 0 1 0 78.76zm0-2a37.38 37.38 0 1 0 0-74.76 37.38 37.38 0 0 0 0 74.76zm0-16.95a20.43 20.43 0 1 1 0-40.86 20.43 20.43 0 0 1 0 40.86zm0-2a18.43 18.43 0 1 0 0-36.86 18.43 18.43 0 0 0 0 36.86z" opacity=".5"></path>
        <circle cx="141.35" cy="141.76" r="10.77"></circle>
      </g>
      <g fill="#F2C6F0" transform="translate(2512 1186)">
        <path d="M39.67 79.38a39.38 39.38 0 1 1 0-78.76 39.38 39.38 0 0 1 0 78.76zm0-2a37.38 37.38 0 1 0 0-74.76 37.38 37.38 0 0 0 0 74.76zm0-16.95a20.43 20.43 0 1 1 0-40.86 20.43 20.43 0 0 1 0 40.86zm0-2a18.43 18.43 0 1 0 0-36.86 18.43 18.43 0 0 0 0 36.86z" opacity=".5"></path>
        <circle cx="39.67" cy="40" r="10.77"></circle>
      </g>
      <g fill="#FFBD7C" transform="translate(2256 1142)">
        <path d="M39.96 79.65a39.38 39.38 0 1 1 0-78.76 39.38 39.38 0 0 1 0 78.76zm0-2a37.38 37.38 0 1 0 0-74.76 37.38 37.38 0 0 0 0 74.76zm0-16.95a20.43 20.43 0 1 1 0-40.86 20.43 20.43 0 0 1 0 40.86zm0-2a18.43 18.43 0 1 0 0-36.86 18.43 18.43 0 0 0 0 36.86z" opacity=".5"></path>
        <circle cx="39.96" cy="40.27" r="10.77"></circle>
      </g>
      <g fill="#F2C6F0" transform="translate(2501 1478)">
        <path d="M39.9 79.26A39.38 39.38 0 1 1 39.9.5a39.38 39.38 0 0 1 0 78.76zm0-2a37.38 37.38 0 1 0 0-74.76 37.38 37.38 0 0 0 0 74.76zm0-16.95a20.43 20.43 0 1 1 0-40.86 20.43 20.43 0 0 1 0 40.86zm0-2a18.43 18.43 0 1 0 0-36.86 18.43 18.43 0 0 0 0 36.86z" opacity=".5"></path>
        <circle cx="39.9" cy="39.88" r="10.77"></circle>
      </g>
      <g fill="#00D6C6" transform="translate(2568 1387)">
        <path d="M39.61 79.68a39.38 39.38 0 1 1 0-78.76 39.38 39.38 0 0 1 0 78.76zm0-2a37.38 37.38 0 1 0 0-74.76 37.38 37.38 0 0 0 0 74.76zm0-16.95a20.43 20.43 0 1 1 0-40.86 20.43 20.43 0 0 1 0 40.86zm0-2a18.43 18.43 0 1 0 0-36.86 18.43 18.43 0 0 0 0 36.86z" opacity=".5"></path>
        <circle cx="39.61" cy="40.3" r="10.77"></circle>
      </g>
      <g fill="#F2C6F0" transform="translate(2192 1225)">
        <path d="M39.71 78.76a39.38 39.38 0 1 1 0-78.76 39.38 39.38 0 0 1 0 78.76zm0-2a37.38 37.38 0 1 0 0-74.76 37.38 37.38 0 0 0 0 74.76zm0-16.95a20.43 20.43 0 1 1 0-40.86 20.43 20.43 0 0 1 0 40.86zm0-2a18.43 18.43 0 1 0 0-36.86 18.43 18.43 0 0 0 0 36.86z" opacity=".5"></path>
        <circle cx="39.71" cy="39.38" r="10.77"></circle>
      </g>
      <g fill="#FFBD7C" transform="translate(2057 1244)">
        <path d="M40.01 79.18a39.38 39.38 0 1 1 0-78.76 39.38 39.38 0 0 1 0 78.76zm0-2a37.38 37.38 0 1 0 0-74.76 37.38 37.38 0 0 0 0 74.76zm0-16.95a20.43 20.43 0 1 1 0-40.86 20.43 20.43 0 0 1 0 40.86zm0-2a18.43 18.43 0 1 0 0-36.86 18.43 18.43 0 0 0 0 36.86z" opacity=".5"></path>
        <circle cx="40.01" cy="39.8" r="10.77"></circle>
      </g>
      <g fill="#00D6C6" transform="translate(2429 1141)">
        <path d="M39.44 79.15a39.38 39.38 0 1 1 0-78.76 39.38 39.38 0 0 1 0 78.76zm0-2a37.38 37.38 0 1 0 0-74.76 37.38 37.38 0 0 0 0 74.76zm0-16.95a20.43 20.43 0 1 1 0-40.86 20.43 20.43 0 0 1 0 40.86zm0-2a18.43 18.43 0 1 0 0-36.86 18.43 18.43 0 0 0 0 36.86z" opacity=".5"></path>
        <circle cx="39.44" cy="39.77" r="10.77"></circle>
      </g>
    </g>
    <g class="Trinity__g Trinity__g--build" fill-rule="nonzero">
      <path fill="#D160CA" d="M2182.87 495.21h9.4v1.5h-9.4v9.4h-1.5v-9.4h-9.4v-1.5h9.4v-9.4h1.5v9.4zM2434.76 557.67h11.78v1.5h-11.78v11.78h-1.5v-11.78h-11.78v-1.5h11.78v-11.78h1.5v11.78zM2029.98 776.93h14.6v2h-14.6v14.6h-2v-14.6h-14.6v-2h14.6v-14.59h2v14.59z"></path>
      <path fill="#91D7F5" d="M2533.67 490.42v2c-1.66 0-3.55-.62-6.02-1.86a72.12 72.12 0 0 1-3.37-1.82l-3.62-2.05c-6.66-3.74-11.26-5.48-16.04-5.48-4.78 0-9.38 1.74-16.03 5.48l-3.6 2.05c-1.4.79-2.41 1.34-3.37 1.82-2.47 1.24-4.35 1.86-6 1.86-1.65 0-3.53-.62-6-1.86a72.49 72.49 0 0 1-3.37-1.82l-3.61-2.05c-6.66-3.74-11.26-5.48-16.02-5.48s-9.36 1.74-16.02 5.48l-3.61 2.05c-1.4.79-2.41 1.34-3.37 1.82-2.47 1.24-4.35 1.86-6 1.86-1.65 0-3.53-.62-6-1.86a72.68 72.68 0 0 1-3.37-1.82l-3.61-2.05c-6.67-3.74-11.26-5.48-16.02-5.48-4.75 0-9.35 1.74-16.01 5.48l-3.62 2.05c-1.38.79-2.4 1.34-3.36 1.82-2.48 1.24-4.36 1.86-6.01 1.86v-2c2.25 0 2.12.07 12-5.48 6.95-3.89 11.8-5.73 17-5.73 5.2 0 10.05 1.84 17 5.73 9.9 5.55 9.75 5.48 12 5.48s2.09.08 12-5.48c6.94-3.89 11.8-5.73 17-5.73 5.2 0 10.06 1.84 17 5.73 9.89 5.55 9.75 5.48 12 5.48s2.07.09 11.99-5.48c6.93-3.89 11.8-5.73 17.01-5.73 5.21 0 10.08 1.84 17.02 5.73 9.87 5.54 9.76 5.48 12.03 5.48z" opacity=".5"></path>
      <path fill="#00D6C6" d="M2310.37 654v2c-1.83 0-3.93-.69-6.68-2.06a80.4 80.4 0 0 1-3.76-2.03c-.19-.1-3.14-1.8-4.04-2.3-7.46-4.18-12.61-6.13-17.97-6.13-5.36 0-10.52 1.95-17.98 6.13-.9.5-3.86 2.2-4.04 2.3-1.54.88-2.68 1.5-3.75 2.03-2.76 1.37-4.85 2.06-6.68 2.06s-3.92-.69-6.68-2.06a80.56 80.56 0 0 1-3.75-2.03c-.18-.1-3.14-1.8-4.04-2.3-7.46-4.18-12.62-6.13-17.98-6.13-5.36 0-10.51 1.95-17.97 6.13-.9.5-3.85 2.2-4.04 2.3a80.4 80.4 0 0 1-3.76 2.03c-2.75 1.37-4.85 2.06-6.68 2.06s-3.93-.69-6.68-2.06a80.36 80.36 0 0 1-3.76-2.03c-.18-.1-3.13-1.8-4.03-2.3-7.46-4.18-12.62-6.13-17.98-6.13-5.36 0-10.52 1.95-17.98 6.13-.9.5-3.85 2.2-4.03 2.3-1.55.88-2.7 1.5-3.76 2.03-2.75 1.37-4.85 2.06-6.68 2.06s-3.93-.69-6.68-2.06a80.36 80.36 0 0 1-3.76-2.03c-.18-.1-3.13-1.8-4.03-2.3-7.46-4.18-12.62-6.13-17.98-6.13-5.36 0-10.52 1.95-17.98 6.13-.9.5-3.86 2.2-4.03 2.3-1.55.88-2.69 1.5-3.76 2.03-2.75 1.37-4.84 2.06-6.67 2.06v-2c1.44 0 3.28-.6 5.78-1.85a78.68 78.68 0 0 0 3.66-1.98c.17-.1 3.13-1.8 4.04-2.3 7.74-4.34 13.16-6.39 18.96-6.39 5.8 0 11.22 2.05 18.96 6.39.9.5 3.86 2.2 4.04 2.3a78.6 78.6 0 0 0 3.66 1.98c2.5 1.24 4.34 1.85 5.79 1.85 1.45 0 3.29-.6 5.79-1.85a78.6 78.6 0 0 0 3.66-1.98c.18-.1 3.14-1.8 4.04-2.3 7.74-4.34 13.16-6.39 18.96-6.39 5.8 0 11.22 2.05 18.96 6.39.9.5 3.86 2.2 4.04 2.3a78.6 78.6 0 0 0 3.66 1.98c2.5 1.24 4.34 1.85 5.79 1.85 1.45 0 3.29-.6 5.79-1.85a78.63 78.63 0 0 0 3.66-1.98c.19-.1 3.14-1.8 4.05-2.3 7.74-4.34 13.15-6.39 18.95-6.39 5.8 0 11.21 2.05 18.96 6.39.9.5 3.87 2.2 4.04 2.3 1.52.86 2.63 1.46 3.67 1.98 2.5 1.24 4.34 1.85 5.78 1.85 1.44 0 3.29-.6 5.78-1.85a78.79 78.79 0 0 0 3.67-1.98c.17-.1 3.13-1.8 4.04-2.3 7.75-4.34 13.16-6.39 18.96-6.39 5.8 0 11.21 2.05 18.95 6.39.91.5 3.86 2.2 4.05 2.3 1.52.86 2.63 1.46 3.66 1.98 2.5 1.24 4.34 1.85 5.79 1.85z" opacity=".5"></path>
      <path fill="#FFBD7C" d="M2406.33 915.4v2c-1.83 0-3.92-.69-6.67-2.06a80.5 80.5 0 0 1-3.76-2.03c-.18-.1-3.14-1.8-4.04-2.3-7.46-4.19-12.62-6.14-17.98-6.14-5.36 0-10.52 1.95-17.98 6.14-.9.5-3.86 2.2-4.03 2.3-1.55.87-2.69 1.5-3.76 2.03-2.75 1.37-4.84 2.06-6.67 2.06s-3.92-.69-6.68-2.06a80.53 80.53 0 0 1-3.75-2.03c-.18-.1-3.14-1.8-4.04-2.3-7.46-4.19-12.62-6.14-17.98-6.14-5.36 0-10.52 1.95-17.98 6.14-.9.5-3.86 2.2-4.04 2.3-1.54.87-2.68 1.5-3.75 2.03-2.76 1.37-4.85 2.06-6.68 2.06s-3.92-.69-6.68-2.06a80.53 80.53 0 0 1-3.75-2.03c-.18-.1-3.14-1.8-4.04-2.3-7.46-4.19-12.62-6.14-17.98-6.14-5.36 0-10.51 1.95-17.97 6.14-.9.5-3.85 2.19-4.04 2.3-1.55.87-2.69 1.5-3.76 2.03-2.75 1.37-4.85 2.06-6.68 2.06s-3.93-.69-6.68-2.06a80.37 80.37 0 0 1-3.76-2.03c-.19-.11-3.14-1.8-4.04-2.3-7.46-4.19-12.61-6.14-17.97-6.14-5.36 0-10.51 1.95-17.97 6.14-.9.5-3.85 2.19-4.04 2.3-1.55.87-2.69 1.5-3.76 2.03-2.75 1.37-4.85 2.06-6.68 2.06v-2c1.45 0 3.29-.6 5.79-1.85a78.6 78.6 0 0 0 3.66-1.98c.19-.1 3.14-1.8 4.05-2.3 7.74-4.35 13.15-6.4 18.95-6.4 5.8 0 11.21 2.05 18.95 6.4.91.5 3.86 2.2 4.05 2.3a78.6 78.6 0 0 0 3.66 1.98c2.5 1.24 4.34 1.85 5.79 1.85 1.45 0 3.29-.6 5.79-1.85a78.6 78.6 0 0 0 3.66-1.98c.19-.1 3.14-1.8 4.05-2.3 7.74-4.35 13.15-6.4 18.95-6.4 5.8 0 11.22 2.05 18.96 6.4.9.5 3.87 2.2 4.04 2.3 1.52.86 2.63 1.46 3.67 1.98 2.5 1.24 4.34 1.85 5.78 1.85 1.44 0 3.29-.6 5.78-1.85a78.77 78.77 0 0 0 3.67-1.98c.17-.1 3.13-1.8 4.04-2.3 7.74-4.35 13.16-6.4 18.96-6.4 5.8 0 11.22 2.05 18.96 6.4.9.5 3.87 2.2 4.04 2.3 1.52.86 2.63 1.46 3.67 1.98 2.5 1.24 4.34 1.85 5.78 1.85 1.44 0 3.28-.6 5.78-1.85a78.66 78.66 0 0 0 3.66-1.98c.17-.1 3.13-1.8 4.04-2.3 7.74-4.35 13.16-6.4 18.96-6.4 5.8 0 11.22 2.05 18.96 6.4.91.5 3.88 2.2 4.05 2.3 1.52.86 2.63 1.46 3.66 1.98 2.5 1.24 4.34 1.85 5.78 1.85z" opacity=".5"></path>
      <path fill="#00D6C6" d="M1971.45 922.38a7.66 7.66 0 1 1 0-1.5h6.72v1.5h-6.72zm443.48 77.79v1.5h-20v-1.5h20zm-40 0v1.5h-20v-1.5h20zm-40 0v1.5h-20v-1.5h20zm-40 0v1.5h-20v-1.5h20zm-40 0v1.5h-20v-1.5h20zm-40 0v1.5h-20v-1.5h20zm-40 0v1.5h-20v-1.5h20zm-40 0v1.5h-8c-4.24 0-8.33-1.38-11.68-3.92l.9-1.2a17.81 17.81 0 0 0 10.78 3.62h8zm-29.32-20.02l-1.33.7-9.32-17.7 1.33-.7 9.32 17.7zm-18.64-35.4l-1.33.7-7.13-13.55a17.8 17.8 0 0 0-2.58-3.68l1.11-1a19.3 19.3 0 0 1 2.8 3.98l7.13 13.55zm-28.8-23.87v1.5h-20v-1.5h20zm-40 0v1.5h-20v-1.5h20z"></path>
      <path fill="#D160CA" d="M2579.46 930.13v2h-80.13a16 16 0 0 1-14.2-8.54l-83.47-161.12a14.06 14.06 0 0 0-12.44-7.47h-80.13v-2h80.13c5.95 0 11.41 3.28 14.2 8.54l83.48 161.12a14 14 0 0 0 12.43 7.47h80.13zM2187 755v-2h135.28c5.21 0 10-2.87 12.43-7.46l39.5-76a16.08 16.08 0 0 1 14.21-8.54h90.14v2h-90.14c-5.2 0-10 2.87-12.43 7.46l-39.5 76a16.06 16.06 0 0 1-14.21 8.54H2187z"></path>
      <path fill="#00D6C6" d="M2465 757.99v-1.5h20v1.5h-20zm40 0v-1.5h20v1.5h-20zm40 0v-1.5h20v1.5h-20zm39.8-3.3l-.92-1.2c1.6-1.23 2.92-2.8 3.87-4.6l6.35-12.05 1.33.7-6.36 12.05c-1.05 2-2.5 3.72-4.27 5.1zm22.31-32.19l-.57-1.38c1.91-.79 3.95-1.19 6.03-1.18h14.11v1.5h-14.11c-1.88 0-3.73.36-5.46 1.06zm39.57-1.06v-1.5h20v1.5h-20zm46.01 5.39a6.21 6.21 0 1 1 0-12.42 6.21 6.21 0 0 1 0 12.42z"></path>
      <path fill="#FFE08C" d="M2225.51 526.56a3.99 3.99 0 1 1 0-7.98 3.99 3.99 0 0 1 0 7.98zm-120.38-2.99v-2h108.77v2h-108.77zm252.37 2.99a3.99 3.99 0 1 1 0-7.98 3.99 3.99 0 0 1 0 7.98zm-11.61-4.99v2h-108.77v-2h108.77zm143.6 4.99a3.99 3.99 0 1 1 0-7.98 3.99 3.99 0 0 1 0 7.98zm120.38-4.99v2H2501.1v-2h108.77zm-240.76 2v-2h108.77v2h-108.77zM2172.36 845.69a7.26 7.26 0 1 1 0-14.52 7.26 7.26 0 0 1 0 14.52zm-16.62-8.26v2h-148.76v-2h148.76zm198.61 8.26a7.26 7.26 0 1 1 0-14.52 7.26 7.26 0 0 1 0 14.52zm170.38-8.26v2h-153.77v-2h153.77zm-335.76 2v-2h148.77v2h-148.77zm351.99 6.26a7.26 7.26 0 1 1 0-14.52 7.26 7.26 0 0 1 0 14.52zm16.62-6.26v-2h148.76v2h-148.76z" opacity=".5"></path>
      <path fill="#91D7F5" d="M2075.17 557.95h78.35c4.77 0 9.14 2.65 11.37 6.86l8.5 16.18a10.85 10.85 0 0 0 9.61 5.79h131.64v2H2183c-4.77 0-9.15-2.63-11.38-6.85l-8.5-16.18a10.86 10.86 0 0 0-9.6-5.8h-78.35a4.88 4.88 0 1 1 0-2zm261.7 30.83v-2h148.76v2h-148.76zm-11.19 2.99a3.99 3.99 0 1 1 0-7.98 3.99 3.99 0 0 1 0 7.98zm182.87-2.99v-2h148.77v2h-148.77zm-11.18 2.99a3.99 3.99 0 1 1 0-7.98 3.99 3.99 0 0 1 0 7.98z"></path>
      <path fill="#D160CA" d="M2623.7 504.2l1.22-.9 14.05 19.27-14.05 19.25-1.22-.88 13.41-18.37-13.4-18.38zm-498.57 90.63l-1.22.88-16.3-22.34 16.3-22.34 1.22.88-15.66 21.46 15.66 21.46zm514.72 159.56l1.22-.88 21.15 28.98-21.15 28.98-1.22-.88 20.51-28.1-20.5-28.1z"></path>
      <g transform="translate(2579 873)">
        <mask id="j" fill="#fff">
          <use xlink:href="#i"></use>
        </mask>
        <use fill="#FFF" fill-rule="nonzero" opacity=".5" xlink:href="#i"></use>
        <g fill-rule="nonzero" mask="url(#j)">
          <path fill="#AD4936" d="M48.44 13.43c-14.29 1.66-21.32 16.13-22.29 22.68-.97 6.55-12.68 6.91-13.57 12.18-.89 5.27 7 6.09 6.8 7.37-.2 1.28-4.85 15.55-.19 21.1 5.72 6.82 18.23 4.68 19.1 7.27.87 2.59 1.36 22.83 1.36 22.83l30-1.87 1.06-86.58-22.27-4.98z"></path>
          <path fill="#010758" d="M29.49 43.65a2.68 2.68 0 1 1 0-5.36 2.68 2.68 0 0 1 0 5.36zM18.15 58.97l1.06-1.06.45.39c.4.31.86.62 1.39.91 3 1.66 6.54 1.96 10.53 0l.66 1.34c-4.46 2.2-8.52 1.86-11.92-.02a10 10 0 0 1-2.17-1.56zm40.76 47.95C33.2 95.28 52.8 83.54 45.7 69.48c-7.1-14.06 13.06-24.75 0-35.1-13.06-10.35-6.11-24.64-6.11-24.64s13 .52 17.89.17c4.89-.35 22.93-1.64 30.65 20 7.72 21.64-4.59 28.71.3 34.69 4.89 5.98 12.55 18.47 4 31.41-8.55 12.94-23.04 15.65-33.52 10.91zM39 41.06c-5.19-3.95-10.38-7.25-10.38-7.25l.8-2.39s5.73 1.74 9.58 9.64z"></path>
        </g>
      </g>
      <g transform="translate(2083 702)">
        <mask id="l" fill="#fff">
          <use xlink:href="#k"></use>
        </mask>
        <use fill="#FFF" fill-rule="nonzero" opacity=".5" xlink:href="#k"></use>
        <g fill-rule="nonzero" mask="url(#l)">
          <path fill="#AD4936" d="M89 73.66c-9.85 7-14.29 7.09-11.61 14.91.3.89.65 1.8 1 2.72l-32.87 2.94c-.74-2.19-1.47-4.3-2.16-6.17.15-.44 2.75-8 6.35-13 3.6-5 3.25-6.74 3.25-6.74s-9.48-1.93-11.06-9.67 7.29-7.23 7.29-7.23-6-6.71-2.76-15c3.53-9-11.8-19-1.94-25.24a30.26 30.26 0 0 1 15.45.58c16.3 5.56 12.18 25.6 16.68 25.93 5.53.42 10.82 2.24 12.58 5.51 1.76 3.27-2.81 4.32-2 6.42.09.24.82 2 1.1 2.49 0 0-6.89 4.48-11.63 4.63 0 0 4.41 6.08 12.66 1.77 1.92 4.64 5.34 11.1-.33 15.15z"></path>
          <path fill="#010758" d="M49.68 75.08c-3.6 5-6.2 12.54-6.35 13l-.74-2c-3.65-9.47-28-16.2-27.6-39.57.36-20.87 15.27-32.46 29.47-35.34-9.86 6.23 5.47 16.26 1.94 25.24-3.26 8.3 2.76 15 2.76 15s-8.87-.51-7.29 7.22c1.58 7.73 11.06 9.67 11.06 9.67s.47 1.63-3.25 6.78zm19.76-31.81a2.68 2.68 0 1 1 0-5.36 2.68 2.68 0 0 1 0 5.36zM57.32 41a26.06 26.06 0 0 1 11.26-12.19l1.92 3.51L57.32 41z"></path>
          <path fill="#D160CA" d="M85.89 106.56L43.2 120.14s1.65-16.57 2.29-25.9l32.87-3c2.2 5.25 4.71 10.37 7.53 15.32z"></path>
        </g>
      </g>
      <g transform="translate(2475 597)">
        <mask id="n" fill="#fff">
          <use xlink:href="#m"></use>
        </mask>
        <use fill="#FFF" fill-rule="nonzero" opacity=".5" xlink:href="#m"></use>
        <g fill-rule="nonzero" mask="url(#n)">
          <path fill="#FFBD7C" d="M91.61 91.38l-.6.36-24.24 14.94-.09-.06a56.2 56.2 0 0 1-9.53-9.15 107 107 0 0 1-6.69-8.66c-6.73 3-13.08 3.54-15.62.79-1.61-1.75-2.55-6.58-3.42-9.91 9.29-3.82 8.56-9 8.56-9-5.15 3.33-8.63 4.65-10.1 4.5-.37-2.2-.57-3.82-.62-4.14-.16-1-7.47 1-8.45-3.24-.98-4.24 9.86-13 8.94-18.36-.8-4.64-1.43-10.63.57-16 1.1-3 3.05-5.64 5.6-7.58C58.84 8.2 78.08 76.21 78.36 77.18c0 0 .86 1.23 2.25 3 2.52 3.27 6.8 8.31 11 11.2z"></path>
          <path fill="#010758" d="M80.61 80.23L57.15 97.47s.31 16 0 15.45c-.31-.55 34.46-21.54 34.46-21.54l-11-11.15zM34.85 58.84a2.68 2.68 0 1 1 0-5.36 2.68 2.68 0 0 1 0 5.36zm-3.63-11.02l-.12-1.5c4.75-.4 9.46 1.16 13.04 4.3l-1 1.13a16.01 16.01 0 0 0-11.92-3.93z"></path>
          <path fill="#AD4936" d="M20.3 24.93c1.73 8.1 6 8.91 9.92 8.36 0 0 3.06 6.26 12.71 6.12 9.65-.14 12.52 12.91 12.52 12.91A3.69 3.69 0 0 1 61 51.19c3.51 2.41 2.65 10.24-2.31 13.28 0 0 9.65 15 16.6 14.25 6.95-.75.28-6.81 5.53-14.9s11.78-24.41 1.71-33.07c0 0 3.48-4-3.94-10.43s-13.8-3.9-13.8-3.9-6-9.71-19-6.34c-13 3.37-10.92 6.76-18.3 4.78-5.82-1.56-8.17 5.49-7.19 10.07z"></path>
        </g>
      </g>
    </g>
    <g class="Trinity__g Trinity__g--dev">
      <path fill="url(#o)" d="M932 1270l-932 3.07L415.41 0h101.08z" transform="translate(1891 262)"></path>
      <path fill="#D160CA" d="M2218.59 385.8l-1.22.9-8.48-11.64 8.48-11.62 1.22.88-7.84 10.74 7.84 10.75zm276.1-14.32l1.6-1.18 10.85 14.86-10.84 14.86-1.62-1.18 9.98-13.68-9.98-13.68z"></path>
      <path fill="#91D7F5" d="M2254.9 340.57h5.55v2h-5.55v5.56h-2v-5.56h-5.56v-2h5.56v-5.56h2v5.56zM2295.52 370.16a2.19 2.19 0 1 1 0-4.38 2.19 2.19 0 0 1 0 4.38zm-55.38-1.19v-2h48.76v2h-48.76zm117.37 1.19a2.19 2.19 0 1 1 0-4.38 2.19 2.19 0 0 1 0 4.38zm-6.62-3.19v2h-48.76v-2h48.76zm68.61 3.19a2.19 2.19 0 1 1 0-4.38 2.19 2.19 0 0 1 0 4.38zm55.38-3.19v2h-48.77v-2h48.77zm-110.76 2v-2h48.77v2h-48.77z"></path>
      <path fill="#00D6C6" d="M2265.51 409.48a2.95 2.95 0 1 1 0-5.9 2.95 2.95 0 0 1 0 5.9zm-80.38-1.95v-2h68.77v2h-68.77zm172.37 1.95a2.95 2.95 0 1 1 0-5.9 2.95 2.95 0 0 1 0 5.9zm-11.61-3.95v2h-68.77v-2h68.77zm103.6 3.95a2.95 2.95 0 1 1 0-5.9 2.95 2.95 0 0 1 0 5.9zm80.38-3.95v2h-68.77v-2h68.77zm-160.76 2v-2h68.77v2h-68.77z"></path>
      <path fill="#D160CA" d="M2245.51 456.78a3.99 3.99 0 1 1 0-7.98 3.99 3.99 0 0 1 0 7.98zm-100.38-2.99v-2h88.77v2h-88.77zm212.37 2.99a3.99 3.99 0 1 1 0-7.98 3.99 3.99 0 0 1 0 7.98zm-11.61-4.99v2h-88.77v-2h88.77zm123.6 4.99a3.99 3.99 0 1 1 0-7.98 3.99 3.99 0 0 1 0 7.98zm100.38-4.99v2h-88.77v-2h88.77zm-200.76 2v-2h88.77v2h-88.77z" opacity=".5"></path>
      <g>
        <path fill="#010758" d="M2410.4 196.74h-70.2c.4-19.92-9.24-44.5-10.06-48.91-.78-4.19 2.78-12.06 8.51-18.92 7-8.41 8.68-11.64 8.68-11.64s13.6 15.79 51.85 20.16a70.78 70.78 0 0 1-.31 3.6c-2.79 24.35 21.85 18.02 11.53 55.71z"></path>
        <path fill="#00AEA0" stroke="#00AEA0" stroke-width="1.5" d="M2285.21 266.23a166.48 166.48 0 0 0-3.09 7.16c21.25 9.39 31.41 26.16 41.15 27.81-4.94.21-11.22 9.57-9.61 13.67-34.67-8.94-46.41-10.1-61.49-26.1-12.16-12.91 1.64-49.13 16.18-74.75V214c7.31-12.88 14.81-23.08 19.29-26.31a59 59 0 0 1 8.06-4.8c13.1-6.57 30.52-10.74 43.81-14.16l.91-.23h37.39c16.33 4.22 39.38 9.54 52.78 19.19a261.92 261.92 0 0 1 20.49 16.94c23.74 21.55 55.12 56.79 36.28 76.37-13.43 13.95-28.13.75-41.58-14.77H2285.2z"></path>
        <path fill="#FF927C" d="M2341.08 164.8a55.7 55.7 0 0 1-10.91-24.41c-3-16.52 2.41-46.35 28.65-46.35s31.64 29.83 28.66 46.35a55.61 55.61 0 0 1-10.91 24.41c-1.96 7.61 0 18.99 0 18.99a24.28 24.28 0 0 1-35.49 0s2-11.38 0-18.99z"></path>
        <path fill="#00838C" d="M2479.15 254.56l-.74 1.3c-2.28-1.3-16.2-9.38-19.97-11.52a255.51 255.51 0 0 0-17.45-9.23l.64-1.36c4.92 2.3 10.39 5.22 17.55 9.29 3.78 2.14 17.7 10.22 19.97 11.52zm-175.09-27.17l1.34.68c.16-.32-8.55 16.26-11.57 22.18-.72 1.4-1.4 2.77-2.07 4.1a415.72 415.72 0 0 0-4.53 9.3l-1.36-.63a417.19 417.19 0 0 1 6.63-13.46c3.02-5.92 11.73-22.5 11.56-22.17zm112.85-3.98l.78-1.28c3.2 1.94 6.3 4.06 9.27 6.33l-.92 1.2a103.25 103.25 0 0 0-9.13-6.25z"></path>
        <path fill="#FF927C" d="M2386.4 247c-5.2.38-7.42-1.27-8.38-2.7a1.61 1.61 0 0 1 1-2.42c6.24-1.3 16.53-5.36 18.38-6.1 6.17-5.47 9.3-6.45 21.61-7.43 6.1-.35 13.59 1.99 22.3 6.08-4.1 10.52-9.53 15.24-9.53 15.24-.97-1.1-1.93-2.17-2.87-3.18-4.75 2.61-13.4 5.74-16.8 7.73-2.31 1.35-7 4.81-10.79 7.64-4.67 3.55-10.6 5-16.38 4-.82-.15-1.63-.36-2.42-.63-2.22-.78-4.26-2-6-3.58a2.15 2.15 0 0 1-.17-3c1.92-2.3 5.86-6.99 10.04-11.65zm-24.4 75.24c0 .76-.38 1.47-1 1.9a2.35 2.35 0 0 1-3.21-.44c-1.19-1.5-3-3.82-4.9-6.34-3.19-4.26-6.28-8.14-6.28-8.14.42 4.14 6.1 14.71 8.66 19.3a2.75 2.75 0 1 1-4.54 3.08c-5.8-7.14-12.57-18.73-13-19.45l8.72 20.25a2.71 2.71 0 0 1-4.67 2.69c-5.91-8.16-13-23-12.39-18.29.4 3.09 3.4 12.45 4.64 16.24.07.2.1.4.1.62a2 2 0 0 1-3.8 1c-5.25-9.64-6-17-11.91-18.51l-4.75-1.24c-1.61-4.1 4.67-13.46 9.61-13.67.4.07.8.11 1.19.13 13.26.54 22.16-4 26.86 1.44 3.72 4.28 8.55 14.38 10.43 18.48.15.3.23.62.24.95z"></path>
        <path fill="#EF5C8A" d="M2396.29 242.55l1 1.12c-5.76 5.23-11.9 12.33-18.04 20.13l-1.18-.92c6.19-7.87 12.37-15.02 18.22-20.33zm4.63 2.8l1.06 1.06a112.12 112.12 0 0 0-.92.93 371.77 371.77 0 0 0-11.6 12.45 130.4 130.4 0 0 0-5.24 6.29l-1.18-.92a131.8 131.8 0 0 1 5.3-6.36 347.1 347.1 0 0 1 12.58-13.45zm4.1 3.79l1.06 1.06a65.48 65.48 0 0 0-.79.8 219.85 219.85 0 0 0-10.75 11.73 87.1 87.1 0 0 0-3 3.79l-1.2-.9c.89-1.2 1.91-2.49 3.05-3.86a211.35 211.35 0 0 1 11.63-12.63zM2374.24 166.36l1.1 1.02c-5.16 5.64-10.96 8.83-16.55 8.83-5.55 0-11.11-3.04-16.26-8.56l1.1-1.02c4.89 5.24 10.09 8.08 15.16 8.08 5.11 0 10.54-2.99 15.45-8.35zm-10.02-11.82c-.05-.46-.23-1.08-.66-2.42l1.42-.46c.47 1.44.66 2.1.73 2.7.12 1-.2 1.72-1.1 1.88a5.54 5.54 0 0 0-2.28.85l-.27.2c-.88.6-1.65.83-3.26.83-1.61 0-2.38-.23-3.26-.84l-.28-.19-.27-.18c-.49-.3-1.07-.5-2.01-.67-1.19-.21-1.32-1.17-.92-2.73.16-.62 1.18-3.72 1.41-4.52.8-2.68 1.3-5.14 1.48-7.77l1.5.1c-.2 2.75-.71 5.32-1.54 8.1-.25.83-1.25 3.9-1.4 4.47-.1.41-.15.71-.15.9a6.88 6.88 0 0 1 2.75 1.07l.28.19c.62.43 1.1.57 2.41.57s1.78-.14 2.4-.57l.28-.2.34-.22a6.86 6.86 0 0 1 2.42-.85c0-.05 0-.13-.02-.24zm4.03 5.19a.3.3 0 0 1 .49.33 10.75 10.75 0 0 1-19.88 0 .3.3 0 0 1 .48-.33 14 14 0 0 0 9.43 3.23 14 14 0 0 0 9.48-3.23z"></path>
        <path fill="#003F5E" d="M2345.25 147.77a2.26 2.26 0 1 1 0-4.52 2.26 2.26 0 0 1 0 4.52zm27.09 0a2.26 2.26 0 1 1 0-4.52 2.26 2.26 0 0 1 0 4.52zm-35.59-7.63l-.98-1.74a24.83 24.83 0 0 1 17.03-2.74l-.38 1.96a22.83 22.83 0 0 0-15.67 2.52zm45.1-1.74l-1 1.74a22.83 22.83 0 0 0-15.66-2.52l-.38-1.96a24.83 24.83 0 0 1 17.03 2.74z"></path>
        <path fill="#010758" d="M2399.18 137.43c-38.25-4.37-51.85-20.16-51.85-20.16a175.64 175.64 0 0 0-12 13.18c-5.74 6.86-4.42 11.76-3.64 16 .53 2.84 5 11.75 9.4 20.31 3.5 6.73 2.28 23 2.13 30-.29 14.19-8.47 31.84-22.79 32.32-35.16 1.19-30.29-39.52-15.27-60.54 14.22-19.91 6.53-40.9 15.66-57.06 9.27-16.38 17.29-14.37 17.29-14.37s2.76-12.79 27.63-10.59c24.31 2.12 34.88 27.48 33.44 50.91z"></path>
        <path fill="#FF927C" d="M2331.92 135.7l2.27 17.18c-5.33-1.07-12.36-12.31-9.41-16.39 2.95-4.08 7.14-.79 7.14-.79zm53.81 0s4.19-3.29 7.14.79c2.95 4.08-4.08 15.32-9.41 16.39l2.27-17.18z"></path>
        <g>
          <path fill="#010758" d="M2441.33 245.71h-167.66a5.88 5.88 0 0 0-5.83 6.63l11.42 89.23h156.35l11.56-89.22a5.89 5.89 0 0 0-5.84-6.64z"></path>
          <path fill="url(#p)" d="M99.59 50.14l-.01-.01-.03-.01a.11.11 0 0 1-.03-.1l.78-4.72 3.62 3.62-3.77 1.6-.03.01h-.02l-.02-.01c-.13-.15-.3-.28-.5-.38zm5.26-.3l3.87 3.88c.8.8 1.21 1.21 1.36 1.68l.05.2-9.26-3.92h-.02c-.03-.02-.08-.04-.08-.07 0-.04.05-.06.09-.07l3.99-1.7zm5.12 7.01c-.2.38-.59.77-1.25 1.43l-4.37 4.37-5.65-1.18h-.03c-.05-.01-.1-.02-.1-.07a1.7 1.7 0 0 0-.66-1.2c-.02-.01-.01-.05 0-.08v-.02l1.06-6.52v-.03c0-.05.02-.1.06-.1.48-.07.89-.3 1.16-.67l.03-.03c.03-.01.07 0 .1.02l9.65 4.08zm-6.62 6.8l-7.19 7.19 1.23-7.56v-.01l.01-.03c.01-.03.04-.04.06-.05h.01c.28-.11.5-.3.7-.52.02-.03.05-.05.09-.06h.03l5.06 1.04zm-8.7 8.7l-.82.82-8.95-12.94-.01-.02-.03-.06.02-.04.01-.01.08-.13.02-.03c.01-.03.03-.05.05-.06h.08l9.92 2.04.07.03c.02.02.02.03.02.05v.02c.15.5.52.95 1.03 1.15.03.02.01.05 0 .08l-.01.05-1.49 9.06zm-1.7 1.7c-.6.59-.95.9-1.35 1.03a2 2 0 0 1-1.2 0c-.47-.15-.87-.55-1.68-1.36l-8.99-8.99 2.35-3.64.04-.05c.02-.02.06 0 .09 0a2.35 2.35 0 0 0 1.64-.08c.02-.01.05-.02.07 0l.03.03 9 13.06zM78.86 63.86L76.8 61.8l4.07-1.74h.04c.03 0 .05.03.07.06l.01.02.12.16.01.02v.05l-2.26 3.5zM75.9 60.9l-2.61-2.61c-.45-.45-.77-.77-1-1.05l7.94 1.65h.03c.05.01.1.02.1.07s-.05.07-.1.09l-.03.01-4.33 1.84zm-4.06-5a2 2 0 0 1 .1-.5c.14-.46.54-.86 1.35-1.67l3.34-3.34a2175.53 2175.53 0 0 0 4.62 6.69c.03.04.06.08.03.1a2.74 2.74 0 0 0-.45.6h-.04l-8.95-1.88zm5.68-6.4l4.5-4.5c.41.2 1.95.84 3.32 1.42a571.98 571.98 0 0 1 2.36 1.03v.06a2 2 0 0 0 .52 1.83c.03.02 0 .07-.02.1l-.02.03-4.56 7.06c0 .02-.02.04-.04.05h-.09a2.27 2.27 0 0 0-.54-.08c-.16 0-.34.04-.52.07h-.06a.21.21 0 0 1-.04-.06l-4.8-7.01zm5.4-5.4l5.81-5.81c.8-.8 1.21-1.21 1.68-1.36a2 2 0 0 1 1.2 0c.47.15.87.55 1.68 1.36l1.26 1.26-4.14 6.4a.15.15 0 0 1-.04.05c-.02.02-.06 0-.09 0a2.1 2.1 0 0 0-1.92.37c-.03.03-.07.01-.1 0l-5.34-2.27zm12.5-3.68l3.82 3.82-.92 5.7v.05c-.01.02-.03.03-.06.03h-.02a1.83 1.83 0 0 0-.58.32h-.05l-5.81-2.48h-.02c-.03-.02-.08-.04-.08-.08a2.2 2.2 0 0 0-.3-.91c-.03-.05-.06-.1-.04-.14l4.06-6.3zm-3.93 8.61l5.46 2.31c.03.01.06.03.07.06a.1.1 0 0 1 0 .06c-.01.08-.03.17-.03.26v.15c0 .04-.04.06-.07.07h-.01l-12.15 5.18c-.02 0-.03 0-.05-.02-.03-.03 0-.07.02-.1l.02-.03 4.48-6.94v-.01c.04-.04.07-.09.11-.09h.05l.28.03a2.03 2.03 0 0 0 1.72-.93c.03-.02.07-.01.1 0zm-6.24 9.19l12.28-5.24.03.02.18.15.03.02c.02.01.05.03.05.05v.03l-1.05 6.46v.03c-.01.05-.02.1-.07.1a1.73 1.73 0 0 0-1.38.86c-.01.02-.02.04-.05.06h-.07l-9.79-2.02-.16-.52z" transform="translate(2267 245)"></path>
        </g>
      </g>
    </g>
    <rect class="Trinity__g Trinity__g--edge Trinity__g--nav" opacity="0" width="100%" height="100" transform="translate(0 980)" fill="url(#gradient-edge)"></rect>
  </g>
</svg>