<?xml version="1.0" encoding="utf-8"?>
<!-- Generator: Adobe Illustrator 24.2.0, SVG Export Plug-In . SVG Version: 6.00 Build 0)  -->
<svg version="1.1" id="proofLogo" xmlns="http://www.w3.org/2000/svg" xmlns:xlink="http://www.w3.org/1999/xlink" x="0px" y="0px"
	 viewBox="0 0 380 135.5" style="enable-background:new 0 0 380 135.5;" xml:space="preserve">
<path id="XMLID_1_" d="M41.9,135.4c-11.3-0.4-20.6-3.5-27.8-9.3c-1.4-1.1-4.7-4.4-5.8-5.8C5.4,116.6,3.4,113,2,109
	c-4.1-12.3-2-28.4,6-46.1C14.9,47.8,25.5,32.8,44,12C46.7,8.9,54.8,0,54.9,0c0,0-0.4,0.8-1,1.7C49.1,9.8,45,19.2,42.7,27.5
	C39.1,40.7,39.5,52,44,60.8c3.1,6,8.3,11.3,14.2,14.2c10.3,5.1,25.5,5.5,43.9,1.2c1.3-0.3,64.3-17,140-37.2
	C318,18.8,380,2.3,380,2.3S204,77.6,112.6,116.7c-14.5,6.2-18.3,7.7-25.1,10.1C70.1,132.9,54.5,135.9,41.9,135.4z"/>
</svg>
