<?xml version="1.0" encoding="utf-8"?>
<!-- Generator: Adobe Illustrator 24.2.0, SVG Export Plug-In . SVG Version: 6.00 Build 0)  -->
<svg version="1.1" id="Layer_1" xmlns="http://www.w3.org/2000/svg" xmlns:xlink="http://www.w3.org/1999/xlink" x="0px" y="0px"
	 viewBox="0 0 5225.3 1990" style="enable-background:new 0 0 5225.3 1990;" xml:space="preserve">
<style type="text/css">
	.st0{fill-rule:evenodd;clip-rule:evenodd;fill:url(#SVGID_1_);fill-opacity:0;}
	.st1{fill:url(#SVGID_2_);}
	.st2{fill:url(#SVGID_3_);}
	.st3{fill:#FFFFFF;}
</style>
<linearGradient id="SVGID_1_" gradientUnits="userSpaceOnUse" x1="2125.9741" y1="1105.38" x2="2126.1565" y2="1105.38" gradientTransform="matrix(3742 0 0 -100 -7953366 111568)">
	<stop  offset="0" style="stop-color:#4F005E"/>
	<stop  offset="1" style="stop-color:#33065B"/>
</linearGradient>
<rect x="511" y="980" class="st0" width="3742" height="100"/>
<linearGradient id="SVGID_2_" gradientUnits="userSpaceOnUse" x1="2126.0903" y1="1100.0348" x2="2126.2727" y2="1100.0348" gradientTransform="matrix(5120 0 0 -767.0006 -10883505 845209.6875)">
	<stop  offset="0" style="stop-color:#4F005E"/>
	<stop  offset="1" style="stop-color:#33065B"/>
</linearGradient>
<path class="st1" d="M512,974.6H0V1990l512-0.2c0,0,365.7,15.7,800.5-214c263.7-139.3,593.4,56,800.7,36.3
	c181-17.2,178.5-82.2,347.8-121.4s276.6,83.9,513.4-89.2c172.6-126.2,491.7,215.1,896.7,306.3s777-513.5,841-659.1
	c42.7-97.1,178.7-188.4,408-274H512z"/>
<linearGradient id="SVGID_3_" gradientUnits="userSpaceOnUse" x1="2126.2866" y1="1100.0944" x2="2126.0977" y2="1100.0944" gradientTransform="matrix(5120 0 0 -880.2572 -10883505 969139.9375)">
	<stop  offset="0" style="stop-color:#210047"/>
	<stop  offset="1" style="stop-color:#020758"/>
</linearGradient>
<path class="st2" d="M1893.1,333.8h3332.1v880c-433.7-353-511.3-179-977.7-87c-310.9,61.3-605.9,90.3-884.8,87
	c-183-25.3-387.5-77.2-613.4-155.5c-225.9-78.3-511.3-71.5-856.3,20.5c-296.6,68.7-618.5,83.7-965.5,45c-520.5-58-800.2,90-927.7,90
	v-880H1893.1z"/>
<path class="st3" d="M0,0v672.5c0,0,466.6,11.5,1021.2-156.5c336.4-101.9,670.7,48.2,1173,22.9s405.7-122.1,794.8-122.1
	s727.2-87,1243.8-20.3S5225.3,106.1,5225.3,0H0z"/>
</svg>
